<?xml version="1.0" encoding="UTF-8" standalone="yes"?><svg xmlns="http://www.w3.org/2000/svg" xmlns:xlink="http://www.w3.org/1999/xlink" height="345pt" style="width:871px;height:345px;" version="1.1" viewBox="0 0 871 345" width="871pt"><defs><filter height="300%" id="f1" width="300%" x="-1" y="-1"><feGaussianBlur result="blurOut" stdDeviation="2.0"/><feColorMatrix in="blurOut" result="blurOut2" type="matrix" values="0 0 0 0 0 0 0 0 0 0 0 0 0 0 0 0 0 0 .4 0"/><feOffset dx="4.0" dy="4.0" in="blurOut2" result="blurOut3"/><feBlend in="SourceGraphic" in2="blurOut3" mode="normal"/></filter></defs><g><rect fill="#FEFECE" filter="url(#f1)" height="73.6094" style="stroke: #A80036; stroke-width: 1.5;" width="304" x="6" y="8"/><ellipse cx="94.75" cy="24" fill="#ADD1B2" rx="11" ry="11" style="stroke: #A80036; stroke-width: 1.0;"/><path d="M97.7188,29.6406 Q97.1406,29.9375 96.5,30.0859 Q95.8594,30.2344 95.1563,30.2344 Q92.6563,30.2344 91.3359,28.5859 Q90.0156,26.9375 90.0156,23.8125 Q90.0156,20.6875 91.3359,19.0313 Q92.6563,17.375 95.1563,17.375 Q95.8594,17.375 96.5078,17.5313 Q97.1563,17.6875 97.7188,17.9844 L97.7188,20.7031 Q97.0938,20.125 96.5,19.8516 Q95.9063,19.5781 95.2813,19.5781 Q93.9375,19.5781 93.25,20.6484 Q92.5625,21.7188 92.5625,23.8125 Q92.5625,25.9063 93.25,26.9766 Q93.9375,28.0469 95.2813,28.0469 Q95.9063,28.0469 96.5,27.7734 Q97.0938,27.5 97.7188,26.9219 L97.7188,29.6406 Z "/><text fill="#000000" font-family="sans-serif" font-size="12" lengthAdjust="spacingAndGlyphs" textLength="118" x="115.25" y="28.1543">QSyntaxHighlighter</text><line style="stroke: #A80036; stroke-width: 1.5;" x1="7" x2="309" y1="40" y2="40"/><line style="stroke: #A80036; stroke-width: 1.5;" x1="7" x2="309" y1="48" y2="48"/><ellipse cx="17" cy="59.9023" fill="#84BE84" rx="3" ry="3" style="stroke: #038048; stroke-width: 1.0;"/><text fill="#000000" font-family="sans-serif" font-size="11" lengthAdjust="spacingAndGlyphs" textLength="278" x="26" y="62.2104">PlantUmlHighLighter(QTextDocument* document)</text><ellipse cx="17" cy="72.707" fill="#84BE84" rx="3" ry="3" style="stroke: #038048; stroke-width: 1.0;"/><text fill="#000000" font-family="sans-serif" font-size="11" lengthAdjust="spacingAndGlyphs" textLength="226" x="26" y="75.0151">void highlightBlock(const QString &amp;text)</text><rect fill="#FEFECE" filter="url(#f1)" height="60.8047" style="stroke: #A80036; stroke-width: 1.5;" width="252" x="345" y="154.5"/><ellipse cx="383.85" cy="170.5" fill="#B4A7E5" rx="11" ry="11" style="stroke: #A80036; stroke-width: 1.0;"/><path d="M379.7719,166.2656 L379.7719,164.1094 L387.1625,164.1094 L387.1625,166.2656 L384.6938,166.2656 L384.6938,174.3438 L387.1625,174.3438 L387.1625,176.5 L379.7719,176.5 L379.7719,174.3438 L382.2406,174.3438 L382.2406,166.2656 L379.7719,166.2656 Z "/><text fill="#000000" font-family="sans-serif" font-size="12" font-style="italic" lengthAdjust="spacingAndGlyphs" textLength="167" x="403.15" y="174.6543">PlantUmlQEditorHighlighter</text><line style="stroke: #A80036; stroke-width: 1.5;" x1="346" x2="596" y1="186.5" y2="186.5"/><line style="stroke: #A80036; stroke-width: 1.5;" x1="346" x2="596" y1="194.5" y2="194.5"/><ellipse cx="356" cy="206.4023" fill="#84BE84" rx="3" ry="3" style="stroke: #038048; stroke-width: 1.0;"/><text fill="#000000" font-family="sans-serif" font-size="11" lengthAdjust="spacingAndGlyphs" textLength="226" x="365" y="208.7104">void highlightBlock(const QString &amp;text)</text><rect fill="#FEFECE" filter="url(#f1)" height="86.4141" style="stroke: #A80036; stroke-width: 1.5;" width="304" x="6" y="142"/><ellipse cx="119.75" cy="158" fill="#ADD1B2" rx="11" ry="11" style="stroke: #A80036; stroke-width: 1.0;"/><path d="M122.7188,163.6406 Q122.1406,163.9375 121.5,164.0859 Q120.8594,164.2344 120.1563,164.2344 Q117.6563,164.2344 116.3359,162.5859 Q115.0156,160.9375 115.0156,157.8125 Q115.0156,154.6875 116.3359,153.0313 Q117.6563,151.375 120.1563,151.375 Q120.8594,151.375 121.5078,151.5313 Q122.1563,151.6875 122.7188,151.9844 L122.7188,154.7031 Q122.0938,154.125 121.5,153.8516 Q120.9063,153.5781 120.2813,153.5781 Q118.9375,153.5781 118.25,154.6484 Q117.5625,155.7188 117.5625,157.8125 Q117.5625,159.9063 118.25,160.9766 Q118.9375,162.0469 120.2813,162.0469 Q120.9063,162.0469 121.5,161.7734 Q122.0938,161.5 122.7188,160.9219 L122.7188,163.6406 Z "/><text fill="#000000" font-family="sans-serif" font-size="12" lengthAdjust="spacingAndGlyphs" textLength="68" x="140.25" y="162.1543">Highlighter</text><line style="stroke: #A80036; stroke-width: 1.5;" x1="7" x2="309" y1="174" y2="174"/><rect fill="none" height="6" style="stroke: #C82930; stroke-width: 1.0;" width="6" x="14" y="182.9023"/><text fill="#000000" font-family="sans-serif" font-size="11" lengthAdjust="spacingAndGlyphs" textLength="234" x="26" y="188.2104">PlantUmlQEditorHighlighter m_highlighter</text><line style="stroke: #A80036; stroke-width: 1.5;" x1="7" x2="309" y1="194.8047" y2="194.8047"/><ellipse cx="17" cy="206.707" fill="#84BE84" rx="3" ry="3" style="stroke: #038048; stroke-width: 1.0;"/><text fill="#000000" font-family="sans-serif" font-size="11" lengthAdjust="spacingAndGlyphs" textLength="278" x="26" y="209.0151">PlantUmlHighLighter(QTextDocument* document)</text><ellipse cx="17" cy="219.5117" fill="#84BE84" rx="3" ry="3" style="stroke: #038048; stroke-width: 1.0;"/><text fill="#000000" font-family="sans-serif" font-size="11" lengthAdjust="spacingAndGlyphs" textLength="226" x="26" y="221.8198">void highlightBlock(const QString &amp;text)</text><rect fill="#FEFECE" filter="url(#f1)" height="48" style="stroke: #A80036; stroke-width: 1.5;" width="123" x="86.5" y="288"/><ellipse cx="101.5" cy="304" fill="#ADD1B2" rx="11" ry="11" style="stroke: #A80036; stroke-width: 1.0;"/><path d="M104.4688,309.6406 Q103.8906,309.9375 103.25,310.0859 Q102.6094,310.2344 101.9063,310.2344 Q99.4063,310.2344 98.0859,308.5859 Q96.7656,306.9375 96.7656,303.8125 Q96.7656,300.6875 98.0859,299.0313 Q99.4063,297.375 101.9063,297.375 Q102.6094,297.375 103.2578,297.5313 Q103.9063,297.6875 104.4688,297.9844 L104.4688,300.7031 Q103.8438,300.125 103.25,299.8516 Q102.6563,299.5781 102.0313,299.5781 Q100.6875,299.5781 100,300.6484 Q99.3125,301.7188 99.3125,303.8125 Q99.3125,305.9063 100,306.9766 Q100.6875,308.0469 102.0313,308.0469 Q102.6563,308.0469 103.25,307.7734 Q103.8438,307.5 104.4688,306.9219 L104.4688,309.6406 Z "/><text fill="#000000" font-family="sans-serif" font-size="12" lengthAdjust="spacingAndGlyphs" textLength="91" x="115.5" y="308.1543">HighlighterUml</text><line style="stroke: #A80036; stroke-width: 1.5;" x1="87.5" x2="208.5" y1="320" y2="320"/><line style="stroke: #A80036; stroke-width: 1.5;" x1="87.5" x2="208.5" y1="328" y2="328"/><rect fill="#FEFECE" filter="url(#f1)" height="48" style="stroke: #A80036; stroke-width: 1.5;" width="124" x="245" y="288"/><ellipse cx="260" cy="304" fill="#ADD1B2" rx="11" ry="11" style="stroke: #A80036; stroke-width: 1.0;"/><path d="M262.9688,309.6406 Q262.3906,309.9375 261.75,310.0859 Q261.1094,310.2344 260.4063,310.2344 Q257.9063,310.2344 256.5859,308.5859 Q255.2656,306.9375 255.2656,303.8125 Q255.2656,300.6875 256.5859,299.0313 Q257.9063,297.375 260.4063,297.375 Q261.1094,297.375 261.7578,297.5313 Q262.4063,297.6875 262.9688,297.9844 L262.9688,300.7031 Q262.3438,300.125 261.75,299.8516 Q261.1563,299.5781 260.5313,299.5781 Q259.1875,299.5781 258.5,300.6484 Q257.8125,301.7188 257.8125,303.8125 Q257.8125,305.9063 258.5,306.9766 Q259.1875,308.0469 260.5313,308.0469 Q261.1563,308.0469 261.75,307.7734 Q262.3438,307.5 262.9688,306.9219 L262.9688,309.6406 Z "/><text fill="#000000" font-family="sans-serif" font-size="12" lengthAdjust="spacingAndGlyphs" textLength="92" x="274" y="308.1543">HighlighterSalt</text><line style="stroke: #A80036; stroke-width: 1.5;" x1="246" x2="368" y1="320" y2="320"/><line style="stroke: #A80036; stroke-width: 1.5;" x1="246" x2="368" y1="328" y2="328"/><rect fill="#FEFECE" filter="url(#f1)" height="48" style="stroke: #A80036; stroke-width: 1.5;" width="133" x="404.5" y="288"/><ellipse cx="419.5" cy="304" fill="#ADD1B2" rx="11" ry="11" style="stroke: #A80036; stroke-width: 1.0;"/><path d="M422.4688,309.6406 Q421.8906,309.9375 421.25,310.0859 Q420.6094,310.2344 419.9063,310.2344 Q417.4063,310.2344 416.0859,308.5859 Q414.7656,306.9375 414.7656,303.8125 Q414.7656,300.6875 416.0859,299.0313 Q417.4063,297.375 419.9063,297.375 Q420.6094,297.375 421.2578,297.5313 Q421.9063,297.6875 422.4688,297.9844 L422.4688,300.7031 Q421.8438,300.125 421.25,299.8516 Q420.6563,299.5781 420.0313,299.5781 Q418.6875,299.5781 418,300.6484 Q417.3125,301.7188 417.3125,303.8125 Q417.3125,305.9063 418,306.9766 Q418.6875,308.0469 420.0313,308.0469 Q420.6563,308.0469 421.25,307.7734 Q421.8438,307.5 422.4688,306.9219 L422.4688,309.6406 Z "/><text fill="#000000" font-family="sans-serif" font-size="12" lengthAdjust="spacingAndGlyphs" textLength="101" x="433.5" y="308.1543">HighlighterDitaa</text><line style="stroke: #A80036; stroke-width: 1.5;" x1="405.5" x2="536.5" y1="320" y2="320"/><line style="stroke: #A80036; stroke-width: 1.5;" x1="405.5" x2="536.5" y1="328" y2="328"/><rect fill="#FEFECE" filter="url(#f1)" height="48" style="stroke: #A80036; stroke-width: 1.5;" width="132" x="573" y="288"/><ellipse cx="588" cy="304" fill="#ADD1B2" rx="11" ry="11" style="stroke: #A80036; stroke-width: 1.0;"/><path d="M590.9688,309.6406 Q590.3906,309.9375 589.75,310.0859 Q589.1094,310.2344 588.4063,310.2344 Q585.9063,310.2344 584.5859,308.5859 Q583.2656,306.9375 583.2656,303.8125 Q583.2656,300.6875 584.5859,299.0313 Q585.9063,297.375 588.4063,297.375 Q589.1094,297.375 589.7578,297.5313 Q590.4063,297.6875 590.9688,297.9844 L590.9688,300.7031 Q590.3438,300.125 589.75,299.8516 Q589.1563,299.5781 588.5313,299.5781 Q587.1875,299.5781 586.5,300.6484 Q585.8125,301.7188 585.8125,303.8125 Q585.8125,305.9063 586.5,306.9766 Q587.1875,308.0469 588.5313,308.0469 Q589.1563,308.0469 589.75,307.7734 Q590.3438,307.5 590.9688,306.9219 L590.9688,309.6406 Z "/><text fill="#000000" font-family="sans-serif" font-size="12" lengthAdjust="spacingAndGlyphs" textLength="100" x="602" y="308.1543">HighlighterJcckit</text><line style="stroke: #A80036; stroke-width: 1.5;" x1="574" x2="704" y1="320" y2="320"/><line style="stroke: #A80036; stroke-width: 1.5;" x1="574" x2="704" y1="328" y2="328"/><rect fill="#FEFECE" filter="url(#f1)" height="48" style="stroke: #A80036; stroke-width: 1.5;" width="122" x="740" y="288"/><ellipse cx="755" cy="304" fill="#ADD1B2" rx="11" ry="11" style="stroke: #A80036; stroke-width: 1.0;"/><path d="M757.9688,309.6406 Q757.3906,309.9375 756.75,310.0859 Q756.1094,310.2344 755.4063,310.2344 Q752.9063,310.2344 751.5859,308.5859 Q750.2656,306.9375 750.2656,303.8125 Q750.2656,300.6875 751.5859,299.0313 Q752.9063,297.375 755.4063,297.375 Q756.1094,297.375 756.7578,297.5313 Q757.4063,297.6875 757.9688,297.9844 L757.9688,300.7031 Q757.3438,300.125 756.75,299.8516 Q756.1563,299.5781 755.5313,299.5781 Q754.1875,299.5781 753.5,300.6484 Q752.8125,301.7188 752.8125,303.8125 Q752.8125,305.9063 753.5,306.9766 Q754.1875,308.0469 755.5313,308.0469 Q756.1563,308.0469 756.75,307.7734 Q757.3438,307.5 757.9688,306.9219 L757.9688,309.6406 Z "/><text fill="#000000" font-family="sans-serif" font-size="12" lengthAdjust="spacingAndGlyphs" textLength="90" x="769" y="308.1543">HighlighterDot</text><line style="stroke: #A80036; stroke-width: 1.5;" x1="741" x2="861" y1="320" y2="320"/><line style="stroke: #A80036; stroke-width: 1.5;" x1="741" x2="861" y1="328" y2="328"/><path d="M158,102.619 C158,115.659 158,129.309 158,141.622 " fill="none" style="stroke: #A80036; stroke-width: 1.0;"/><polygon fill="none" points="151,102.258,158,82.258,165,102.258,151,102.258" style="stroke: #A80036; stroke-width: 1.0;"/><path d="M310.221,185 C320.026,185 329.831,185 339.636,185 " fill="none" style="stroke: #A80036; stroke-width: 1.0; stroke-dasharray: 7.0,7.0;"/><polygon fill="#A80036" points="344.763,185,335.763,181,339.763,185,335.763,189,344.763,185" style="stroke: #A80036; stroke-width: 1.0;"/><path d="M375.751,222.861 C321.296,243.9351 254.684,269.7137 207.603,287.9337 " fill="none" style="stroke: #A80036; stroke-width: 1.0; stroke-dasharray: 7.0,7.0;"/><polygon fill="none" points="373.275,216.313,394.454,215.623,378.328,229.37,373.275,216.313" style="stroke: #A80036; stroke-width: 1.0;"/><path d="M416.039,227.891 C389.807,247.8851 359.417,271.0481 337.394,287.8339 " fill="none" style="stroke: #A80036; stroke-width: 1.0; stroke-dasharray: 7.0,7.0;"/><polygon fill="none" points="411.985,222.18,432.134,215.623,420.471,233.314,411.985,222.18" style="stroke: #A80036; stroke-width: 1.0;"/><path d="M471,235.702 C471,253.7087 471,273.1961 471,287.8339 " fill="none" style="stroke: #A80036; stroke-width: 1.0; stroke-dasharray: 7.0,7.0;"/><polygon fill="none" points="464,235.623,471,215.623,478,235.623,464,235.623" style="stroke: #A80036; stroke-width: 1.0;"/><path d="M526.92,227.607 C553.878,247.6654 585.198,270.9686 607.865,287.8339 " fill="none" style="stroke: #A80036; stroke-width: 1.0; stroke-dasharray: 7.0,7.0;"/><polygon fill="none" points="522.681,233.178,510.814,215.623,531.038,221.946,522.681,233.178" style="stroke: #A80036; stroke-width: 1.0;"/><path d="M567.949,222.723 C623.651,243.8225 691.899,269.6739 740.105,287.9337 " fill="none" style="stroke: #A80036; stroke-width: 1.0; stroke-dasharray: 7.0,7.0;"/><polygon fill="none" points="565.429,229.254,549.205,215.623,570.388,216.162,565.429,229.254" style="stroke: #A80036; stroke-width: 1.0;"/></g></svg>