<?xml version="1.0" encoding="UTF-8" standalone="yes"?><svg xmlns="http://www.w3.org/2000/svg" xmlns:xlink="http://www.w3.org/1999/xlink" height="272px" style="width:167px;height:272px;" version="1.1" viewBox="0 0 167 272" width="167px"><defs><filter height="300%" id="f1" width="300%" x="-1" y="-1"><feGaussianBlur result="blurOut" stdDeviation="2.0"/><feColorMatrix in="blurOut" result="blurOut2" type="matrix" values="0 0 0 0 0 0 0 0 0 0 0 0 0 0 0 0 0 0 .4 0"/><feOffset dx="4.0" dy="4.0" in="blurOut2" result="blurOut3"/><feBlend in="SourceGraphic" in2="blurOut3" mode="normal"/></filter></defs><g><ellipse cx="80" cy="20" fill="#000000" filter="url(#f1)" rx="10" ry="10" style="stroke: none; stroke-width: 1.0;"/><rect fill="#FEFECE" filter="url(#f1)" height="33.9688" rx="12.5" ry="12.5" style="stroke: #A80036; stroke-width: 1.5;" width="82" x="39" y="94"/><text fill="#000000" font-family="sans-serif" font-size="12" lengthAdjust="spacingAndGlyphs" textLength="62" x="49" y="115.1387">read data</text><rect fill="#FEFECE" filter="url(#f1)" height="33.9688" rx="12.5" ry="12.5" style="stroke: #A80036; stroke-width: 1.5;" width="140" x="10" y="147.9688"/><text fill="#000000" font-family="sans-serif" font-size="12" lengthAdjust="spacingAndGlyphs" textLength="120" x="20" y="169.1074">generate diagrams</text><polygon fill="#FEFECE" filter="url(#f1)" points="80,50,92,62,80,74,68,62,80,50" style="stroke: #A80036; stroke-width: 1.5;"/><polygon fill="#FEFECE" filter="url(#f1)" points="47.5,201.9375,112.5,201.9375,124.5,213.9375,112.5,225.9375,47.5,225.9375,35.5,213.9375,47.5,201.9375" style="stroke: #A80036; stroke-width: 1.5;"/><text fill="#000000" font-family="sans-serif" font-size="11" lengthAdjust="spacingAndGlyphs" textLength="65" x="47.5" y="217.7456">more data?</text><ellipse cx="80" cy="255.9375" fill="none" filter="url(#f1)" rx="10" ry="10" style="stroke: #000000; stroke-width: 1.0;"/><ellipse cx="80.5" cy="256.4375" fill="#000000" filter="url(#f1)" rx="6" ry="6" style="stroke: none; stroke-width: 1.0;"/><line style="stroke: #A80036; stroke-width: 1.5;" x1="80" x2="80" y1="127.9688" y2="147.9688"/><polygon fill="#A80036" points="76,137.9688,80,147.9688,84,137.9688,80,141.9688" style="stroke: #A80036; stroke-width: 1.0;"/><line style="stroke: #A80036; stroke-width: 1.5;" x1="80" x2="80" y1="74" y2="94"/><polygon fill="#A80036" points="76,84,80,94,84,84,80,88" style="stroke: #A80036; stroke-width: 1.0;"/><line style="stroke: #A80036; stroke-width: 1.5;" x1="124.5" x2="162" y1="213.9375" y2="213.9375"/><polygon fill="#A80036" points="158,164.4688,162,154.4688,166,164.4688,162,160.4688" style="stroke: #A80036; stroke-width: 1.5;"/><line style="stroke: #A80036; stroke-width: 1.5;" x1="162" x2="162" y1="62" y2="213.9375"/><line style="stroke: #A80036; stroke-width: 1.5;" x1="162" x2="92" y1="62" y2="62"/><polygon fill="#A80036" points="102,58,92,62,102,66,98,62" style="stroke: #A80036; stroke-width: 1.0;"/><line style="stroke: #A80036; stroke-width: 1.5;" x1="80" x2="80" y1="181.9375" y2="201.9375"/><polygon fill="#A80036" points="76,191.9375,80,201.9375,84,191.9375,80,195.9375" style="stroke: #A80036; stroke-width: 1.0;"/><line style="stroke: #A80036; stroke-width: 1.5;" x1="80" x2="80" y1="30" y2="50"/><polygon fill="#A80036" points="76,40,80,50,84,40,80,44" style="stroke: #A80036; stroke-width: 1.0;"/><line style="stroke: #A80036; stroke-width: 1.5;" x1="80" x2="80" y1="225.9375" y2="245.9375"/><polygon fill="#A80036" points="76,235.9375,80,245.9375,84,235.9375,80,239.9375" style="stroke: #A80036; stroke-width: 1.0;"/></g></svg>