<?xml version="1.0" encoding="UTF-8" standalone="yes"?><svg xmlns="http://www.w3.org/2000/svg" xmlns:xlink="http://www.w3.org/1999/xlink" height="247px" style="width:281px;height:247px;" version="1.1" viewBox="0 0 281 247" width="281px"><defs><filter height="300%" id="f1" width="300%" x="-1" y="-1"><feGaussianBlur result="blurOut" stdDeviation="2.0"/><feColorMatrix in="blurOut" result="blurOut2" type="matrix" values="0 0 0 0 0 0 0 0 0 0 0 0 0 0 0 0 0 0 .4 0"/><feOffset dx="4.0" dy="4.0" in="blurOut2" result="blurOut3"/><feBlend in="SourceGraphic" in2="blurOut3" mode="normal"/></filter></defs><g><text fill="#888888" font-family="sans-serif" font-size="10" lengthAdjust="spacingAndGlyphs" textLength="27" x="245.5" y="19.2822">this is</text><text fill="#888888" font-family="sans-serif" font-size="10" lengthAdjust="spacingAndGlyphs" textLength="29" x="165.5" y="30.9229">a long</text><text fill="#888888" font-family="sans-serif" font-size="10" lengthAdjust="spacingAndGlyphs" text-decoration="underline" textLength="38" x="197.5" y="30.9229">dummy</text><line style="stroke: #888888; stroke-width: 1.0;" x1="197.5" x2="235.5" y1="32.9229" y2="32.9229"/><text fill="#888888" font-family="sans-serif" font-size="10" lengthAdjust="spacingAndGlyphs" textLength="34" x="238.5" y="30.9229">header</text><text fill="#000000" font-family="sans-serif" font-size="18" lengthAdjust="spacingAndGlyphs" textLength="125" x="78.75" y="49.9893">this is my title</text><polygon fill="#FEFECE" filter="url(#f1)" points="52.5,56.1333,109.5,56.1333,121.5,68.1333,109.5,80.1333,52.5,80.1333,40.5,68.1333,52.5,56.1333" style="stroke: #A80036; stroke-width: 1.5;"/><text fill="#000000" font-family="sans-serif" font-size="11" lengthAdjust="spacingAndGlyphs" textLength="57" x="52.5" y="71.9414">condition?</text><text fill="#000000" font-family="sans-serif" font-size="11" lengthAdjust="spacingAndGlyphs" textLength="20" x="20.5" y="65.5391">yes</text><text fill="#000000" font-family="sans-serif" font-size="11" lengthAdjust="spacingAndGlyphs" textLength="14" x="121.5" y="65.5391">no</text><rect fill="#FEFECE" filter="url(#f1)" height="33.9688" rx="12.5" ry="12.5" style="stroke: #A80036; stroke-width: 1.5;" width="41" x="10" y="90.1333"/><text fill="#000000" font-family="sans-serif" font-size="12" lengthAdjust="spacingAndGlyphs" textLength="21" x="20" y="111.272">yes</text><polygon fill="#FBFB77" filter="url(#f1)" points="169.5,94.5513,169.5,119.6841,272.5,119.6841,272.5,104.5513,262.5,94.5513,169.5,94.5513" style="stroke: #A80036; stroke-width: 1.0;"/><polygon fill="#FBFB77" points="169.5,94.5513,169.5,103.1177,149.5,107.1177,169.5,111.1177,169.5,119.6841,272.5,119.6841,272.5,104.5513,262.5,94.5513,169.5,94.5513" style="stroke: #A80036; stroke-width: 1.0;"/><line style="stroke: #A80036; stroke-width: 1.0;" x1="262.5" x2="262.5" y1="94.5513" y2="104.5513"/><line style="stroke: #A80036; stroke-width: 1.0;" x1="272.5" x2="262.5" y1="104.5513" y2="104.5513"/><text fill="#000000" font-family="sans-serif" font-size="13" lengthAdjust="spacingAndGlyphs" textLength="82" x="175.5" y="111.6182">this is a note</text><rect fill="#FEFECE" filter="url(#f1)" height="33.9688" rx="12.5" ry="12.5" style="stroke: #A80036; stroke-width: 1.5;" width="36" x="113.5" y="90.1333"/><text fill="#000000" font-family="sans-serif" font-size="12" lengthAdjust="spacingAndGlyphs" textLength="16" x="123.5" y="111.272">no</text><polygon fill="#FEFECE" filter="url(#f1)" points="81,130.1021,93,142.1021,81,154.1021,69,142.1021,81,130.1021" style="stroke: #A80036; stroke-width: 1.5;"/><ellipse cx="81" cy="184.1021" fill="none" filter="url(#f1)" rx="10" ry="10" style="stroke: #000000; stroke-width: 1.0;"/><ellipse cx="81.5" cy="184.6021" fill="#000000" filter="url(#f1)" rx="6" ry="6" style="stroke: none; stroke-width: 1.0;"/><line style="stroke: #A80036; stroke-width: 1.5;" x1="40.5" x2="30.5" y1="68.1333" y2="68.1333"/><line style="stroke: #A80036; stroke-width: 1.5;" x1="30.5" x2="30.5" y1="68.1333" y2="90.1333"/><polygon fill="#A80036" points="26.5,80.1333,30.5,90.1333,34.5,80.1333,30.5,84.1333" style="stroke: #A80036; stroke-width: 1.0;"/><line style="stroke: #A80036; stroke-width: 1.5;" x1="121.5" x2="131.5" y1="68.1333" y2="68.1333"/><line style="stroke: #A80036; stroke-width: 1.5;" x1="131.5" x2="131.5" y1="68.1333" y2="90.1333"/><polygon fill="#A80036" points="127.5,80.1333,131.5,90.1333,135.5,80.1333,131.5,84.1333" style="stroke: #A80036; stroke-width: 1.0;"/><line style="stroke: #A80036; stroke-width: 1.5;" x1="30.5" x2="30.5" y1="124.1021" y2="142.1021"/><line style="stroke: #A80036; stroke-width: 1.5;" x1="30.5" x2="69" y1="142.1021" y2="142.1021"/><polygon fill="#A80036" points="59,138.1021,69,142.1021,59,146.1021,63,142.1021" style="stroke: #A80036; stroke-width: 1.0;"/><line style="stroke: #A80036; stroke-width: 1.5;" x1="131.5" x2="131.5" y1="124.1021" y2="142.1021"/><line style="stroke: #A80036; stroke-width: 1.5;" x1="131.5" x2="93" y1="142.1021" y2="142.1021"/><polygon fill="#A80036" points="103,138.1021,93,142.1021,103,146.1021,99,142.1021" style="stroke: #A80036; stroke-width: 1.0;"/><line style="stroke: #A80036; stroke-width: 1.5;" x1="81" x2="81" y1="154.1021" y2="174.1021"/><polygon fill="#A80036" points="77,164.1021,81,174.1021,85,164.1021,81,168.1021" style="stroke: #A80036; stroke-width: 1.0;"/><polygon fill="#DDDDDD" points="75.25,202.1021,75.25,228.3989,206.25,228.3989,206.25,202.1021,75.25,202.1021" style="stroke: #000000; stroke-width: 1.0;"/><text fill="#000000" font-family="sans-serif" font-size="14" lengthAdjust="spacingAndGlyphs" textLength="119" x="81.25" y="220.0972">this is the legend</text><text fill="#888888" font-family="sans-serif" font-size="10" lengthAdjust="spacingAndGlyphs" textLength="71" x="105.75" y="246.6812">dummy footer</text></g></svg>