<?xml version="1.0" encoding="UTF-8" standalone="yes"?><svg xmlns="http://www.w3.org/2000/svg" xmlns:xlink="http://www.w3.org/1999/xlink" height="451px" style="width:169px;height:451px;" version="1.1" viewBox="0 0 169 451" width="169px"><defs><filter height="300%" id="f1" width="300%" x="-1" y="-1"><feGaussianBlur result="blurOut" stdDeviation="2.0"/><feColorMatrix in="blurOut" result="blurOut2" type="matrix" values="0 0 0 0 0 0 0 0 0 0 0 0 0 0 0 0 0 0 .4 0"/><feOffset dx="4.0" dy="4.0" in="blurOut2" result="blurOut3"/><feBlend in="SourceGraphic" in2="blurOut3" mode="normal"/></filter></defs><g><rect fill="#FEFECE" filter="url(#f1)" height="33.9688" rx="12.5" ry="12.5" style="stroke: #A80036; stroke-width: 1.5;" width="50" x="61" y="10"/><text fill="#000000" font-family="sans-serif" font-size="12" lengthAdjust="spacingAndGlyphs" textLength="30" x="71" y="31.1387">start</text><rect fill="#000000" filter="url(#f1)" height="6" rx="2.5" ry="2.5" style="stroke: #000000; stroke-width: 1.0;" width="152" x="10" y="63.9688"/><rect fill="#FEFECE" filter="url(#f1)" height="33.9688" rx="12.5" ry="12.5" style="stroke: #A80036; stroke-width: 1.5;" width="48" x="24" y="89.9688"/><text fill="#000000" font-family="sans-serif" font-size="12" lengthAdjust="spacingAndGlyphs" textLength="28" x="34" y="111.1074">foo1</text><rect fill="#FEFECE" filter="url(#f1)" height="33.9688" rx="12.5" ry="12.5" style="stroke: #A80036; stroke-width: 1.5;" width="48" x="24" y="158.9375"/><text fill="#000000" font-family="sans-serif" font-size="12" lengthAdjust="spacingAndGlyphs" textLength="28" x="34" y="180.0762">foo2</text><rect fill="#FEFECE" filter="url(#f1)" height="33.9688" rx="12.5" ry="12.5" style="stroke: #A80036; stroke-width: 1.5;" width="48" x="100" y="124.4531"/><text fill="#000000" font-family="sans-serif" font-size="12" lengthAdjust="spacingAndGlyphs" textLength="28" x="110" y="145.5918">foo3</text><rect fill="#000000" filter="url(#f1)" height="6" rx="2.5" ry="2.5" style="stroke: #000000; stroke-width: 1.0;" width="152" x="10" y="212.9063"/><polygon fill="#FEFECE" filter="url(#f1)" points="73.5,238.9063,98.5,238.9063,110.5,250.9063,98.5,262.9063,73.5,262.9063,61.5,250.9063,73.5,238.9063" style="stroke: #A80036; stroke-width: 1.5;"/><text fill="#000000" font-family="sans-serif" font-size="11" lengthAdjust="spacingAndGlyphs" textLength="25" x="73.5" y="254.7144">foo4</text><rect fill="#FEFECE" filter="url(#f1)" height="33.9688" rx="12.5" ry="12.5" style="stroke: #A80036; stroke-width: 1.5;" width="48" x="27.5" y="272.9063"/><text fill="#000000" font-family="sans-serif" font-size="12" lengthAdjust="spacingAndGlyphs" textLength="28" x="37.5" y="294.0449">foo5</text><rect fill="#FEFECE" filter="url(#f1)" height="33.9688" rx="12.5" ry="12.5" style="stroke: #A80036; stroke-width: 1.5;" width="48" x="62" y="326.875"/><text fill="#000000" font-family="sans-serif" font-size="12" lengthAdjust="spacingAndGlyphs" textLength="28" x="72" y="348.0137">foo6</text><rect fill="#FEFECE" filter="url(#f1)" height="33.9688" rx="12.5" ry="12.5" style="stroke: #A80036; stroke-width: 1.5;" width="48" x="62" y="370.8438"/><text fill="#000000" font-family="sans-serif" font-size="12" lengthAdjust="spacingAndGlyphs" textLength="28" x="72" y="391.9824">foo7</text><ellipse cx="86" cy="434.8125" fill="none" filter="url(#f1)" rx="10" ry="10" style="stroke: #000000; stroke-width: 1.0;"/><ellipse cx="86.5" cy="435.3125" fill="#000000" filter="url(#f1)" rx="6" ry="6" style="stroke: none; stroke-width: 1.0;"/><line style="stroke: #A80036; stroke-width: 1.5;" x1="48" x2="48" y1="123.9375" y2="158.9375"/><polygon fill="#A80036" points="44,148.9375,48,158.9375,52,148.9375,48,152.9375" style="stroke: #A80036; stroke-width: 1.0;"/><line style="stroke: #A80036; stroke-width: 1.5;" x1="48" x2="48" y1="69.9688" y2="89.9688"/><polygon fill="#A80036" points="44,79.9688,48,89.9688,52,79.9688,48,83.9688" style="stroke: #A80036; stroke-width: 1.0;"/><line style="stroke: #A80036; stroke-width: 1.5;" x1="48" x2="48" y1="192.9063" y2="212.9063"/><polygon fill="#A80036" points="44,202.9063,48,212.9063,52,202.9063,48,206.9063" style="stroke: #A80036; stroke-width: 1.0;"/><line style="stroke: #A80036; stroke-width: 1.5;" x1="124" x2="124" y1="69.9688" y2="124.4531"/><polygon fill="#A80036" points="120,114.4531,124,124.4531,128,114.4531,124,118.4531" style="stroke: #A80036; stroke-width: 1.0;"/><line style="stroke: #A80036; stroke-width: 1.5;" x1="86" x2="86" y1="43.9688" y2="63.9688"/><polygon fill="#A80036" points="82,53.9688,86,63.9688,90,53.9688,86,57.9688" style="stroke: #A80036; stroke-width: 1.0;"/><line style="stroke: #A80036; stroke-width: 1.5;" x1="61.5" x2="51.5" y1="250.9063" y2="250.9063"/><line style="stroke: #A80036; stroke-width: 1.5;" x1="51.5" x2="51.5" y1="250.9063" y2="272.9063"/><polygon fill="#A80036" points="47.5,262.9063,51.5,272.9063,55.5,262.9063,51.5,266.9063" style="stroke: #A80036; stroke-width: 1.0;"/><line style="stroke: #A80036; stroke-width: 1.5;" x1="110.5" x2="120.5" y1="250.9063" y2="250.9063"/><polygon fill="#A80036" points="116.5,271.8906,120.5,281.8906,124.5,271.8906,120.5,275.8906" style="stroke: #A80036; stroke-width: 1.5;"/><line style="stroke: #A80036; stroke-width: 1.5;" x1="120.5" x2="120.5" y1="250.9063" y2="311.875"/><line style="stroke: #A80036; stroke-width: 1.5;" x1="120.5" x2="86" y1="311.875" y2="311.875"/><line style="stroke: #A80036; stroke-width: 1.5;" x1="86" x2="86" y1="311.875" y2="326.875"/><polygon fill="#A80036" points="82,316.875,86,326.875,90,316.875,86,320.875" style="stroke: #A80036; stroke-width: 1.0;"/><line style="stroke: #A80036; stroke-width: 1.5;" x1="86" x2="86" y1="218.9063" y2="238.9063"/><polygon fill="#A80036" points="82,228.9063,86,238.9063,90,228.9063,86,232.9063" style="stroke: #A80036; stroke-width: 1.0;"/><line style="stroke: #A80036; stroke-width: 1.5;" x1="86" x2="86" y1="404.8125" y2="424.8125"/><polygon fill="#A80036" points="82,414.8125,86,424.8125,90,414.8125,86,418.8125" style="stroke: #A80036; stroke-width: 1.0;"/></g></svg>