<?xml version="1.0" encoding="UTF-8" standalone="yes"?><svg xmlns="http://www.w3.org/2000/svg" xmlns:xlink="http://www.w3.org/1999/xlink" height="417px" style="width:207px;height:417px;" version="1.1" viewBox="0 0 207 417" width="207px"><defs><filter height="300%" id="f1" width="300%" x="-1" y="-1"><feGaussianBlur result="blurOut" stdDeviation="2.0"/><feColorMatrix in="blurOut" result="blurOut2" type="matrix" values="0 0 0 0 0 0 0 0 0 0 0 0 0 0 0 0 0 0 .4 0"/><feOffset dx="4.0" dy="4.0" in="blurOut2" result="blurOut3"/><feBlend in="SourceGraphic" in2="blurOut3" mode="normal"/></filter></defs><g><ellipse cx="105" cy="20" fill="#000000" filter="url(#f1)" rx="10" ry="10" style="stroke: none; stroke-width: 1.0;"/><rect fill="#FFFFFF" filter="url(#f1)" height="159.2344" style="stroke: #000000; stroke-width: 2.0;" width="164" x="23" y="40.8018"/><path d="M119,41.8018 L119,50.0986 L109,60.0986 L23,60.0986 " fill="#FFFFFF" style="stroke: #000000; stroke-width: 2.0;"/><text fill="#000000" font-family="Serif" font-size="14" lengthAdjust="spacingAndGlyphs" textLength="86" x="26" y="54.7969">Initialization</text><rect fill="#FEFECE" filter="url(#f1)" height="33.9688" rx="12.5" ry="12.5" style="stroke: #A80036; stroke-width: 1.5;" width="113" x="48.5" y="77.0986"/><text fill="#000000" font-family="sans-serif" font-size="12" lengthAdjust="spacingAndGlyphs" textLength="93" x="58.5" y="98.2373">read config file</text><rect fill="#FEFECE" filter="url(#f1)" height="33.9688" rx="12.5" ry="12.5" style="stroke: #A80036; stroke-width: 1.5;" width="144" x="33" y="146.0674"/><text fill="#000000" font-family="sans-serif" font-size="12" lengthAdjust="spacingAndGlyphs" textLength="124" x="43" y="167.2061">init internal variable</text><rect fill="#FFFFFF" filter="url(#f1)" height="159.2344" style="stroke: #000000; stroke-width: 2.0;" width="190" x="10" y="210.8379"/><path d="M80,211.8379 L80,220.1348 L70,230.1348 L10,230.1348 " fill="#FFFFFF" style="stroke: #000000; stroke-width: 2.0;"/><text fill="#000000" font-family="Serif" font-size="14" lengthAdjust="spacingAndGlyphs" textLength="60" x="13" y="224.833">Running</text><rect fill="#FEFECE" filter="url(#f1)" height="33.9688" rx="12.5" ry="12.5" style="stroke: #A80036; stroke-width: 1.5;" width="170" x="20" y="247.1348"/><text fill="#000000" font-family="sans-serif" font-size="12" lengthAdjust="spacingAndGlyphs" textLength="150" x="30" y="268.2734">wait for user interaction</text><rect fill="#FEFECE" filter="url(#f1)" height="33.9688" rx="12.5" ry="12.5" style="stroke: #A80036; stroke-width: 1.5;" width="124" x="43" y="316.1035"/><text fill="#000000" font-family="sans-serif" font-size="12" lengthAdjust="spacingAndGlyphs" textLength="104" x="53" y="337.2422">print information</text><ellipse cx="105" cy="400.0723" fill="none" filter="url(#f1)" rx="10" ry="10" style="stroke: #000000; stroke-width: 1.0;"/><ellipse cx="105.5" cy="400.5723" fill="#000000" filter="url(#f1)" rx="6" ry="6" style="stroke: none; stroke-width: 1.0;"/><line style="stroke: #A80036; stroke-width: 1.5;" x1="105" x2="105" y1="111.0674" y2="146.0674"/><polygon fill="#A80036" points="101,136.0674,105,146.0674,109,136.0674,105,140.0674" style="stroke: #A80036; stroke-width: 1.0;"/><line style="stroke: #A80036; stroke-width: 1.5;" x1="105" x2="105" y1="30" y2="77.0986"/><polygon fill="#A80036" points="101,67.0986,105,77.0986,109,67.0986,105,71.0986" style="stroke: #A80036; stroke-width: 1.0;"/><line style="stroke: #A80036; stroke-width: 1.5;" x1="105" x2="105" y1="281.1035" y2="316.1035"/><polygon fill="#A80036" points="101,306.1035,105,316.1035,109,306.1035,105,310.1035" style="stroke: #A80036; stroke-width: 1.0;"/><line style="stroke: #A80036; stroke-width: 1.5;" x1="105" x2="105" y1="180.0361" y2="247.1348"/><polygon fill="#A80036" points="101,237.1348,105,247.1348,109,237.1348,105,241.1348" style="stroke: #A80036; stroke-width: 1.0;"/><line style="stroke: #A80036; stroke-width: 1.5;" x1="105" x2="105" y1="350.0723" y2="390.0723"/><polygon fill="#A80036" points="101,380.0723,105,390.0723,109,380.0723,105,384.0723" style="stroke: #A80036; stroke-width: 1.0;"/></g></svg>