<?xml version="1.0" encoding="UTF-8" standalone="yes"?><svg xmlns="http://www.w3.org/2000/svg" xmlns:xlink="http://www.w3.org/1999/xlink" height="221px" style="width:501px;height:221px;" version="1.1" viewBox="0 0 501 221" width="501px"><defs><filter height="300%" id="f6bj6x0" width="300%" x="-1" y="-1"><feGaussianBlur result="blurOut" stdDeviation="2.0"/><feColorMatrix in="blurOut" result="blurOut2" type="matrix" values="0 0 0 0 0 0 0 0 0 0 0 0 0 0 0 0 0 0 .4 0"/><feOffset dx="4.0" dy="4.0" in="blurOut2" result="blurOut3"/><feBlend in="SourceGraphic" in2="blurOut3" mode="normal"/></filter></defs><g><ellipse cx="169" cy="20" fill="#000000" filter="url(#f6bj6x0)" rx="10" ry="10" style="stroke: none; stroke-width: 1.0;"/><polygon fill="#FBFB77" filter="url(#f6bj6x0)" points="20,54.418,20,79.5508,125,79.5508,125,64.418,115,54.418,20,54.418" style="stroke: #A80036; stroke-width: 1.0;"/><polygon fill="#FBFB77" points="20,54.418,20,79.5508,125,79.5508,125,72.418,145,66.9844,125,64.418,125,64.418,115,54.418,20,54.418" style="stroke: #A80036; stroke-width: 1.0;"/><line style="stroke: #A80036; stroke-width: 1.0;" x1="115" x2="115" y1="54.418" y2="64.418"/><line style="stroke: #A80036; stroke-width: 1.0;" x1="125" x2="115" y1="64.418" y2="64.418"/><text fill="#000000" font-family="sans-serif" font-size="13" lengthAdjust="spacingAndGlyphs" textLength="84" x="26" y="71.4849">This is a note</text><rect fill="#FEFECE" filter="url(#f6bj6x0)" height="33.9688" rx="12.5" ry="12.5" style="stroke: #A80036; stroke-width: 1.5;" width="48" x="145" y="50"/><text fill="#000000" font-family="sans-serif" font-size="12" lengthAdjust="spacingAndGlyphs" textLength="28" x="155" y="71.1387">foo1</text><polygon fill="#008000" filter="url(#f6bj6x0)" points="213,93.9688,213,174.5,492,174.5,492,103.9688,482,93.9688,213,93.9688" style="stroke: #A80036; stroke-width: 1.0;"/><polygon fill="#008000" points="213,93.9688,213,130.2344,193,134.2344,213,138.2344,213,174.5,492,174.5,492,103.9688,482,93.9688,213,93.9688" style="stroke: #A80036; stroke-width: 1.0;"/><line style="stroke: #A80036; stroke-width: 1.0;" x1="482" x2="482" y1="93.9688" y2="103.9688"/><line style="stroke: #A80036; stroke-width: 1.0;" x1="492" x2="482" y1="103.9688" y2="103.9688"/><text fill="#000000" font-family="sans-serif" font-size="13" lengthAdjust="spacingAndGlyphs" textLength="142" x="219" y="111.0356">This note is on several</text><text fill="#000000" font-family="sans-serif" font-size="13" font-style="italic" lengthAdjust="spacingAndGlyphs" textLength="29" x="219" y="126.1685">lines</text><text fill="#000000" font-family="sans-serif" font-size="13" lengthAdjust="spacingAndGlyphs" textLength="51" x="252" y="126.1685">and can</text><text fill="#000000" font-family="sans-serif" font-size="13" lengthAdjust="spacingAndGlyphs" textLength="47" x="219" y="141.3013">contain</text><text fill="#000000" font-family="sans-serif" font-size="13" font-weight="bold" lengthAdjust="spacingAndGlyphs" textLength="40" x="270" y="141.3013">HTML</text><line style="stroke: #A80036; stroke-width: 1.0;" x1="213" x2="492" y1="149.3672" y2="149.3672"/><line style="stroke: #A80036; stroke-width: 1.0;" x1="213" x2="492" y1="151.3672" y2="151.3672"/><ellipse cx="224.5" cy="162" fill="#000000" rx="2.5" ry="2.5" style="stroke: #000000; stroke-width: 0.0;"/><text fill="#000000" font-family="sans-serif" font-size="13" lengthAdjust="spacingAndGlyphs" textLength="121" x="230" y="166.4341">Calling the method</text><text fill="#000000" font-family="monospaced" font-size="13" lengthAdjust="spacingAndGlyphs" textLength="40" x="355" y="166.4341">foo()</text><text fill="#000000" font-family="sans-serif" font-size="13" lengthAdjust="spacingAndGlyphs" textLength="78" x="399" y="166.4341">is prohibited</text><rect fill="#FEFECE" filter="url(#f6bj6x0)" height="33.9688" rx="12.5" ry="12.5" style="stroke: #A80036; stroke-width: 1.5;" width="48" x="145" y="117.25"/><text fill="#000000" font-family="sans-serif" font-size="12" lengthAdjust="spacingAndGlyphs" textLength="28" x="155" y="138.3887">foo2</text><ellipse cx="169" cy="204.5" fill="none" filter="url(#f6bj6x0)" rx="10" ry="10" style="stroke: #000000; stroke-width: 1.0;"/><ellipse cx="169.5" cy="205" fill="#000000" filter="url(#f6bj6x0)" rx="6" ry="6" style="stroke: none; stroke-width: 1.0;"/><line style="stroke: #A80036; stroke-width: 1.5;" x1="169" x2="169" y1="30" y2="50"/><polygon fill="#A80036" points="165,40,169,50,173,40,169,44" style="stroke: #A80036; stroke-width: 1.0;"/><line style="stroke: #A80036; stroke-width: 1.5;" x1="169" x2="169" y1="83.9688" y2="117.25"/><polygon fill="#A80036" points="165,107.25,169,117.25,173,107.25,169,111.25" style="stroke: #A80036; stroke-width: 1.0;"/><line style="stroke: #A80036; stroke-width: 1.5;" x1="169" x2="169" y1="151.2188" y2="194.5"/><polygon fill="#A80036" points="165,184.5,169,194.5,173,184.5,169,188.5" style="stroke: #A80036; stroke-width: 1.0;"/></g></svg>