<?xml version="1.0" encoding="UTF-8" standalone="yes"?><svg xmlns="http://www.w3.org/2000/svg" xmlns:xlink="http://www.w3.org/1999/xlink" height="261px" style="width:520px;height:261px;" version="1.1" viewBox="0 0 520 261" width="520px"><defs><filter height="300%" id="f1" width="300%" x="-1" y="-1"><feGaussianBlur result="blurOut" stdDeviation="2.0"/><feColorMatrix in="blurOut" result="blurOut2" type="matrix" values="0 0 0 0 0 0 0 0 0 0 0 0 0 0 0 0 0 0 .4 0"/><feOffset dx="4.0" dy="4.0" in="blurOut2" result="blurOut3"/><feBlend in="SourceGraphic" in2="blurOut3" mode="normal"/></filter></defs><g><ellipse cx="261.5" cy="20" fill="#000000" filter="url(#f1)" rx="10" ry="10" style="stroke: none; stroke-width: 1.0;"/><polygon fill="#FEFECE" filter="url(#f1)" points="22,50,84,50,96,62,84,74,22,74,10,62,22,50" style="stroke: #A80036; stroke-width: 1.5;"/><text fill="#000000" font-family="sans-serif" font-size="11" lengthAdjust="spacingAndGlyphs" textLength="20" x="57" y="84.2104">yes</text><text fill="#000000" font-family="sans-serif" font-size="11" lengthAdjust="spacingAndGlyphs" textLength="62" x="22" y="65.8081">condition A</text><rect fill="#FEFECE" filter="url(#f1)" height="33.9688" rx="12.5" ry="12.5" style="stroke: #A80036; stroke-width: 1.5;" width="58" x="24" y="105.7104"/><text fill="#000000" font-family="sans-serif" font-size="12" lengthAdjust="spacingAndGlyphs" textLength="38" x="34" y="126.8491">Text 1</text><polygon fill="#FEFECE" filter="url(#f1)" points="128,50,191,50,203,62,191,74,128,74,116,62,128,50" style="stroke: #A80036; stroke-width: 1.5;"/><text fill="#000000" font-family="sans-serif" font-size="11" lengthAdjust="spacingAndGlyphs" textLength="20" x="163.5" y="84.2104">yes</text><text fill="#000000" font-family="sans-serif" font-size="11" lengthAdjust="spacingAndGlyphs" textLength="63" x="128" y="65.8081">condition B</text><rect fill="#FEFECE" filter="url(#f1)" height="33.9688" rx="12.5" ry="12.5" style="stroke: #A80036; stroke-width: 1.5;" width="58" x="130.5" y="105.7104"/><text fill="#000000" font-family="sans-serif" font-size="12" lengthAdjust="spacingAndGlyphs" textLength="38" x="140.5" y="126.8491">Text 2</text><ellipse cx="159.5" cy="184.6792" fill="none" filter="url(#f1)" rx="10" ry="10" style="stroke: #000000; stroke-width: 1.0;"/><ellipse cx="160" cy="185.1792" fill="#000000" filter="url(#f1)" rx="6" ry="6" style="stroke: none; stroke-width: 1.0;"/><polygon fill="#FEFECE" filter="url(#f1)" points="235,50,298,50,310,62,298,74,235,74,223,62,235,50" style="stroke: #A80036; stroke-width: 1.5;"/><text fill="#000000" font-family="sans-serif" font-size="11" lengthAdjust="spacingAndGlyphs" textLength="20" x="270.5" y="84.2104">yes</text><text fill="#000000" font-family="sans-serif" font-size="11" lengthAdjust="spacingAndGlyphs" textLength="63" x="235" y="65.8081">condition C</text><rect fill="#FEFECE" filter="url(#f1)" height="33.9688" rx="12.5" ry="12.5" style="stroke: #A80036; stroke-width: 1.5;" width="58" x="237.5" y="105.7104"/><text fill="#000000" font-family="sans-serif" font-size="12" lengthAdjust="spacingAndGlyphs" textLength="38" x="247.5" y="126.8491">Text 3</text><polygon fill="#FEFECE" filter="url(#f1)" points="342,50,405,50,417,62,405,74,342,74,330,62,342,50" style="stroke: #A80036; stroke-width: 1.5;"/><text fill="#000000" font-family="sans-serif" font-size="11" lengthAdjust="spacingAndGlyphs" textLength="20" x="377.5" y="84.2104">yes</text><text fill="#000000" font-family="sans-serif" font-size="11" lengthAdjust="spacingAndGlyphs" textLength="63" x="342" y="65.8081">condition D</text><text fill="#000000" font-family="sans-serif" font-size="11" lengthAdjust="spacingAndGlyphs" textLength="42" x="417" y="59.4058">nothing</text><rect fill="#FEFECE" filter="url(#f1)" height="33.9688" rx="12.5" ry="12.5" style="stroke: #A80036; stroke-width: 1.5;" width="58" x="344.5" y="105.7104"/><text fill="#000000" font-family="sans-serif" font-size="12" lengthAdjust="spacingAndGlyphs" textLength="38" x="354.5" y="126.8491">Text 4</text><rect fill="#FEFECE" filter="url(#f1)" height="33.9688" rx="12.5" ry="12.5" style="stroke: #A80036; stroke-width: 1.5;" width="76" x="437" y="129.8081"/><text fill="#000000" font-family="sans-serif" font-size="12" lengthAdjust="spacingAndGlyphs" textLength="56" x="447" y="150.9468">Text else</text><ellipse cx="261.5" cy="244.6792" fill="none" filter="url(#f1)" rx="10" ry="10" style="stroke: #000000; stroke-width: 1.0;"/><ellipse cx="262" cy="245.1792" fill="#000000" filter="url(#f1)" rx="6" ry="6" style="stroke: none; stroke-width: 1.0;"/><line style="stroke: #A80036; stroke-width: 1.5;" x1="159.5" x2="159.5" y1="139.6792" y2="174.6792"/><polygon fill="#A80036" points="155.5,164.6792,159.5,174.6792,163.5,164.6792,159.5,168.6792" style="stroke: #A80036; stroke-width: 1.0;"/><line style="stroke: #A80036; stroke-width: 1.5;" x1="53" x2="53" y1="74" y2="105.7104"/><polygon fill="#A80036" points="49,95.7104,53,105.7104,57,95.7104,53,99.7104" style="stroke: #A80036; stroke-width: 1.0;"/><line style="stroke: #A80036; stroke-width: 1.5;" x1="53" x2="53" y1="139.6792" y2="214.6792"/><polygon fill="#A80036" points="49,204.6792,53,214.6792,57,204.6792,53,208.6792" style="stroke: #A80036; stroke-width: 1.0;"/><line style="stroke: #A80036; stroke-width: 1.5;" x1="159.5" x2="159.5" y1="74" y2="105.7104"/><polygon fill="#A80036" points="155.5,95.7104,159.5,105.7104,163.5,95.7104,159.5,99.7104" style="stroke: #A80036; stroke-width: 1.0;"/><line style="stroke: #A80036; stroke-width: 1.5;" x1="266.5" x2="266.5" y1="74" y2="105.7104"/><polygon fill="#A80036" points="262.5,95.7104,266.5,105.7104,270.5,95.7104,266.5,99.7104" style="stroke: #A80036; stroke-width: 1.0;"/><line style="stroke: #A80036; stroke-width: 1.5;" x1="266.5" x2="266.5" y1="139.6792" y2="214.6792"/><polygon fill="#A80036" points="262.5,204.6792,266.5,214.6792,270.5,204.6792,266.5,208.6792" style="stroke: #A80036; stroke-width: 1.0;"/><line style="stroke: #A80036; stroke-width: 1.5;" x1="373.5" x2="373.5" y1="74" y2="105.7104"/><polygon fill="#A80036" points="369.5,95.7104,373.5,105.7104,377.5,95.7104,373.5,99.7104" style="stroke: #A80036; stroke-width: 1.0;"/><line style="stroke: #A80036; stroke-width: 1.5;" x1="373.5" x2="373.5" y1="139.6792" y2="214.6792"/><polygon fill="#A80036" points="369.5,204.6792,373.5,214.6792,377.5,204.6792,373.5,208.6792" style="stroke: #A80036; stroke-width: 1.0;"/><line style="stroke: #A80036; stroke-width: 1.5;" x1="96" x2="116" y1="62" y2="62"/><polygon fill="#A80036" points="106,58,116,62,106,66,110,62" style="stroke: #A80036; stroke-width: 1.0;"/><line style="stroke: #A80036; stroke-width: 1.5;" x1="203" x2="223" y1="62" y2="62"/><polygon fill="#A80036" points="213,58,223,62,213,66,217,62" style="stroke: #A80036; stroke-width: 1.0;"/><line style="stroke: #A80036; stroke-width: 1.5;" x1="310" x2="330" y1="62" y2="62"/><polygon fill="#A80036" points="320,58,330,62,320,66,324,62" style="stroke: #A80036; stroke-width: 1.0;"/><line style="stroke: #A80036; stroke-width: 1.5;" x1="261.5" x2="261.5" y1="30" y2="35"/><line style="stroke: #A80036; stroke-width: 1.5;" x1="261.5" x2="53" y1="35" y2="35"/><line style="stroke: #A80036; stroke-width: 1.5;" x1="53" x2="53" y1="35" y2="50"/><polygon fill="#A80036" points="49,40,53,50,57,40,53,44" style="stroke: #A80036; stroke-width: 1.0;"/><line style="stroke: #A80036; stroke-width: 1.5;" x1="417" x2="475" y1="62" y2="62"/><line style="stroke: #A80036; stroke-width: 1.5;" x1="475" x2="475" y1="62" y2="129.8081"/><polygon fill="#A80036" points="471,119.8081,475,129.8081,479,119.8081,475,123.8081" style="stroke: #A80036; stroke-width: 1.0;"/><line style="stroke: #A80036; stroke-width: 1.5;" x1="475" x2="475" y1="163.7769" y2="214.6792"/><polygon fill="#A80036" points="471,204.6792,475,214.6792,479,204.6792,475,208.6792" style="stroke: #A80036; stroke-width: 1.0;"/><line style="stroke: #A80036; stroke-width: 1.5;" x1="53" x2="475" y1="214.6792" y2="214.6792"/><line style="stroke: #A80036; stroke-width: 1.5;" x1="261.5" x2="261.5" y1="214.6792" y2="234.6792"/><polygon fill="#A80036" points="257.5,224.6792,261.5,234.6792,265.5,224.6792,261.5,228.6792" style="stroke: #A80036; stroke-width: 1.0;"/></g></svg>