<?xml version="1.0" encoding="UTF-8" standalone="yes"?><svg xmlns="http://www.w3.org/2000/svg" xmlns:xlink="http://www.w3.org/1999/xlink" height="223px" style="width:384px;height:223px;" version="1.1" viewBox="0 0 384 223" width="384px"><defs><filter height="300%" id="f1" width="300%" x="-1" y="-1"><feGaussianBlur result="blurOut" stdDeviation="2.0"/><feColorMatrix in="blurOut" result="blurOut2" type="matrix" values="0 0 0 0 0 0 0 0 0 0 0 0 0 0 0 0 0 0 .4 0"/><feOffset dx="4.0" dy="4.0" in="blurOut2" result="blurOut3"/><feBlend in="SourceGraphic" in2="blurOut3" mode="normal"/></filter></defs><g><ellipse cx="231.75" cy="20" fill="#000000" filter="url(#f1)" rx="10" ry="10" style="stroke: none; stroke-width: 1.0;"/><polygon fill="#FEFECE" filter="url(#f1)" points="185.75,50,277.75,50,289.75,62,277.75,74,185.75,74,173.75,62,185.75,50" style="stroke: #A80036; stroke-width: 1.5;"/><text fill="#000000" font-family="sans-serif" font-size="11" lengthAdjust="spacingAndGlyphs" textLength="92" x="185.75" y="65.8081">multiprocessor?</text><text fill="#000000" font-family="sans-serif" font-size="11" lengthAdjust="spacingAndGlyphs" textLength="20" x="153.75" y="59.4058">yes</text><text fill="#000000" font-family="sans-serif" font-size="11" lengthAdjust="spacingAndGlyphs" textLength="57" x="289.75" y="59.4058">monoproc</text><rect fill="#000000" filter="url(#f1)" height="6" rx="2.5" ry="2.5" style="stroke: #000000; stroke-width: 1.0;" width="250" x="10" y="84"/><rect fill="#FEFECE" filter="url(#f1)" height="33.9688" rx="12.5" ry="12.5" style="stroke: #A80036; stroke-width: 1.5;" width="97" x="24" y="110"/><text fill="#000000" font-family="sans-serif" font-size="12" lengthAdjust="spacingAndGlyphs" textLength="77" x="34" y="131.1387">Treatment 1</text><rect fill="#FEFECE" filter="url(#f1)" height="33.9688" rx="12.5" ry="12.5" style="stroke: #A80036; stroke-width: 1.5;" width="97" x="149" y="110"/><text fill="#000000" font-family="sans-serif" font-size="12" lengthAdjust="spacingAndGlyphs" textLength="77" x="159" y="131.1387">Treatment 2</text><rect fill="#000000" filter="url(#f1)" height="6" rx="2.5" ry="2.5" style="stroke: #000000; stroke-width: 1.0;" width="250" x="10" y="163.9688"/><rect fill="#FEFECE" filter="url(#f1)" height="33.9688" rx="12.5" ry="12.5" style="stroke: #A80036; stroke-width: 1.5;" width="97" x="280" y="84"/><text fill="#000000" font-family="sans-serif" font-size="12" lengthAdjust="spacingAndGlyphs" textLength="77" x="290" y="105.1387">Treatment 1</text><rect fill="#FEFECE" filter="url(#f1)" height="33.9688" rx="12.5" ry="12.5" style="stroke: #A80036; stroke-width: 1.5;" width="97" x="280" y="152.9688"/><text fill="#000000" font-family="sans-serif" font-size="12" lengthAdjust="spacingAndGlyphs" textLength="77" x="290" y="174.1074">Treatment 2</text><polygon fill="#FEFECE" filter="url(#f1)" points="231.75,192.9375,243.75,204.9375,231.75,216.9375,219.75,204.9375,231.75,192.9375" style="stroke: #A80036; stroke-width: 1.5;"/><line style="stroke: #A80036; stroke-width: 1.5;" x1="72.5" x2="72.5" y1="90" y2="110"/><polygon fill="#A80036" points="68.5,100,72.5,110,76.5,100,72.5,104" style="stroke: #A80036; stroke-width: 1.0;"/><line style="stroke: #A80036; stroke-width: 1.5;" x1="72.5" x2="72.5" y1="143.9688" y2="163.9688"/><polygon fill="#A80036" points="68.5,153.9688,72.5,163.9688,76.5,153.9688,72.5,157.9688" style="stroke: #A80036; stroke-width: 1.0;"/><line style="stroke: #A80036; stroke-width: 1.5;" x1="197.5" x2="197.5" y1="90" y2="110"/><polygon fill="#A80036" points="193.5,100,197.5,110,201.5,100,197.5,104" style="stroke: #A80036; stroke-width: 1.0;"/><line style="stroke: #A80036; stroke-width: 1.5;" x1="197.5" x2="197.5" y1="143.9688" y2="163.9688"/><polygon fill="#A80036" points="193.5,153.9688,197.5,163.9688,201.5,153.9688,197.5,157.9688" style="stroke: #A80036; stroke-width: 1.0;"/><line style="stroke: #A80036; stroke-width: 1.5;" x1="328.5" x2="328.5" y1="117.9688" y2="152.9688"/><polygon fill="#A80036" points="324.5,142.9688,328.5,152.9688,332.5,142.9688,328.5,146.9688" style="stroke: #A80036; stroke-width: 1.0;"/><line style="stroke: #A80036; stroke-width: 1.5;" x1="173.75" x2="135" y1="62" y2="62"/><line style="stroke: #A80036; stroke-width: 1.5;" x1="135" x2="135" y1="62" y2="84"/><polygon fill="#A80036" points="131,74,135,84,139,74,135,78" style="stroke: #A80036; stroke-width: 1.0;"/><line style="stroke: #A80036; stroke-width: 1.5;" x1="289.75" x2="328.5" y1="62" y2="62"/><line style="stroke: #A80036; stroke-width: 1.5;" x1="328.5" x2="328.5" y1="62" y2="84"/><polygon fill="#A80036" points="324.5,74,328.5,84,332.5,74,328.5,78" style="stroke: #A80036; stroke-width: 1.0;"/><line style="stroke: #A80036; stroke-width: 1.5;" x1="135" x2="135" y1="169.9688" y2="204.9375"/><line style="stroke: #A80036; stroke-width: 1.5;" x1="135" x2="219.75" y1="204.9375" y2="204.9375"/><polygon fill="#A80036" points="209.75,200.9375,219.75,204.9375,209.75,208.9375,213.75,204.9375" style="stroke: #A80036; stroke-width: 1.0;"/><line style="stroke: #A80036; stroke-width: 1.5;" x1="328.5" x2="328.5" y1="186.9375" y2="204.9375"/><line style="stroke: #A80036; stroke-width: 1.5;" x1="328.5" x2="243.75" y1="204.9375" y2="204.9375"/><polygon fill="#A80036" points="253.75,200.9375,243.75,204.9375,253.75,208.9375,249.75,204.9375" style="stroke: #A80036; stroke-width: 1.0;"/><line style="stroke: #A80036; stroke-width: 1.5;" x1="231.75" x2="231.75" y1="30" y2="50"/><polygon fill="#A80036" points="227.75,40,231.75,50,235.75,40,231.75,44" style="stroke: #A80036; stroke-width: 1.0;"/></g></svg>