<?xml version="1.0" encoding="UTF-8" standalone="yes"?><svg xmlns="http://www.w3.org/2000/svg" xmlns:xlink="http://www.w3.org/1999/xlink" height="460px" style="width:245px;height:460px;" version="1.1" viewBox="0 0 245 460" width="245px"><defs><filter height="300%" id="f1" width="300%" x="-1" y="-1"><feGaussianBlur result="blurOut" stdDeviation="2.0"/><feColorMatrix in="blurOut" result="blurOut2" type="matrix" values="0 0 0 0 0 0 0 0 0 0 0 0 0 0 0 0 0 0 .4 0"/><feOffset dx="4.0" dy="4.0" in="blurOut2" result="blurOut3"/><feBlend in="SourceGraphic" in2="blurOut3" mode="normal"/></filter></defs><g><text fill="#000000" font-family="sans-serif" font-size="18" lengthAdjust="spacingAndGlyphs" textLength="97" x="20" y="29.4531">Swimlane1</text><line style="stroke: none; stroke-width: 2.0;" x1="10" x2="10" y1="12.7451" y2="453.542"/><ellipse cx="68.5" cy="43.6982" fill="#000000" filter="url(#f1)" rx="10" ry="10" style="stroke: none; stroke-width: 1.0;"/><rect fill="#FEFECE" filter="url(#f1)" height="33.9688" rx="12.5" ry="12.5" style="stroke: #A80036; stroke-width: 1.5;" width="48" x="44.5" y="88.6982"/><text fill="#000000" font-family="sans-serif" font-size="12" lengthAdjust="spacingAndGlyphs" textLength="28" x="54.5" y="109.8369">foo1</text><rect fill="#FEFECE" filter="url(#f1)" height="33.9688" rx="12.5" ry="12.5" style="stroke: #A80036; stroke-width: 1.5;" width="48" x="44.5" y="295.6045"/><text fill="#000000" font-family="sans-serif" font-size="12" lengthAdjust="spacingAndGlyphs" textLength="28" x="54.5" y="316.7432">foo4</text><rect fill="#FAEBD7" height="440.7969" style="stroke: #FAEBD7; stroke-width: 1.0;" width="117" x="127" y="12.7451"/><text fill="#000000" font-family="sans-serif" font-size="18" lengthAdjust="spacingAndGlyphs" textLength="97" x="137" y="29.4531">Swimlane2</text><line style="stroke: none; stroke-width: 2.0;" x1="127" x2="127" y1="12.7451" y2="453.542"/><rect fill="#FEFECE" filter="url(#f1)" height="33.9688" rx="12.5" ry="12.5" style="stroke: #A80036; stroke-width: 1.5;" width="48" x="161.5" y="157.667"/><text fill="#000000" font-family="sans-serif" font-size="12" lengthAdjust="spacingAndGlyphs" textLength="28" x="171.5" y="178.8057">foo2</text><rect fill="#FEFECE" filter="url(#f1)" height="33.9688" rx="12.5" ry="12.5" style="stroke: #A80036; stroke-width: 1.5;" width="48" x="161.5" y="226.6357"/><text fill="#000000" font-family="sans-serif" font-size="12" lengthAdjust="spacingAndGlyphs" textLength="28" x="171.5" y="247.7744">foo3</text><rect fill="#FEFECE" filter="url(#f1)" height="33.9688" rx="12.5" ry="12.5" style="stroke: #A80036; stroke-width: 1.5;" width="48" x="161.5" y="364.5732"/><text fill="#000000" font-family="sans-serif" font-size="12" lengthAdjust="spacingAndGlyphs" textLength="28" x="171.5" y="385.7119">foo5</text><ellipse cx="185.5" cy="443.542" fill="none" filter="url(#f1)" rx="10" ry="10" style="stroke: #000000; stroke-width: 1.0;"/><ellipse cx="186" cy="444.042" fill="#000000" filter="url(#f1)" rx="6" ry="6" style="stroke: none; stroke-width: 1.0;"/><line style="stroke: none; stroke-width: 2.0;" x1="244" x2="244" y1="12.7451" y2="453.542"/><line style="stroke: #A80036; stroke-width: 1.5;" x1="68.5" x2="68.5" y1="53.6982" y2="88.6982"/><polygon fill="#A80036" points="64.5,78.6982,68.5,88.6982,72.5,78.6982,68.5,82.6982" style="stroke: #A80036; stroke-width: 1.0;"/><line style="stroke: #A80036; stroke-width: 1.5;" x1="185.5" x2="185.5" y1="191.6357" y2="226.6357"/><polygon fill="#A80036" points="181.5,216.6357,185.5,226.6357,189.5,216.6357,185.5,220.6357" style="stroke: #A80036; stroke-width: 1.0;"/><line style="stroke: #A80036; stroke-width: 1.5;" x1="185.5" x2="185.5" y1="398.542" y2="433.542"/><polygon fill="#A80036" points="181.5,423.542,185.5,433.542,189.5,423.542,185.5,427.542" style="stroke: #A80036; stroke-width: 1.0;"/><line style="stroke: #A80036; stroke-width: 1.5;" x1="68.5" x2="68.5" y1="122.667" y2="140.167"/><line style="stroke: #A80036; stroke-width: 1.5;" x1="68.5" x2="185.5" y1="140.167" y2="140.167"/><line style="stroke: #A80036; stroke-width: 1.5;" x1="185.5" x2="185.5" y1="140.167" y2="157.667"/><polygon fill="#A80036" points="181.5,147.667,185.5,157.667,189.5,147.667,185.5,151.667" style="stroke: #A80036; stroke-width: 1.0;"/><line style="stroke: #A80036; stroke-width: 1.5;" x1="185.5" x2="185.5" y1="260.6045" y2="278.1045"/><line style="stroke: #A80036; stroke-width: 1.5;" x1="185.5" x2="68.5" y1="278.1045" y2="278.1045"/><line style="stroke: #A80036; stroke-width: 1.5;" x1="68.5" x2="68.5" y1="278.1045" y2="295.6045"/><polygon fill="#A80036" points="64.5,285.6045,68.5,295.6045,72.5,285.6045,68.5,289.6045" style="stroke: #A80036; stroke-width: 1.0;"/><line style="stroke: #A80036; stroke-width: 1.5;" x1="68.5" x2="68.5" y1="329.5732" y2="347.0732"/><line style="stroke: #A80036; stroke-width: 1.5;" x1="68.5" x2="185.5" y1="347.0732" y2="347.0732"/><line style="stroke: #A80036; stroke-width: 1.5;" x1="185.5" x2="185.5" y1="347.0732" y2="364.5732"/><polygon fill="#A80036" points="181.5,354.5732,185.5,364.5732,189.5,354.5732,185.5,358.5732" style="stroke: #A80036; stroke-width: 1.0;"/></g></svg>