<?xml version="1.0" encoding="UTF-8" standalone="yes"?><svg xmlns="http://www.w3.org/2000/svg" xmlns:xlink="http://www.w3.org/1999/xlink" height="853px" style="width:579px;height:853px;" version="1.1" viewBox="0 0 579 853" width="579px"><defs><filter height="300%" id="f1" width="300%" x="-1" y="-1"><feGaussianBlur result="blurOut" stdDeviation="2.0"/><feColorMatrix in="blurOut" result="blurOut2" type="matrix" values="0 0 0 0 0 0 0 0 0 0 0 0 0 0 0 0 0 0 .4 0"/><feOffset dx="4.0" dy="4.0" in="blurOut2" result="blurOut3"/><feBlend in="SourceGraphic" in2="blurOut3" mode="normal"/></filter></defs><g><ellipse cx="293.75" cy="20" fill="#000000" filter="url(#f1)" rx="10" ry="10" style="stroke: none; stroke-width: 1.0;"/><rect fill="#FEFECE" filter="url(#f1)" height="33.9688" rx="12.5" ry="12.5" style="stroke: #A80036; stroke-width: 1.5;" width="200" x="193.75" y="50"/><text fill="#000000" font-family="sans-serif" font-size="12" lengthAdjust="spacingAndGlyphs" textLength="180" x="203.75" y="71.1387">ClickServlet.handleRequest()</text><rect fill="#FEFECE" filter="url(#f1)" height="33.9688" rx="12.5" ry="12.5" style="stroke: #A80036; stroke-width: 1.5;" width="81" x="253.25" y="103.9688"/><text fill="#000000" font-family="sans-serif" font-size="12" lengthAdjust="spacingAndGlyphs" textLength="61" x="263.25" y="125.1074">new page</text><polygon fill="#FEFECE" filter="url(#f1)" points="230.75,157.9375,356.75,157.9375,368.75,169.9375,356.75,181.9375,230.75,181.9375,218.75,169.9375,230.75,157.9375" style="stroke: #A80036; stroke-width: 1.5;"/><text fill="#000000" font-family="sans-serif" font-size="11" lengthAdjust="spacingAndGlyphs" textLength="126" x="230.75" y="173.7456">Page.onSecurityCheck</text><text fill="#000000" font-family="sans-serif" font-size="11" lengthAdjust="spacingAndGlyphs" textLength="23" x="195.75" y="167.3433">true</text><text fill="#000000" font-family="sans-serif" font-size="11" lengthAdjust="spacingAndGlyphs" textLength="28" x="368.75" y="167.3433">false</text><rect fill="#FEFECE" filter="url(#f1)" height="33.9688" rx="12.5" ry="12.5" style="stroke: #A80036; stroke-width: 1.5;" width="101" x="158.25" y="191.9375"/><text fill="#000000" font-family="sans-serif" font-size="12" lengthAdjust="spacingAndGlyphs" textLength="81" x="168.25" y="213.0762">Page.onInit()</text><polygon fill="#FEFECE" filter="url(#f1)" points="177.75,245.9063,239.75,245.9063,251.75,257.9063,239.75,269.9063,177.75,269.9063,165.75,257.9063,177.75,245.9063" style="stroke: #A80036; stroke-width: 1.5;"/><text fill="#000000" font-family="sans-serif" font-size="11" lengthAdjust="spacingAndGlyphs" textLength="62" x="177.75" y="261.7144">isForward?</text><text fill="#000000" font-family="sans-serif" font-size="11" lengthAdjust="spacingAndGlyphs" textLength="14" x="151.75" y="255.312">no</text><rect fill="#FEFECE" filter="url(#f1)" height="33.9688" rx="12.5" ry="12.5" style="stroke: #A80036; stroke-width: 1.5;" width="125" x="66" y="279.9063"/><text fill="#000000" font-family="sans-serif" font-size="12" lengthAdjust="spacingAndGlyphs" textLength="105" x="76" y="301.0449">Process controls</text><polygon fill="#FEFECE" filter="url(#f1)" points="68,333.875,189,333.875,201,345.875,189,357.875,68,357.875,56,345.875,68,333.875" style="stroke: #A80036; stroke-width: 1.5;"/><text fill="#000000" font-family="sans-serif" font-size="11" lengthAdjust="spacingAndGlyphs" textLength="121" x="68" y="349.6831">continue processing?</text><text fill="#000000" font-family="sans-serif" font-size="11" lengthAdjust="spacingAndGlyphs" textLength="14" x="42" y="343.2808">no</text><ellipse cx="46" cy="377.875" fill="none" filter="url(#f1)" rx="10" ry="10" style="stroke: #000000; stroke-width: 1.0;"/><ellipse cx="46.5" cy="378.375" fill="#000000" filter="url(#f1)" rx="6" ry="6" style="stroke: none; stroke-width: 1.0;"/><polygon fill="#FEFECE" filter="url(#f1)" points="108,412.3906,149,412.3906,161,424.3906,149,436.3906,108,436.3906,96,424.3906,108,412.3906" style="stroke: #A80036; stroke-width: 1.5;"/><text fill="#000000" font-family="sans-serif" font-size="11" lengthAdjust="spacingAndGlyphs" textLength="41" x="108" y="428.1987">isPost?</text><text fill="#000000" font-family="sans-serif" font-size="11" lengthAdjust="spacingAndGlyphs" textLength="20" x="76" y="421.7964">yes</text><text fill="#000000" font-family="sans-serif" font-size="11" lengthAdjust="spacingAndGlyphs" textLength="14" x="161" y="421.7964">no</text><rect fill="#FEFECE" filter="url(#f1)" height="33.9688" rx="12.5" ry="12.5" style="stroke: #A80036; stroke-width: 1.5;" width="110" x="10" y="446.3906"/><text fill="#000000" font-family="sans-serif" font-size="12" lengthAdjust="spacingAndGlyphs" textLength="90" x="20" y="467.5293">Page.onPost()</text><rect fill="#FEFECE" filter="url(#f1)" height="33.9688" rx="12.5" ry="12.5" style="stroke: #A80036; stroke-width: 1.5;" width="104" x="140" y="446.3906"/><text fill="#000000" font-family="sans-serif" font-size="12" lengthAdjust="spacingAndGlyphs" textLength="84" x="150" y="467.5293">Page.onGet()</text><polygon fill="#FEFECE" filter="url(#f1)" points="128.5,486.3594,140.5,498.3594,128.5,510.3594,116.5,498.3594,128.5,486.3594" style="stroke: #A80036; stroke-width: 1.5;"/><rect fill="#FEFECE" filter="url(#f1)" height="33.9688" rx="12.5" ry="12.5" style="stroke: #A80036; stroke-width: 1.5;" width="127" x="65" y="530.3594"/><text fill="#000000" font-family="sans-serif" font-size="12" lengthAdjust="spacingAndGlyphs" textLength="107" x="75" y="551.498">Page.onRender()</text><polygon fill="#FEFECE" filter="url(#f1)" points="208.75,570.3281,220.75,582.3281,208.75,594.3281,196.75,582.3281,208.75,570.3281" style="stroke: #A80036; stroke-width: 1.5;"/><polygon fill="#FEFECE" filter="url(#f1)" points="293.75,600.3281,305.75,612.3281,293.75,624.3281,281.75,612.3281,293.75,600.3281" style="stroke: #A80036; stroke-width: 1.5;"/><polygon fill="#FEFECE" filter="url(#f1)" points="259.75,644.3281,327.75,644.3281,339.75,656.3281,327.75,668.3281,259.75,668.3281,247.75,656.3281,259.75,644.3281" style="stroke: #A80036; stroke-width: 1.5;"/><text fill="#000000" font-family="sans-serif" font-size="11" lengthAdjust="spacingAndGlyphs" textLength="68" x="259.75" y="660.1362">do redirect?</text><text fill="#000000" font-family="sans-serif" font-size="11" lengthAdjust="spacingAndGlyphs" textLength="20" x="227.75" y="653.7339">yes</text><rect fill="#FEFECE" filter="url(#f1)" height="33.9688" rx="12.5" ry="12.5" style="stroke: #A80036; stroke-width: 1.5;" width="123" x="115.25" y="678.3281"/><text fill="#000000" font-family="sans-serif" font-size="12" lengthAdjust="spacingAndGlyphs" textLength="103" x="125.25" y="699.4668">redirect process</text><polygon fill="#FEFECE" filter="url(#f1)" points="376.75,678.3281,444.75,678.3281,456.75,690.3281,444.75,702.3281,376.75,702.3281,364.75,690.3281,376.75,678.3281" style="stroke: #A80036; stroke-width: 1.5;"/><text fill="#000000" font-family="sans-serif" font-size="11" lengthAdjust="spacingAndGlyphs" textLength="68" x="376.75" y="694.1362">do forward?</text><text fill="#000000" font-family="sans-serif" font-size="11" lengthAdjust="spacingAndGlyphs" textLength="20" x="344.75" y="687.7339">yes</text><text fill="#000000" font-family="sans-serif" font-size="11" lengthAdjust="spacingAndGlyphs" textLength="14" x="456.75" y="687.7339">no</text><rect fill="#FEFECE" filter="url(#f1)" height="33.9688" rx="12.5" ry="12.5" style="stroke: #A80036; stroke-width: 1.5;" width="123" x="268.25" y="712.3281"/><text fill="#000000" font-family="sans-serif" font-size="12" lengthAdjust="spacingAndGlyphs" textLength="103" x="278.25" y="733.4668">Forward request</text><rect fill="#FEFECE" filter="url(#f1)" height="33.9688" rx="12.5" ry="12.5" style="stroke: #A80036; stroke-width: 1.5;" width="161" x="411.25" y="712.3281"/><text fill="#000000" font-family="sans-serif" font-size="12" lengthAdjust="spacingAndGlyphs" textLength="141" x="421.25" y="733.4668">Render page template</text><polygon fill="#FEFECE" filter="url(#f1)" points="410.75,752.2969,422.75,764.2969,410.75,776.2969,398.75,764.2969,410.75,752.2969" style="stroke: #A80036; stroke-width: 1.5;"/><polygon fill="#FEFECE" filter="url(#f1)" points="293.75,782.2969,305.75,794.2969,293.75,806.2969,281.75,794.2969,293.75,782.2969" style="stroke: #A80036; stroke-width: 1.5;"/><ellipse cx="293.75" cy="836.2969" fill="none" filter="url(#f1)" rx="10" ry="10" style="stroke: #000000; stroke-width: 1.0;"/><ellipse cx="294.25" cy="836.7969" fill="#000000" filter="url(#f1)" rx="6" ry="6" style="stroke: none; stroke-width: 1.0;"/><line style="stroke: #A80036; stroke-width: 1.5;" x1="293.75" x2="293.75" y1="30" y2="50"/><polygon fill="#A80036" points="289.75,40,293.75,50,297.75,40,293.75,44" style="stroke: #A80036; stroke-width: 1.0;"/><line style="stroke: #A80036; stroke-width: 1.5;" x1="293.75" x2="293.75" y1="83.9688" y2="103.9688"/><polygon fill="#A80036" points="289.75,93.9688,293.75,103.9688,297.75,93.9688,293.75,97.9688" style="stroke: #A80036; stroke-width: 1.0;"/><line style="stroke: #A80036; stroke-width: 1.5;" x1="56" x2="46" y1="345.875" y2="345.875"/><line style="stroke: #A80036; stroke-width: 1.5;" x1="46" x2="46" y1="345.875" y2="367.875"/><polygon fill="#A80036" points="42,357.875,46,367.875,50,357.875,46,361.875" style="stroke: #A80036; stroke-width: 1.0;"/><line style="stroke: #A80036; stroke-width: 1.5;" x1="201" x2="211" y1="345.875" y2="345.875"/><polygon fill="#A80036" points="207,359.875,211,369.875,215,359.875,211,363.875" style="stroke: #A80036; stroke-width: 1.5;"/><line style="stroke: #A80036; stroke-width: 1.5;" x1="211" x2="211" y1="345.875" y2="393.875"/><line style="stroke: #A80036; stroke-width: 1.5;" x1="211" x2="128.5" y1="393.875" y2="393.875"/><line style="stroke: #A80036; stroke-width: 1.5;" x1="128.5" x2="128.5" y1="393.875" y2="412.3906"/><polygon fill="#A80036" points="124.5,402.3906,128.5,412.3906,132.5,402.3906,128.5,406.3906" style="stroke: #A80036; stroke-width: 1.0;"/><line style="stroke: #A80036; stroke-width: 1.5;" x1="128.5" x2="128.5" y1="313.875" y2="333.875"/><polygon fill="#A80036" points="124.5,323.875,128.5,333.875,132.5,323.875,128.5,327.875" style="stroke: #A80036; stroke-width: 1.0;"/><line style="stroke: #A80036; stroke-width: 1.5;" x1="96" x2="65" y1="424.3906" y2="424.3906"/><line style="stroke: #A80036; stroke-width: 1.5;" x1="65" x2="65" y1="424.3906" y2="446.3906"/><polygon fill="#A80036" points="61,436.3906,65,446.3906,69,436.3906,65,440.3906" style="stroke: #A80036; stroke-width: 1.0;"/><line style="stroke: #A80036; stroke-width: 1.5;" x1="161" x2="192" y1="424.3906" y2="424.3906"/><line style="stroke: #A80036; stroke-width: 1.5;" x1="192" x2="192" y1="424.3906" y2="446.3906"/><polygon fill="#A80036" points="188,436.3906,192,446.3906,196,436.3906,192,440.3906" style="stroke: #A80036; stroke-width: 1.0;"/><line style="stroke: #A80036; stroke-width: 1.5;" x1="65" x2="65" y1="480.3594" y2="498.3594"/><line style="stroke: #A80036; stroke-width: 1.5;" x1="65" x2="116.5" y1="498.3594" y2="498.3594"/><polygon fill="#A80036" points="106.5,494.3594,116.5,498.3594,106.5,502.3594,110.5,498.3594" style="stroke: #A80036; stroke-width: 1.0;"/><line style="stroke: #A80036; stroke-width: 1.5;" x1="192" x2="192" y1="480.3594" y2="498.3594"/><line style="stroke: #A80036; stroke-width: 1.5;" x1="192" x2="140.5" y1="498.3594" y2="498.3594"/><polygon fill="#A80036" points="150.5,494.3594,140.5,498.3594,150.5,502.3594,146.5,498.3594" style="stroke: #A80036; stroke-width: 1.0;"/><line style="stroke: #A80036; stroke-width: 1.5;" x1="128.5" x2="128.5" y1="510.3594" y2="530.3594"/><polygon fill="#A80036" points="124.5,520.3594,128.5,530.3594,132.5,520.3594,128.5,524.3594" style="stroke: #A80036; stroke-width: 1.0;"/><line style="stroke: #A80036; stroke-width: 1.5;" x1="165.75" x2="128.5" y1="257.9063" y2="257.9063"/><line style="stroke: #A80036; stroke-width: 1.5;" x1="128.5" x2="128.5" y1="257.9063" y2="279.9063"/><polygon fill="#A80036" points="124.5,269.9063,128.5,279.9063,132.5,269.9063,128.5,273.9063" style="stroke: #A80036; stroke-width: 1.0;"/><line style="stroke: #A80036; stroke-width: 1.5;" x1="251.75" x2="289" y1="257.9063" y2="257.9063"/><polygon fill="#A80036" points="285,401.875,289,411.875,293,401.875,289,405.875" style="stroke: #A80036; stroke-width: 1.5;"/><line style="stroke: #A80036; stroke-width: 1.5;" x1="289" x2="289" y1="257.9063" y2="582.3281"/><line style="stroke: #A80036; stroke-width: 1.5;" x1="289" x2="220.75" y1="582.3281" y2="582.3281"/><polygon fill="#A80036" points="230.75,578.3281,220.75,582.3281,230.75,586.3281,226.75,582.3281" style="stroke: #A80036; stroke-width: 1.0;"/><line style="stroke: #A80036; stroke-width: 1.5;" x1="128.5" x2="128.5" y1="564.3281" y2="582.3281"/><line style="stroke: #A80036; stroke-width: 1.5;" x1="128.5" x2="196.75" y1="582.3281" y2="582.3281"/><polygon fill="#A80036" points="186.75,578.3281,196.75,582.3281,186.75,586.3281,190.75,582.3281" style="stroke: #A80036; stroke-width: 1.0;"/><line style="stroke: #A80036; stroke-width: 1.5;" x1="208.75" x2="208.75" y1="225.9063" y2="245.9063"/><polygon fill="#A80036" points="204.75,235.9063,208.75,245.9063,212.75,235.9063,208.75,239.9063" style="stroke: #A80036; stroke-width: 1.0;"/><line style="stroke: #A80036; stroke-width: 1.5;" x1="218.75" x2="208.75" y1="169.9375" y2="169.9375"/><line style="stroke: #A80036; stroke-width: 1.5;" x1="208.75" x2="208.75" y1="169.9375" y2="191.9375"/><polygon fill="#A80036" points="204.75,181.9375,208.75,191.9375,212.75,181.9375,208.75,185.9375" style="stroke: #A80036; stroke-width: 1.0;"/><line style="stroke: #A80036; stroke-width: 1.5;" x1="368.75" x2="378.75" y1="169.9375" y2="169.9375"/><polygon fill="#A80036" points="374.75,381.875,378.75,391.875,382.75,381.875,378.75,385.875" style="stroke: #A80036; stroke-width: 1.5;"/><line style="stroke: #A80036; stroke-width: 1.5;" x1="378.75" x2="378.75" y1="169.9375" y2="612.3281"/><line style="stroke: #A80036; stroke-width: 1.5;" x1="378.75" x2="305.75" y1="612.3281" y2="612.3281"/><polygon fill="#A80036" points="315.75,608.3281,305.75,612.3281,315.75,616.3281,311.75,612.3281" style="stroke: #A80036; stroke-width: 1.0;"/><line style="stroke: #A80036; stroke-width: 1.5;" x1="208.75" x2="208.75" y1="594.3281" y2="612.3281"/><line style="stroke: #A80036; stroke-width: 1.5;" x1="208.75" x2="281.75" y1="612.3281" y2="612.3281"/><polygon fill="#A80036" points="271.75,608.3281,281.75,612.3281,271.75,616.3281,275.75,612.3281" style="stroke: #A80036; stroke-width: 1.0;"/><line style="stroke: #A80036; stroke-width: 1.5;" x1="293.75" x2="293.75" y1="137.9375" y2="157.9375"/><polygon fill="#A80036" points="289.75,147.9375,293.75,157.9375,297.75,147.9375,293.75,151.9375" style="stroke: #A80036; stroke-width: 1.0;"/><line style="stroke: #A80036; stroke-width: 1.5;" x1="364.75" x2="329.75" y1="690.3281" y2="690.3281"/><line style="stroke: #A80036; stroke-width: 1.5;" x1="329.75" x2="329.75" y1="690.3281" y2="712.3281"/><polygon fill="#A80036" points="325.75,702.3281,329.75,712.3281,333.75,702.3281,329.75,706.3281" style="stroke: #A80036; stroke-width: 1.0;"/><line style="stroke: #A80036; stroke-width: 1.5;" x1="456.75" x2="491.75" y1="690.3281" y2="690.3281"/><line style="stroke: #A80036; stroke-width: 1.5;" x1="491.75" x2="491.75" y1="690.3281" y2="712.3281"/><polygon fill="#A80036" points="487.75,702.3281,491.75,712.3281,495.75,702.3281,491.75,706.3281" style="stroke: #A80036; stroke-width: 1.0;"/><line style="stroke: #A80036; stroke-width: 1.5;" x1="329.75" x2="329.75" y1="746.2969" y2="764.2969"/><line style="stroke: #A80036; stroke-width: 1.5;" x1="329.75" x2="398.75" y1="764.2969" y2="764.2969"/><polygon fill="#A80036" points="388.75,760.2969,398.75,764.2969,388.75,768.2969,392.75,764.2969" style="stroke: #A80036; stroke-width: 1.0;"/><line style="stroke: #A80036; stroke-width: 1.5;" x1="491.75" x2="491.75" y1="746.2969" y2="764.2969"/><line style="stroke: #A80036; stroke-width: 1.5;" x1="491.75" x2="422.75" y1="764.2969" y2="764.2969"/><polygon fill="#A80036" points="432.75,760.2969,422.75,764.2969,432.75,768.2969,428.75,764.2969" style="stroke: #A80036; stroke-width: 1.0;"/><line style="stroke: #A80036; stroke-width: 1.5;" x1="247.75" x2="176.75" y1="656.3281" y2="656.3281"/><line style="stroke: #A80036; stroke-width: 1.5;" x1="176.75" x2="176.75" y1="656.3281" y2="678.3281"/><polygon fill="#A80036" points="172.75,668.3281,176.75,678.3281,180.75,668.3281,176.75,672.3281" style="stroke: #A80036; stroke-width: 1.0;"/><line style="stroke: #A80036; stroke-width: 1.5;" x1="339.75" x2="410.75" y1="656.3281" y2="656.3281"/><line style="stroke: #A80036; stroke-width: 1.5;" x1="410.75" x2="410.75" y1="656.3281" y2="678.3281"/><polygon fill="#A80036" points="406.75,668.3281,410.75,678.3281,414.75,668.3281,410.75,672.3281" style="stroke: #A80036; stroke-width: 1.0;"/><line style="stroke: #A80036; stroke-width: 1.5;" x1="176.75" x2="176.75" y1="712.2969" y2="794.2969"/><line style="stroke: #A80036; stroke-width: 1.5;" x1="176.75" x2="281.75" y1="794.2969" y2="794.2969"/><polygon fill="#A80036" points="271.75,790.2969,281.75,794.2969,271.75,798.2969,275.75,794.2969" style="stroke: #A80036; stroke-width: 1.0;"/><line style="stroke: #A80036; stroke-width: 1.5;" x1="410.75" x2="410.75" y1="776.2969" y2="794.2969"/><line style="stroke: #A80036; stroke-width: 1.5;" x1="410.75" x2="305.75" y1="794.2969" y2="794.2969"/><polygon fill="#A80036" points="315.75,790.2969,305.75,794.2969,315.75,798.2969,311.75,794.2969" style="stroke: #A80036; stroke-width: 1.0;"/><line style="stroke: #A80036; stroke-width: 1.5;" x1="293.75" x2="293.75" y1="624.3281" y2="644.3281"/><polygon fill="#A80036" points="289.75,634.3281,293.75,644.3281,297.75,634.3281,293.75,638.3281" style="stroke: #A80036; stroke-width: 1.0;"/><line style="stroke: #A80036; stroke-width: 1.5;" x1="293.75" x2="293.75" y1="806.2969" y2="826.2969"/><polygon fill="#A80036" points="289.75,816.2969,293.75,826.2969,297.75,816.2969,293.75,820.2969" style="stroke: #A80036; stroke-width: 1.0;"/></g></svg>