<?xml version="1.0" encoding="UTF-8" standalone="yes"?><svg xmlns="http://www.w3.org/2000/svg" xmlns:xlink="http://www.w3.org/1999/xlink" height="265px" style="width:183px;height:265px;" version="1.1" viewBox="0 0 183 265" width="183px"><defs><filter height="300%" id="f1" width="300%" x="-1" y="-1"><feGaussianBlur result="blurOut" stdDeviation="2.0"/><feColorMatrix in="blurOut" result="blurOut2" type="matrix" values="0 0 0 0 0 0 0 0 0 0 0 0 0 0 0 0 0 0 .4 0"/><feOffset dx="4.0" dy="4.0" in="blurOut2" result="blurOut3"/><feBlend in="SourceGraphic" in2="blurOut3" mode="normal"/></filter></defs><g><ellipse cx="96" cy="20" fill="#000000" filter="url(#f1)" rx="10" ry="10" style="stroke: none; stroke-width: 1.0;"/><rect fill="#FEFECE" filter="url(#f1)" height="33.9688" rx="12.5" ry="12.5" style="stroke: #A80036; stroke-width: 1.5;" width="82" x="55" y="94"/><text fill="#000000" font-family="sans-serif" font-size="12" lengthAdjust="spacingAndGlyphs" textLength="62" x="65" y="115.1387">read data</text><rect fill="#FEFECE" filter="url(#f1)" height="33.9688" rx="12.5" ry="12.5" style="stroke: #A80036; stroke-width: 1.5;" width="140" x="26" y="162.9688"/><text fill="#000000" font-family="sans-serif" font-size="12" lengthAdjust="spacingAndGlyphs" textLength="120" x="36" y="184.1074">generate diagrams</text><polygon fill="#FEFECE" filter="url(#f1)" points="53.5,50,138.5,50,150.5,62,138.5,74,53.5,74,41.5,62,53.5,50" style="stroke: #A80036; stroke-width: 1.5;"/><text fill="#000000" font-family="sans-serif" font-size="11" lengthAdjust="spacingAndGlyphs" textLength="85" x="53.5" y="65.8081">data available?</text><ellipse cx="96" cy="248.9375" fill="none" filter="url(#f1)" rx="10" ry="10" style="stroke: #000000; stroke-width: 1.0;"/><ellipse cx="96.5" cy="249.4375" fill="#000000" filter="url(#f1)" rx="6" ry="6" style="stroke: none; stroke-width: 1.0;"/><line style="stroke: #A80036; stroke-width: 1.5;" x1="96" x2="96" y1="127.9688" y2="162.9688"/><polygon fill="#A80036" points="92,152.9688,96,162.9688,100,152.9688,96,156.9688" style="stroke: #A80036; stroke-width: 1.0;"/><line style="stroke: #A80036; stroke-width: 1.5;" x1="96" x2="96" y1="74" y2="94"/><polygon fill="#A80036" points="92,84,96,94,100,84,96,88" style="stroke: #A80036; stroke-width: 1.0;"/><line style="stroke: #A80036; stroke-width: 1.5;" x1="96" x2="96" y1="196.9375" y2="206.9375"/><line style="stroke: #A80036; stroke-width: 1.5;" x1="96" x2="178" y1="206.9375" y2="206.9375"/><polygon fill="#A80036" points="174,143.4688,178,133.4688,182,143.4688,178,139.4688" style="stroke: #A80036; stroke-width: 1.5;"/><line style="stroke: #A80036; stroke-width: 1.5;" x1="178" x2="178" y1="62" y2="206.9375"/><line style="stroke: #A80036; stroke-width: 1.5;" x1="178" x2="150.5" y1="62" y2="62"/><polygon fill="#A80036" points="160.5,58,150.5,62,160.5,66,156.5,62" style="stroke: #A80036; stroke-width: 1.0;"/><line style="stroke: #A80036; stroke-width: 1.5;" x1="41.5" x2="14" y1="62" y2="62"/><polygon fill="#A80036" points="10,129.4688,14,139.4688,18,129.4688,14,133.4688" style="stroke: #A80036; stroke-width: 1.5;"/><line style="stroke: #A80036; stroke-width: 1.5;" x1="14" x2="14" y1="62" y2="218.9375"/><line style="stroke: #A80036; stroke-width: 1.5;" x1="14" x2="96" y1="218.9375" y2="218.9375"/><line style="stroke: #A80036; stroke-width: 1.5;" x1="96" x2="96" y1="218.9375" y2="238.9375"/><polygon fill="#A80036" points="92,228.9375,96,238.9375,100,228.9375,96,232.9375" style="stroke: #A80036; stroke-width: 1.0;"/><line style="stroke: #A80036; stroke-width: 1.5;" x1="96" x2="96" y1="30" y2="50"/><polygon fill="#A80036" points="92,40,96,50,100,40,96,44" style="stroke: #A80036; stroke-width: 1.0;"/></g></svg>