<?xml version="1.0" encoding="UTF-8" standalone="yes"?><svg xmlns="http://www.w3.org/2000/svg" xmlns:xlink="http://www.w3.org/1999/xlink" height="211px" style="width:147px;height:211px;" version="1.1" viewBox="0 0 147 211" width="147px"><defs><filter height="300%" id="f1" width="300%" x="-1" y="-1"><feGaussianBlur result="blurOut" stdDeviation="2.0"/><feColorMatrix in="blurOut" result="blurOut2" type="matrix" values="0 0 0 0 0 0 0 0 0 0 0 0 0 0 0 0 0 0 .4 0"/><feOffset dx="4.0" dy="4.0" in="blurOut2" result="blurOut3"/><feBlend in="SourceGraphic" in2="blurOut3" mode="normal"/></filter></defs><g><rect fill="#FEFECE" filter="url(#f1)" height="60.8047" style="stroke: #A80036; stroke-width: 1.5;" width="72" x="36" y="8"/><ellipse cx="51" cy="24" fill="#ADD1B2" rx="11" ry="11" style="stroke: #A80036; stroke-width: 1.0;"/><path d="M53.9688,29.6406 Q53.3906,29.9375 52.75,30.0859 Q52.1094,30.2344 51.4063,30.2344 Q48.9063,30.2344 47.5859,28.5859 Q46.2656,26.9375 46.2656,23.8125 Q46.2656,20.6875 47.5859,19.0313 Q48.9063,17.375 51.4063,17.375 Q52.1094,17.375 52.7578,17.5313 Q53.4063,17.6875 53.9688,17.9844 L53.9688,20.7031 Q53.3438,20.125 52.75,19.8516 Q52.1563,19.5781 51.5313,19.5781 Q50.1875,19.5781 49.5,20.6484 Q48.8125,21.7188 48.8125,23.8125 Q48.8125,25.9063 49.5,26.9766 Q50.1875,28.0469 51.5313,28.0469 Q52.1563,28.0469 52.75,27.7734 Q53.3438,27.5 53.9688,26.9219 L53.9688,29.6406 Z "/><text fill="#000000" font-family="sans-serif" font-size="12" lengthAdjust="spacingAndGlyphs" textLength="40" x="65" y="28.1543">Object</text><line style="stroke: #A80036; stroke-width: 1.5;" x1="37" x2="107" y1="40" y2="40"/><line style="stroke: #A80036; stroke-width: 1.5;" x1="37" x2="107" y1="48" y2="48"/><text fill="#000000" font-family="sans-serif" font-size="11" lengthAdjust="spacingAndGlyphs" textLength="46" x="42" y="62.2104">equals()</text><rect fill="#FEFECE" filter="url(#f1)" height="73.6094" style="stroke: #A80036; stroke-width: 1.5;" width="132" x="6" y="129"/><ellipse cx="42.15" cy="145" fill="#ADD1B2" rx="11" ry="11" style="stroke: #A80036; stroke-width: 1.0;"/><path d="M45.1188,150.6406 Q44.5406,150.9375 43.9,151.0859 Q43.2594,151.2344 42.5563,151.2344 Q40.0563,151.2344 38.7359,149.5859 Q37.4156,147.9375 37.4156,144.8125 Q37.4156,141.6875 38.7359,140.0313 Q40.0563,138.375 42.5563,138.375 Q43.2594,138.375 43.9078,138.5313 Q44.5563,138.6875 45.1188,138.9844 L45.1188,141.7031 Q44.4938,141.125 43.9,140.8516 Q43.3063,140.5781 42.6813,140.5781 Q41.3375,140.5781 40.65,141.6484 Q39.9625,142.7188 39.9625,144.8125 Q39.9625,146.9063 40.65,147.9766 Q41.3375,149.0469 42.6813,149.0469 Q43.3063,149.0469 43.9,148.7734 Q44.4938,148.5 45.1188,147.9219 L45.1188,150.6406 Z "/><text fill="#000000" font-family="sans-serif" font-size="12" lengthAdjust="spacingAndGlyphs" textLength="53" x="60.85" y="149.1543">ArrayList</text><line style="stroke: #A80036; stroke-width: 1.5;" x1="7" x2="137" y1="161" y2="161"/><text fill="#000000" font-family="sans-serif" font-size="11" lengthAdjust="spacingAndGlyphs" textLength="120" x="12" y="175.2104">Object[] elementData</text><line style="stroke: #A80036; stroke-width: 1.5;" x1="7" x2="137" y1="181.8047" y2="181.8047"/><text fill="#000000" font-family="sans-serif" font-size="11" lengthAdjust="spacingAndGlyphs" textLength="30" x="12" y="196.0151">size()</text><path d="M72,89.505 C72,102.621 72,116.5128 72,128.7555 " fill="none" style="stroke: #A80036; stroke-width: 1.0;"/><polygon fill="none" points="65.0001,89.242,72,69.242,79.0001,89.242,65.0001,89.242" style="stroke: #A80036; stroke-width: 1.0;"/></g></svg>