<?xml version="1.0" encoding="UTF-8" standalone="yes"?><svg xmlns="http://www.w3.org/2000/svg" xmlns:xlink="http://www.w3.org/1999/xlink" height="116px" style="width:99px;height:116px;" version="1.1" viewBox="0 0 99 116" width="99px"><defs><filter height="300%" id="f1" width="300%" x="-1" y="-1"><feGaussianBlur result="blurOut" stdDeviation="2.0"/><feColorMatrix in="blurOut" result="blurOut2" type="matrix" values="0 0 0 0 0 0 0 0 0 0 0 0 0 0 0 0 0 0 .4 0"/><feOffset dx="4.0" dy="4.0" in="blurOut2" result="blurOut3"/><feBlend in="SourceGraphic" in2="blurOut3" mode="normal"/></filter></defs><g><rect fill="#FEFECE" filter="url(#f1)" height="99.2188" style="stroke: #A80036; stroke-width: 1.5;" width="84" x="6" y="8"/><ellipse cx="24.15" cy="24" fill="#ADD1B2" rx="11" ry="11" style="stroke: #A80036; stroke-width: 1.0;"/><path d="M27.1188,29.6406 Q26.5406,29.9375 25.9,30.0859 Q25.2594,30.2344 24.5563,30.2344 Q22.0563,30.2344 20.7359,28.5859 Q19.4156,26.9375 19.4156,23.8125 Q19.4156,20.6875 20.7359,19.0313 Q22.0563,17.375 24.5563,17.375 Q25.2594,17.375 25.9078,17.5313 Q26.5563,17.6875 27.1188,17.9844 L27.1188,20.7031 Q26.4938,20.125 25.9,19.8516 Q25.3063,19.5781 24.6813,19.5781 Q23.3375,19.5781 22.65,20.6484 Q21.9625,21.7188 21.9625,23.8125 Q21.9625,25.9063 22.65,26.9766 Q23.3375,28.0469 24.6813,28.0469 Q25.3063,28.0469 25.9,27.7734 Q26.4938,27.5 27.1188,26.9219 L27.1188,29.6406 Z "/><text fill="#000000" font-family="sans-serif" font-size="12" lengthAdjust="spacingAndGlyphs" textLength="45" x="38.85" y="28.1543">Dummy</text><line style="stroke: #A80036; stroke-width: 1.5;" x1="7" x2="89" y1="40" y2="40"/><rect fill="none" height="6" style="stroke: #C82930; stroke-width: 1.0;" width="6" x="14" y="48.9023"/><text fill="#000000" font-family="sans-serif" font-size="11" lengthAdjust="spacingAndGlyphs" textLength="31" x="26" y="54.2104">field1</text><polygon fill="none" points="17,59.707,21,63.707,17,67.707,13,63.707" style="stroke: #B38D22; stroke-width: 1.0;"/><text fill="#000000" font-family="sans-serif" font-size="11" lengthAdjust="spacingAndGlyphs" textLength="31" x="26" y="67.0151">field2</text><line style="stroke: #A80036; stroke-width: 1.5;" x1="7" x2="89" y1="73.6094" y2="73.6094"/><polygon fill="#4177AF" points="17,81.5117,13,87.5117,21,87.5117" style="stroke: #1963A0; stroke-width: 1.0;"/><text fill="#000000" font-family="sans-serif" font-size="11" lengthAdjust="spacingAndGlyphs" textLength="58" x="26" y="87.8198">method1()</text><ellipse cx="17" cy="98.3164" fill="#84BE84" rx="3" ry="3" style="stroke: #038048; stroke-width: 1.0;"/><text fill="#000000" font-family="sans-serif" font-size="11" lengthAdjust="spacingAndGlyphs" textLength="58" x="26" y="100.6245">method2()</text></g></svg>