<?xml version="1.0" encoding="UTF-8" standalone="yes"?><svg xmlns="http://www.w3.org/2000/svg" xmlns:xlink="http://www.w3.org/1999/xlink" height="229px" style="width:476px;height:229px;" version="1.1" viewBox="0 0 476 229" width="476px"><defs><filter height="300%" id="f1" width="300%" x="-1" y="-1"><feGaussianBlur result="blurOut" stdDeviation="2.0"/><feColorMatrix in="blurOut" result="blurOut2" type="matrix" values="0 0 0 0 0 0 0 0 0 0 0 0 0 0 0 0 0 0 .4 0"/><feOffset dx="4.0" dy="4.0" in="blurOut2" result="blurOut3"/><feBlend in="SourceGraphic" in2="blurOut3" mode="normal"/></filter></defs><g><rect fill="#FEFECE" filter="url(#f1)" height="48" style="stroke: #A80036; stroke-width: 1.5;" width="77" x="81" y="8"/><ellipse cx="96" cy="24" fill="#ADD1B2" rx="11" ry="11" style="stroke: #A80036; stroke-width: 1.0;"/><path d="M98.9688,29.6406 Q98.3906,29.9375 97.75,30.0859 Q97.1094,30.2344 96.4063,30.2344 Q93.9063,30.2344 92.5859,28.5859 Q91.2656,26.9375 91.2656,23.8125 Q91.2656,20.6875 92.5859,19.0313 Q93.9063,17.375 96.4063,17.375 Q97.1094,17.375 97.7578,17.5313 Q98.4063,17.6875 98.9688,17.9844 L98.9688,20.7031 Q98.3438,20.125 97.75,19.8516 Q97.1563,19.5781 96.5313,19.5781 Q95.1875,19.5781 94.5,20.6484 Q93.8125,21.7188 93.8125,23.8125 Q93.8125,25.9063 94.5,26.9766 Q95.1875,28.0469 96.5313,28.0469 Q97.1563,28.0469 97.75,27.7734 Q98.3438,27.5 98.9688,26.9219 L98.9688,29.6406 Z "/><text fill="#000000" font-family="sans-serif" font-size="12" lengthAdjust="spacingAndGlyphs" textLength="45" x="110" y="28.1543">Dummy</text><line style="stroke: #A80036; stroke-width: 1.5;" x1="82" x2="157" y1="40" y2="40"/><line style="stroke: #A80036; stroke-width: 1.5;" x1="82" x2="157" y1="48" y2="48"/><rect fill="#FEFECE" filter="url(#f1)" height="48" style="stroke: #A80036; stroke-width: 1.5;" width="55" x="6" y="172"/><ellipse cx="21" cy="188" fill="#ADD1B2" rx="11" ry="11" style="stroke: #A80036; stroke-width: 1.0;"/><path d="M23.9688,193.6406 Q23.3906,193.9375 22.75,194.0859 Q22.1094,194.2344 21.4063,194.2344 Q18.9063,194.2344 17.5859,192.5859 Q16.2656,190.9375 16.2656,187.8125 Q16.2656,184.6875 17.5859,183.0313 Q18.9063,181.375 21.4063,181.375 Q22.1094,181.375 22.7578,181.5313 Q23.4063,181.6875 23.9688,181.9844 L23.9688,184.7031 Q23.3438,184.125 22.75,183.8516 Q22.1563,183.5781 21.5313,183.5781 Q20.1875,183.5781 19.5,184.6484 Q18.8125,185.7188 18.8125,187.8125 Q18.8125,189.9063 19.5,190.9766 Q20.1875,192.0469 21.5313,192.0469 Q22.1563,192.0469 22.75,191.7734 Q23.3438,191.5 23.9688,190.9219 L23.9688,193.6406 Z "/><text fill="#000000" font-family="sans-serif" font-size="12" lengthAdjust="spacingAndGlyphs" textLength="23" x="35" y="192.1543">Foo</text><line style="stroke: #A80036; stroke-width: 1.5;" x1="7" x2="60" y1="204" y2="204"/><line style="stroke: #A80036; stroke-width: 1.5;" x1="7" x2="60" y1="212" y2="212"/><rect fill="#FEFECE" filter="url(#f1)" height="48" style="stroke: #A80036; stroke-width: 1.5;" width="63" x="175" y="172"/><ellipse cx="190" cy="188" fill="#ADD1B2" rx="11" ry="11" style="stroke: #A80036; stroke-width: 1.0;"/><path d="M192.9688,193.6406 Q192.3906,193.9375 191.75,194.0859 Q191.1094,194.2344 190.4063,194.2344 Q187.9063,194.2344 186.5859,192.5859 Q185.2656,190.9375 185.2656,187.8125 Q185.2656,184.6875 186.5859,183.0313 Q187.9063,181.375 190.4063,181.375 Q191.1094,181.375 191.7578,181.5313 Q192.4063,181.6875 192.9688,181.9844 L192.9688,184.7031 Q192.3438,184.125 191.75,183.8516 Q191.1563,183.5781 190.5313,183.5781 Q189.1875,183.5781 188.5,184.6484 Q187.8125,185.7188 187.8125,187.8125 Q187.8125,189.9063 188.5,190.9766 Q189.1875,192.0469 190.5313,192.0469 Q191.1563,192.0469 191.75,191.7734 Q192.3438,191.5 192.9688,190.9219 L192.9688,193.6406 Z "/><text fill="#000000" font-family="sans-serif" font-size="12" lengthAdjust="spacingAndGlyphs" textLength="31" x="204" y="192.1543">Foo2</text><line style="stroke: #A80036; stroke-width: 1.5;" x1="176" x2="237" y1="204" y2="204"/><line style="stroke: #A80036; stroke-width: 1.5;" x1="176" x2="237" y1="212" y2="212"/><path d="M80.7846,45.684 C62.0626,53.995 41.3414,66.926 30.5,86 C16.5853,110.481 19.8539,143.3138 25.0348,166.5269 " fill="none" style="stroke: #A80036; stroke-width: 1.0;"/><polygon fill="#A80036" points="26.2365,171.6209,28.063,161.9429,25.0884,166.7545,20.2767,163.7799,26.2365,171.6209" style="stroke: #A80036; stroke-width: 1.0;"/><text fill="#000000" font-family="sans-serif" font-size="13" lengthAdjust="spacingAndGlyphs" textLength="34" x="80" y="99.0669">A link</text><polygon fill="#FF0000" filter="url(#f1)" points="35.5,108.1328,35.5,133.1328,154.5,133.1328,154.5,118.1328,144.5,108.1328,35.5,108.1328" style="stroke: #A80036; stroke-width: 1.0;"/><line style="stroke: #A80036; stroke-width: 1.0;" x1="144.5" x2="144.5" y1="108.1328" y2="118.1328"/><line style="stroke: #A80036; stroke-width: 1.0;" x1="154.5" x2="144.5" y1="118.1328" y2="118.1328"/><text fill="#000000" font-family="sans-serif" font-size="13" lengthAdjust="spacingAndGlyphs" textLength="98" x="41.5" y="125.1997">note that is red</text><path d="M144.142,56.193 C152.4,64.934 161.12,75.351 167.5,86 C182.769,111.486 193.408,143.8818 199.673,166.7105 " fill="none" style="stroke: #A80036; stroke-width: 1.0;"/><polygon fill="#A80036" points="201.019,171.7189,202.5449,161.989,199.7207,166.8904,194.8193,164.0662,201.019,171.7189" style="stroke: #A80036; stroke-width: 1.0;"/><text fill="#000000" font-family="sans-serif" font-size="13" lengthAdjust="spacingAndGlyphs" textLength="76" x="192.5" y="118.6333">Another link</text><polygon fill="#0000FF" filter="url(#f1)" points="274.5,92,274.5,132,467.5,132,467.5,102,457.5,92,274.5,92" style="stroke: #A80036; stroke-width: 1.0;"/><line style="stroke: #A80036; stroke-width: 1.0;" x1="457.5" x2="457.5" y1="92" y2="102"/><line style="stroke: #A80036; stroke-width: 1.0;" x1="467.5" x2="457.5" y1="102" y2="102"/><text fill="#000000" font-family="sans-serif" font-size="13" lengthAdjust="spacingAndGlyphs" textLength="172" x="280.5" y="109.0669">this is my note on right link</text><text fill="#000000" font-family="sans-serif" font-size="13" lengthAdjust="spacingAndGlyphs" textLength="70" x="280.5" y="124.1997">and in blue</text></g></svg>