<?xml version="1.0" encoding="UTF-8" standalone="yes"?><svg xmlns="http://www.w3.org/2000/svg" xmlns:xlink="http://www.w3.org/1999/xlink" height="320px" style="width:192px;height:320px;" version="1.1" viewBox="0 0 192 320" width="192px"><defs><filter height="300%" id="f1" width="300%" x="-1" y="-1"><feGaussianBlur result="blurOut" stdDeviation="2.0"/><feColorMatrix in="blurOut" result="blurOut2" type="matrix" values="0 0 0 0 0 0 0 0 0 0 0 0 0 0 0 0 0 0 .4 0"/><feOffset dx="4.0" dy="4.0" in="blurOut2" result="blurOut3"/><feBlend in="SourceGraphic" in2="blurOut3" mode="normal"/></filter></defs><g><rect fill="#FEFECE" filter="url(#f1)" height="60.8047" style="stroke: #A80036; stroke-width: 1.5;" width="82" x="6" y="8"/><ellipse cx="21" cy="24" fill="#ADD1B2" rx="11" ry="11" style="stroke: #A80036; stroke-width: 1.0;"/><path d="M23.9688,29.6406 Q23.3906,29.9375 22.75,30.0859 Q22.1094,30.2344 21.4063,30.2344 Q18.9063,30.2344 17.5859,28.5859 Q16.2656,26.9375 16.2656,23.8125 Q16.2656,20.6875 17.5859,19.0313 Q18.9063,17.375 21.4063,17.375 Q22.1094,17.375 22.7578,17.5313 Q23.4063,17.6875 23.9688,17.9844 L23.9688,20.7031 Q23.3438,20.125 22.75,19.8516 Q22.1563,19.5781 21.5313,19.5781 Q20.1875,19.5781 19.5,20.6484 Q18.8125,21.7188 18.8125,23.8125 Q18.8125,25.9063 19.5,26.9766 Q20.1875,28.0469 21.5313,28.0469 Q22.1563,28.0469 22.75,27.7734 Q23.3438,27.5 23.9688,26.9219 L23.9688,29.6406 Z "/><text fill="#000000" font-family="sans-serif" font-size="12" lengthAdjust="spacingAndGlyphs" textLength="50" x="35" y="28.1543">Student</text><line style="stroke: #A80036; stroke-width: 1.5;" x1="7" x2="87" y1="40" y2="40"/><text fill="#000000" font-family="sans-serif" font-size="11" lengthAdjust="spacingAndGlyphs" textLength="33" x="12" y="54.2104">Name</text><line style="stroke: #A80036; stroke-width: 1.5;" x1="7" x2="87" y1="60.8047" y2="60.8047"/><rect fill="#FEFECE" filter="url(#f1)" height="48" style="stroke: #A80036; stroke-width: 1.5;" width="76" x="9" y="263"/><ellipse cx="24" cy="279" fill="#ADD1B2" rx="11" ry="11" style="stroke: #A80036; stroke-width: 1.0;"/><path d="M26.9688,284.6406 Q26.3906,284.9375 25.75,285.0859 Q25.1094,285.2344 24.4063,285.2344 Q21.9063,285.2344 20.5859,283.5859 Q19.2656,281.9375 19.2656,278.8125 Q19.2656,275.6875 20.5859,274.0313 Q21.9063,272.375 24.4063,272.375 Q25.1094,272.375 25.7578,272.5313 Q26.4063,272.6875 26.9688,272.9844 L26.9688,275.7031 Q26.3438,275.125 25.75,274.8516 Q25.1563,274.5781 24.5313,274.5781 Q23.1875,274.5781 22.5,275.6484 Q21.8125,276.7188 21.8125,278.8125 Q21.8125,280.9063 22.5,281.9766 Q23.1875,283.0469 24.5313,283.0469 Q25.1563,283.0469 25.75,282.7734 Q26.3438,282.5 26.9688,281.9219 L26.9688,284.6406 Z "/><text fill="#000000" font-family="sans-serif" font-size="12" lengthAdjust="spacingAndGlyphs" textLength="44" x="38" y="283.1543">Course</text><line style="stroke: #A80036; stroke-width: 1.5;" x1="10" x2="84" y1="295" y2="295"/><line style="stroke: #A80036; stroke-width: 1.5;" x1="10" x2="84" y1="303" y2="303"/><rect fill="#FEFECE" filter="url(#f1)" height="73.6094" style="stroke: #A80036; stroke-width: 1.5;" width="99" x="84.5" y="129"/><ellipse cx="99.5" cy="145" fill="#ADD1B2" rx="11" ry="11" style="stroke: #A80036; stroke-width: 1.0;"/><path d="M102.4688,150.6406 Q101.8906,150.9375 101.25,151.0859 Q100.6094,151.2344 99.9063,151.2344 Q97.4063,151.2344 96.0859,149.5859 Q94.7656,147.9375 94.7656,144.8125 Q94.7656,141.6875 96.0859,140.0313 Q97.4063,138.375 99.9063,138.375 Q100.6094,138.375 101.2578,138.5313 Q101.9063,138.6875 102.4688,138.9844 L102.4688,141.7031 Q101.8438,141.125 101.25,140.8516 Q100.6563,140.5781 100.0313,140.5781 Q98.6875,140.5781 98,141.6484 Q97.3125,142.7188 97.3125,144.8125 Q97.3125,146.9063 98,147.9766 Q98.6875,149.0469 100.0313,149.0469 Q100.6563,149.0469 101.25,148.7734 Q101.8438,148.5 102.4688,147.9219 L102.4688,150.6406 Z "/><text fill="#000000" font-family="sans-serif" font-size="12" lengthAdjust="spacingAndGlyphs" textLength="67" x="113.5" y="149.1543">Enrollment</text><line style="stroke: #A80036; stroke-width: 1.5;" x1="85.5" x2="182.5" y1="161" y2="161"/><line style="stroke: #A80036; stroke-width: 1.5;" x1="85.5" x2="182.5" y1="169" y2="169"/><text fill="#000000" font-family="sans-serif" font-size="11" lengthAdjust="spacingAndGlyphs" textLength="34" x="90.5" y="183.2104">drop()</text><text fill="#000000" font-family="sans-serif" font-size="11" lengthAdjust="spacingAndGlyphs" textLength="44" x="90.5" y="196.0151">cancel()</text><ellipse cx="47" cy="166" fill="#000000" rx="2" ry="2" style="stroke: none; stroke-width: 1.0;"/><path d="M47,69.242 C47,103.454 47,155.968 47,163.964 " fill="none" style="stroke: #A80036; stroke-width: 1.0;"/><text fill="#000000" font-family="sans-serif" font-size="13" lengthAdjust="spacingAndGlyphs" textLength="23" x="21.7359" y="88.8701">0..*</text><path d="M47,168.336 C47,177.478 47,231.3621 47,262.9498 " fill="none" style="stroke: #A80036; stroke-width: 1.0;"/><text fill="#000000" font-family="sans-serif" font-size="13" lengthAdjust="spacingAndGlyphs" textLength="23" x="21.0531" y="251.949">1..*</text><path d="M49.0391,166 C60.7654,166 72.4918,166 84.2182,166 " fill="none" style="stroke: #A80036; stroke-width: 1.0; stroke-dasharray: 7.0,7.0;"/></g></svg>