<?xml version="1.0" encoding="UTF-8" standalone="yes"?><svg xmlns="http://www.w3.org/2000/svg" xmlns:xlink="http://www.w3.org/1999/xlink" height="344px" style="width:382px;height:344px;" version="1.1" viewBox="0 0 382 344" width="382px"><defs><filter height="300%" id="f1" width="300%" x="-1" y="-1"><feGaussianBlur result="blurOut" stdDeviation="2.0"/><feColorMatrix in="blurOut" result="blurOut2" type="matrix" values="0 0 0 0 0 0 0 0 0 0 0 0 0 0 0 0 0 0 .4 0"/><feOffset dx="4.0" dy="4.0" in="blurOut2" result="blurOut3"/><feBlend in="SourceGraphic" in2="blurOut3" mode="normal"/></filter></defs><g><rect fill="#FEFECE" filter="url(#f1)" height="48" style="stroke: #A80036; stroke-width: 1.5;" width="105" x="186" y="154"/><ellipse cx="201" cy="170" fill="#A9DCDF" rx="11" ry="11" style="stroke: #A80036; stroke-width: 1.0;"/><path d="M201.1094,165.3438 L199.9531,170.4219 L202.2813,170.4219 L201.1094,165.3438 Z M199.625,163.1094 L202.6094,163.1094 L205.9688,175.5 L203.5156,175.5 L202.75,172.4375 L199.4688,172.4375 L198.7188,175.5 L196.2813,175.5 L199.625,163.1094 Z "/><text fill="#000000" font-family="sans-serif" font-size="12" font-style="italic" lengthAdjust="spacingAndGlyphs" textLength="73" x="215" y="174.1543">AbstractList</text><line style="stroke: #A80036; stroke-width: 1.5;" x1="187" x2="290" y1="186" y2="186"/><line style="stroke: #A80036; stroke-width: 1.5;" x1="187" x2="290" y1="194" y2="194"/><rect fill="#FEFECE" filter="url(#f1)" height="48" style="stroke: #A80036; stroke-width: 1.5;" width="145" x="6" y="154"/><ellipse cx="21" cy="170" fill="#A9DCDF" rx="11" ry="11" style="stroke: #A80036; stroke-width: 1.0;"/><path d="M21.1094,165.3438 L19.9531,170.4219 L22.2813,170.4219 L21.1094,165.3438 Z M19.625,163.1094 L22.6094,163.1094 L25.9688,175.5 L23.5156,175.5 L22.75,172.4375 L19.4688,172.4375 L18.7188,175.5 L16.2813,175.5 L19.625,163.1094 Z "/><text fill="#000000" font-family="sans-serif" font-size="12" font-style="italic" lengthAdjust="spacingAndGlyphs" textLength="113" x="35" y="174.1543">AbstractCollection</text><line style="stroke: #A80036; stroke-width: 1.5;" x1="7" x2="150" y1="186" y2="186"/><line style="stroke: #A80036; stroke-width: 1.5;" x1="7" x2="150" y1="194" y2="194"/><rect fill="#FEFECE" filter="url(#f1)" height="48" style="stroke: #A80036; stroke-width: 1.5;" width="53" x="199" y="27"/><ellipse cx="214" cy="43" fill="#B4A7E5" rx="11" ry="11" style="stroke: #A80036; stroke-width: 1.0;"/><path d="M209.9219,38.7656 L209.9219,36.6094 L217.3125,36.6094 L217.3125,38.7656 L214.8438,38.7656 L214.8438,46.8438 L217.3125,46.8438 L217.3125,49 L209.9219,49 L209.9219,46.8438 L212.3906,46.8438 L212.3906,38.7656 L209.9219,38.7656 Z "/><text fill="#000000" font-family="sans-serif" font-size="12" font-style="italic" lengthAdjust="spacingAndGlyphs" textLength="21" x="228" y="47.1543">List</text><line style="stroke: #A80036; stroke-width: 1.5;" x1="200" x2="251" y1="59" y2="59"/><line style="stroke: #A80036; stroke-width: 1.5;" x1="200" x2="251" y1="67" y2="67"/><rect fill="#FEFECE" filter="url(#f1)" height="48" style="stroke: #A80036; stroke-width: 1.5;" width="93" x="45" y="27"/><ellipse cx="60" cy="43" fill="#B4A7E5" rx="11" ry="11" style="stroke: #A80036; stroke-width: 1.0;"/><path d="M55.9219,38.7656 L55.9219,36.6094 L63.3125,36.6094 L63.3125,38.7656 L60.8438,38.7656 L60.8438,46.8438 L63.3125,46.8438 L63.3125,49 L55.9219,49 L55.9219,46.8438 L58.3906,46.8438 L58.3906,38.7656 L55.9219,38.7656 Z "/><text fill="#000000" font-family="sans-serif" font-size="12" font-style="italic" lengthAdjust="spacingAndGlyphs" textLength="61" x="74" y="47.1543">Collection</text><line style="stroke: #A80036; stroke-width: 1.5;" x1="46" x2="137" y1="59" y2="59"/><line style="stroke: #A80036; stroke-width: 1.5;" x1="46" x2="137" y1="67" y2="67"/><rect fill="#FEFECE" filter="url(#f1)" height="73.6094" style="stroke: #A80036; stroke-width: 1.5;" width="132" x="172.5" y="262"/><ellipse cx="208.65" cy="278" fill="#ADD1B2" rx="11" ry="11" style="stroke: #A80036; stroke-width: 1.0;"/><path d="M211.6188,283.6406 Q211.0406,283.9375 210.4,284.0859 Q209.7594,284.2344 209.0563,284.2344 Q206.5563,284.2344 205.2359,282.5859 Q203.9156,280.9375 203.9156,277.8125 Q203.9156,274.6875 205.2359,273.0313 Q206.5563,271.375 209.0563,271.375 Q209.7594,271.375 210.4078,271.5313 Q211.0563,271.6875 211.6188,271.9844 L211.6188,274.7031 Q210.9938,274.125 210.4,273.8516 Q209.8063,273.5781 209.1813,273.5781 Q207.8375,273.5781 207.15,274.6484 Q206.4625,275.7188 206.4625,277.8125 Q206.4625,279.9063 207.15,280.9766 Q207.8375,282.0469 209.1813,282.0469 Q209.8063,282.0469 210.4,281.7734 Q210.9938,281.5 211.6188,280.9219 L211.6188,283.6406 Z "/><text fill="#000000" font-family="sans-serif" font-size="12" lengthAdjust="spacingAndGlyphs" textLength="53" x="227.35" y="282.1543">ArrayList</text><line style="stroke: #A80036; stroke-width: 1.5;" x1="173.5" x2="303.5" y1="294" y2="294"/><text fill="#000000" font-family="sans-serif" font-size="11" lengthAdjust="spacingAndGlyphs" textLength="120" x="178.5" y="308.2104">Object[] elementData</text><line style="stroke: #A80036; stroke-width: 1.5;" x1="173.5" x2="303.5" y1="314.8047" y2="314.8047"/><text fill="#000000" font-family="sans-serif" font-size="11" lengthAdjust="spacingAndGlyphs" textLength="30" x="178.5" y="329.0151">size()</text><rect fill="#FEFECE" filter="url(#f1)" height="86.4141" style="stroke: #A80036; stroke-width: 1.5;" width="86" x="287.5" y="8"/><ellipse cx="302.5" cy="24" fill="#EB937F" rx="11" ry="11" style="stroke: #A80036; stroke-width: 1.0;"/><path d="M306.6094,30 L298.8906,30 L298.8906,17.6094 L306.6094,17.6094 L306.6094,19.7656 L301.3438,19.7656 L301.3438,22.4375 L306.1094,22.4375 L306.1094,24.5938 L301.3438,24.5938 L301.3438,27.8438 L306.6094,27.8438 L306.6094,30 Z "/><text fill="#000000" font-family="sans-serif" font-size="12" lengthAdjust="spacingAndGlyphs" textLength="54" x="316.5" y="28.1543">TimeUnit</text><line style="stroke: #A80036; stroke-width: 1.5;" x1="288.5" x2="372.5" y1="40" y2="40"/><text fill="#000000" font-family="sans-serif" font-size="11" lengthAdjust="spacingAndGlyphs" textLength="30" x="293.5" y="54.2104">DAYS</text><text fill="#000000" font-family="sans-serif" font-size="11" lengthAdjust="spacingAndGlyphs" textLength="40" x="293.5" y="67.0151">HOURS</text><text fill="#000000" font-family="sans-serif" font-size="11" lengthAdjust="spacingAndGlyphs" textLength="50" x="293.5" y="79.8198">MINUTES</text><line style="stroke: #A80036; stroke-width: 1.5;" x1="288.5" x2="372.5" y1="86.4141" y2="86.4141"/><path d="M230.014,95.406 C232.06,115.075 234.396,137.536 236.098,153.906 " fill="none" style="stroke: #A80036; stroke-width: 1.0;"/><polygon fill="none" points="223.021,95.835,227.915,75.219,236.946,94.387,223.021,95.835" style="stroke: #A80036; stroke-width: 1.0;"/><path d="M86.9858,95.406 C84.9402,115.075 82.6043,137.536 80.9018,153.906 " fill="none" style="stroke: #A80036; stroke-width: 1.0;"/><polygon fill="none" points="80.0539,94.387,89.0853,75.219,93.9788,95.835,80.0539,94.387" style="stroke: #A80036; stroke-width: 1.0;"/><path d="M158.504,51 C171.958,51 185.412,51 198.866,51 " fill="none" style="stroke: #A80036; stroke-width: 1.0;"/><polygon fill="none" points="158.086,58,138.086,51,158.086,44,158.086,58" style="stroke: #A80036; stroke-width: 1.0;"/><path d="M171.468,178 C176.215,178 180.963,178 185.711,178 " fill="none" style="stroke: #A80036; stroke-width: 1.0;"/><polygon fill="none" points="171.313,185,151.312,178,171.312,171,171.313,185" style="stroke: #A80036; stroke-width: 1.0;"/><path d="M238.5,222.433 C238.5,235.332 238.5,249.3199 238.5,261.714 " fill="none" style="stroke: #A80036; stroke-width: 1.0;"/><polygon fill="none" points="231.5,222.227,238.5,202.227,245.5,222.227,231.5,222.227" style="stroke: #A80036; stroke-width: 1.0;"/></g></svg>