<?xml version="1.0" encoding="UTF-8" standalone="yes"?><svg xmlns="http://www.w3.org/2000/svg" xmlns:xlink="http://www.w3.org/1999/xlink" height="223px" style="width:192px;height:223px;" version="1.1" viewBox="0 0 192 223" width="192px"><defs><filter height="300%" id="f1" width="300%" x="-1" y="-1"><feGaussianBlur result="blurOut" stdDeviation="2.0"/><feColorMatrix in="blurOut" result="blurOut2" type="matrix" values="0 0 0 0 0 0 0 0 0 0 0 0 0 0 0 0 0 0 .4 0"/><feOffset dx="4.0" dy="4.0" in="blurOut2" result="blurOut3"/><feBlend in="SourceGraphic" in2="blurOut3" mode="normal"/></filter></defs><g><rect fill="#FFFFFF" filter="url(#f1)" height="115" style="stroke: #000000; stroke-width: 2.0;" width="139" x="46.5" y="101"/><text fill="#000000" font-family="sans-serif" font-size="14" font-weight="bold" lengthAdjust="spacingAndGlyphs" textLength="118" x="57" y="115.9951">foo1.foo2.foo3</text><rect fill="#FFFFFF" filter="url(#f1)" height="68.8906" style="stroke: #000000; stroke-width: 2.0;" width="97" x="6" y="8"/><text fill="#000000" font-family="sans-serif" font-size="14" font-weight="bold" lengthAdjust="spacingAndGlyphs" textLength="77" x="16" y="22.9951">foo1.foo2</text><rect fill="#FEFECE" filter="url(#f1)" height="48" style="stroke: #A80036; stroke-width: 1.5;" width="72" x="89.5" y="144"/><ellipse cx="104.5" cy="160" fill="#ADD1B2" rx="11" ry="11" style="stroke: #A80036; stroke-width: 1.0;"/><path d="M107.4688,165.6406 Q106.8906,165.9375 106.25,166.0859 Q105.6094,166.2344 104.9063,166.2344 Q102.4063,166.2344 101.0859,164.5859 Q99.7656,162.9375 99.7656,159.8125 Q99.7656,156.6875 101.0859,155.0313 Q102.4063,153.375 104.9063,153.375 Q105.6094,153.375 106.2578,153.5313 Q106.9063,153.6875 107.4688,153.9844 L107.4688,156.7031 Q106.8438,156.125 106.25,155.8516 Q105.6563,155.5781 105.0313,155.5781 Q103.6875,155.5781 103,156.6484 Q102.3125,157.7188 102.3125,159.8125 Q102.3125,161.9063 103,162.9766 Q103.6875,164.0469 105.0313,164.0469 Q105.6563,164.0469 106.25,163.7734 Q106.8438,163.5 107.4688,162.9219 L107.4688,165.6406 Z "/><text fill="#000000" font-family="sans-serif" font-size="12" lengthAdjust="spacingAndGlyphs" textLength="40" x="118.5" y="164.1543">Object</text><line style="stroke: #A80036; stroke-width: 1.5;" x1="90.5" x2="160.5" y1="176" y2="176"/><line style="stroke: #A80036; stroke-width: 1.5;" x1="90.5" x2="160.5" y1="184" y2="184"/><path d="M54.5,92.489 C54.5,95.345 54.5,98.239 54.5,101.146 " fill="none" style="stroke: #A80036; stroke-width: 1.0;"/><ellipse cx="54.5" cy="85.247" fill="#FFFFFF" rx="8" ry="8" style="stroke: #A80036; stroke-width: 1.0;"/><line style="stroke: #A80036; stroke-width: 1.0;" x1="54.5" x2="54.5" y1="93.247" y2="77.247"/><line style="stroke: #A80036; stroke-width: 1.0;" x1="46.5" x2="62.5" y1="85.247" y2="85.247"/></g></svg>