<?xml version="1.0" encoding="UTF-8" standalone="yes"?><svg xmlns="http://www.w3.org/2000/svg" xmlns:xlink="http://www.w3.org/1999/xlink" height="116px" style="width:94px;height:116px;" version="1.1" viewBox="0 0 94 116" width="94px"><defs><filter height="300%" id="f1" width="300%" x="-1" y="-1"><feGaussianBlur result="blurOut" stdDeviation="2.0"/><feColorMatrix in="blurOut" result="blurOut2" type="matrix" values="0 0 0 0 0 0 0 0 0 0 0 0 0 0 0 0 0 0 .4 0"/><feOffset dx="4.0" dy="4.0" in="blurOut2" result="blurOut3"/><feBlend in="SourceGraphic" in2="blurOut3" mode="normal"/></filter></defs><g><rect fill="#FEFECE" filter="url(#f1)" height="99.2188" style="stroke: #A80036; stroke-width: 1.5;" width="79" x="6" y="8"/><ellipse cx="21.9" cy="24" fill="#ADD1B2" rx="11" ry="11" style="stroke: #A80036; stroke-width: 1.0;"/><path d="M24.8688,29.6406 Q24.2906,29.9375 23.65,30.0859 Q23.0094,30.2344 22.3063,30.2344 Q19.8063,30.2344 18.4859,28.5859 Q17.1656,26.9375 17.1656,23.8125 Q17.1656,20.6875 18.4859,19.0313 Q19.8063,17.375 22.3063,17.375 Q23.0094,17.375 23.6578,17.5313 Q24.3063,17.6875 24.8688,17.9844 L24.8688,20.7031 Q24.2438,20.125 23.65,19.8516 Q23.0563,19.5781 22.4313,19.5781 Q21.0875,19.5781 20.4,20.6484 Q19.7125,21.7188 19.7125,23.8125 Q19.7125,25.9063 20.4,26.9766 Q21.0875,28.0469 22.4313,28.0469 Q23.0563,28.0469 23.65,27.7734 Q24.2438,27.5 24.8688,26.9219 L24.8688,29.6406 Z "/><text fill="#000000" font-family="sans-serif" font-size="12" lengthAdjust="spacingAndGlyphs" textLength="45" x="36.1" y="28.1543">Dummy</text><line style="stroke: #A80036; stroke-width: 1.5;" x1="7" x2="84" y1="40" y2="40"/><text fill="#000000" font-family="sans-serif" font-size="11" lengthAdjust="spacingAndGlyphs" textLength="35" x="12" y="54.2104">-field1</text><text fill="#000000" font-family="sans-serif" font-size="11" lengthAdjust="spacingAndGlyphs" textLength="40" x="12" y="67.0151">#field2</text><line style="stroke: #A80036; stroke-width: 1.5;" x1="7" x2="84" y1="73.6094" y2="73.6094"/><text fill="#000000" font-family="sans-serif" font-size="11" lengthAdjust="spacingAndGlyphs" textLength="67" x="12" y="87.8198">~method1()</text><text fill="#000000" font-family="sans-serif" font-size="11" lengthAdjust="spacingAndGlyphs" textLength="67" x="12" y="100.6245">+method2()</text></g></svg>