<?xml version="1.0" encoding="UTF-8" standalone="yes"?><svg xmlns="http://www.w3.org/2000/svg" xmlns:xlink="http://www.w3.org/1999/xlink" height="418px" style="width:395px;height:418px;" version="1.1" viewBox="0 0 395 418" width="395px"><defs><filter height="300%" id="f1" width="300%" x="-1" y="-1"><feGaussianBlur result="blurOut" stdDeviation="2.0"/><feColorMatrix in="blurOut" result="blurOut2" type="matrix" values="0 0 0 0 0 0 0 0 0 0 0 0 0 0 0 0 0 0 .4 0"/><feOffset dx="4.0" dy="4.0" in="blurOut2" result="blurOut3"/><feBlend in="SourceGraphic" in2="blurOut3" mode="normal"/></filter></defs><g><polygon fill="#DDDDDD" filter="url(#f1)" points="27.351,81,121.351,81,128.351,103.2969,141.351,103.2969,141.351,288,27.351,288,27.351,81" style="stroke: #000000; stroke-width: 2.0;"/><line style="stroke: #000000; stroke-width: 2.0;" x1="27.351" x2="128.351" y1="103.2969" y2="103.2969"/><text fill="#000000" font-family="sans-serif" font-size="14" font-weight="bold" lengthAdjust="spacingAndGlyphs" textLength="88" x="31.351" y="95.9951">net.dummy</text><polygon fill="#FFFFFF" filter="url(#f1)" points="118.351,312,181.351,312,188.351,334.2969,226.351,334.2969,226.351,411,118.351,411,118.351,312" style="stroke: #000000; stroke-width: 2.0;"/><line style="stroke: #000000; stroke-width: 2.0;" x1="118.351" x2="188.351" y1="334.2969" y2="334.2969"/><text fill="#000000" font-family="sans-serif" font-size="14" font-weight="bold" lengthAdjust="spacingAndGlyphs" textLength="57" x="122.351" y="326.9951">net.foo</text><polygon fill="#FFFFFF" filter="url(#f1)" points="280.351,81,376.351,81,383.351,103.2969,388.351,103.2969,388.351,180,280.351,180,280.351,81" style="stroke: #000000; stroke-width: 2.0;"/><line style="stroke: #000000; stroke-width: 2.0;" x1="280.351" x2="383.351" y1="103.2969" y2="103.2969"/><text fill="#000000" font-family="sans-serif" font-size="14" font-weight="bold" lengthAdjust="spacingAndGlyphs" textLength="90" x="284.351" y="95.9951">net.unused</text><rect fill="#FEFECE" filter="url(#f1)" height="48" style="stroke: #A80036; stroke-width: 1.5;" width="76" x="43.351" y="224"/><ellipse cx="58.351" cy="240" fill="#ADD1B2" rx="11" ry="11" style="stroke: #A80036; stroke-width: 1.0;"/><path d="M61.3198,245.6406 Q60.7416,245.9375 60.101,246.0859 Q59.4604,246.2344 58.7573,246.2344 Q56.2573,246.2344 54.9369,244.5859 Q53.6166,242.9375 53.6166,239.8125 Q53.6166,236.6875 54.9369,235.0313 Q56.2573,233.375 58.7573,233.375 Q59.4604,233.375 60.1088,233.5313 Q60.7573,233.6875 61.3198,233.9844 L61.3198,236.7031 Q60.6948,236.125 60.101,235.8516 Q59.5073,235.5781 58.8823,235.5781 Q57.5385,235.5781 56.851,236.6484 Q56.1635,237.7188 56.1635,239.8125 Q56.1635,241.9063 56.851,242.9766 Q57.5385,244.0469 58.8823,244.0469 Q59.5073,244.0469 60.101,243.7734 Q60.6948,243.5 61.3198,242.9219 L61.3198,245.6406 Z "/><text fill="#000000" font-family="sans-serif" font-size="12" lengthAdjust="spacingAndGlyphs" textLength="44" x="72.351" y="244.1543">Person</text><line style="stroke: #A80036; stroke-width: 1.5;" x1="44.351" x2="118.351" y1="256" y2="256"/><line style="stroke: #A80036; stroke-width: 1.5;" x1="44.351" x2="118.351" y1="264" y2="264"/><rect fill="#FEFECE" filter="url(#f1)" height="48" style="stroke: #A80036; stroke-width: 1.5;" width="82" x="43.351" y="116"/><ellipse cx="58.351" cy="132" fill="#ADD1B2" rx="11" ry="11" style="stroke: #A80036; stroke-width: 1.0;"/><path d="M61.3198,137.6406 Q60.7416,137.9375 60.101,138.0859 Q59.4604,138.2344 58.7573,138.2344 Q56.2573,138.2344 54.9369,136.5859 Q53.6166,134.9375 53.6166,131.8125 Q53.6166,128.6875 54.9369,127.0313 Q56.2573,125.375 58.7573,125.375 Q59.4604,125.375 60.1088,125.5313 Q60.7573,125.6875 61.3198,125.9844 L61.3198,128.7031 Q60.6948,128.125 60.101,127.8516 Q59.5073,127.5781 58.8823,127.5781 Q57.5385,127.5781 56.851,128.6484 Q56.1635,129.7188 56.1635,131.8125 Q56.1635,133.9063 56.851,134.9766 Q57.5385,136.0469 58.8823,136.0469 Q59.5073,136.0469 60.101,135.7734 Q60.6948,135.5 61.3198,134.9219 L61.3198,137.6406 Z "/><text fill="#000000" font-family="sans-serif" font-size="12" lengthAdjust="spacingAndGlyphs" textLength="50" x="72.351" y="136.1543">Meeting</text><line style="stroke: #A80036; stroke-width: 1.5;" x1="44.351" x2="124.351" y1="148" y2="148"/><line style="stroke: #A80036; stroke-width: 1.5;" x1="44.351" x2="124.351" y1="156" y2="156"/><rect fill="#FEFECE" filter="url(#f1)" height="48" style="stroke: #A80036; stroke-width: 1.5;" width="76" x="134.351" y="347"/><ellipse cx="149.351" cy="363" fill="#ADD1B2" rx="11" ry="11" style="stroke: #A80036; stroke-width: 1.0;"/><path d="M152.3198,368.6406 Q151.7416,368.9375 151.101,369.0859 Q150.4604,369.2344 149.7573,369.2344 Q147.2573,369.2344 145.9369,367.5859 Q144.6166,365.9375 144.6166,362.8125 Q144.6166,359.6875 145.9369,358.0313 Q147.2573,356.375 149.7573,356.375 Q150.4604,356.375 151.1088,356.5313 Q151.7573,356.6875 152.3198,356.9844 L152.3198,359.7031 Q151.6948,359.125 151.101,358.8516 Q150.5073,358.5781 149.8823,358.5781 Q148.5385,358.5781 147.851,359.6484 Q147.1635,360.7188 147.1635,362.8125 Q147.1635,364.9063 147.851,365.9766 Q148.5385,367.0469 149.8823,367.0469 Q150.5073,367.0469 151.101,366.7734 Q151.6948,366.5 152.3198,365.9219 L152.3198,368.6406 Z "/><text fill="#000000" font-family="sans-serif" font-size="12" lengthAdjust="spacingAndGlyphs" textLength="44" x="163.351" y="367.1543">Person</text><line style="stroke: #A80036; stroke-width: 1.5;" x1="135.351" x2="209.351" y1="379" y2="379"/><line style="stroke: #A80036; stroke-width: 1.5;" x1="135.351" x2="209.351" y1="387" y2="387"/><rect fill="#FEFECE" filter="url(#f1)" height="48" style="stroke: #A80036; stroke-width: 1.5;" width="76" x="296.351" y="116"/><ellipse cx="311.351" cy="132" fill="#ADD1B2" rx="11" ry="11" style="stroke: #A80036; stroke-width: 1.0;"/><path d="M314.3198,137.6406 Q313.7416,137.9375 313.101,138.0859 Q312.4604,138.2344 311.7573,138.2344 Q309.2573,138.2344 307.9369,136.5859 Q306.6166,134.9375 306.6166,131.8125 Q306.6166,128.6875 307.9369,127.0313 Q309.2573,125.375 311.7573,125.375 Q312.4604,125.375 313.1088,125.5313 Q313.7573,125.6875 314.3198,125.9844 L314.3198,128.7031 Q313.6948,128.125 313.101,127.8516 Q312.5073,127.5781 311.8823,127.5781 Q310.5385,127.5781 309.851,128.6484 Q309.1635,129.7188 309.1635,131.8125 Q309.1635,133.9063 309.851,134.9766 Q310.5385,136.0469 311.8823,136.0469 Q312.5073,136.0469 313.101,135.7734 Q313.6948,135.5 314.3198,134.9219 L314.3198,137.6406 Z "/><text fill="#000000" font-family="sans-serif" font-size="12" lengthAdjust="spacingAndGlyphs" textLength="44" x="325.351" y="136.1543">Person</text><line style="stroke: #A80036; stroke-width: 1.5;" x1="297.351" x2="371.351" y1="148" y2="148"/><line style="stroke: #A80036; stroke-width: 1.5;" x1="297.351" x2="371.351" y1="156" y2="156"/><rect fill="#FEFECE" filter="url(#f1)" height="48" style="stroke: #A80036; stroke-width: 1.5;" width="96" x="115.351" y="8"/><ellipse cx="130.351" cy="24" fill="#ADD1B2" rx="11" ry="11" style="stroke: #A80036; stroke-width: 1.0;"/><path d="M133.3198,29.6406 Q132.7416,29.9375 132.101,30.0859 Q131.4604,30.2344 130.7573,30.2344 Q128.2573,30.2344 126.9369,28.5859 Q125.6166,26.9375 125.6166,23.8125 Q125.6166,20.6875 126.9369,19.0313 Q128.2573,17.375 130.7573,17.375 Q131.4604,17.375 132.1088,17.5313 Q132.7573,17.6875 133.3198,17.9844 L133.3198,20.7031 Q132.6948,20.125 132.101,19.8516 Q131.5073,19.5781 130.8823,19.5781 Q129.5385,19.5781 128.851,20.6484 Q128.1635,21.7188 128.1635,23.8125 Q128.1635,25.9063 128.851,26.9766 Q129.5385,28.0469 130.8823,28.0469 Q131.5073,28.0469 132.101,27.7734 Q132.6948,27.5 133.3198,26.9219 L133.3198,29.6406 Z "/><text fill="#000000" font-family="sans-serif" font-size="12" lengthAdjust="spacingAndGlyphs" textLength="64" x="144.351" y="28.1543">BaseClass</text><line style="stroke: #A80036; stroke-width: 1.5;" x1="116.351" x2="210.351" y1="40" y2="40"/><line style="stroke: #A80036; stroke-width: 1.5;" x1="116.351" x2="210.351" y1="48" y2="48"/><path d="M95.6353,44.712 C65.3156,51.469 34.3541,61.017 25.351,73 C-5.3498,113.863 6.409,140.528 25.351,188 C30.7941,201.641 41.0569,213.936 51.325,223.728 " fill="none" style="stroke: #A80036; stroke-width: 1.0;"/><polygon fill="none" points="94.2289,37.854,115.23,40.676,97.053,51.567,94.2289,37.854" style="stroke: #A80036; stroke-width: 1.0;"/><path d="M83.3225,177.338 C82.8883,192.681 82.3954,210.098 82.011,223.678 " fill="none" style="stroke: #A80036; stroke-width: 1.0;"/><polygon fill="none" points="83.7,164,79.5315,169.8842,83.3598,175.9952,87.5283,170.111,83.7,164" style="stroke: #A80036; stroke-width: 1.0;"/><path d="M134.152,72.178 C123.255,86.8 111.234,102.929 101.7321,115.678 " fill="none" style="stroke: #A80036; stroke-width: 1.0;"/><polygon fill="none" points="128.645,67.854,146.209,56,139.87,76.22,128.645,67.854" style="stroke: #A80036; stroke-width: 1.0;"/><path d="M110.852,288.226 C125.351,307.505 142.334,330.0868 154.775,346.6297 " fill="none" style="stroke: #A80036; stroke-width: 1.0;"/><polygon fill="none" points="105.1083,292.236,98.6816,272.044,116.297,283.821,105.1083,292.236" style="stroke: #A80036; stroke-width: 1.0;"/><path d="M166.555,76.272 C169.25,114.965 172.89,173.231 174.351,224 C175.271,255.987 174.783,264.003 174.351,296 C174.122,312.963 173.597,332.1072 173.143,346.6733 " fill="none" style="stroke: #A80036; stroke-width: 1.0;"/><polygon fill="none" points="159.565,76.657,165.119,56.209,173.529,75.658,159.565,76.657" style="stroke: #A80036; stroke-width: 1.0;"/><path d="M109.185,175.151 C118.794,189.643 129.181,207.074 136.351,224 C153.918,265.466 164.156,317.341 168.966,346.7691 " fill="none" style="stroke: #A80036; stroke-width: 1.0;"/><polygon fill="none" points="101.7226,164.225,101.8039,171.4356,108.4912,174.1339,108.4099,166.9233,101.7226,164.225" style="stroke: #A80036; stroke-width: 1.0;"/><path d="M230.766,53.416 C244.071,58.813 257.555,65.323 269.351,73 C287.143,84.579 303.869,101.765 315.897,115.697 " fill="none" style="stroke: #A80036; stroke-width: 1.0;"/><polygon fill="none" points="227.926,59.829,211.616,46.301,232.802,46.705,227.926,59.829" style="stroke: #A80036; stroke-width: 1.0;"/></g></svg>