<?xml version="1.0" encoding="UTF-8" standalone="yes"?><svg xmlns="http://www.w3.org/2000/svg" xmlns:xlink="http://www.w3.org/1999/xlink" height="146px" style="width:791px;height:146px;" version="1.1" viewBox="0 0 791 146" width="791px"><defs><filter height="300%" id="f1" width="300%" x="-1" y="-1"><feGaussianBlur result="blurOut" stdDeviation="2.0"/><feColorMatrix in="blurOut" result="blurOut2" type="matrix" values="0 0 0 0 0 0 0 0 0 0 0 0 0 0 0 0 0 0 .4 0"/><feOffset dx="4.0" dy="4.0" in="blurOut2" result="blurOut3"/><feBlend in="SourceGraphic" in2="blurOut3" mode="normal"/></filter></defs><g><polygon fill="#FFFFFF" filter="url(#f1)" points="22,45,32,35,134,35,134,129,124,139,22,139,22,45" style="stroke: #000000; stroke-width: 2.0;"/><line style="stroke: #000000; stroke-width: 2.0;" x1="124" x2="133" y1="45" y2="36"/><line style="stroke: #000000; stroke-width: 2.0;" x1="22" x2="124" y1="45" y2="45"/><line style="stroke: #000000; stroke-width: 2.0;" x1="124" x2="124" y1="45" y2="139"/><text fill="#000000" font-family="sans-serif" font-size="14" font-weight="bold" lengthAdjust="spacingAndGlyphs" textLength="36" x="56" y="60.9951">foo1</text><rect fill="#FFFFFF" filter="url(#f1)" height="115" style="stroke: #000000; stroke-width: 2.0;" width="106" x="158" y="24"/><text fill="#000000" font-family="sans-serif" font-size="14" font-style="italic" lengthAdjust="spacingAndGlyphs" textLength="50" x="186" y="38.9951">«Rect»</text><text fill="#000000" font-family="sans-serif" font-size="14" font-weight="bold" lengthAdjust="spacingAndGlyphs" textLength="36" x="193" y="55.292">foo2</text><polygon fill="#FFFFFF" filter="url(#f1)" points="288,40,330,40,337,62.2969,394,62.2969,394,139,288,139,288,40" style="stroke: #000000; stroke-width: 2.0;"/><line style="stroke: #000000; stroke-width: 2.0;" x1="288" x2="337" y1="62.2969" y2="62.2969"/><text fill="#000000" font-family="sans-serif" font-size="14" font-weight="bold" lengthAdjust="spacingAndGlyphs" textLength="36" x="292" y="54.9951">foo3</text><rect fill="#FFFFFF" filter="url(#f1)" height="99" style="stroke: #000000; stroke-width: 2.0;" width="106" x="418" y="40"/><path d="M464,41 L464,49.2969 L454,59.2969 L418,59.2969 " fill="#FFFFFF" style="stroke: #000000; stroke-width: 2.0;"/><text fill="#000000" font-family="sans-serif" font-size="14" font-weight="bold" lengthAdjust="spacingAndGlyphs" textLength="36" x="421" y="53.9951">foo4</text><path d="M551,47 C551,44 553,42 556,42 C559,42 561,44 561,47 C561,44 563,42 566,42 C569,42 571,44 571,47 C571,44 573,42 576,42 C579,42 581,44 581,47 C581,44 583,42 586,42 C589,42 591,44 591,47 C591,44 593,42 596,42 C599,42 601,44 601,47 C601,44 603,42 606,42 C609,42 611,44 611,47 C611,44 613,42 616,42 C619,42 621,44 621,47 C621,44 623,42 626,42 C629,42 631,44 631,47 C631,44 633,42 636,42 C639,42 641,44 641,47 C641,44 643,42 646,42 C649,42 651,44 651,47 C654,47 656,49 656,52 C656,55 654,57 651,57 C654,57 656,59 656,62 C656,65 654,67 651,67 C654,67 656,69 656,72 C656,75 654,77 651,77 C654,77 656,79 656,82 C656,85 654,87 651,87 C654,87 656,89 656,92 C656,95 654,97 651,97 C654,97 656,99 656,102 C656,105 654,107 651,107 C654,107 656,109 656,112 C656,115 654,117 651,117 C654,117 656,119 656,122 C656,125 654,127 651,127 C651,130 648,132 646,132 C643,132 641,130 641,127 C641,130 638,132 636,132 C633,132 631,130 631,127 C631,130 628,132 626,132 C623,132 621,130 621,127 C621,130 618,132 616,132 C613,132 611,130 611,127 C611,130 608,132 606,132 C603,132 601,130 601,127 C601,130 598,132 596,132 C593,132 591,130 591,127 C591,130 588,132 586,132 C583,132 581,130 581,127 C581,130 578,132 576,132 C573,132 571,130 571,127 C571,130 568,132 566,132 C563,132 561,130 561,127 C561,130 558,132 556,132 C553,132 551,130 551,127 C548,127 546,125 546,122 C546,119 548,117 551,117 C548,117 546,115 546,112 C546,109 548,107 551,107 C548,107 546,105 546,102 C546,99 548,97 551,97 C548,97 546,95 546,92 C546,89 548,87 551,87 C548,87 546,85 546,82 C546,79 548,77 551,77 C548,77 546,75 546,72 C546,69 548,67 551,67 C548,67 546,65 546,62 C546,59 548,57 551,57 C548,57 546,55 546,52 C546,49 548,47 551,47 " fill="#FFFFFF" filter="url(#f1)" style="stroke: #000000; stroke-width: 2.0;"/><text fill="#000000" font-family="sans-serif" font-size="14" font-weight="bold" lengthAdjust="spacingAndGlyphs" textLength="36" x="583" y="65.9951">foo5</text><path d="M678,35 C678,25 731,25 731,25 C731,25 784,25 784,35 L784,129 C784,139 731,139 731,139 C731,139 678,139 678,129 L678,35 " fill="#FFFFFF" filter="url(#f1)" style="stroke: #000000; stroke-width: 2.0;"/><path d="M678,35 C678,45 731,45 731,45 C731,45 784,45 784,35 " fill="none" style="stroke: #000000; stroke-width: 2.0;"/><text fill="#000000" font-family="sans-serif" font-size="14" font-weight="bold" lengthAdjust="spacingAndGlyphs" textLength="36" x="713" y="58.9951">foo6</text><rect fill="#FEFECE" filter="url(#f1)" height="48" style="stroke: #A80036; stroke-width: 1.5;" width="73" x="41.5" y="75"/><ellipse cx="56.5" cy="91" fill="#ADD1B2" rx="11" ry="11" style="stroke: #A80036; stroke-width: 1.0;"/><path d="M59.4688,96.6406 Q58.8906,96.9375 58.25,97.0859 Q57.6094,97.2344 56.9063,97.2344 Q54.4063,97.2344 53.0859,95.5859 Q51.7656,93.9375 51.7656,90.8125 Q51.7656,87.6875 53.0859,86.0313 Q54.4063,84.375 56.9063,84.375 Q57.6094,84.375 58.2578,84.5313 Q58.9063,84.6875 59.4688,84.9844 L59.4688,87.7031 Q58.8438,87.125 58.25,86.8516 Q57.6563,86.5781 57.0313,86.5781 Q55.6875,86.5781 55,87.6484 Q54.3125,88.7188 54.3125,90.8125 Q54.3125,92.9063 55,93.9766 Q55.6875,95.0469 57.0313,95.0469 Q57.6563,95.0469 58.25,94.7734 Q58.8438,94.5 59.4688,93.9219 L59.4688,96.6406 Z "/><text fill="#000000" font-family="sans-serif" font-size="12" lengthAdjust="spacingAndGlyphs" textLength="41" x="70.5" y="95.1543">Class1</text><line style="stroke: #A80036; stroke-width: 1.5;" x1="42.5" x2="113.5" y1="107" y2="107"/><line style="stroke: #A80036; stroke-width: 1.5;" x1="42.5" x2="113.5" y1="115" y2="115"/><rect fill="#FEFECE" filter="url(#f1)" height="48" style="stroke: #A80036; stroke-width: 1.5;" width="73" x="174.5" y="75"/><ellipse cx="189.5" cy="91" fill="#ADD1B2" rx="11" ry="11" style="stroke: #A80036; stroke-width: 1.0;"/><path d="M192.4688,96.6406 Q191.8906,96.9375 191.25,97.0859 Q190.6094,97.2344 189.9063,97.2344 Q187.4063,97.2344 186.0859,95.5859 Q184.7656,93.9375 184.7656,90.8125 Q184.7656,87.6875 186.0859,86.0313 Q187.4063,84.375 189.9063,84.375 Q190.6094,84.375 191.2578,84.5313 Q191.9063,84.6875 192.4688,84.9844 L192.4688,87.7031 Q191.8438,87.125 191.25,86.8516 Q190.6563,86.5781 190.0313,86.5781 Q188.6875,86.5781 188,87.6484 Q187.3125,88.7188 187.3125,90.8125 Q187.3125,92.9063 188,93.9766 Q188.6875,95.0469 190.0313,95.0469 Q190.6563,95.0469 191.25,94.7734 Q191.8438,94.5 192.4688,93.9219 L192.4688,96.6406 Z "/><text fill="#000000" font-family="sans-serif" font-size="12" lengthAdjust="spacingAndGlyphs" textLength="41" x="203.5" y="95.1543">Class2</text><line style="stroke: #A80036; stroke-width: 1.5;" x1="175.5" x2="246.5" y1="107" y2="107"/><line style="stroke: #A80036; stroke-width: 1.5;" x1="175.5" x2="246.5" y1="115" y2="115"/><rect fill="#FEFECE" filter="url(#f1)" height="48" style="stroke: #A80036; stroke-width: 1.5;" width="73" x="304.5" y="75"/><ellipse cx="319.5" cy="91" fill="#ADD1B2" rx="11" ry="11" style="stroke: #A80036; stroke-width: 1.0;"/><path d="M322.4688,96.6406 Q321.8906,96.9375 321.25,97.0859 Q320.6094,97.2344 319.9063,97.2344 Q317.4063,97.2344 316.0859,95.5859 Q314.7656,93.9375 314.7656,90.8125 Q314.7656,87.6875 316.0859,86.0313 Q317.4063,84.375 319.9063,84.375 Q320.6094,84.375 321.2578,84.5313 Q321.9063,84.6875 322.4688,84.9844 L322.4688,87.7031 Q321.8438,87.125 321.25,86.8516 Q320.6563,86.5781 320.0313,86.5781 Q318.6875,86.5781 318,87.6484 Q317.3125,88.7188 317.3125,90.8125 Q317.3125,92.9063 318,93.9766 Q318.6875,95.0469 320.0313,95.0469 Q320.6563,95.0469 321.25,94.7734 Q321.8438,94.5 322.4688,93.9219 L322.4688,96.6406 Z "/><text fill="#000000" font-family="sans-serif" font-size="12" lengthAdjust="spacingAndGlyphs" textLength="41" x="333.5" y="95.1543">Class3</text><line style="stroke: #A80036; stroke-width: 1.5;" x1="305.5" x2="376.5" y1="107" y2="107"/><line style="stroke: #A80036; stroke-width: 1.5;" x1="305.5" x2="376.5" y1="115" y2="115"/><rect fill="#FEFECE" filter="url(#f1)" height="48" style="stroke: #A80036; stroke-width: 1.5;" width="73" x="434.5" y="75"/><ellipse cx="449.5" cy="91" fill="#ADD1B2" rx="11" ry="11" style="stroke: #A80036; stroke-width: 1.0;"/><path d="M452.4688,96.6406 Q451.8906,96.9375 451.25,97.0859 Q450.6094,97.2344 449.9063,97.2344 Q447.4063,97.2344 446.0859,95.5859 Q444.7656,93.9375 444.7656,90.8125 Q444.7656,87.6875 446.0859,86.0313 Q447.4063,84.375 449.9063,84.375 Q450.6094,84.375 451.2578,84.5313 Q451.9063,84.6875 452.4688,84.9844 L452.4688,87.7031 Q451.8438,87.125 451.25,86.8516 Q450.6563,86.5781 450.0313,86.5781 Q448.6875,86.5781 448,87.6484 Q447.3125,88.7188 447.3125,90.8125 Q447.3125,92.9063 448,93.9766 Q448.6875,95.0469 450.0313,95.0469 Q450.6563,95.0469 451.25,94.7734 Q451.8438,94.5 452.4688,93.9219 L452.4688,96.6406 Z "/><text fill="#000000" font-family="sans-serif" font-size="12" lengthAdjust="spacingAndGlyphs" textLength="41" x="463.5" y="95.1543">Class4</text><line style="stroke: #A80036; stroke-width: 1.5;" x1="435.5" x2="506.5" y1="107" y2="107"/><line style="stroke: #A80036; stroke-width: 1.5;" x1="435.5" x2="506.5" y1="115" y2="115"/><rect fill="#FEFECE" filter="url(#f1)" height="48" style="stroke: #A80036; stroke-width: 1.5;" width="73" x="564.5" y="75"/><ellipse cx="579.5" cy="91" fill="#ADD1B2" rx="11" ry="11" style="stroke: #A80036; stroke-width: 1.0;"/><path d="M582.4688,96.6406 Q581.8906,96.9375 581.25,97.0859 Q580.6094,97.2344 579.9063,97.2344 Q577.4063,97.2344 576.0859,95.5859 Q574.7656,93.9375 574.7656,90.8125 Q574.7656,87.6875 576.0859,86.0313 Q577.4063,84.375 579.9063,84.375 Q580.6094,84.375 581.2578,84.5313 Q581.9063,84.6875 582.4688,84.9844 L582.4688,87.7031 Q581.8438,87.125 581.25,86.8516 Q580.6563,86.5781 580.0313,86.5781 Q578.6875,86.5781 578,87.6484 Q577.3125,88.7188 577.3125,90.8125 Q577.3125,92.9063 578,93.9766 Q578.6875,95.0469 580.0313,95.0469 Q580.6563,95.0469 581.25,94.7734 Q581.8438,94.5 582.4688,93.9219 L582.4688,96.6406 Z "/><text fill="#000000" font-family="sans-serif" font-size="12" lengthAdjust="spacingAndGlyphs" textLength="41" x="593.5" y="95.1543">Class5</text><line style="stroke: #A80036; stroke-width: 1.5;" x1="565.5" x2="636.5" y1="107" y2="107"/><line style="stroke: #A80036; stroke-width: 1.5;" x1="565.5" x2="636.5" y1="115" y2="115"/><rect fill="#FEFECE" filter="url(#f1)" height="48" style="stroke: #A80036; stroke-width: 1.5;" width="73" x="694.5" y="75"/><ellipse cx="709.5" cy="91" fill="#ADD1B2" rx="11" ry="11" style="stroke: #A80036; stroke-width: 1.0;"/><path d="M712.4688,96.6406 Q711.8906,96.9375 711.25,97.0859 Q710.6094,97.2344 709.9063,97.2344 Q707.4063,97.2344 706.0859,95.5859 Q704.7656,93.9375 704.7656,90.8125 Q704.7656,87.6875 706.0859,86.0313 Q707.4063,84.375 709.9063,84.375 Q710.6094,84.375 711.2578,84.5313 Q711.9063,84.6875 712.4688,84.9844 L712.4688,87.7031 Q711.8438,87.125 711.25,86.8516 Q710.6563,86.5781 710.0313,86.5781 Q708.6875,86.5781 708,87.6484 Q707.3125,88.7188 707.3125,90.8125 Q707.3125,92.9063 708,93.9766 Q708.6875,95.0469 710.0313,95.0469 Q710.6563,95.0469 711.25,94.7734 Q711.8438,94.5 712.4688,93.9219 L712.4688,96.6406 Z "/><text fill="#000000" font-family="sans-serif" font-size="12" lengthAdjust="spacingAndGlyphs" textLength="41" x="723.5" y="95.1543">Class6</text><line style="stroke: #A80036; stroke-width: 1.5;" x1="695.5" x2="766.5" y1="107" y2="107"/><line style="stroke: #A80036; stroke-width: 1.5;" x1="695.5" x2="766.5" y1="115" y2="115"/></g></svg>