<?xml version="1.0" encoding="UTF-8" standalone="yes"?><svg xmlns="http://www.w3.org/2000/svg" xmlns:xlink="http://www.w3.org/1999/xlink" height="190px" style="width:338px;height:190px;" version="1.1" viewBox="0 0 338 190" width="338px"><defs><filter height="300%" id="f1" width="300%" x="-1" y="-1"><feGaussianBlur result="blurOut" stdDeviation="2.0"/><feColorMatrix in="blurOut" result="blurOut2" type="matrix" values="0 0 0 0 0 0 0 0 0 0 0 0 0 0 0 0 0 0 .4 0"/><feOffset dx="4.0" dy="4.0" in="blurOut2" result="blurOut3"/><feBlend in="SourceGraphic" in2="blurOut3" mode="normal"/></filter></defs><g><rect fill="#FEFECE" filter="url(#f1)" height="48" style="stroke: #A80036; stroke-width: 1.5;" width="81" x="16.5" y="8"/><ellipse cx="31.5" cy="24" fill="#ADD1B2" rx="11" ry="11" style="stroke: #A80036; stroke-width: 1.0;"/><path d="M34.4688,29.6406 Q33.8906,29.9375 33.25,30.0859 Q32.6094,30.2344 31.9063,30.2344 Q29.4063,30.2344 28.0859,28.5859 Q26.7656,26.9375 26.7656,23.8125 Q26.7656,20.6875 28.0859,19.0313 Q29.4063,17.375 31.9063,17.375 Q32.6094,17.375 33.2578,17.5313 Q33.9063,17.6875 34.4688,17.9844 L34.4688,20.7031 Q33.8438,20.125 33.25,19.8516 Q32.6563,19.5781 32.0313,19.5781 Q30.6875,19.5781 30,20.6484 Q29.3125,21.7188 29.3125,23.8125 Q29.3125,25.9063 30,26.9766 Q30.6875,28.0469 32.0313,28.0469 Q32.6563,28.0469 33.25,27.7734 Q33.8438,27.5 34.4688,26.9219 L34.4688,29.6406 Z "/><text fill="#000000" font-family="sans-serif" font-size="12" lengthAdjust="spacingAndGlyphs" textLength="49" x="45.5" y="28.1543">Class01</text><line style="stroke: #A80036; stroke-width: 1.5;" x1="17.5" x2="96.5" y1="40" y2="40"/><line style="stroke: #A80036; stroke-width: 1.5;" x1="17.5" x2="96.5" y1="48" y2="48"/><rect fill="#FEFECE" filter="url(#f1)" height="48" style="stroke: #A80036; stroke-width: 1.5;" width="81" x="16.5" y="133"/><ellipse cx="31.5" cy="149" fill="#ADD1B2" rx="11" ry="11" style="stroke: #A80036; stroke-width: 1.0;"/><path d="M34.4688,154.6406 Q33.8906,154.9375 33.25,155.0859 Q32.6094,155.2344 31.9063,155.2344 Q29.4063,155.2344 28.0859,153.5859 Q26.7656,151.9375 26.7656,148.8125 Q26.7656,145.6875 28.0859,144.0313 Q29.4063,142.375 31.9063,142.375 Q32.6094,142.375 33.2578,142.5313 Q33.9063,142.6875 34.4688,142.9844 L34.4688,145.7031 Q33.8438,145.125 33.25,144.8516 Q32.6563,144.5781 32.0313,144.5781 Q30.6875,144.5781 30,145.6484 Q29.3125,146.7188 29.3125,148.8125 Q29.3125,150.9063 30,151.9766 Q30.6875,153.0469 32.0313,153.0469 Q32.6563,153.0469 33.25,152.7734 Q33.8438,152.5 34.4688,151.9219 L34.4688,154.6406 Z "/><text fill="#000000" font-family="sans-serif" font-size="12" lengthAdjust="spacingAndGlyphs" textLength="49" x="45.5" y="153.1543">Class02</text><line style="stroke: #A80036; stroke-width: 1.5;" x1="17.5" x2="96.5" y1="165" y2="165"/><line style="stroke: #A80036; stroke-width: 1.5;" x1="17.5" x2="96.5" y1="173" y2="173"/><rect fill="#FEFECE" filter="url(#f1)" height="48" style="stroke: #A80036; stroke-width: 1.5;" width="81" x="132.5" y="8"/><ellipse cx="147.5" cy="24" fill="#ADD1B2" rx="11" ry="11" style="stroke: #A80036; stroke-width: 1.0;"/><path d="M150.4688,29.6406 Q149.8906,29.9375 149.25,30.0859 Q148.6094,30.2344 147.9063,30.2344 Q145.4063,30.2344 144.0859,28.5859 Q142.7656,26.9375 142.7656,23.8125 Q142.7656,20.6875 144.0859,19.0313 Q145.4063,17.375 147.9063,17.375 Q148.6094,17.375 149.2578,17.5313 Q149.9063,17.6875 150.4688,17.9844 L150.4688,20.7031 Q149.8438,20.125 149.25,19.8516 Q148.6563,19.5781 148.0313,19.5781 Q146.6875,19.5781 146,20.6484 Q145.3125,21.7188 145.3125,23.8125 Q145.3125,25.9063 146,26.9766 Q146.6875,28.0469 148.0313,28.0469 Q148.6563,28.0469 149.25,27.7734 Q149.8438,27.5 150.4688,26.9219 L150.4688,29.6406 Z "/><text fill="#000000" font-family="sans-serif" font-size="12" lengthAdjust="spacingAndGlyphs" textLength="49" x="161.5" y="28.1543">Class03</text><line style="stroke: #A80036; stroke-width: 1.5;" x1="133.5" x2="212.5" y1="40" y2="40"/><line style="stroke: #A80036; stroke-width: 1.5;" x1="133.5" x2="212.5" y1="48" y2="48"/><rect fill="#FEFECE" filter="url(#f1)" height="48" style="stroke: #A80036; stroke-width: 1.5;" width="81" x="132.5" y="133"/><ellipse cx="147.5" cy="149" fill="#ADD1B2" rx="11" ry="11" style="stroke: #A80036; stroke-width: 1.0;"/><path d="M150.4688,154.6406 Q149.8906,154.9375 149.25,155.0859 Q148.6094,155.2344 147.9063,155.2344 Q145.4063,155.2344 144.0859,153.5859 Q142.7656,151.9375 142.7656,148.8125 Q142.7656,145.6875 144.0859,144.0313 Q145.4063,142.375 147.9063,142.375 Q148.6094,142.375 149.2578,142.5313 Q149.9063,142.6875 150.4688,142.9844 L150.4688,145.7031 Q149.8438,145.125 149.25,144.8516 Q148.6563,144.5781 148.0313,144.5781 Q146.6875,144.5781 146,145.6484 Q145.3125,146.7188 145.3125,148.8125 Q145.3125,150.9063 146,151.9766 Q146.6875,153.0469 148.0313,153.0469 Q148.6563,153.0469 149.25,152.7734 Q149.8438,152.5 150.4688,151.9219 L150.4688,154.6406 Z "/><text fill="#000000" font-family="sans-serif" font-size="12" lengthAdjust="spacingAndGlyphs" textLength="49" x="161.5" y="153.1543">Class04</text><line style="stroke: #A80036; stroke-width: 1.5;" x1="133.5" x2="212.5" y1="165" y2="165"/><line style="stroke: #A80036; stroke-width: 1.5;" x1="133.5" x2="212.5" y1="173" y2="173"/><rect fill="#FEFECE" filter="url(#f1)" height="48" style="stroke: #A80036; stroke-width: 1.5;" width="81" x="248.5" y="8"/><ellipse cx="263.5" cy="24" fill="#ADD1B2" rx="11" ry="11" style="stroke: #A80036; stroke-width: 1.0;"/><path d="M266.4688,29.6406 Q265.8906,29.9375 265.25,30.0859 Q264.6094,30.2344 263.9063,30.2344 Q261.4063,30.2344 260.0859,28.5859 Q258.7656,26.9375 258.7656,23.8125 Q258.7656,20.6875 260.0859,19.0313 Q261.4063,17.375 263.9063,17.375 Q264.6094,17.375 265.2578,17.5313 Q265.9063,17.6875 266.4688,17.9844 L266.4688,20.7031 Q265.8438,20.125 265.25,19.8516 Q264.6563,19.5781 264.0313,19.5781 Q262.6875,19.5781 262,20.6484 Q261.3125,21.7188 261.3125,23.8125 Q261.3125,25.9063 262,26.9766 Q262.6875,28.0469 264.0313,28.0469 Q264.6563,28.0469 265.25,27.7734 Q265.8438,27.5 266.4688,26.9219 L266.4688,29.6406 Z "/><text fill="#000000" font-family="sans-serif" font-size="12" lengthAdjust="spacingAndGlyphs" textLength="49" x="277.5" y="28.1543">Class05</text><line style="stroke: #A80036; stroke-width: 1.5;" x1="249.5" x2="328.5" y1="40" y2="40"/><line style="stroke: #A80036; stroke-width: 1.5;" x1="249.5" x2="328.5" y1="48" y2="48"/><rect fill="#FEFECE" filter="url(#f1)" height="48" style="stroke: #A80036; stroke-width: 1.5;" width="81" x="248.5" y="133"/><ellipse cx="263.5" cy="149" fill="#ADD1B2" rx="11" ry="11" style="stroke: #A80036; stroke-width: 1.0;"/><path d="M266.4688,154.6406 Q265.8906,154.9375 265.25,155.0859 Q264.6094,155.2344 263.9063,155.2344 Q261.4063,155.2344 260.0859,153.5859 Q258.7656,151.9375 258.7656,148.8125 Q258.7656,145.6875 260.0859,144.0313 Q261.4063,142.375 263.9063,142.375 Q264.6094,142.375 265.2578,142.5313 Q265.9063,142.6875 266.4688,142.9844 L266.4688,145.7031 Q265.8438,145.125 265.25,144.8516 Q264.6563,144.5781 264.0313,144.5781 Q262.6875,144.5781 262,145.6484 Q261.3125,146.7188 261.3125,148.8125 Q261.3125,150.9063 262,151.9766 Q262.6875,153.0469 264.0313,153.0469 Q264.6563,153.0469 265.25,152.7734 Q265.8438,152.5 266.4688,151.9219 L266.4688,154.6406 Z "/><text fill="#000000" font-family="sans-serif" font-size="12" lengthAdjust="spacingAndGlyphs" textLength="49" x="277.5" y="153.1543">Class06</text><line style="stroke: #A80036; stroke-width: 1.5;" x1="249.5" x2="328.5" y1="165" y2="165"/><line style="stroke: #A80036; stroke-width: 1.5;" x1="249.5" x2="328.5" y1="173" y2="173"/><path d="M57,69.214 C57,89.8329 57,115.0433 57,132.9684 " fill="none" style="stroke: #A80036; stroke-width: 1.0;"/><polygon fill="#A80036" points="57,56.135,53,62.135,57,68.135,61,62.135,57,56.135" style="stroke: #A80036; stroke-width: 1.0;"/><text fill="#000000" font-family="sans-serif" font-size="13" lengthAdjust="spacingAndGlyphs" textLength="54" x="58" y="99.0669">contains</text><text fill="#000000" font-family="sans-serif" font-size="13" lengthAdjust="spacingAndGlyphs" textLength="8" x="48.025" y="75.9291">1</text><text fill="#000000" font-family="sans-serif" font-size="13" lengthAdjust="spacingAndGlyphs" textLength="36" x="16.3875" y="121.9723">many</text><path d="M173,69.214 C173,89.8329 173,115.0433 173,132.9684 " fill="none" style="stroke: #A80036; stroke-width: 1.0;"/><polygon fill="none" points="173,56.135,169,62.135,173,68.135,177,62.135,173,56.135" style="stroke: #A80036; stroke-width: 1.0;"/><text fill="#000000" font-family="sans-serif" font-size="13" lengthAdjust="spacingAndGlyphs" textLength="69" x="174" y="99.0669">agregation</text><path d="M289,56.135 C289,76.494 289,106.1907 289,127.908 " fill="none" style="stroke: #A80036; stroke-width: 1.0;"/><polygon fill="#A80036" points="289,132.9684,293,123.9684,289,127.9684,285,123.9684,289,132.9684" style="stroke: #A80036; stroke-width: 1.0;"/><text fill="#000000" font-family="sans-serif" font-size="13" lengthAdjust="spacingAndGlyphs" textLength="8" x="279.975" y="121.9723">1</text></g></svg>