<?xml version="1.0" encoding="UTF-8" standalone="yes"?><svg xmlns="http://www.w3.org/2000/svg" xmlns:xlink="http://www.w3.org/1999/xlink" height="188px" style="width:234px;height:188px;" version="1.1" viewBox="0 0 234 188" width="234px"><defs><filter height="300%" id="f1" width="300%" x="-1" y="-1"><feGaussianBlur result="blurOut" stdDeviation="2.0"/><feColorMatrix in="blurOut" result="blurOut2" type="matrix" values="0 0 0 0 0 0 0 0 0 0 0 0 0 0 0 0 0 0 .4 0"/><feOffset dx="4.0" dy="4.0" in="blurOut2" result="blurOut3"/><feBlend in="SourceGraphic" in2="blurOut3" mode="normal"/></filter></defs><g><rect fill="#FEFECE" filter="url(#f1)" height="52.8047" style="stroke: #A80036; stroke-width: 1.5;" width="99" x="6" y="8"/><ellipse cx="27.3" cy="24" fill="#ADD1B2" rx="11" ry="11" style="stroke: #A80036; stroke-width: 1.0;"/><path d="M30.2688,29.6406 Q29.6906,29.9375 29.05,30.0859 Q28.4094,30.2344 27.7063,30.2344 Q25.2063,30.2344 23.8859,28.5859 Q22.5656,26.9375 22.5656,23.8125 Q22.5656,20.6875 23.8859,19.0313 Q25.2063,17.375 27.7063,17.375 Q28.4094,17.375 29.0578,17.5313 Q29.7063,17.6875 30.2688,17.9844 L30.2688,20.7031 Q29.6438,20.125 29.05,19.8516 Q28.4563,19.5781 27.8313,19.5781 Q26.4875,19.5781 25.8,20.6484 Q25.1125,21.7188 25.1125,23.8125 Q25.1125,25.9063 25.8,26.9766 Q26.4875,28.0469 27.8313,28.0469 Q28.4563,28.0469 29.05,27.7734 Q29.6438,27.5 30.2688,26.9219 L30.2688,29.6406 Z "/><text fill="#000000" font-family="sans-serif" font-size="12" lengthAdjust="spacingAndGlyphs" textLength="53" x="42.7" y="28.1543">Dummy1</text><line style="stroke: #A80036; stroke-width: 1.5;" x1="7" x2="104" y1="40" y2="40"/><ellipse cx="17" cy="51.9023" fill="#84BE84" rx="3" ry="3" style="stroke: #038048; stroke-width: 1.0;"/><text fill="#000000" font-family="sans-serif" font-size="11" lengthAdjust="spacingAndGlyphs" textLength="73" x="26" y="54.2104">myMethods()</text><rect fill="#FEFECE" filter="url(#f1)" height="32" style="stroke: #A80036; stroke-width: 1.5;" width="85" x="140" y="18.5"/><ellipse cx="155" cy="34.5" fill="#ADD1B2" rx="11" ry="11" style="stroke: #A80036; stroke-width: 1.0;"/><path d="M157.9688,40.1406 Q157.3906,40.4375 156.75,40.5859 Q156.1094,40.7344 155.4063,40.7344 Q152.9063,40.7344 151.5859,39.0859 Q150.2656,37.4375 150.2656,34.3125 Q150.2656,31.1875 151.5859,29.5313 Q152.9063,27.875 155.4063,27.875 Q156.1094,27.875 156.7578,28.0313 Q157.4063,28.1875 157.9688,28.4844 L157.9688,31.2031 Q157.3438,30.625 156.75,30.3516 Q156.1563,30.0781 155.5313,30.0781 Q154.1875,30.0781 153.5,31.1484 Q152.8125,32.2188 152.8125,34.3125 Q152.8125,36.4063 153.5,37.4766 Q154.1875,38.5469 155.5313,38.5469 Q156.1563,38.5469 156.75,38.2734 Q157.3438,38 157.9688,37.4219 L157.9688,40.1406 Z "/><text fill="#000000" font-family="sans-serif" font-size="12" lengthAdjust="spacingAndGlyphs" textLength="53" x="169" y="38.6543">Dummy2</text><rect fill="#FEFECE" filter="url(#f1)" height="58.7422" style="stroke: #A80036; stroke-width: 1.5;" width="87" x="12" y="121"/><text fill="#000000" font-family="sans-serif" font-size="12" font-style="italic" lengthAdjust="spacingAndGlyphs" textLength="85" x="13" y="137.1387">«Serializable»</text><text fill="#000000" font-family="sans-serif" font-size="12" lengthAdjust="spacingAndGlyphs" textLength="53" x="29" y="151.1074">Dummy3</text><line style="stroke: #A80036; stroke-width: 1.5;" x1="13" x2="98" y1="158.9375" y2="158.9375"/><text fill="#000000" font-family="sans-serif" font-size="11" lengthAdjust="spacingAndGlyphs" textLength="70" x="18" y="173.1479">String name</text></g></svg>