<?xml version="1.0" encoding="UTF-8" standalone="yes"?><svg xmlns="http://www.w3.org/2000/svg" xmlns:xlink="http://www.w3.org/1999/xlink" height="190px" style="width:337px;height:190px;" version="1.1" viewBox="0 0 337 190" width="337px"><defs><filter height="300%" id="f1" width="300%" x="-1" y="-1"><feGaussianBlur result="blurOut" stdDeviation="2.0"/><feColorMatrix in="blurOut" result="blurOut2" type="matrix" values="0 0 0 0 0 0 0 0 0 0 0 0 0 0 0 0 0 0 .4 0"/><feOffset dx="4.0" dy="4.0" in="blurOut2" result="blurOut3"/><feBlend in="SourceGraphic" in2="blurOut3" mode="normal"/></filter></defs><g><rect fill="#FEFECE" filter="url(#f1)" height="48" style="stroke: #A80036; stroke-width: 1.5;" width="128" x="6" y="8"/><ellipse cx="21" cy="24" fill="#ADD1B2" rx="11" ry="11" style="stroke: #A80036; stroke-width: 1.0;"/><path d="M23.9688,29.6406 Q23.3906,29.9375 22.75,30.0859 Q22.1094,30.2344 21.4063,30.2344 Q18.9063,30.2344 17.5859,28.5859 Q16.2656,26.9375 16.2656,23.8125 Q16.2656,20.6875 17.5859,19.0313 Q18.9063,17.375 21.4063,17.375 Q22.1094,17.375 22.7578,17.5313 Q23.4063,17.6875 23.9688,17.9844 L23.9688,20.7031 Q23.3438,20.125 22.75,19.8516 Q22.1563,19.5781 21.5313,19.5781 Q20.1875,19.5781 19.5,20.6484 Q18.8125,21.7188 18.8125,23.8125 Q18.8125,25.9063 19.5,26.9766 Q20.1875,28.0469 21.5313,28.0469 Q22.1563,28.0469 22.75,27.7734 Q23.3438,27.5 23.9688,26.9219 L23.9688,29.6406 Z "/><text fill="#000000" font-family="sans-serif" font-size="12" lengthAdjust="spacingAndGlyphs" textLength="96" x="35" y="28.1543">This is my class</text><line style="stroke: #A80036; stroke-width: 1.5;" x1="7" x2="133" y1="40" y2="40"/><line style="stroke: #A80036; stroke-width: 1.5;" x1="7" x2="133" y1="48" y2="48"/><rect fill="#FEFECE" filter="url(#f1)" height="48" style="stroke: #A80036; stroke-width: 1.5;" width="159" x="169.5" y="8"/><ellipse cx="184.5" cy="24" fill="#ADD1B2" rx="11" ry="11" style="stroke: #A80036; stroke-width: 1.0;"/><path d="M187.4688,29.6406 Q186.8906,29.9375 186.25,30.0859 Q185.6094,30.2344 184.9063,30.2344 Q182.4063,30.2344 181.0859,28.5859 Q179.7656,26.9375 179.7656,23.8125 Q179.7656,20.6875 181.0859,19.0313 Q182.4063,17.375 184.9063,17.375 Q185.6094,17.375 186.2578,17.5313 Q186.9063,17.6875 187.4688,17.9844 L187.4688,20.7031 Q186.8438,20.125 186.25,19.8516 Q185.6563,19.5781 185.0313,19.5781 Q183.6875,19.5781 183,20.6484 Q182.3125,21.7188 182.3125,23.8125 Q182.3125,25.9063 183,26.9766 Q183.6875,28.0469 185.0313,28.0469 Q185.6563,28.0469 186.25,27.7734 Q186.8438,27.5 187.4688,26.9219 L187.4688,29.6406 Z "/><text fill="#000000" font-family="sans-serif" font-size="12" lengthAdjust="spacingAndGlyphs" textLength="127" x="198.5" y="28.1543">It works this way too</text><line style="stroke: #A80036; stroke-width: 1.5;" x1="170.5" x2="327.5" y1="40" y2="40"/><line style="stroke: #A80036; stroke-width: 1.5;" x1="170.5" x2="327.5" y1="48" y2="48"/><rect fill="#FEFECE" filter="url(#f1)" height="48" style="stroke: #A80036; stroke-width: 1.5;" width="100" x="199" y="133"/><ellipse cx="214" cy="149" fill="#ADD1B2" rx="11" ry="11" style="stroke: #A80036; stroke-width: 1.0;"/><path d="M216.9688,154.6406 Q216.3906,154.9375 215.75,155.0859 Q215.1094,155.2344 214.4063,155.2344 Q211.9063,155.2344 210.5859,153.5859 Q209.2656,151.9375 209.2656,148.8125 Q209.2656,145.6875 210.5859,144.0313 Q211.9063,142.375 214.4063,142.375 Q215.1094,142.375 215.7578,142.5313 Q216.4063,142.6875 216.9688,142.9844 L216.9688,145.7031 Q216.3438,145.125 215.75,144.8516 Q215.1563,144.5781 214.5313,144.5781 Q213.1875,144.5781 212.5,145.6484 Q211.8125,146.7188 211.8125,148.8125 Q211.8125,150.9063 212.5,151.9766 Q213.1875,153.0469 214.5313,153.0469 Q215.1563,153.0469 215.75,152.7734 Q216.3438,152.5 216.9688,151.9219 L216.9688,154.6406 Z "/><text fill="#000000" font-family="sans-serif" font-size="12" lengthAdjust="spacingAndGlyphs" textLength="68" x="228" y="153.1543">foo/dummy</text><line style="stroke: #A80036; stroke-width: 1.5;" x1="200" x2="298" y1="165" y2="165"/><line style="stroke: #A80036; stroke-width: 1.5;" x1="200" x2="298" y1="173" y2="173"/><path d="M249,69.214 C249,89.8329 249,115.0433 249,132.9684 " fill="none" style="stroke: #A80036; stroke-width: 1.0;"/><polygon fill="#A80036" points="249,56.135,245,62.135,249,68.135,253,62.135,249,56.135" style="stroke: #A80036; stroke-width: 1.0;"/><text fill="#000000" font-family="sans-serif" font-size="13" lengthAdjust="spacingAndGlyphs" textLength="23" x="250" y="99.0669">use</text></g></svg>