<?xml version="1.0" encoding="UTF-8" standalone="yes"?><svg xmlns="http://www.w3.org/2000/svg" xmlns:xlink="http://www.w3.org/1999/xlink" height="238px" style="width:435px;height:238px;" version="1.1" viewBox="0 0 435 238" width="435px"><defs><filter height="300%" id="f1" width="300%" x="-1" y="-1"><feGaussianBlur result="blurOut" stdDeviation="2.0"/><feColorMatrix in="blurOut" result="blurOut2" type="matrix" values="0 0 0 0 0 0 0 0 0 0 0 0 0 0 0 0 0 0 .4 0"/><feOffset dx="4.0" dy="4.0" in="blurOut2" result="blurOut3"/><feBlend in="SourceGraphic" in2="blurOut3" mode="normal"/></filter></defs><g><polygon fill="#DDDDDD" filter="url(#f1)" points="22,24,175,24,182,46.2969,185,46.2969,185,231,22,231,22,24" style="stroke: #000000; stroke-width: 2.0;"/><line style="stroke: #000000; stroke-width: 2.0;" x1="22" x2="182" y1="46.2969" y2="46.2969"/><text fill="#000000" font-family="sans-serif" font-size="14" font-weight="bold" lengthAdjust="spacingAndGlyphs" textLength="147" x="26" y="38.9951">Classic Collections</text><polygon fill="#FFFFFF" filter="url(#f1)" points="209,132,416,132,423,154.2969,428,154.2969,428,231,209,231,209,132" style="stroke: #000000; stroke-width: 2.0;"/><line style="stroke: #000000; stroke-width: 2.0;" x1="209" x2="423" y1="154.2969" y2="154.2969"/><text fill="#000000" font-family="sans-serif" font-size="14" font-weight="bold" lengthAdjust="spacingAndGlyphs" textLength="201" x="213" y="146.9951">net.sourceforge.plantuml</text><rect fill="#FEFECE" filter="url(#f1)" height="48" style="stroke: #A80036; stroke-width: 1.5;" width="72" x="93" y="59"/><ellipse cx="108" cy="75" fill="#ADD1B2" rx="11" ry="11" style="stroke: #A80036; stroke-width: 1.0;"/><path d="M110.9688,80.6406 Q110.3906,80.9375 109.75,81.0859 Q109.1094,81.2344 108.4063,81.2344 Q105.9063,81.2344 104.5859,79.5859 Q103.2656,77.9375 103.2656,74.8125 Q103.2656,71.6875 104.5859,70.0313 Q105.9063,68.375 108.4063,68.375 Q109.1094,68.375 109.7578,68.5313 Q110.4063,68.6875 110.9688,68.9844 L110.9688,71.7031 Q110.3438,71.125 109.75,70.8516 Q109.1563,70.5781 108.5313,70.5781 Q107.1875,70.5781 106.5,71.6484 Q105.8125,72.7188 105.8125,74.8125 Q105.8125,76.9063 106.5,77.9766 Q107.1875,79.0469 108.5313,79.0469 Q109.1563,79.0469 109.75,78.7734 Q110.3438,78.5 110.9688,77.9219 L110.9688,80.6406 Z "/><text fill="#000000" font-family="sans-serif" font-size="12" lengthAdjust="spacingAndGlyphs" textLength="40" x="122" y="79.1543">Object</text><line style="stroke: #A80036; stroke-width: 1.5;" x1="94" x2="164" y1="91" y2="91"/><line style="stroke: #A80036; stroke-width: 1.5;" x1="94" x2="164" y1="99" y2="99"/><rect fill="#FEFECE" filter="url(#f1)" height="48" style="stroke: #A80036; stroke-width: 1.5;" width="85" x="83.5" y="167"/><ellipse cx="98.5" cy="183" fill="#ADD1B2" rx="11" ry="11" style="stroke: #A80036; stroke-width: 1.0;"/><path d="M101.4688,188.6406 Q100.8906,188.9375 100.25,189.0859 Q99.6094,189.2344 98.9063,189.2344 Q96.4063,189.2344 95.0859,187.5859 Q93.7656,185.9375 93.7656,182.8125 Q93.7656,179.6875 95.0859,178.0313 Q96.4063,176.375 98.9063,176.375 Q99.6094,176.375 100.2578,176.5313 Q100.9063,176.6875 101.4688,176.9844 L101.4688,179.7031 Q100.8438,179.125 100.25,178.8516 Q99.6563,178.5781 99.0313,178.5781 Q97.6875,178.5781 97,179.6484 Q96.3125,180.7188 96.3125,182.8125 Q96.3125,184.9063 97,185.9766 Q97.6875,187.0469 99.0313,187.0469 Q99.6563,187.0469 100.25,186.7734 Q100.8438,186.5 101.4688,185.9219 L101.4688,188.6406 Z "/><text fill="#000000" font-family="sans-serif" font-size="12" lengthAdjust="spacingAndGlyphs" textLength="53" x="112.5" y="187.1543">ArrayList</text><line style="stroke: #A80036; stroke-width: 1.5;" x1="84.5" x2="167.5" y1="199" y2="199"/><line style="stroke: #A80036; stroke-width: 1.5;" x1="84.5" x2="167.5" y1="207" y2="207"/><rect fill="#FEFECE" filter="url(#f1)" height="48" style="stroke: #A80036; stroke-width: 1.5;" width="76" x="225" y="167"/><ellipse cx="240" cy="183" fill="#ADD1B2" rx="11" ry="11" style="stroke: #A80036; stroke-width: 1.0;"/><path d="M242.9688,188.6406 Q242.3906,188.9375 241.75,189.0859 Q241.1094,189.2344 240.4063,189.2344 Q237.9063,189.2344 236.5859,187.5859 Q235.2656,185.9375 235.2656,182.8125 Q235.2656,179.6875 236.5859,178.0313 Q237.9063,176.375 240.4063,176.375 Q241.1094,176.375 241.7578,176.5313 Q242.4063,176.6875 242.9688,176.9844 L242.9688,179.7031 Q242.3438,179.125 241.75,178.8516 Q241.1563,178.5781 240.5313,178.5781 Q239.1875,178.5781 238.5,179.6484 Q237.8125,180.7188 237.8125,182.8125 Q237.8125,184.9063 238.5,185.9766 Q239.1875,187.0469 240.5313,187.0469 Q241.1563,187.0469 241.75,186.7734 Q242.3438,186.5 242.9688,185.9219 L242.9688,188.6406 Z "/><text fill="#000000" font-family="sans-serif" font-size="12" lengthAdjust="spacingAndGlyphs" textLength="44" x="254" y="187.1543">Demo1</text><line style="stroke: #A80036; stroke-width: 1.5;" x1="226" x2="300" y1="199" y2="199"/><line style="stroke: #A80036; stroke-width: 1.5;" x1="226" x2="300" y1="207" y2="207"/><rect fill="#FEFECE" filter="url(#f1)" height="48" style="stroke: #A80036; stroke-width: 1.5;" width="76" x="336" y="167"/><ellipse cx="351" cy="183" fill="#ADD1B2" rx="11" ry="11" style="stroke: #A80036; stroke-width: 1.0;"/><path d="M353.9688,188.6406 Q353.3906,188.9375 352.75,189.0859 Q352.1094,189.2344 351.4063,189.2344 Q348.9063,189.2344 347.5859,187.5859 Q346.2656,185.9375 346.2656,182.8125 Q346.2656,179.6875 347.5859,178.0313 Q348.9063,176.375 351.4063,176.375 Q352.1094,176.375 352.7578,176.5313 Q353.4063,176.6875 353.9688,176.9844 L353.9688,179.7031 Q353.3438,179.125 352.75,178.8516 Q352.1563,178.5781 351.5313,178.5781 Q350.1875,178.5781 349.5,179.6484 Q348.8125,180.7188 348.8125,182.8125 Q348.8125,184.9063 349.5,185.9766 Q350.1875,187.0469 351.5313,187.0469 Q352.1563,187.0469 352.75,186.7734 Q353.3438,186.5 353.9688,185.9219 L353.9688,188.6406 Z "/><text fill="#000000" font-family="sans-serif" font-size="12" lengthAdjust="spacingAndGlyphs" textLength="44" x="365" y="187.1543">Demo2</text><line style="stroke: #A80036; stroke-width: 1.5;" x1="337" x2="411" y1="199" y2="199"/><line style="stroke: #A80036; stroke-width: 1.5;" x1="337" x2="411" y1="207" y2="207"/><path d="M127.782,127.024 C127.399,140.579 126.989,155.0381 126.66,166.6784 " fill="none" style="stroke: #A80036; stroke-width: 1.0;"/><polygon fill="none" points="120.786,126.794,128.349,107,134.78,127.19,120.786,126.794" style="stroke: #A80036; stroke-width: 1.0;"/><path d="M178.377,118.927 C180.627,120.626 182.845,122.323 185,124 C202.64,137.726 221.811,153.9288 236.733,166.8453 " fill="none" style="stroke: #A80036; stroke-width: 1.0;"/><polygon fill="none" points="174.168,124.52,162.2,107.034,182.46,113.241,174.168,124.52" style="stroke: #A80036; stroke-width: 1.0;"/><path d="M314.174,191 C321.406,191 328.639,191 335.871,191 " fill="none" style="stroke: #A80036; stroke-width: 1.0;"/><polygon fill="#A80036" points="301.156,191,307.156,195,313.156,191,307.156,187,301.156,191" style="stroke: #A80036; stroke-width: 1.0;"/></g></svg>