<?xml version="1.0" encoding="UTF-8" standalone="yes"?><svg xmlns="http://www.w3.org/2000/svg" xmlns:xlink="http://www.w3.org/1999/xlink" height="77px" style="width:307px;height:77px;" version="1.1" viewBox="0 0 307 77" width="307px"><defs><filter height="300%" id="f1" width="300%" x="-1" y="-1"><feGaussianBlur result="blurOut" stdDeviation="2.0"/><feColorMatrix in="blurOut" result="blurOut2" type="matrix" values="0 0 0 0 0 0 0 0 0 0 0 0 0 0 0 0 0 0 .4 0"/><feOffset dx="4.0" dy="4.0" in="blurOut2" result="blurOut3"/><feBlend in="SourceGraphic" in2="blurOut3" mode="normal"/></filter></defs><g><rect fill="#FEFECE" filter="url(#f1)" height="60.8047" style="stroke: #A80036; stroke-width: 1.5;" width="174" x="6" y="8"/><ellipse cx="21" cy="24" fill="#ADD1B2" rx="11" ry="11" style="stroke: #A80036; stroke-width: 1.0;"/><path d="M23.9688,29.6406 Q23.3906,29.9375 22.75,30.0859 Q22.1094,30.2344 21.4063,30.2344 Q18.9063,30.2344 17.5859,28.5859 Q16.2656,26.9375 16.2656,23.8125 Q16.2656,20.6875 17.5859,19.0313 Q18.9063,17.375 21.4063,17.375 Q22.1094,17.375 22.7578,17.5313 Q23.4063,17.6875 23.9688,17.9844 L23.9688,20.7031 Q23.3438,20.125 22.75,19.8516 Q22.1563,19.5781 21.5313,19.5781 Q20.1875,19.5781 19.5,20.6484 Q18.8125,21.7188 18.8125,23.8125 Q18.8125,25.9063 19.5,26.9766 Q20.1875,28.0469 21.5313,28.0469 Q22.1563,28.0469 22.75,27.7734 Q23.3438,27.5 23.9688,26.9219 L23.9688,29.6406 Z "/><text fill="#000000" font-family="sans-serif" font-size="12" lengthAdjust="spacingAndGlyphs" textLength="23" x="35" y="28.1543">Foo</text><rect fill="#FFFFFF" height="15.9688" style="stroke: #000000; stroke-width: 1.0; stroke-dasharray: 2.0,2.0;" width="117" x="66" y="5"/><text fill="#000000" font-family="sans-serif" font-size="12" font-style="italic" lengthAdjust="spacingAndGlyphs" textLength="115" x="67" y="17.1387">? extends Element</text><line style="stroke: #A80036; stroke-width: 1.5;" x1="7" x2="179" y1="40" y2="40"/><line style="stroke: #A80036; stroke-width: 1.5;" x1="7" x2="179" y1="48" y2="48"/><text fill="#000000" font-family="sans-serif" font-size="11" lengthAdjust="spacingAndGlyphs" textLength="48" x="12" y="62.2104">int size()</text><rect fill="#FEFECE" filter="url(#f1)" height="48" style="stroke: #A80036; stroke-width: 1.5;" width="83" x="215.5" y="14.5"/><ellipse cx="230.5" cy="30.5" fill="#ADD1B2" rx="11" ry="11" style="stroke: #A80036; stroke-width: 1.0;"/><path d="M233.4688,36.1406 Q232.8906,36.4375 232.25,36.5859 Q231.6094,36.7344 230.9063,36.7344 Q228.4063,36.7344 227.0859,35.0859 Q225.7656,33.4375 225.7656,30.3125 Q225.7656,27.1875 227.0859,25.5313 Q228.4063,23.875 230.9063,23.875 Q231.6094,23.875 232.2578,24.0313 Q232.9063,24.1875 233.4688,24.4844 L233.4688,27.2031 Q232.8438,26.625 232.25,26.3516 Q231.6563,26.0781 231.0313,26.0781 Q229.6875,26.0781 229,27.1484 Q228.3125,28.2188 228.3125,30.3125 Q228.3125,32.4063 229,33.4766 Q229.6875,34.5469 231.0313,34.5469 Q231.6563,34.5469 232.25,34.2734 Q232.8438,34 233.4688,33.4219 L233.4688,36.1406 Z "/><text fill="#000000" font-family="sans-serif" font-size="12" lengthAdjust="spacingAndGlyphs" textLength="51" x="244.5" y="34.6543">Element</text><line style="stroke: #A80036; stroke-width: 1.5;" x1="216.5" x2="297.5" y1="46.5" y2="46.5"/><line style="stroke: #A80036; stroke-width: 1.5;" x1="216.5" x2="297.5" y1="54.5" y2="54.5"/><path d="M193.3,38.5 C200.62,38.5 207.94,38.5 215.259,38.5 " fill="none" style="stroke: #A80036; stroke-width: 1.0;"/><polygon fill="#A80036" points="180.125,38.5,186.125,42.5,192.125,38.5,186.125,34.5,180.125,38.5" style="stroke: #A80036; stroke-width: 1.0;"/></g></svg>