<?xml version="1.0" encoding="UTF-8" standalone="yes"?><svg xmlns="http://www.w3.org/2000/svg" xmlns:xlink="http://www.w3.org/1999/xlink" height="173px" style="width:202px;height:173px;" version="1.1" viewBox="0 0 202 173" width="202px"><defs><filter height="300%" id="f1" width="300%" x="-1" y="-1"><feGaussianBlur result="blurOut" stdDeviation="2.0"/><feColorMatrix in="blurOut" result="blurOut2" type="matrix" values="0 0 0 0 0 0 0 0 0 0 0 0 0 0 0 0 0 0 .4 0"/><feOffset dx="4.0" dy="4.0" in="blurOut2" result="blurOut3"/><feBlend in="SourceGraphic" in2="blurOut3" mode="normal"/></filter></defs><g><rect fill="#FEFECE" filter="url(#f1)" height="48" style="stroke: #A80036; stroke-width: 1.5;" width="85" x="6" y="116"/><ellipse cx="21" cy="132" fill="#ADD1B2" rx="11" ry="11" style="stroke: #A80036; stroke-width: 1.0;"/><path d="M23.9688,137.6406 Q23.3906,137.9375 22.75,138.0859 Q22.1094,138.2344 21.4063,138.2344 Q18.9063,138.2344 17.5859,136.5859 Q16.2656,134.9375 16.2656,131.8125 Q16.2656,128.6875 17.5859,127.0313 Q18.9063,125.375 21.4063,125.375 Q22.1094,125.375 22.7578,125.5313 Q23.4063,125.6875 23.9688,125.9844 L23.9688,128.7031 Q23.3438,128.125 22.75,127.8516 Q22.1563,127.5781 21.5313,127.5781 Q20.1875,127.5781 19.5,128.6484 Q18.8125,129.7188 18.8125,131.8125 Q18.8125,133.9063 19.5,134.9766 Q20.1875,136.0469 21.5313,136.0469 Q22.1563,136.0469 22.75,135.7734 Q23.3438,135.5 23.9688,134.9219 L23.9688,137.6406 Z "/><text fill="#000000" font-family="sans-serif" font-size="12" lengthAdjust="spacingAndGlyphs" textLength="53" x="35" y="136.1543">Studient</text><line style="stroke: #A80036; stroke-width: 1.5;" x1="7" x2="90" y1="148" y2="148"/><line style="stroke: #A80036; stroke-width: 1.5;" x1="7" x2="90" y1="156" y2="156"/><rect fill="#FEFECE" filter="url(#f1)" height="48" style="stroke: #A80036; stroke-width: 1.5;" width="67" x="126" y="116"/><ellipse cx="141" cy="132" fill="#ADD1B2" rx="11" ry="11" style="stroke: #A80036; stroke-width: 1.0;"/><path d="M143.9688,137.6406 Q143.3906,137.9375 142.75,138.0859 Q142.1094,138.2344 141.4063,138.2344 Q138.9063,138.2344 137.5859,136.5859 Q136.2656,134.9375 136.2656,131.8125 Q136.2656,128.6875 137.5859,127.0313 Q138.9063,125.375 141.4063,125.375 Q142.1094,125.375 142.7578,125.5313 Q143.4063,125.6875 143.9688,125.9844 L143.9688,128.7031 Q143.3438,128.125 142.75,127.8516 Q142.1563,127.5781 141.5313,127.5781 Q140.1875,127.5781 139.5,128.6484 Q138.8125,129.7188 138.8125,131.8125 Q138.8125,133.9063 139.5,134.9766 Q140.1875,136.0469 141.5313,136.0469 Q142.1563,136.0469 142.75,135.7734 Q143.3438,135.5 143.9688,134.9219 L143.9688,137.6406 Z "/><text fill="#000000" font-family="sans-serif" font-size="12" lengthAdjust="spacingAndGlyphs" textLength="35" x="155" y="136.1543">Room</text><line style="stroke: #A80036; stroke-width: 1.5;" x1="127" x2="192" y1="148" y2="148"/><line style="stroke: #A80036; stroke-width: 1.5;" x1="127" x2="192" y1="156" y2="156"/><rect fill="#FEFECE" filter="url(#f1)" height="48" style="stroke: #A80036; stroke-width: 1.5;" width="64" x="127.5" y="8"/><ellipse cx="142.5" cy="24" fill="#ADD1B2" rx="11" ry="11" style="stroke: #A80036; stroke-width: 1.0;"/><path d="M145.4688,29.6406 Q144.8906,29.9375 144.25,30.0859 Q143.6094,30.2344 142.9063,30.2344 Q140.4063,30.2344 139.0859,28.5859 Q137.7656,26.9375 137.7656,23.8125 Q137.7656,20.6875 139.0859,19.0313 Q140.4063,17.375 142.9063,17.375 Q143.6094,17.375 144.2578,17.5313 Q144.9063,17.6875 145.4688,17.9844 L145.4688,20.7031 Q144.8438,20.125 144.25,19.8516 Q143.6563,19.5781 143.0313,19.5781 Q141.6875,19.5781 141,20.6484 Q140.3125,21.7188 140.3125,23.8125 Q140.3125,25.9063 141,26.9766 Q141.6875,28.0469 143.0313,28.0469 Q143.6563,28.0469 144.25,27.7734 Q144.8438,27.5 145.4688,26.9219 L145.4688,29.6406 Z "/><text fill="#000000" font-family="sans-serif" font-size="12" lengthAdjust="spacingAndGlyphs" textLength="32" x="156.5" y="28.1543">Chair</text><line style="stroke: #A80036; stroke-width: 1.5;" x1="128.5" x2="190.5" y1="40" y2="40"/><line style="stroke: #A80036; stroke-width: 1.5;" x1="128.5" x2="190.5" y1="48" y2="48"/><path d="M91.4258,140 C98.5376,140 105.6495,140 112.761,140 " fill="none" style="stroke: #A80036; stroke-width: 1.0;"/><polygon fill="none" points="125.995,140,119.995,136,113.995,140,119.995,144,125.995,140" style="stroke: #A80036; stroke-width: 1.0;"/><path d="M159.5,56 C159.5,69.5198 159.5,86.9223 159.5,102.2977 " fill="none" style="stroke: #A80036; stroke-width: 1.0;"/><polygon fill="#A80036" points="159.5,115.6784,163.5,109.6784,159.5,103.6784,155.5,109.6784,159.5,115.6784" style="stroke: #A80036; stroke-width: 1.0;"/></g></svg>