<?xml version="1.0" encoding="UTF-8" standalone="yes"?><svg xmlns="http://www.w3.org/2000/svg" xmlns:xlink="http://www.w3.org/1999/xlink" height="214px" style="width:152px;height:214px;" version="1.1" viewBox="0 0 152 214" width="152px"><defs><filter height="300%" id="f1" width="300%" x="-1" y="-1"><feGaussianBlur result="blurOut" stdDeviation="2.0"/><feColorMatrix in="blurOut" result="blurOut2" type="matrix" values="0 0 0 0 0 0 0 0 0 0 0 0 0 0 0 0 0 0 .4 0"/><feOffset dx="4.0" dy="4.0" in="blurOut2" result="blurOut3"/><feBlend in="SourceGraphic" in2="blurOut3" mode="normal"/></filter></defs><g><text fill="#000000" font-family="sans-serif" font-size="18" lengthAdjust="spacingAndGlyphs" textLength="60" x="0" y="16.708">Simple</text><text fill="#000000" font-family="sans-serif" font-size="18" font-weight="bold" lengthAdjust="spacingAndGlyphs" textLength="85" x="66" y="16.708">example</text><text fill="#000000" font-family="sans-serif" font-size="18" lengthAdjust="spacingAndGlyphs" textLength="58" x="46.5" y="37.6611">of title</text><rect fill="#FEFECE" filter="url(#f1)" height="48" style="stroke: #A80036; stroke-width: 1.5;" width="72" x="33.5" y="49.9063"/><ellipse cx="48.5" cy="65.9063" fill="#ADD1B2" rx="11" ry="11" style="stroke: #A80036; stroke-width: 1.0;"/><path d="M51.4688,71.5469 Q50.8906,71.8438 50.25,71.9922 Q49.6094,72.1406 48.9063,72.1406 Q46.4063,72.1406 45.0859,70.4922 Q43.7656,68.8438 43.7656,65.7188 Q43.7656,62.5938 45.0859,60.9375 Q46.4063,59.2813 48.9063,59.2813 Q49.6094,59.2813 50.2578,59.4375 Q50.9063,59.5938 51.4688,59.8906 L51.4688,62.6094 Q50.8438,62.0313 50.25,61.7578 Q49.6563,61.4844 49.0313,61.4844 Q47.6875,61.4844 47,62.5547 Q46.3125,63.625 46.3125,65.7188 Q46.3125,67.8125 47,68.8828 Q47.6875,69.9531 49.0313,69.9531 Q49.6563,69.9531 50.25,69.6797 Q50.8438,69.4063 51.4688,68.8281 L51.4688,71.5469 Z "/><text fill="#000000" font-family="sans-serif" font-size="12" lengthAdjust="spacingAndGlyphs" textLength="40" x="62.5" y="70.0605">Object</text><line style="stroke: #A80036; stroke-width: 1.5;" x1="34.5" x2="104.5" y1="81.9063" y2="81.9063"/><line style="stroke: #A80036; stroke-width: 1.5;" x1="34.5" x2="104.5" y1="89.9063" y2="89.9063"/><rect fill="#FEFECE" filter="url(#f1)" height="48" style="stroke: #A80036; stroke-width: 1.5;" width="85" x="27" y="157.9063"/><ellipse cx="42" cy="173.9063" fill="#ADD1B2" rx="11" ry="11" style="stroke: #A80036; stroke-width: 1.0;"/><path d="M44.9688,179.5469 Q44.3906,179.8438 43.75,179.9922 Q43.1094,180.1406 42.4063,180.1406 Q39.9063,180.1406 38.5859,178.4922 Q37.2656,176.8438 37.2656,173.7188 Q37.2656,170.5938 38.5859,168.9375 Q39.9063,167.2813 42.4063,167.2813 Q43.1094,167.2813 43.7578,167.4375 Q44.4063,167.5938 44.9688,167.8906 L44.9688,170.6094 Q44.3438,170.0313 43.75,169.7578 Q43.1563,169.4844 42.5313,169.4844 Q41.1875,169.4844 40.5,170.5547 Q39.8125,171.625 39.8125,173.7188 Q39.8125,175.8125 40.5,176.8828 Q41.1875,177.9531 42.5313,177.9531 Q43.1563,177.9531 43.75,177.6797 Q44.3438,177.4063 44.9688,176.8281 L44.9688,179.5469 Z "/><text fill="#000000" font-family="sans-serif" font-size="12" lengthAdjust="spacingAndGlyphs" textLength="53" x="56" y="178.0605">ArrayList</text><line style="stroke: #A80036; stroke-width: 1.5;" x1="28" x2="111" y1="189.9063" y2="189.9063"/><line style="stroke: #A80036; stroke-width: 1.5;" x1="28" x2="111" y1="197.9063" y2="197.9063"/><path d="M69.5,117.9299 C69.5,131.4855 69.5,145.9444 69.5,157.5847 " fill="none" style="stroke: #A80036; stroke-width: 1.0;"/><polygon fill="none" points="62.5001,117.9068,69.5,97.9063,76.5001,117.9067,62.5001,117.9068" style="stroke: #A80036; stroke-width: 1.0;"/></g></svg>