<?xml version="1.0" encoding="UTF-8" standalone="yes"?><svg xmlns="http://www.w3.org/2000/svg" xmlns:xlink="http://www.w3.org/1999/xlink" height="70px" style="width:213px;height:70px;" version="1.1" viewBox="0 0 213 70" width="213px"><defs><filter height="300%" id="f1" width="300%" x="-1" y="-1"><feGaussianBlur result="blurOut" stdDeviation="2.0"/><feColorMatrix in="blurOut" result="blurOut2" type="matrix" values="0 0 0 0 0 0 0 0 0 0 0 0 0 0 0 0 0 0 .4 0"/><feOffset dx="4.0" dy="4.0" in="blurOut2" result="blurOut3"/><feBlend in="SourceGraphic" in2="blurOut3" mode="normal"/></filter></defs><g><rect fill="#FEFECE" filter="url(#f1)" height="53.9375" style="stroke: #A80036; stroke-width: 1.5;" width="101" x="6" y="8"/><ellipse cx="21" cy="26.9688" fill="#FF7700" rx="11" ry="11" style="stroke: #A80036; stroke-width: 1.0;"/><path d="M20.4844,27.5313 Q18.625,26.8281 17.9766,26.0547 Q17.3281,25.2813 17.3281,23.9688 Q17.3281,22.2813 18.4063,21.3125 Q19.4844,20.3438 21.3594,20.3438 Q22.2188,20.3438 23.0703,20.5391 Q23.9219,20.7344 24.7656,21.125 L24.7656,23.5156 Q23.9844,22.9531 23.1641,22.6641 Q22.3438,22.375 21.5469,22.375 Q20.6719,22.375 20.1953,22.7344 Q19.7188,23.0938 19.7188,23.75 Q19.7188,24.2656 20.0625,24.6016 Q20.4063,24.9375 21.5,25.3438 L22.5625,25.75 Q24.0469,26.2969 24.7578,27.2031 Q25.4688,28.1094 25.4688,29.4844 Q25.4688,31.3594 24.3594,32.2813 Q23.25,33.2031 21,33.2031 Q20.0781,33.2031 19.1563,32.9844 Q18.2344,32.7656 17.375,32.3438 L17.375,29.8125 Q18.3438,30.5 19.2656,30.8438 Q20.1875,31.1875 21.0781,31.1875 Q21.9844,31.1875 22.4844,30.7734 Q22.9844,30.3594 22.9844,29.625 Q22.9844,29.0625 22.6484,28.6484 Q22.3125,28.2344 21.6875,27.9844 L20.4844,27.5313 Z "/><text fill="#000000" font-family="sans-serif" font-size="12" font-style="italic" lengthAdjust="spacingAndGlyphs" textLength="73" x="33" y="24.1387">«Singleton»</text><text fill="#000000" font-family="sans-serif" font-size="12" lengthAdjust="spacingAndGlyphs" textLength="45" x="47" y="38.1074">System</text><line style="stroke: #A80036; stroke-width: 1.5;" x1="7" x2="106" y1="45.9375" y2="45.9375"/><line style="stroke: #A80036; stroke-width: 1.5;" x1="7" x2="106" y1="53.9375" y2="53.9375"/><rect fill="#FEFECE" filter="url(#f1)" height="48" style="stroke: #A80036; stroke-width: 1.5;" width="62" x="142.5" y="11"/><ellipse cx="157.5" cy="27" fill="#DA70D6" rx="11" ry="11" style="stroke: #A80036; stroke-width: 1.0;"/><path d="M157.0938,22.8125 L157.0938,30.7969 L157.75,30.7969 Q159.1875,30.7969 159.8047,29.8828 Q160.4219,28.9688 160.4219,26.7969 Q160.4219,24.625 159.8047,23.7188 Q159.1875,22.8125 157.75,22.8125 L157.0938,22.8125 Z M154.6406,20.6094 L157.2656,20.6094 Q160.2969,20.6094 161.6328,22.0547 Q162.9688,23.5 162.9688,26.7969 Q162.9688,30.0938 161.6328,31.5469 Q160.2969,33 157.2656,33 L154.6406,33 L154.6406,20.6094 Z "/><text fill="#000000" font-family="sans-serif" font-size="12" lengthAdjust="spacingAndGlyphs" textLength="30" x="171.5" y="31.1543">Date</text><line style="stroke: #A80036; stroke-width: 1.5;" x1="143.5" x2="203.5" y1="43" y2="43"/><line style="stroke: #A80036; stroke-width: 1.5;" x1="143.5" x2="203.5" y1="51" y2="51"/></g></svg>