<?xml version="1.0" encoding="UTF-8" standalone="yes"?><svg xmlns="http://www.w3.org/2000/svg" xmlns:xlink="http://www.w3.org/1999/xlink" height="163px" style="width:515px;height:163px;" version="1.1" viewBox="0 0 515 163" width="515px"><defs><filter height="300%" id="f1" width="300%" x="-1" y="-1"><feGaussianBlur result="blurOut" stdDeviation="2.0"/><feColorMatrix in="blurOut" result="blurOut2" type="matrix" values="0 0 0 0 0 0 0 0 0 0 0 0 0 0 0 0 0 0 .4 0"/><feOffset dx="4.0" dy="4.0" in="blurOut2" result="blurOut3"/><feBlend in="SourceGraphic" in2="blurOut3" mode="normal"/></filter></defs><g><ellipse cx="49" cy="20" fill="#FEFECE" filter="url(#f1)" rx="8" ry="8" style="stroke: #A80036; stroke-width: 2.0;"/><text fill="#000000" font-family="sans-serif" font-size="14" lengthAdjust="spacingAndGlyphs" textLength="86" x="6" y="41.9951">Data Access</text><rect fill="#FEFECE" filter="url(#f1)" height="36.2969" style="stroke: #A80036; stroke-width: 1.5;" width="135" x="161.5" y="10"/><rect fill="#FEFECE" height="5" style="stroke: #A80036; stroke-width: 1.5;" width="10" x="156.5" y="15"/><rect fill="#FEFECE" height="5" style="stroke: #A80036; stroke-width: 1.5;" width="10" x="156.5" y="36.2969"/><text fill="#000000" font-family="sans-serif" font-size="14" lengthAdjust="spacingAndGlyphs" textLength="115" x="171.5" y="32.9951">First Component</text><ellipse cx="229" cy="134" fill="#FEFECE" filter="url(#f1)" rx="8" ry="8" style="stroke: #A80036; stroke-width: 2.0;"/><text fill="#000000" font-family="sans-serif" font-size="14" lengthAdjust="spacingAndGlyphs" textLength="37" x="210.5" y="155.9951">HTTP</text><polygon fill="#FBFB77" filter="url(#f1)" points="11.5,129.5,11.5,154.6328,140.5,154.6328,140.5,139.5,130.5,129.5,11.5,129.5" style="stroke: #A80036; stroke-width: 1.0;"/><polygon fill="#FBFB77" points="11.5,129.5,11.5,154.6328,140.5,154.6328,140.5,147.5,210.342,142,140.5,139.5,140.5,139.5,130.5,129.5,11.5,129.5" style="stroke: #A80036; stroke-width: 1.0;"/><line style="stroke: #A80036; stroke-width: 1.0;" x1="130.5" x2="130.5" y1="129.5" y2="139.5"/><line style="stroke: #A80036; stroke-width: 1.0;" x1="140.5" x2="130.5" y1="139.5" y2="139.5"/><text fill="#000000" font-family="sans-serif" font-size="13" lengthAdjust="spacingAndGlyphs" textLength="108" x="17.5" y="146.5669">Web Service only</text><polygon fill="#FBFB77" filter="url(#f1)" points="366,8,366,48.2656,506,48.2656,506,18,496,8,366,8" style="stroke: #A80036; stroke-width: 1.0;"/><polygon fill="#FBFB77" points="366,8,366,24,296.518,28,366,32,366,48.2656,506,48.2656,506,18,496,8,366,8" style="stroke: #A80036; stroke-width: 1.0;"/><line style="stroke: #A80036; stroke-width: 1.0;" x1="496" x2="496" y1="8" y2="18"/><line style="stroke: #A80036; stroke-width: 1.0;" x1="506" x2="496" y1="18" y2="18"/><text fill="#000000" font-family="sans-serif" font-size="13" lengthAdjust="spacingAndGlyphs" textLength="99" x="372" y="25.0669">A note can also</text><text fill="#000000" font-family="sans-serif" font-size="13" lengthAdjust="spacingAndGlyphs" textLength="119" x="372" y="40.1997">be on several lines</text><path d="M92.2422,28 C115.302,28 138.362,28 161.422,28 " fill="none" style="stroke: #A80036; stroke-width: 1.0;"/><path d="M229,46.01 C229,65.7552 229,98.338 229,119.7367 " fill="none" style="stroke: #A80036; stroke-width: 1.0; stroke-dasharray: 7.0,7.0;"/><polygon fill="#A80036" points="229,124.9215,233,115.9215,229,119.9215,225,115.9215,229,124.9215" style="stroke: #A80036; stroke-width: 1.0;"/><text fill="#000000" font-family="sans-serif" font-size="13" lengthAdjust="spacingAndGlyphs" textLength="23" x="230" y="91.0669">use</text></g></svg>