<?xml version="1.0" encoding="UTF-8" standalone="yes"?><svg xmlns="http://www.w3.org/2000/svg" xmlns:xlink="http://www.w3.org/1999/xlink" height="229px" style="width:231px;height:229px;" version="1.1" viewBox="0 0 231 229" width="231px"><defs><filter height="300%" id="f1" width="300%" x="-1" y="-1"><feGaussianBlur result="blurOut" stdDeviation="2.0"/><feColorMatrix in="blurOut" result="blurOut2" type="matrix" values="0 0 0 0 0 0 0 0 0 0 0 0 0 0 0 0 0 0 .4 0"/><feOffset dx="4.0" dy="4.0" in="blurOut2" result="blurOut3"/><feBlend in="SourceGraphic" in2="blurOut3" mode="normal"/></filter></defs><g><rect fill="#FEFECE" filter="url(#f1)" height="36.2969" style="stroke: #A80036; stroke-width: 1.5;" width="102" x="62.5" y="102"/><rect fill="#FEFECE" height="5" style="stroke: #A80036; stroke-width: 1.5;" width="10" x="57.5" y="107"/><rect fill="#FEFECE" height="5" style="stroke: #A80036; stroke-width: 1.5;" width="10" x="57.5" y="128.2969"/><text fill="#000000" font-family="sans-serif" font-size="14" lengthAdjust="spacingAndGlyphs" textLength="82" x="72.5" y="124.9951">Component</text><ellipse cx="16.5" cy="112" fill="#FEFECE" filter="url(#f1)" rx="8" ry="8" style="stroke: #A80036; stroke-width: 2.0;"/><text fill="#000000" font-family="sans-serif" font-size="14" lengthAdjust="spacingAndGlyphs" textLength="21" x="6" y="133.9951">left</text><ellipse cx="214.5" cy="112" fill="#FEFECE" filter="url(#f1)" rx="8" ry="8" style="stroke: #A80036; stroke-width: 2.0;"/><text fill="#000000" font-family="sans-serif" font-size="14" lengthAdjust="spacingAndGlyphs" textLength="31" x="199" y="133.9951">right</text><ellipse cx="113.5" cy="17" fill="#FEFECE" filter="url(#f1)" rx="8" ry="8" style="stroke: #A80036; stroke-width: 2.0;"/><text fill="#000000" font-family="sans-serif" font-size="14" lengthAdjust="spacingAndGlyphs" textLength="18" x="104.5" y="38.9951">up</text><ellipse cx="113.5" cy="207" fill="#FEFECE" filter="url(#f1)" rx="8" ry="8" style="stroke: #A80036; stroke-width: 2.0;"/><text fill="#000000" font-family="sans-serif" font-size="14" lengthAdjust="spacingAndGlyphs" textLength="38" x="94.5" y="228.9951">down</text><path d="M32.319,120 C42.2812,120 52.2434,120 62.2056,120 " fill="none" style="stroke: #A80036; stroke-width: 1.0;"/><polygon fill="#A80036" points="27.1094,120,36.1094,124,32.1094,120,36.1094,116,27.1094,120" style="stroke: #A80036; stroke-width: 1.0;"/><path d="M164.789,120 C174.49,120 184.191,120 193.892,120 " fill="none" style="stroke: #A80036; stroke-width: 1.0;"/><polygon fill="#A80036" points="198.965,120,189.965,116,193.965,120,189.965,124,198.965,120" style="stroke: #A80036; stroke-width: 1.0;"/><path d="M113.5,47.539 C113.5,64.01 113.5,86.42 113.5,101.725 " fill="none" style="stroke: #A80036; stroke-width: 1.0;"/><polygon fill="#A80036" points="113.5,42.199,109.5,51.199,113.5,47.199,117.5,51.199,113.5,42.199" style="stroke: #A80036; stroke-width: 1.0;"/><path d="M113.5,138.0576 C113.5,153.4163 113.5,176.0547 113.5,192.618 " fill="none" style="stroke: #A80036; stroke-width: 1.0;"/><polygon fill="#A80036" points="113.5,197.983,117.5,188.983,113.5,192.983,109.5,188.983,113.5,197.983" style="stroke: #A80036; stroke-width: 1.0;"/></g></svg>