<?xml version="1.0" encoding="UTF-8" standalone="yes"?><svg xmlns="http://www.w3.org/2000/svg" xmlns:xlink="http://www.w3.org/1999/xlink" height="155px" style="width:1069px;height:155px;" version="1.1" viewBox="0 0 1069 155" width="1069px"><defs><filter height="300%" id="fiud4mf" width="300%" x="-1" y="-1"><feGaussianBlur result="blurOut" stdDeviation="2.0"/><feColorMatrix in="blurOut" result="blurOut2" type="matrix" values="0 0 0 0 0 0 0 0 0 0 0 0 0 0 0 0 0 0 .4 0"/><feOffset dx="4.0" dy="4.0" in="blurOut2" result="blurOut3"/><feBlend in="SourceGraphic" in2="blurOut3" mode="normal"/></filter></defs><g><!--entity artifact1--><rect fill="#FEFECE" filter="url(#fiud4mf)" height="39.2969" style="stroke: #000000; stroke-width: 1.5;" width="85" x="486" y="8"/><polygon fill="#FEFECE" points="554,13,554,27,566,27,566,19,560,13,554,13" style="stroke: #000000; stroke-width: 1.5;"/><line style="stroke: #000000; stroke-width: 1.5;" x1="560" x2="560" y1="13" y2="19"/><line style="stroke: #000000; stroke-width: 1.5;" x1="566" x2="560" y1="19" y2="19"/><text fill="#000000" font-family="sans-serif" font-size="14" lengthAdjust="spacingAndGlyphs" textLength="55" x="496" y="33.9951">artifact1</text><!--entity artifact2--><rect fill="#FEFECE" filter="url(#fiud4mf)" height="39.2969" style="stroke: #000000; stroke-width: 1.5;" width="85" x="6" y="107"/><polygon fill="#FEFECE" points="74,112,74,126,86,126,86,118,80,112,74,112" style="stroke: #000000; stroke-width: 1.5;"/><line style="stroke: #000000; stroke-width: 1.5;" x1="80" x2="80" y1="112" y2="118"/><line style="stroke: #000000; stroke-width: 1.5;" x1="86" x2="80" y1="118" y2="118"/><text fill="#000000" font-family="sans-serif" font-size="14" lengthAdjust="spacingAndGlyphs" textLength="55" x="16" y="132.9951">artifact2</text><!--entity artifact3--><rect fill="#FEFECE" filter="url(#fiud4mf)" height="39.2969" style="stroke: #000000; stroke-width: 1.5;" width="85" x="126" y="107"/><polygon fill="#FEFECE" points="194,112,194,126,206,126,206,118,200,112,194,112" style="stroke: #000000; stroke-width: 1.5;"/><line style="stroke: #000000; stroke-width: 1.5;" x1="200" x2="200" y1="112" y2="118"/><line style="stroke: #000000; stroke-width: 1.5;" x1="206" x2="200" y1="118" y2="118"/><text fill="#000000" font-family="sans-serif" font-size="14" lengthAdjust="spacingAndGlyphs" textLength="55" x="136" y="132.9951">artifact3</text><!--entity artifact4--><rect fill="#FEFECE" filter="url(#fiud4mf)" height="39.2969" style="stroke: #000000; stroke-width: 1.5;" width="85" x="246" y="107"/><polygon fill="#FEFECE" points="314,112,314,126,326,126,326,118,320,112,314,112" style="stroke: #000000; stroke-width: 1.5;"/><line style="stroke: #000000; stroke-width: 1.5;" x1="320" x2="320" y1="112" y2="118"/><line style="stroke: #000000; stroke-width: 1.5;" x1="326" x2="320" y1="118" y2="118"/><text fill="#000000" font-family="sans-serif" font-size="14" lengthAdjust="spacingAndGlyphs" textLength="55" x="256" y="132.9951">artifact4</text><!--entity artifact5--><rect fill="#FEFECE" filter="url(#fiud4mf)" height="39.2969" style="stroke: #000000; stroke-width: 1.5;" width="85" x="366" y="107"/><polygon fill="#FEFECE" points="434,112,434,126,446,126,446,118,440,112,434,112" style="stroke: #000000; stroke-width: 1.5;"/><line style="stroke: #000000; stroke-width: 1.5;" x1="440" x2="440" y1="112" y2="118"/><line style="stroke: #000000; stroke-width: 1.5;" x1="446" x2="440" y1="118" y2="118"/><text fill="#000000" font-family="sans-serif" font-size="14" lengthAdjust="spacingAndGlyphs" textLength="55" x="376" y="132.9951">artifact5</text><!--entity artifact6--><rect fill="#FEFECE" filter="url(#fiud4mf)" height="39.2969" style="stroke: #000000; stroke-width: 1.5;" width="85" x="486" y="107"/><polygon fill="#FEFECE" points="554,112,554,126,566,126,566,118,560,112,554,112" style="stroke: #000000; stroke-width: 1.5;"/><line style="stroke: #000000; stroke-width: 1.5;" x1="560" x2="560" y1="112" y2="118"/><line style="stroke: #000000; stroke-width: 1.5;" x1="566" x2="560" y1="118" y2="118"/><text fill="#000000" font-family="sans-serif" font-size="14" lengthAdjust="spacingAndGlyphs" textLength="55" x="496" y="132.9951">artifact6</text><!--entity artifact7--><rect fill="#FEFECE" filter="url(#fiud4mf)" height="39.2969" style="stroke: #000000; stroke-width: 1.5;" width="85" x="606" y="107"/><polygon fill="#FEFECE" points="674,112,674,126,686,126,686,118,680,112,674,112" style="stroke: #000000; stroke-width: 1.5;"/><line style="stroke: #000000; stroke-width: 1.5;" x1="680" x2="680" y1="112" y2="118"/><line style="stroke: #000000; stroke-width: 1.5;" x1="686" x2="680" y1="118" y2="118"/><text fill="#000000" font-family="sans-serif" font-size="14" lengthAdjust="spacingAndGlyphs" textLength="55" x="616" y="132.9951">artifact7</text><!--entity artifact8--><rect fill="#FEFECE" filter="url(#fiud4mf)" height="39.2969" style="stroke: #000000; stroke-width: 1.5;" width="85" x="726" y="107"/><polygon fill="#FEFECE" points="794,112,794,126,806,126,806,118,800,112,794,112" style="stroke: #000000; stroke-width: 1.5;"/><line style="stroke: #000000; stroke-width: 1.5;" x1="800" x2="800" y1="112" y2="118"/><line style="stroke: #000000; stroke-width: 1.5;" x1="806" x2="800" y1="118" y2="118"/><text fill="#000000" font-family="sans-serif" font-size="14" lengthAdjust="spacingAndGlyphs" textLength="55" x="736" y="132.9951">artifact8</text><!--entity artifact9--><rect fill="#FEFECE" filter="url(#fiud4mf)" height="39.2969" style="stroke: #000000; stroke-width: 1.5;" width="85" x="846" y="107"/><polygon fill="#FEFECE" points="914,112,914,126,926,126,926,118,920,112,914,112" style="stroke: #000000; stroke-width: 1.5;"/><line style="stroke: #000000; stroke-width: 1.5;" x1="920" x2="920" y1="112" y2="118"/><line style="stroke: #000000; stroke-width: 1.5;" x1="926" x2="920" y1="118" y2="118"/><text fill="#000000" font-family="sans-serif" font-size="14" lengthAdjust="spacingAndGlyphs" textLength="55" x="856" y="132.9951">artifact9</text><!--entity artifact10--><rect fill="#FEFECE" filter="url(#fiud4mf)" height="39.2969" style="stroke: #000000; stroke-width: 1.5;" width="94" x="966.5" y="107"/><polygon fill="#FEFECE" points="1043.5,112,1043.5,126,1055.5,126,1055.5,118,1049.5,112,1043.5,112" style="stroke: #000000; stroke-width: 1.5;"/><line style="stroke: #000000; stroke-width: 1.5;" x1="1049.5" x2="1049.5" y1="112" y2="118"/><line style="stroke: #000000; stroke-width: 1.5;" x1="1055.5" x2="1049.5" y1="118" y2="118"/><text fill="#000000" font-family="sans-serif" font-size="14" lengthAdjust="spacingAndGlyphs" textLength="64" x="976.5" y="132.9951">artifact10</text><path d="M485.829,34.822 C409.541,46.4899 244.976,73.3229 108.5,107 C104.4685,107.9948 100.3082,109.1032 96.1468,110.2694 " fill="none" style="stroke: #A80036; stroke-width: 1.0;"/><polygon fill="#A80036" points="91.2688,111.6615,101.021,113.0379,96.0768,110.2893,98.8254,105.345,91.2688,111.6615" style="stroke: #A80036; stroke-width: 1.0;"/><path d="M485.618,39.102 C427.252,53.6725 319.628,81.0416 228.5,107 C226.908,107.4535 225.293,107.9184 223.665,108.3916 " fill="none" style="stroke: #A80036; stroke-width: 1.0;"/><polygon fill="#A80036" points="211.043,112.1343,217.9326,114.2635,222.5479,108.7229,215.6583,106.5936,211.043,112.1343" style="stroke: #A80036; stroke-width: 1.0;"/><path d="M485.869,45.73 C446.148,61.7841 386.709,85.8072 343.443,103.294 " fill="none" style="stroke: #A80036; stroke-width: 1.0;"/><polygon fill="#FFFFFF" points="331.137,108.2675,338.1987,109.7277,342.2626,103.7708,335.2009,102.3106,331.137,108.2675" style="stroke: #A80036; stroke-width: 1.0;"/><path d="M505.363,47.2026 C487.766,61.4269 463.262,81.2341 443.303,97.3673 " fill="none" style="stroke: #A80036; stroke-width: 1.0;"/><ellipse cx="437.7875" cy="101.8255" fill="#FFFFFF" rx="8" ry="8" style="stroke: #A80036; stroke-width: 1.0;"/><line style="stroke: #A80036; stroke-width: 1.0;" x1="444.0089" x2="431.566" y1="96.7963" y2="106.8548"/><line style="stroke: #A80036; stroke-width: 1.0;" x1="442.8167" x2="432.7582" y1="108.047" y2="95.6041"/><path d="M528.5,47.2026 C528.5,62.7688 528.5,85.021 528.5,101.8274 " fill="none" style="stroke: #A80036; stroke-width: 1.0;"/><rect fill="#FFFFFF" height="10" style="stroke: #A80036; stroke-width: 1.5;" width="10" x="523.5" y="101.8548"/><path d="M551.637,47.2026 C570.811,62.7017 598.186,84.8293 618.945,101.6097 " fill="none" style="stroke: #A80036; stroke-width: 1.0;"/><polygon fill="#A80036" points="625.434,106.8548,621.0979,99.4929,617.3263,104.1593,625.434,106.8548" style="stroke: #A80036; stroke-width: 1.0;"/><path d="M571.131,45.73 C613.239,62.7487 677.505,88.7228 721.174,106.3722 " fill="none" style="stroke: #A80036; stroke-width: 1.0;"/><ellipse cx="725.863" cy="108.2675" fill="#FFFFFF" rx="6" ry="6" style="stroke: #A80036; stroke-width: 1.5;"/><path d="M571.382,39.102 C626.271,52.8045 724.725,77.8263 826.572,106.6193 " fill="none" style="stroke: #A80036; stroke-width: 1.0;"/><polygon fill="none" points="828.636,99.9285,845.957,112.1343,824.805,113.3942,828.636,99.9285" style="stroke: #A80036; stroke-width: 1.0;"/><path d="M571.098,35.123 C647.272,47.2638 811.665,74.8125 948.5,107 C952.687,107.9848 957.007,109.0669 961.337,110.1982 " fill="none" style="stroke: #A80036; stroke-width: 1.0;"/><ellipse cx="966.417" cy="111.546" fill="#FFFFFF" rx="6" ry="6" style="stroke: #A80036; stroke-width: 1.5;"/><path d="M961.3968,102.8975 A10,10 0 0 0 957.7685 116.5662" fill="#FFFFFF" style="stroke: #A80036; stroke-width: 1.5;"/></g></svg>