<?xml version="1.0" encoding="UTF-8" standalone="yes"?><svg xmlns="http://www.w3.org/2000/svg" xmlns:xlink="http://www.w3.org/1999/xlink" height="317px" style="width:452px;height:317px;" version="1.1" viewBox="0 0 452 317" width="452px"><defs><filter height="300%" id="fwzf8gi" width="300%" x="-1" y="-1"><feGaussianBlur result="blurOut" stdDeviation="2.0"/><feColorMatrix in="blurOut" result="blurOut2" type="matrix" values="0 0 0 0 0 0 0 0 0 0 0 0 0 0 0 0 0 0 .4 0"/><feOffset dx="4.0" dy="4.0" in="blurOut2" result="blurOut3"/><feBlend in="SourceGraphic" in2="blurOut3" mode="normal"/></filter></defs><g><!--entity folder--><polygon fill="#FEFECE" filter="url(#fwzf8gi)" points="6,8,51,8,58,30.2969,204,30.2969,204,136.4844,6,136.4844,6,8" style="stroke: #000000; stroke-width: 1.5;"/><line style="stroke: #000000; stroke-width: 1.5;" x1="6" x2="58" y1="30.2969" y2="30.2969"/><text fill="#000000" font-family="sans-serif" font-size="14" lengthAdjust="spacingAndGlyphs" textLength="39" x="10" y="23.9951">folder</text><text fill="#000000" font-family="sans-serif" font-size="14" lengthAdjust="spacingAndGlyphs" textLength="65" x="42" y="50.292">This is an</text><text fill="#000000" font-family="sans-serif" font-size="14" font-weight="bold" lengthAdjust="spacingAndGlyphs" textLength="47" x="111" y="50.292">folder</text><line style="stroke: #000000; stroke-width: 1.0;" x1="7" x2="203" y1="53.5938" y2="53.5938"/><text fill="#000000" font-family="sans-serif" font-size="14" lengthAdjust="spacingAndGlyphs" textLength="156" x="22" y="70.5889">You can use separator</text><line style="stroke: #000000; stroke-width: 1.0;" x1="7" x2="203" y1="77.8906" y2="77.8906"/><line style="stroke: #000000; stroke-width: 1.0;" x1="7" x2="203" y1="79.8906" y2="79.8906"/><text fill="#000000" font-family="sans-serif" font-size="14" lengthAdjust="spacingAndGlyphs" textLength="107" x="46.5" y="94.8857">of different kind</text><line style="stroke: #000000; stroke-width: 1.0; stroke-dasharray: 1.0,2.0;" x1="7" x2="203" y1="102.1875" y2="102.1875"/><text fill="#000000" font-family="sans-serif" font-size="14" lengthAdjust="spacingAndGlyphs" textLength="62" x="69" y="119.1826">and style</text><!--entity node--><polygon fill="#FEFECE" filter="url(#fwzf8gi)" points="239,22.5,249,12.5,447,12.5,447,121.6875,437,131.6875,239,131.6875,239,22.5" style="stroke: #000000; stroke-width: 1.5;"/><line style="stroke: #000000; stroke-width: 1.5;" x1="437" x2="446" y1="22.5" y2="13.5"/><line style="stroke: #000000; stroke-width: 1.5;" x1="239" x2="437" y1="22.5" y2="22.5"/><line style="stroke: #000000; stroke-width: 1.5;" x1="437" x2="437" y1="22.5" y2="131.6875"/><text fill="#000000" font-family="sans-serif" font-size="14" lengthAdjust="spacingAndGlyphs" textLength="56" x="288" y="45.4951">This is a</text><text fill="#000000" font-family="sans-serif" font-size="14" font-weight="bold" lengthAdjust="spacingAndGlyphs" textLength="40" x="348" y="45.4951">node</text><line style="stroke: #000000; stroke-width: 1.0;" x1="239" x2="437" y1="48.7969" y2="48.7969"/><line style="stroke: #000000; stroke-width: 1.0;" x1="437" x2="447" y1="48.7969" y2="38.7969"/><text fill="#000000" font-family="sans-serif" font-size="14" lengthAdjust="spacingAndGlyphs" textLength="156" x="260" y="65.792">You can use separator</text><line style="stroke: #000000; stroke-width: 1.0;" x1="239" x2="437" y1="73.0938" y2="73.0938"/><line style="stroke: #000000; stroke-width: 1.0;" x1="437" x2="447" y1="73.0938" y2="63.0938"/><line style="stroke: #000000; stroke-width: 1.0;" x1="239" x2="437" y1="75.0938" y2="75.0938"/><line style="stroke: #000000; stroke-width: 1.0;" x1="437" x2="447" y1="75.0938" y2="65.0938"/><text fill="#000000" font-family="sans-serif" font-size="14" lengthAdjust="spacingAndGlyphs" textLength="107" x="284.5" y="90.0889">of different kind</text><line style="stroke: #000000; stroke-width: 1.0; stroke-dasharray: 1.0,2.0;" x1="239" x2="437" y1="97.3906" y2="97.3906"/><line style="stroke: #000000; stroke-width: 1.0; stroke-dasharray: 1.0,2.0;" x1="437" x2="447" y1="97.3906" y2="87.3906"/><text fill="#000000" font-family="sans-serif" font-size="14" lengthAdjust="spacingAndGlyphs" textLength="62" x="307" y="114.3857">and style</text><!--entity database--><path d="M11,206 C11,196 105,196 105,196 C105,196 199,196 199,206 L199,300.1875 C199,310.1875 105,310.1875 105,310.1875 C105,310.1875 11,310.1875 11,300.1875 L11,206 " fill="#FEFECE" filter="url(#fwzf8gi)" style="stroke: #000000; stroke-width: 1.5;"/><path d="M11,206 C11,216 105,216 105,216 C105,216 199,216 199,206 " fill="none" style="stroke: #000000; stroke-width: 1.5;"/><text fill="#000000" font-family="sans-serif" font-size="14" lengthAdjust="spacingAndGlyphs" textLength="56" x="39" y="228.9951">This is a</text><text fill="#000000" font-family="sans-serif" font-size="14" font-weight="bold" lengthAdjust="spacingAndGlyphs" textLength="72" x="99" y="228.9951">database</text><path d="M11,227.2969 C11,237.2969 105,237.2969 105,237.2969 C105,237.2969 199,237.2969 199,227.2969 " fill="none" style="stroke: #000000; stroke-width: 1.0;"/><text fill="#000000" font-family="sans-serif" font-size="14" lengthAdjust="spacingAndGlyphs" textLength="156" x="27" y="249.292">You can use separator</text><path d="M11,251.5938 C11,261.5938 105,261.5938 105,261.5938 C105,261.5938 199,261.5938 199,251.5938 " fill="none" style="stroke: #000000; stroke-width: 1.0;"/><path d="M11,253.5938 C11,263.5938 105,263.5938 105,263.5938 C105,263.5938 199,263.5938 199,253.5938 " fill="none" style="stroke: #000000; stroke-width: 1.0;"/><text fill="#000000" font-family="sans-serif" font-size="14" lengthAdjust="spacingAndGlyphs" textLength="107" x="51.5" y="273.5889">of different kind</text><path d="M11,275.8906 C11,285.8906 105,285.8906 105,285.8906 C105,285.8906 199,285.8906 199,275.8906 " fill="none" style="stroke: #000000; stroke-width: 1.0; stroke-dasharray: 1.0,2.0;"/><text fill="#000000" font-family="sans-serif" font-size="14" lengthAdjust="spacingAndGlyphs" textLength="62" x="74" y="297.8857">and style</text><ellipse cx="331.8163" cy="252.8359" fill="#FEFECE" filter="url(#fwzf8gi)" rx="97.8163" ry="53.3359" style="stroke: #A80036; stroke-width: 1.5;"/><text fill="#000000" font-family="sans-serif" font-size="14" lengthAdjust="spacingAndGlyphs" textLength="56" x="268.8163" y="228.0148">This is a</text><text fill="#000000" font-family="sans-serif" font-size="14" font-weight="bold" lengthAdjust="spacingAndGlyphs" textLength="66" x="328.8163" y="228.0148">usecase</text><line style="stroke: #A80036; stroke-width: 1.0;" x1="243.315" x2="420.3176" y1="231.3165" y2="231.3165"/><text fill="#000000" font-family="sans-serif" font-size="14" lengthAdjust="spacingAndGlyphs" textLength="156" x="253.8163" y="248.3117">You can use separator</text><line style="stroke: #A80036; stroke-width: 1.0;" x1="235.1327" x2="428.4998" y1="255.6134" y2="255.6134"/><line style="stroke: #A80036; stroke-width: 1.0;" x1="235.3932" x2="428.2394" y1="257.6134" y2="257.6134"/><text fill="#000000" font-family="sans-serif" font-size="14" lengthAdjust="spacingAndGlyphs" textLength="107" x="278.3163" y="272.6085">of different kind</text><line style="stroke: #A80036; stroke-width: 1.0; stroke-dasharray: 1.0,2.0;" x1="248.5397" x2="415.0929" y1="279.9103" y2="279.9103"/><text fill="#000000" font-family="sans-serif" font-size="14" lengthAdjust="spacingAndGlyphs" textLength="62" x="300.8163" y="296.9054">and style</text></g></svg>