<?xml version="1.0" encoding="UTF-8" standalone="yes"?><svg xmlns="http://www.w3.org/2000/svg" xmlns:xlink="http://www.w3.org/1999/xlink" height="136px" style="width:920px;height:136px;" version="1.1" viewBox="0 0 920 136" width="920px"><defs><filter height="300%" id="frtiz95" width="300%" x="-1" y="-1"><feGaussianBlur result="blurOut" stdDeviation="2.0"/><feColorMatrix in="blurOut" result="blurOut2" type="matrix" values="0 0 0 0 0 0 0 0 0 0 0 0 0 0 0 0 0 0 .4 0"/><feOffset dx="4.0" dy="4.0" in="blurOut2" result="blurOut3"/><feBlend in="SourceGraphic" in2="blurOut3" mode="normal"/></filter></defs><g><!--cluster FooA1--><rect fill="#FFFFFF" filter="url(#frtiz95)" height="90" style="stroke: #000000; stroke-width: 2.0;" width="106" x="22" y="37.5"/><polygon fill="#FFFFFF" points="111,42.5,111,56.5,123,56.5,123,48.5,117,42.5,111,42.5" style="stroke: #000000; stroke-width: 2.0;"/><line style="stroke: #000000; stroke-width: 2.0;" x1="117" x2="117" y1="42.5" y2="48.5"/><line style="stroke: #000000; stroke-width: 2.0;" x1="123" x2="117" y1="48.5" y2="48.5"/><text fill="#000000" font-family="sans-serif" font-size="14" font-weight="bold" lengthAdjust="spacingAndGlyphs" textLength="50" x="50" y="52.4951">FooA1</text><!--cluster FooA3--><polygon fill="#FFFFFF" filter="url(#frtiz95)" points="152,37.5,208,37.5,215,59.7969,258,59.7969,258,127.5,152,127.5,152,37.5" style="stroke: #000000; stroke-width: 2.0;"/><line style="stroke: #000000; stroke-width: 2.0;" x1="152" x2="215" y1="59.7969" y2="59.7969"/><text fill="#000000" font-family="sans-serif" font-size="14" font-weight="bold" lengthAdjust="spacingAndGlyphs" textLength="50" x="156" y="52.4951">FooA3</text><!--cluster FooA5--><rect fill="#FFFFFF" filter="url(#frtiz95)" height="92" style="stroke: #000000; stroke-width: 2.0;" width="96" x="282" y="36.5"/><path d="M342,37.5 L342,45.7969 L332,55.7969 L282,55.7969 " fill="#FFFFFF" style="stroke: #000000; stroke-width: 2.0;"/><text fill="#000000" font-family="sans-serif" font-size="14" font-weight="bold" lengthAdjust="spacingAndGlyphs" textLength="50" x="285" y="50.4951">FooA5</text><!--cluster FooB1--><polygon fill="#FFFFFF" filter="url(#frtiz95)" points="402,44,412,34,527,34,527,116,517,126,402,126,402,44" style="stroke: #000000; stroke-width: 2.0;"/><line style="stroke: #000000; stroke-width: 2.0;" x1="517" x2="526" y1="44" y2="35"/><line style="stroke: #000000; stroke-width: 2.0;" x1="402" x2="517" y1="44" y2="44"/><line style="stroke: #000000; stroke-width: 2.0;" x1="517" x2="517" y1="44" y2="126"/><text fill="#000000" font-family="sans-serif" font-size="14" font-weight="bold" lengthAdjust="spacingAndGlyphs" textLength="49" x="436" y="59.9951">FooB1</text><!--cluster FooB3--><path d="M554,41 C554,38 556,36 559,36 C562,36 564,38 564,41 C564,38 566,36 569,36 C572,36 574,38 574,41 C574,38 576,36 579,36 C582,36 584,38 584,41 C584,38 586,36 589,36 C592,36 594,38 594,41 C594,38 596,36 599,36 C602,36 604,38 604,41 C604,38 606,36 609,36 C612,36 614,38 614,41 C614,38 616,36 619,36 C622,36 624,38 624,41 C624,38 626,36 629,36 C632,36 634,38 634,41 C634,38 636,36 639,36 C642,36 644,38 644,41 C644,38 646,36 649,36 C652,36 654,38 654,41 C654,38 656,36 659,36 C662,36 664,38 664,41 C667,41 669,43 669,46 C669,49 667,51 664,51 C667,51 669,53 669,56 C669,59 667,61 664,61 C667,61 669,63 669,66 C669,69 667,71 664,71 C667,71 669,73 669,76 C669,79 667,81 664,81 C667,81 669,83 669,86 C669,89 667,91 664,91 C667,91 669,93 669,96 C669,99 667,101 664,101 C667,101 669,103 669,106 C669,109 667,111 664,111 C667,111 669,113 669,116 C669,119 667,121 664,121 C664,124 661,126 659,126 C656,126 654,124 654,121 C654,124 651,126 649,126 C646,126 644,124 644,121 C644,124 641,126 639,126 C636,126 634,124 634,121 C634,124 631,126 629,126 C626,126 624,124 624,121 C624,124 621,126 619,126 C616,126 614,124 614,121 C614,124 611,126 609,126 C606,126 604,124 604,121 C604,124 601,126 599,126 C596,126 594,124 594,121 C594,124 591,126 589,126 C586,126 584,124 584,121 C584,124 581,126 579,126 C576,126 574,124 574,121 C574,124 571,126 569,126 C566,126 564,124 564,121 C564,124 561,126 559,126 C556,126 554,124 554,121 C551,121 549,119 549,116 C549,113 551,111 554,111 C551,111 549,109 549,106 C549,103 551,101 554,101 C551,101 549,99 549,96 C549,93 551,91 554,91 C551,91 549,89 549,86 C549,83 551,81 554,81 C551,81 549,79 549,76 C549,73 551,71 554,71 C551,71 549,69 549,66 C549,63 551,61 554,61 C551,61 549,59 549,56 C549,53 551,51 554,51 C551,51 549,49 549,46 C549,43 551,41 554,41 " fill="#FFFFFF" filter="url(#frtiz95)" style="stroke: #000000; stroke-width: 2.0;"/><text fill="#000000" font-family="sans-serif" font-size="14" font-weight="bold" lengthAdjust="spacingAndGlyphs" textLength="49" x="585.5" y="59.9951">FooB3</text><!--cluster FooB5--><path d="M693,34 C693,24 742,24 742,24 C742,24 791,24 791,34 L791,116 C791,126 742,126 742,126 C742,126 693,126 693,116 L693,34 " fill="#FFFFFF" filter="url(#frtiz95)" style="stroke: #000000; stroke-width: 2.0;"/><path d="M693,34 C693,44 742,44 742,44 C742,44 791,44 791,34 " fill="none" style="stroke: #000000; stroke-width: 2.0;"/><text fill="#000000" font-family="sans-serif" font-size="14" font-weight="bold" lengthAdjust="spacingAndGlyphs" textLength="49" x="717.5" y="57.9951">FooB5</text><!--cluster FooB7--><rect fill="#FFFFFF" filter="url(#frtiz95)" height="87" rx="35" ry="35" style="stroke: #000000; stroke-width: 2.0;" width="98" x="815" y="39"/><text fill="#000000" font-family="sans-serif" font-size="14" font-weight="bold" lengthAdjust="spacingAndGlyphs" textLength="49" x="839.5" y="58.9951">FooB7</text><!--entity FooA2--><polygon fill="#FEFECE" filter="url(#frtiz95)" points="38,72.5,88,72.5,95,94.7969,112,94.7969,112,111.7969,38,111.7969,38,72.5" style="stroke: #000000; stroke-width: 1.5;"/><line style="stroke: #000000; stroke-width: 1.5;" x1="38" x2="95" y1="94.7969" y2="94.7969"/><text fill="#000000" font-family="sans-serif" font-size="14" lengthAdjust="spacingAndGlyphs" textLength="44" x="42" y="88.4951">FooA2</text><!--entity FooA4--><rect fill="#FEFECE" filter="url(#frtiz95)" height="39.2969" style="stroke: #000000; stroke-width: 1.5;" width="74" x="168" y="72.5"/><polygon fill="#FEFECE" points="225,77.5,225,91.5,237,91.5,237,83.5,231,77.5,225,77.5" style="stroke: #000000; stroke-width: 1.5;"/><line style="stroke: #000000; stroke-width: 1.5;" x1="231" x2="231" y1="77.5" y2="83.5"/><line style="stroke: #000000; stroke-width: 1.5;" x1="237" x2="231" y1="83.5" y2="83.5"/><text fill="#000000" font-family="sans-serif" font-size="14" lengthAdjust="spacingAndGlyphs" textLength="44" x="178" y="98.4951">FooA4</text><!--entity FooA6--><path d="M298,81.5 C298,71.5 330,71.5 330,71.5 C330,71.5 362,71.5 362,81.5 L362,102.7969 C362,112.7969 330,112.7969 330,112.7969 C330,112.7969 298,112.7969 298,102.7969 L298,81.5 " fill="#FEFECE" filter="url(#frtiz95)" style="stroke: #000000; stroke-width: 1.5;"/><path d="M298,81.5 C298,91.5 330,91.5 330,91.5 C330,91.5 362,91.5 362,81.5 " fill="none" style="stroke: #000000; stroke-width: 1.5;"/><text fill="#000000" font-family="sans-serif" font-size="14" lengthAdjust="spacingAndGlyphs" textLength="44" x="308" y="104.4951">FooA6</text><!--entity FooB2--><path d="M434.5,81 C434.5,78 436.5,76 439.5,76 C442.5,76 444.5,78 444.5,81 C444.5,78 446.5,76 449.5,76 C452.5,76 454.5,78 454.5,81 C454.5,78 456.5,76 459.5,76 C462.5,76 464.5,78 464.5,81 C464.5,78 466.5,76 469.5,76 C472.5,76 474.5,78 474.5,81 C474.5,78 476.5,76 479.5,76 C482.5,76 484.5,78 484.5,81 C484.5,78 486.5,76 489.5,76 C492.5,76 494.5,78 494.5,81 C497.5,81 499.5,83 499.5,86 C499.5,89 497.5,91 494.5,91 C497.5,91 499.5,93 499.5,96 C499.5,99 497.5,101 494.5,101 C494.5,104 491.5,106 489.5,106 C486.5,106 484.5,104 484.5,101 C484.5,104 481.5,106 479.5,106 C476.5,106 474.5,104 474.5,101 C474.5,104 471.5,106 469.5,106 C466.5,106 464.5,104 464.5,101 C464.5,104 461.5,106 459.5,106 C456.5,106 454.5,104 454.5,101 C454.5,104 451.5,106 449.5,106 C446.5,106 444.5,104 444.5,101 C444.5,104 441.5,106 439.5,106 C436.5,106 434.5,104 434.5,101 C431.5,101 429.5,99 429.5,96 C429.5,93 431.5,91 434.5,91 C431.5,91 429.5,89 429.5,86 C429.5,83 431.5,81 434.5,81 " fill="#FEFECE" filter="url(#frtiz95)" style="stroke: #000000; stroke-width: 1.5;"/><text fill="#000000" font-family="sans-serif" font-size="14" lengthAdjust="spacingAndGlyphs" textLength="45" x="441.5" y="96.9951">FooB2</text><!--entity FooB4--><rect fill="#FEFECE" filter="url(#frtiz95)" height="46.2969" style="stroke: #000000; stroke-width: 1.5;" width="85" x="567.5" y="69"/><path d="M595.8333,70 L595.8333,74 L588.8333,81 L567.5,81 " fill="#FEFECE" style="stroke: #000000; stroke-width: 1.5;"/><text fill="#000000" font-family="sans-serif" font-size="14" lengthAdjust="spacingAndGlyphs" textLength="45" x="582.5" y="101.9951">FooB4</text><!--entity FooB6--><rect fill="#FEFECE" filter="url(#frtiz95)" height="36.2969" rx="35" ry="35" style="stroke: #000000; stroke-width: 1.5;" width="65" x="709.5" y="74"/><text fill="#000000" font-family="sans-serif" font-size="14" lengthAdjust="spacingAndGlyphs" textLength="45" x="719.5" y="96.9951">FooB6</text><!--entity FooB8--><rect fill="#FEFECE" filter="url(#frtiz95)" height="36.2969" rx="35" ry="35" style="stroke: #000000; stroke-width: 1.5;" width="65" x="831.5" y="74"/><text fill="#000000" font-family="sans-serif" font-size="14" lengthAdjust="spacingAndGlyphs" textLength="45" x="841.5" y="96.9951">FooB8</text></g></svg>