<?xml version="1.0" encoding="UTF-8" standalone="yes"?><svg xmlns="http://www.w3.org/2000/svg" xmlns:xlink="http://www.w3.org/1999/xlink" height="161px" style="width:429px;height:161px;" version="1.1" viewBox="0 0 429 161" width="429px"><defs><filter height="300%" id="f1" width="300%" x="-1" y="-1"><feGaussianBlur result="blurOut" stdDeviation="2.0"/><feColorMatrix in="blurOut" result="blurOut2" type="matrix" values="0 0 0 0 0 0 0 0 0 0 0 0 0 0 0 0 0 0 .4 0"/><feOffset dx="4.0" dy="4.0" in="blurOut2" result="blurOut3"/><feBlend in="SourceGraphic" in2="blurOut3" mode="normal"/></filter></defs><g><ellipse cx="49" cy="17" fill="#FEFECE" filter="url(#f1)" rx="8" ry="8" style="stroke: #A80036; stroke-width: 2.0;"/><text fill="#000000" font-family="sans-serif" font-size="14" lengthAdjust="spacingAndGlyphs" textLength="86" x="6" y="38.9951">Data Access</text><rect fill="#FFD700" filter="url(#f1)" height="32.9852" style="stroke: #000000; stroke-width: 1.5;" width="140" x="162" y="8.5"/><rect fill="#FFD700" height="5" style="stroke: #000000; stroke-width: 1.5;" width="10" x="157" y="13.5"/><rect fill="#FFD700" height="5" style="stroke: #000000; stroke-width: 1.5;" width="10" x="157" y="31.4852"/><text fill="#000000" font-family="Courier" font-size="13" lengthAdjust="spacingAndGlyphs" textLength="120" x="172" y="31.2645">First Component</text><ellipse cx="232" cy="128" fill="#FEFECE" filter="url(#f1)" rx="8" ry="8" style="stroke: #A80036; stroke-width: 2.0;"/><text fill="#000000" font-family="sans-serif" font-size="14" lengthAdjust="spacingAndGlyphs" textLength="37" x="213.5" y="149.9951">HTTP</text><rect fill="#FFD700" filter="url(#f1)" height="32.9852" style="stroke: #000000; stroke-width: 1.5;" width="100" x="320" y="119.5"/><rect fill="#FFD700" height="5" style="stroke: #000000; stroke-width: 1.5;" width="10" x="315" y="124.5"/><rect fill="#FFD700" height="5" style="stroke: #000000; stroke-width: 1.5;" width="10" x="315" y="142.4852"/><text fill="#000000" font-family="Courier" font-size="13" lengthAdjust="spacingAndGlyphs" textLength="80" x="330" y="142.2645">Web Server</text><path d="M92.248,25 C115.449,25 138.65,25 161.851,25 " fill="none" style="stroke: #FF6655; stroke-width: 1.0;"/><path d="M232,41.617 C232,60.502 232,92.384 232,113.5611 " fill="none" style="stroke: #FF6655; stroke-width: 1.0; stroke-dasharray: 7.0,7.0;"/><polygon fill="#FF6655" points="232,118.7,236,109.7,232,113.7,228,109.7,232,118.7" style="stroke: #FF6655; stroke-width: 1.0;"/><text fill="#777777" font-family="Impact" font-size="13" lengthAdjust="spacingAndGlyphs" textLength="20" x="233" y="86.1143">use</text><path d="M250.598,136 C273.607,136 296.617,136 319.627,136 " fill="none" style="stroke: #FF6655; stroke-width: 1.0;"/></g></svg>