<?xml version="1.0" encoding="UTF-8" standalone="yes"?><svg xmlns="http://www.w3.org/2000/svg" xmlns:xlink="http://www.w3.org/1999/xlink" height="538px" style="width:492px;height:538px;" version="1.1" viewBox="0 0 492 538" width="492px"><defs><filter height="300%" id="f1" width="300%" x="-1" y="-1"><feGaussianBlur result="blurOut" stdDeviation="2.0"/><feColorMatrix in="blurOut" result="blurOut2" type="matrix" values="0 0 0 0 0 0 0 0 0 0 0 0 0 0 0 0 0 0 .4 0"/><feOffset dx="4.0" dy="4.0" in="blurOut2" result="blurOut3"/><feBlend in="SourceGraphic" in2="blurOut3" mode="normal"/></filter></defs><g><polygon fill="#FFFFFF" filter="url(#f1)" points="22,24,126,24,133,46.2969,458,46.2969,458,111,22,111,22,24" style="stroke: #000000; stroke-width: 2.0;"/><line style="stroke: #000000; stroke-width: 2.0;" x1="22" x2="133" y1="46.2969" y2="46.2969"/><text fill="#000000" font-family="sans-serif" font-size="14" font-weight="bold" lengthAdjust="spacingAndGlyphs" textLength="98" x="26" y="38.9951">Some Group</text><polygon fill="#FFFFFF" filter="url(#f1)" points="50,145,60,135,301,135,301,217,291,227,50,227,50,145" style="stroke: #000000; stroke-width: 2.0;"/><line style="stroke: #000000; stroke-width: 2.0;" x1="291" x2="300" y1="145" y2="136"/><line style="stroke: #000000; stroke-width: 2.0;" x1="50" x2="291" y1="145" y2="145"/><line style="stroke: #000000; stroke-width: 2.0;" x1="291" x2="291" y1="145" y2="227"/><text fill="#000000" font-family="sans-serif" font-size="14" font-weight="bold" lengthAdjust="spacingAndGlyphs" textLength="108" x="117.5" y="160.9951">Other Groups</text><path d="M328,166 C328,163 330,161 333,161 C336,161 338,163 338,166 C338,163 340,161 343,161 C346,161 348,163 348,166 C348,163 350,161 353,161 C356,161 358,163 358,166 C358,163 360,161 363,161 C366,161 368,163 368,166 C368,163 370,161 373,161 C376,161 378,163 378,166 C378,163 380,161 383,161 C386,161 388,163 388,166 C388,163 390,161 393,161 C396,161 398,163 398,166 C398,163 400,161 403,161 C406,161 408,163 408,166 C408,163 410,161 413,161 C416,161 418,163 418,166 C418,163 420,161 423,161 C426,161 428,163 428,166 C428,163 430,161 433,161 C436,161 438,163 438,166 C438,163 440,161 443,161 C446,161 448,163 448,166 C451,166 453,168 453,171 C453,174 451,176 448,176 C451,176 453,178 453,181 C453,184 451,186 448,186 C451,186 453,188 453,191 C453,194 451,196 448,196 C451,196 453,198 453,201 C453,204 451,206 448,206 C451,206 453,208 453,211 C453,214 451,216 448,216 C448,219 445,221 443,221 C440,221 438,219 438,216 C438,219 435,221 433,221 C430,221 428,219 428,216 C428,219 425,221 423,221 C420,221 418,219 418,216 C418,219 415,221 413,221 C410,221 408,219 408,216 C408,219 405,221 403,221 C400,221 398,219 398,216 C398,219 395,221 393,221 C390,221 388,219 388,216 C388,219 385,221 383,221 C380,221 378,219 378,216 C378,219 375,221 373,221 C370,221 368,219 368,216 C368,219 365,221 363,221 C360,221 358,219 358,216 C358,219 355,221 353,221 C350,221 348,219 348,216 C348,219 345,221 343,221 C340,221 338,219 338,216 C338,219 335,221 333,221 C330,221 328,219 328,216 C325,216 323,214 323,211 C323,208 325,206 328,206 C325,206 323,204 323,201 C323,198 325,196 328,196 C325,196 323,194 323,191 C323,188 325,186 328,186 C325,186 323,184 323,181 C323,178 325,176 328,176 C325,176 323,174 323,171 C323,168 325,166 328,166 " fill="#FFFFFF" filter="url(#f1)" style="stroke: #000000; stroke-width: 2.0;"/><path d="M290,261 C290,251 387.5,251 387.5,251 C387.5,251 485,251 485,261 L485,521 C485,531 387.5,531 387.5,531 C387.5,531 290,531 290,521 L290,261 " fill="#FFFFFF" filter="url(#f1)" style="stroke: #000000; stroke-width: 2.0;"/><path d="M290,261 C290,271 387.5,271 387.5,271 C387.5,271 485,271 485,261 " fill="none" style="stroke: #000000; stroke-width: 2.0;"/><text fill="#000000" font-family="sans-serif" font-size="14" font-weight="bold" lengthAdjust="spacingAndGlyphs" textLength="46" x="364.5" y="284.9951">MySql</text><polygon fill="#FFFFFF" filter="url(#f1)" points="314,309,451,309,458,331.2969,461,331.2969,461,396,314,396,314,309" style="stroke: #000000; stroke-width: 2.0;"/><line style="stroke: #000000; stroke-width: 2.0;" x1="314" x2="458" y1="331.2969" y2="331.2969"/><text fill="#000000" font-family="sans-serif" font-size="14" font-weight="bold" lengthAdjust="spacingAndGlyphs" textLength="131" x="318" y="323.9951">This is my folder</text><rect fill="#FFFFFF" filter="url(#f1)" height="87" style="stroke: #000000; stroke-width: 2.0;" width="108" x="333" y="420"/><path d="M372,421 L372,429.2969 L362,439.2969 L333,439.2969 " fill="#FFFFFF" style="stroke: #000000; stroke-width: 2.0;"/><text fill="#000000" font-family="sans-serif" font-size="14" font-weight="bold" lengthAdjust="spacingAndGlyphs" textLength="29" x="336" y="433.9951">Foo</text><ellipse cx="227" cy="69" fill="#FEFECE" filter="url(#f1)" rx="8" ry="8" style="stroke: #A80036; stroke-width: 2.0;"/><text fill="#000000" font-family="sans-serif" font-size="14" lengthAdjust="spacingAndGlyphs" textLength="37" x="208.5" y="90.9951">HTTP</text><rect fill="#FEFECE" filter="url(#f1)" height="36.2969" style="stroke: #A80036; stroke-width: 1.5;" width="135" x="38.5" y="59"/><rect fill="#FEFECE" height="5" style="stroke: #A80036; stroke-width: 1.5;" width="10" x="33.5" y="64"/><rect fill="#FEFECE" height="5" style="stroke: #A80036; stroke-width: 1.5;" width="10" x="33.5" y="85.2969"/><text fill="#000000" font-family="sans-serif" font-size="14" lengthAdjust="spacingAndGlyphs" textLength="115" x="48.5" y="81.9951">First Component</text><rect fill="#FEFECE" filter="url(#f1)" height="36.2969" style="stroke: #A80036; stroke-width: 1.5;" width="161" x="280.5" y="59"/><rect fill="#FEFECE" height="5" style="stroke: #A80036; stroke-width: 1.5;" width="10" x="275.5" y="64"/><rect fill="#FEFECE" height="5" style="stroke: #A80036; stroke-width: 1.5;" width="10" x="275.5" y="85.2969"/><text fill="#000000" font-family="sans-serif" font-size="14" lengthAdjust="spacingAndGlyphs" textLength="141" x="290.5" y="81.9951">Another Component</text><ellipse cx="79" cy="185" fill="#FEFECE" filter="url(#f1)" rx="8" ry="8" style="stroke: #A80036; stroke-width: 2.0;"/><text fill="#000000" font-family="sans-serif" font-size="14" lengthAdjust="spacingAndGlyphs" textLength="26" x="66" y="206.9951">FTP</text><rect fill="#FEFECE" filter="url(#f1)" height="36.2969" style="stroke: #A80036; stroke-width: 1.5;" width="159" x="126.5" y="175"/><rect fill="#FEFECE" height="5" style="stroke: #A80036; stroke-width: 1.5;" width="10" x="121.5" y="180"/><rect fill="#FEFECE" height="5" style="stroke: #A80036; stroke-width: 1.5;" width="10" x="121.5" y="201.2969"/><text fill="#000000" font-family="sans-serif" font-size="14" lengthAdjust="spacingAndGlyphs" textLength="139" x="136.5" y="197.9951">Second Component</text><rect fill="#FEFECE" filter="url(#f1)" height="36.2969" style="stroke: #A80036; stroke-width: 1.5;" width="91" x="341.5" y="175"/><rect fill="#FEFECE" height="5" style="stroke: #A80036; stroke-width: 1.5;" width="10" x="336.5" y="180"/><rect fill="#FEFECE" height="5" style="stroke: #A80036; stroke-width: 1.5;" width="10" x="336.5" y="201.2969"/><text fill="#000000" font-family="sans-serif" font-size="14" lengthAdjust="spacingAndGlyphs" textLength="71" x="351.5" y="197.9951">Example 1</text><rect fill="#FEFECE" filter="url(#f1)" height="36.2969" style="stroke: #A80036; stroke-width: 1.5;" width="76" x="349" y="344"/><rect fill="#FEFECE" height="5" style="stroke: #A80036; stroke-width: 1.5;" width="10" x="344" y="349"/><rect fill="#FEFECE" height="5" style="stroke: #A80036; stroke-width: 1.5;" width="10" x="344" y="370.2969"/><text fill="#000000" font-family="sans-serif" font-size="14" lengthAdjust="spacingAndGlyphs" textLength="56" x="359" y="366.9951">Folder 3</text><rect fill="#FEFECE" filter="url(#f1)" height="36.2969" style="stroke: #A80036; stroke-width: 1.5;" width="76" x="349" y="455"/><rect fill="#FEFECE" height="5" style="stroke: #A80036; stroke-width: 1.5;" width="10" x="344" y="460"/><rect fill="#FEFECE" height="5" style="stroke: #A80036; stroke-width: 1.5;" width="10" x="344" y="481.2969"/><text fill="#000000" font-family="sans-serif" font-size="14" lengthAdjust="spacingAndGlyphs" textLength="56" x="359" y="477.9951">Frame 4</text><path d="M208.223,77 C196.679,77 185.134,77 173.59,77 " fill="none" style="stroke: #A80036; stroke-width: 1.0;"/><path d="M92.3945,193 C103.6367,193 114.879,193 126.121,193 " fill="none" style="stroke: #A80036; stroke-width: 1.0;"/><path d="M101.8993,95.314 C97.0919,115.612 89.1276,149.239 83.9724,171.005 " fill="none" style="stroke: #A80036; stroke-width: 1.0;"/><polygon fill="#A80036" points="82.7898,175.999,88.7571,168.1637,83.9426,171.1337,80.9727,166.3192,82.7898,175.999" style="stroke: #A80036; stroke-width: 1.0;"/><path d="M364.949,95.314 C369.499,115.266 376.987,148.097 381.956,169.882 " fill="none" style="stroke: #A80036; stroke-width: 1.0;"/><polygon fill="#A80036" points="383.099,174.896,384.9954,165.2314,381.9861,170.0214,377.1961,167.0121,383.099,174.896" style="stroke: #A80036; stroke-width: 1.0;"/><path d="M387,211.243 C387,241.619 387,304.645 387,338.438 " fill="none" style="stroke: #A80036; stroke-width: 1.0;"/><polygon fill="#A80036" points="387,343.601,391,334.601,387,338.601,383,334.601,387,343.601" style="stroke: #A80036; stroke-width: 1.0;"/><path d="M387,380.031 C387,398.798 387,429.055 387,449.6998 " fill="none" style="stroke: #A80036; stroke-width: 1.0;"/><polygon fill="#A80036" points="387,454.7286,391,445.7286,387,449.7286,383,445.7286,387,454.7286" style="stroke: #A80036; stroke-width: 1.0;"/></g></svg>