<?xml version="1.0" encoding="UTF-8" standalone="yes"?><svg xmlns="http://www.w3.org/2000/svg" xmlns:xlink="http://www.w3.org/1999/xlink" height="165px" style="width:456px;height:165px;" version="1.1" viewBox="0 0 456 165" width="456px"><defs><filter height="300%" id="feadcg9" width="300%" x="-1" y="-1"><feGaussianBlur result="blurOut" stdDeviation="2.0"/><feColorMatrix in="blurOut" result="blurOut2" type="matrix" values="0 0 0 0 0 0 0 0 0 0 0 0 0 0 0 0 0 0 .4 0"/><feOffset dx="4.0" dy="4.0" in="blurOut2" result="blurOut3"/><feBlend in="SourceGraphic" in2="blurOut3" mode="normal"/></filter></defs><g><!--entity node1--><polygon fill="#FEFECE" filter="url(#feadcg9)" points="186,18,196,8,271,8,271,44.2969,261,54.2969,186,54.2969,186,18" style="stroke: #000000; stroke-width: 1.5;"/><line style="stroke: #000000; stroke-width: 1.5;" x1="261" x2="270" y1="18" y2="9"/><line style="stroke: #000000; stroke-width: 1.5;" x1="186" x2="261" y1="18" y2="18"/><line style="stroke: #000000; stroke-width: 1.5;" x1="261" x2="261" y1="18" y2="54.2969"/><text fill="#000000" font-family="sans-serif" font-size="14" lengthAdjust="spacingAndGlyphs" textLength="45" x="201" y="40.9951">node1</text><!--entity node2--><polygon fill="#FEFECE" filter="url(#feadcg9)" points="6,124,16,114,91,114,91,150.2969,81,160.2969,6,160.2969,6,124" style="stroke: #000000; stroke-width: 1.5;"/><line style="stroke: #000000; stroke-width: 1.5;" x1="81" x2="90" y1="124" y2="115"/><line style="stroke: #000000; stroke-width: 1.5;" x1="6" x2="81" y1="124" y2="124"/><line style="stroke: #000000; stroke-width: 1.5;" x1="81" x2="81" y1="124" y2="160.2969"/><text fill="#000000" font-family="sans-serif" font-size="14" lengthAdjust="spacingAndGlyphs" textLength="45" x="21" y="146.9951">node2</text><!--entity node3--><polygon fill="#FEFECE" filter="url(#feadcg9)" points="126,124,136,114,211,114,211,150.2969,201,160.2969,126,160.2969,126,124" style="stroke: #000000; stroke-width: 1.5;"/><line style="stroke: #000000; stroke-width: 1.5;" x1="201" x2="210" y1="124" y2="115"/><line style="stroke: #000000; stroke-width: 1.5;" x1="126" x2="201" y1="124" y2="124"/><line style="stroke: #000000; stroke-width: 1.5;" x1="201" x2="201" y1="124" y2="160.2969"/><text fill="#000000" font-family="sans-serif" font-size="14" lengthAdjust="spacingAndGlyphs" textLength="45" x="141" y="146.9951">node3</text><!--entity node4--><polygon fill="#FEFECE" filter="url(#feadcg9)" points="246,124,256,114,331,114,331,150.2969,321,160.2969,246,160.2969,246,124" style="stroke: #000000; stroke-width: 1.5;"/><line style="stroke: #000000; stroke-width: 1.5;" x1="321" x2="330" y1="124" y2="115"/><line style="stroke: #000000; stroke-width: 1.5;" x1="246" x2="321" y1="124" y2="124"/><line style="stroke: #000000; stroke-width: 1.5;" x1="321" x2="321" y1="124" y2="160.2969"/><text fill="#000000" font-family="sans-serif" font-size="14" lengthAdjust="spacingAndGlyphs" textLength="45" x="261" y="146.9951">node4</text><!--entity node5--><polygon fill="#FEFECE" filter="url(#feadcg9)" points="366,124,376,114,451,114,451,150.2969,441,160.2969,366,160.2969,366,124" style="stroke: #000000; stroke-width: 1.5;"/><line style="stroke: #000000; stroke-width: 1.5;" x1="441" x2="450" y1="124" y2="115"/><line style="stroke: #000000; stroke-width: 1.5;" x1="366" x2="441" y1="124" y2="124"/><line style="stroke: #000000; stroke-width: 1.5;" x1="441" x2="441" y1="124" y2="160.2969"/><text fill="#000000" font-family="sans-serif" font-size="14" lengthAdjust="spacingAndGlyphs" textLength="45" x="381" y="146.9951">node5</text><path d="M190.327,54.056 C159.78,71.7049 117.15,96.3353 86.6183,113.9761 " fill="none" style="stroke: #A80036; stroke-width: 1.0;"/><path d="M215.776,54.056 C205.593,71.7049 191.383,96.3353 181.206,113.9761 " fill="none" style="stroke: #A80036; stroke-width: 1.0; stroke-dasharray: 7.0,7.0;"/><path d="M241.224,54.056 C251.407,71.7049 265.617,96.3353 275.794,113.9761 " fill="none" style="stroke: #A80036; stroke-width: 1.0; stroke-dasharray: 1.0,3.0;"/><path d="M266.673,54.056 C297.22,71.7049 339.85,96.3353 370.382,113.9761 " fill="none" style="stroke: #A80036; stroke-width: 2.0;"/></g></svg>