<?xml version="1.0" encoding="UTF-8" standalone="yes"?><svg xmlns="http://www.w3.org/2000/svg" xmlns:xlink="http://www.w3.org/1999/xlink" height="410px" style="width:436px;height:410px;" version="1.1" viewBox="0 0 436 410" width="436px"><defs><filter height="300%" id="fxnvjns" width="300%" x="-1" y="-1"><feGaussianBlur result="blurOut" stdDeviation="2.0"/><feColorMatrix in="blurOut" result="blurOut2" type="matrix" values="0 0 0 0 0 0 0 0 0 0 0 0 0 0 0 0 0 0 .4 0"/><feOffset dx="4.0" dy="4.0" in="blurOut2" result="blurOut3"/><feBlend in="SourceGraphic" in2="blurOut3" mode="normal"/></filter></defs><g><!--entity artifact--><rect fill="#FEFECE" filter="url(#fxnvjns)" height="39.2969" style="stroke: #000000; stroke-width: 1.5;" width="76" x="7.5" y="30"/><polygon fill="#FEFECE" points="66.5,35,66.5,49,78.5,49,78.5,41,72.5,35,66.5,35" style="stroke: #000000; stroke-width: 1.5;"/><line style="stroke: #000000; stroke-width: 1.5;" x1="72.5" x2="72.5" y1="35" y2="41"/><line style="stroke: #000000; stroke-width: 1.5;" x1="78.5" x2="72.5" y1="41" y2="41"/><text fill="#000000" font-family="sans-serif" font-size="14" lengthAdjust="spacingAndGlyphs" textLength="46" x="17.5" y="55.9951">artifact</text><!--entity actor--><ellipse cx="136.5" cy="18" fill="#FEFECE" filter="url(#fxnvjns)" rx="8" ry="8" style="stroke: #A80036; stroke-width: 2.0;"/><path d="M136.5,26 L136.5,53 M123.5,34 L149.5,34 M136.5,53 L123.5,68 M136.5,53 L149.5,68 " fill="#FEFECE" filter="url(#fxnvjns)" style="stroke: #A80036; stroke-width: 2.0;"/><text fill="#000000" font-family="sans-serif" font-size="14" lengthAdjust="spacingAndGlyphs" textLength="35" x="119" y="87.9951">actor</text><!--entity folder--><polygon fill="#FEFECE" filter="url(#fxnvjns)" points="189,30,234,30,241,52.2969,258,52.2969,258,69.2969,189,69.2969,189,30" style="stroke: #000000; stroke-width: 1.5;"/><line style="stroke: #000000; stroke-width: 1.5;" x1="189" x2="241" y1="52.2969" y2="52.2969"/><text fill="#000000" font-family="sans-serif" font-size="14" lengthAdjust="spacingAndGlyphs" textLength="39" x="193" y="45.9951">folder</text><!--entity node--><polygon fill="#FEFECE" filter="url(#fxnvjns)" points="293.5,36.5,303.5,26.5,369.5,26.5,369.5,62.7969,359.5,72.7969,293.5,72.7969,293.5,36.5" style="stroke: #000000; stroke-width: 1.5;"/><line style="stroke: #000000; stroke-width: 1.5;" x1="359.5" x2="368.5" y1="36.5" y2="27.5"/><line style="stroke: #000000; stroke-width: 1.5;" x1="293.5" x2="359.5" y1="36.5" y2="36.5"/><line style="stroke: #000000; stroke-width: 1.5;" x1="359.5" x2="359.5" y1="36.5" y2="72.7969"/><text fill="#000000" font-family="sans-serif" font-size="14" lengthAdjust="spacingAndGlyphs" textLength="36" x="308.5" y="59.4951">node</text><!--entity frame--><rect fill="#FEFECE" filter="url(#fxnvjns)" height="46.2969" style="stroke: #000000; stroke-width: 1.5;" width="79" x="6" y="151"/><path d="M32.3333,152 L32.3333,156 L25.3333,163 L6,163 " fill="#FEFECE" style="stroke: #000000; stroke-width: 1.5;"/><text fill="#000000" font-family="sans-serif" font-size="14" lengthAdjust="spacingAndGlyphs" textLength="39" x="21" y="183.9951">frame</text><!--entity cloud--><path d="M122.5,163 C122.5,160 124.5,158 127.5,158 C130.5,158 132.5,160 132.5,163 C132.5,160 134.5,158 137.5,158 C140.5,158 142.5,160 142.5,163 C142.5,160 144.5,158 147.5,158 C150.5,158 152.5,160 152.5,163 C152.5,160 154.5,158 157.5,158 C160.5,158 162.5,160 162.5,163 C162.5,160 164.5,158 167.5,158 C170.5,158 172.5,160 172.5,163 C175.5,163 177.5,165 177.5,168 C177.5,171 175.5,173 172.5,173 C175.5,173 177.5,175 177.5,178 C177.5,181 175.5,183 172.5,183 C172.5,186 169.5,188 167.5,188 C164.5,188 162.5,186 162.5,183 C162.5,186 159.5,188 157.5,188 C154.5,188 152.5,186 152.5,183 C152.5,186 149.5,188 147.5,188 C144.5,188 142.5,186 142.5,183 C142.5,186 139.5,188 137.5,188 C134.5,188 132.5,186 132.5,183 C132.5,186 129.5,188 127.5,188 C124.5,188 122.5,186 122.5,183 C119.5,183 117.5,181 117.5,178 C117.5,175 119.5,173 122.5,173 C119.5,173 117.5,171 117.5,168 C117.5,165 119.5,163 122.5,163 " fill="#FEFECE" filter="url(#fxnvjns)" style="stroke: #000000; stroke-width: 1.5;"/><text fill="#000000" font-family="sans-serif" font-size="14" lengthAdjust="spacingAndGlyphs" textLength="38" x="129.5" y="178.9951">cloud</text><!--entity database--><path d="M212.5,163.5 C212.5,153.5 254.5,153.5 254.5,153.5 C254.5,153.5 296.5,153.5 296.5,163.5 L296.5,184.7969 C296.5,194.7969 254.5,194.7969 254.5,194.7969 C254.5,194.7969 212.5,194.7969 212.5,184.7969 L212.5,163.5 " fill="#FEFECE" filter="url(#fxnvjns)" style="stroke: #000000; stroke-width: 1.5;"/><path d="M212.5,163.5 C212.5,173.5 254.5,173.5 254.5,173.5 C254.5,173.5 296.5,173.5 296.5,163.5 " fill="none" style="stroke: #000000; stroke-width: 1.5;"/><text fill="#000000" font-family="sans-serif" font-size="14" lengthAdjust="spacingAndGlyphs" textLength="64" x="222.5" y="186.4951">database</text><!--entity storage--><rect fill="#FEFECE" filter="url(#fxnvjns)" height="36.2969" rx="35" ry="35" style="stroke: #000000; stroke-width: 1.5;" width="73" x="332" y="156"/><text fill="#000000" font-family="sans-serif" font-size="14" lengthAdjust="spacingAndGlyphs" textLength="53" x="342" y="178.9951">storage</text><!--entity agent--><rect fill="#FEFECE" filter="url(#fxnvjns)" height="36.2969" style="stroke: #A80036; stroke-width: 1.5;" width="60" x="15.5" y="263"/><text fill="#000000" font-family="sans-serif" font-size="14" lengthAdjust="spacingAndGlyphs" textLength="40" x="25.5" y="285.9951">agent</text><ellipse cx="154.7193" cy="281.0236" fill="#FEFECE" filter="url(#fxnvjns)" rx="44.7193" ry="14.5236" style="stroke: #A80036; stroke-width: 1.5;"/><text fill="#000000" font-family="sans-serif" font-size="14" lengthAdjust="spacingAndGlyphs" textLength="59" x="125.2193" y="285.6721">usecase</text><!--entity component--><rect fill="#FEFECE" filter="url(#fxnvjns)" height="36.2969" style="stroke: #A80036; stroke-width: 1.5;" width="100" x="234.5" y="263"/><rect fill="#FEFECE" height="5" style="stroke: #A80036; stroke-width: 1.5;" width="10" x="229.5" y="268"/><rect fill="#FEFECE" height="5" style="stroke: #A80036; stroke-width: 1.5;" width="10" x="229.5" y="289.2969"/><text fill="#000000" font-family="sans-serif" font-size="14" lengthAdjust="spacingAndGlyphs" textLength="80" x="244.5" y="285.9951">component</text><!--entity boundary--><path d="M382,261 L382,285 M382,273 L399,273 " fill="#FEFECE" filter="url(#fxnvjns)" style="stroke: #A80036; stroke-width: 2.0;"/><ellipse cx="411" cy="273" fill="#FEFECE" filter="url(#fxnvjns)" rx="12" ry="12" style="stroke: #A80036; stroke-width: 2.0;"/><text fill="#000000" font-family="sans-serif" font-size="14" lengthAdjust="spacingAndGlyphs" textLength="65" x="370" y="301.9951">boundary</text><!--entity control--><ellipse cx="45.5" cy="381" fill="#FEFECE" filter="url(#fxnvjns)" rx="12" ry="12" style="stroke: #A80036; stroke-width: 2.0;"/><polygon fill="#A80036" points="41.5,369,47.5,364,45.5,369,47.5,374,41.5,369" style="stroke: #A80036; stroke-width: 1.0;"/><text fill="#000000" font-family="sans-serif" font-size="14" lengthAdjust="spacingAndGlyphs" textLength="48" x="21.5" y="409.9951">control</text><!--entity entity--><ellipse cx="123.5" cy="381" fill="#FEFECE" filter="url(#fxnvjns)" rx="12" ry="12" style="stroke: #A80036; stroke-width: 2.0;"/><line style="stroke: #A80036; stroke-width: 2.0;" x1="111.5" x2="135.5" y1="395" y2="395"/><text fill="#000000" font-family="sans-serif" font-size="14" lengthAdjust="spacingAndGlyphs" textLength="38" x="104.5" y="409.9951">entity</text><!--entity interface--><ellipse cx="207.5" cy="381" fill="#FEFECE" filter="url(#fxnvjns)" rx="8" ry="8" style="stroke: #A80036; stroke-width: 2.0;"/><text fill="#000000" font-family="sans-serif" font-size="14" lengthAdjust="spacingAndGlyphs" textLength="60" x="177.5" y="402.9951">interface</text></g></svg>