<?xml version="1.0" encoding="UTF-8" standalone="yes"?><svg xmlns="http://www.w3.org/2000/svg" xmlns:xlink="http://www.w3.org/1999/xlink" height="188px" style="width:412px;height:188px;" version="1.1" viewBox="0 0 412 188" width="412px"><defs><filter height="300%" id="f1" width="300%" x="-1" y="-1"><feGaussianBlur result="blurOut" stdDeviation="2.0"/><feColorMatrix in="blurOut" result="blurOut2" type="matrix" values="0 0 0 0 0 0 0 0 0 0 0 0 0 0 0 0 0 0 .4 0"/><feOffset dx="4.0" dy="4.0" in="blurOut2" result="blurOut3"/><feBlend in="SourceGraphic" in2="blurOut3" mode="normal"/></filter></defs><g><rect fill="#BDB76B" filter="url(#f1)" height="52.5938" style="stroke: #A80036; stroke-width: 1.5;" width="93" x="6" y="8"/><rect fill="#BDB76B" height="5" style="stroke: #A80036; stroke-width: 1.5;" width="10" x="1" y="13"/><rect fill="#BDB76B" height="5" style="stroke: #A80036; stroke-width: 1.5;" width="10" x="1" y="50.5938"/><text fill="#000000" font-family="sans-serif" font-size="14" font-style="italic" lengthAdjust="spacingAndGlyphs" textLength="73" x="16" y="30.9951">«static lib»</text><text fill="#000000" font-family="sans-serif" font-size="14" lengthAdjust="spacingAndGlyphs" textLength="18" x="43.5" y="47.292">AA</text><rect fill="#008000" filter="url(#f1)" height="52.5938" style="stroke: #A80036; stroke-width: 1.5;" width="104" x="134.5" y="8"/><rect fill="#008000" height="5" style="stroke: #A80036; stroke-width: 1.5;" width="10" x="129.5" y="13"/><rect fill="#008000" height="5" style="stroke: #A80036; stroke-width: 1.5;" width="10" x="129.5" y="50.5938"/><text fill="#000000" font-family="sans-serif" font-size="14" font-style="italic" lengthAdjust="spacingAndGlyphs" textLength="84" x="144.5" y="30.9951">«shared lib»</text><text fill="#000000" font-family="sans-serif" font-size="14" lengthAdjust="spacingAndGlyphs" textLength="20" x="176.5" y="47.292">BB</text><rect fill="#BDB76B" filter="url(#f1)" height="52.5938" style="stroke: #A80036; stroke-width: 1.5;" width="93" x="274" y="8"/><rect fill="#BDB76B" height="5" style="stroke: #A80036; stroke-width: 1.5;" width="10" x="269" y="13"/><rect fill="#BDB76B" height="5" style="stroke: #A80036; stroke-width: 1.5;" width="10" x="269" y="50.5938"/><text fill="#000000" font-family="sans-serif" font-size="14" font-style="italic" lengthAdjust="spacingAndGlyphs" textLength="73" x="284" y="30.9951">«static lib»</text><text fill="#000000" font-family="sans-serif" font-size="14" lengthAdjust="spacingAndGlyphs" textLength="20" x="310.5" y="47.292">CC</text><polygon fill="#FFFF00" filter="url(#f1)" points="10,139.5,20,129.5,95,129.5,95,165.7969,85,175.7969,10,175.7969,10,139.5" style="stroke: #008000; stroke-width: 1.5;"/><line style="stroke: #008000; stroke-width: 1.5;" x1="85" x2="94" y1="139.5" y2="130.5"/><line style="stroke: #008000; stroke-width: 1.5;" x1="10" x2="85" y1="139.5" y2="139.5"/><line style="stroke: #008000; stroke-width: 1.5;" x1="85" x2="85" y1="139.5" y2="175.7969"/><text fill="#000000" font-family="sans-serif" font-size="14" lengthAdjust="spacingAndGlyphs" textLength="45" x="25" y="162.4951">node1</text><polygon fill="#FF00FF" filter="url(#f1)" points="130,131,140,121,275,121,275,173.5938,265,183.5938,130,183.5938,130,131" style="stroke: #008000; stroke-width: 1.5;"/><line style="stroke: #008000; stroke-width: 1.5;" x1="265" x2="274" y1="131" y2="122"/><line style="stroke: #008000; stroke-width: 1.5;" x1="130" x2="265" y1="131" y2="131"/><line style="stroke: #008000; stroke-width: 1.5;" x1="265" x2="265" y1="131" y2="183.5938"/><text fill="#000000" font-family="sans-serif" font-size="14" font-style="italic" lengthAdjust="spacingAndGlyphs" textLength="105" x="145" y="153.9951">«shared node»</text><text fill="#000000" font-family="sans-serif" font-size="14" lengthAdjust="spacingAndGlyphs" textLength="45" x="175" y="170.292">node2</text><path d="M310,142 C310,132 357.5,132 357.5,132 C357.5,132 405,132 405,142 L405,163.2969 C405,173.2969 357.5,173.2969 357.5,173.2969 C357.5,173.2969 310,173.2969 310,163.2969 L310,142 " fill="#00FFFF" filter="url(#f1)" style="stroke: #000000; stroke-width: 1.5;"/><path d="M310,142 C310,152 357.5,152 357.5,152 C357.5,152 405,152 405,142 " fill="none" style="stroke: #000000; stroke-width: 1.5;"/><text fill="#000000" font-family="sans-serif" font-size="14" lengthAdjust="spacingAndGlyphs" textLength="75" x="320" y="164.9951">Production</text></g></svg>