<?xml version="1.0" encoding="UTF-8" standalone="yes"?><svg xmlns="http://www.w3.org/2000/svg" xmlns:xlink="http://www.w3.org/1999/xlink" height="80px" style="width:371px;height:80px;" version="1.1" viewBox="0 0 371 80" width="371px"><defs/><g><text fill="#000000" font-family="Default" font-size="12" lengthAdjust="spacingAndGlyphs" textLength="36" x="6" y="17.1387">Name</text><text fill="#000000" font-family="Default" font-size="12" lengthAdjust="spacingAndGlyphs" textLength="0" x="88" y="17.1387"/><line style="stroke: #000000; stroke-width: 1.0;" x1="82" x2="221" y1="19.9688" y2="19.9688"/><line style="stroke: #000000; stroke-width: 1.0;" x1="82" x2="82" y1="16.9688" y2="18.9688"/><line style="stroke: #000000; stroke-width: 1.0;" x1="221" x2="221" y1="16.9688" y2="18.9688"/><text fill="#000000" font-family="Default" font-size="12" lengthAdjust="spacingAndGlyphs" textLength="60" x="6" y="35.1074">Modifiers:</text><text fill="#000000" font-family="Default" font-size="12" lengthAdjust="spacingAndGlyphs" textLength="37" x="102" y="36.1074">public</text><ellipse cx="89" cy="31.9531" fill="none" rx="5" ry="5" style="stroke: #000000; stroke-width: 1.5;"/><ellipse cx="89" cy="31.9531" fill="#000000" rx="2" ry="2" style="stroke: #000000; stroke-width: 1.5;"/><text fill="#000000" font-family="Default" font-size="12" lengthAdjust="spacingAndGlyphs" textLength="44" x="177" y="36.1074">default</text><ellipse cx="164" cy="31.9531" fill="none" rx="5" ry="5" style="stroke: #000000; stroke-width: 1.5;"/><text fill="#000000" font-family="Default" font-size="12" lengthAdjust="spacingAndGlyphs" textLength="43" x="243" y="36.1074">private</text><ellipse cx="230" cy="31.9531" fill="none" rx="5" ry="5" style="stroke: #000000; stroke-width: 1.5;"/><text fill="#000000" font-family="Default" font-size="12" lengthAdjust="spacingAndGlyphs" textLength="62" x="308" y="36.1074">protected</text><ellipse cx="295" cy="31.9531" fill="none" rx="5" ry="5" style="stroke: #000000; stroke-width: 1.5;"/><text fill="#000000" font-family="Default" font-size="12" lengthAdjust="spacingAndGlyphs" textLength="53" x="102" y="52.0762">abstract</text><rect fill="none" height="10" style="stroke: #000000; stroke-width: 1.5;" width="10" x="84" y="42.9219"/><text fill="#000000" font-family="Default" font-size="12" lengthAdjust="spacingAndGlyphs" textLength="26" x="177" y="52.0762">final</text><rect fill="none" height="10" style="stroke: #000000; stroke-width: 1.5;" width="10" x="159" y="42.9219"/><text fill="#000000" font-family="Default" font-size="12" lengthAdjust="spacingAndGlyphs" textLength="35" x="243" y="52.0762">static</text><rect fill="none" height="10" style="stroke: #000000; stroke-width: 1.5;" width="10" x="225" y="42.9219"/><text fill="#000000" font-family="Default" font-size="12" lengthAdjust="spacingAndGlyphs" textLength="73" x="6" y="69.0449">Superclass:</text><text fill="#000000" font-family="Default" font-size="12" lengthAdjust="spacingAndGlyphs" textLength="100" x="85" y="70.0449">java.lang.Object</text><line style="stroke: #000000; stroke-width: 1.0;" x1="83" x2="222" y1="72.875" y2="72.875"/><line style="stroke: #000000; stroke-width: 1.0;" x1="83" x2="83" y1="69.875" y2="71.875"/><line style="stroke: #000000; stroke-width: 1.0;" x1="222" x2="222" y1="69.875" y2="71.875"/><rect fill="#EEEEEE" height="17.9688" rx="5" ry="5" style="stroke: #000000; stroke-width: 2.5;" width="76" x="228.5" y="61.4063"/><text fill="#000000" font-family="Default" font-size="12" lengthAdjust="spacingAndGlyphs" textLength="57" x="238" y="74.5449">Browse...</text></g></svg>