<?xml version="1.0" encoding="UTF-8" standalone="yes"?><svg xmlns="http://www.w3.org/2000/svg" xmlns:xlink="http://www.w3.org/1999/xlink" height="66px" style="width:148px;height:66px;" version="1.1" viewBox="0 0 148 66" width="148px"><defs/><g><text fill="#000000" font-family="Default" font-size="12" lengthAdjust="spacingAndGlyphs" textLength="33" x="6" y="17.1387">Login</text><text fill="#000000" font-family="Default" font-size="12" lengthAdjust="spacingAndGlyphs" textLength="52" x="71" y="17.1387">MyName</text><line style="stroke: #000000; stroke-width: 1.0;" x1="69" x2="144" y1="19.9688" y2="19.9688"/><line style="stroke: #000000; stroke-width: 1.0;" x1="69" x2="69" y1="16.9688" y2="18.9688"/><line style="stroke: #000000; stroke-width: 1.0;" x1="144" x2="144" y1="16.9688" y2="18.9688"/><text fill="#000000" font-family="Default" font-size="12" lengthAdjust="spacingAndGlyphs" textLength="60" x="6" y="35.1074">Password</text><text fill="#000000" font-family="Default" font-size="12" lengthAdjust="spacingAndGlyphs" textLength="24" x="71" y="35.1074">****</text><line style="stroke: #000000; stroke-width: 1.0;" x1="69" x2="144" y1="37.9375" y2="37.9375"/><line style="stroke: #000000; stroke-width: 1.0;" x1="69" x2="69" y1="34.9375" y2="36.9375"/><line style="stroke: #000000; stroke-width: 1.0;" x1="144" x2="144" y1="34.9375" y2="36.9375"/><rect fill="#EEEEEE" height="17.9688" rx="5" ry="5" style="stroke: #000000; stroke-width: 2.5;" width="52" x="8.5" y="44.4375"/><text fill="#000000" font-family="Default" font-size="12" lengthAdjust="spacingAndGlyphs" textLength="42" x="13.5" y="57.5762">Cancel</text><rect fill="#EEEEEE" height="17.9688" rx="5" ry="5" style="stroke: #000000; stroke-width: 2.5;" width="60" x="70.5" y="44.4375"/><text fill="#000000" font-family="Default" font-size="12" lengthAdjust="spacingAndGlyphs" textLength="16" x="92.5" y="57.5762">OK</text><line style="stroke: #000000; stroke-width: 1.0;" x1="5" x2="67" y1="5" y2="5"/><line style="stroke: #000000; stroke-width: 1.0;" x1="67" x2="147" y1="5" y2="5"/><line style="stroke: #000000; stroke-width: 1.0;" x1="5" x2="67" y1="65.9063" y2="65.9063"/><line style="stroke: #000000; stroke-width: 1.0;" x1="67" x2="147" y1="65.9063" y2="65.9063"/><line style="stroke: #000000; stroke-width: 1.0;" x1="5" x2="5" y1="5" y2="22.9688"/><line style="stroke: #000000; stroke-width: 1.0;" x1="147" x2="147" y1="40.9375" y2="65.9063"/><line style="stroke: #000000; stroke-width: 1.0;" x1="147" x2="147" y1="22.9688" y2="40.9375"/><line style="stroke: #000000; stroke-width: 1.0;" x1="147" x2="147" y1="5" y2="22.9688"/><line style="stroke: #000000; stroke-width: 1.0;" x1="5" x2="5" y1="40.9375" y2="65.9063"/><line style="stroke: #000000; stroke-width: 1.0;" x1="5" x2="5" y1="22.9688" y2="40.9375"/></g></svg>