<?xml version="1.0" encoding="UTF-8" standalone="yes"?><svg xmlns="http://www.w3.org/2000/svg" xmlns:xlink="http://www.w3.org/1999/xlink" height="91px" style="width:257px;height:91px;" version="1.1" viewBox="0 0 257 91" width="257px"><defs/><g><rect fill="#EEEEEE" height="17.9688" rx="5" ry="5" style="stroke: #000000; stroke-width: 2.5;" width="164" x="8.5" y="8.5"/><text fill="#000000" font-family="Default" font-size="12" lengthAdjust="spacingAndGlyphs" textLength="121" x="30" y="21.6387">Draw grid lines with</text><text fill="#000000" font-family="Default" font-size="12" lengthAdjust="spacingAndGlyphs" textLength="41" x="177" y="17.1387">! + - #</text><path d="M11,33.9375 C9.895,33.9375 9,35.0565 9,36.4375 C9,37.8185 9.895,38.9375 11,38.9375 C12.105,38.9375 13,37.8185 13,36.4375 C13,35.0565 12.105,33.9375 11,33.9375 M8.906,38.9375 C7.836,38.9775 7,39.8575 7,40.9375 L7,41.9375 L15,41.9375 L15,40.9375 C15,39.8575 14.164,38.9775 13.094,38.9375 C12.554,39.5475 11.81,39.9375 11,39.9375 C10.19,39.9375 9.446,39.5475 8.906,38.9375 " fill="#000000" style="stroke: ; stroke-width: 0.0; stroke-dasharray: ;"/><text fill="#000000" font-family="Default" font-size="12" lengthAdjust="spacingAndGlyphs" textLength="33" x="20" y="42.1074">Login</text><text fill="#000000" font-family="Default" font-size="12" lengthAdjust="spacingAndGlyphs" textLength="52" x="180" y="42.1074">MyName</text><line style="stroke: #000000; stroke-width: 1.0;" x1="178" x2="253" y1="44.9375" y2="44.9375"/><line style="stroke: #000000; stroke-width: 1.0;" x1="178" x2="178" y1="41.9375" y2="43.9375"/><line style="stroke: #000000; stroke-width: 1.0;" x1="253" x2="253" y1="41.9375" y2="43.9375"/><path d="M12.5,51.9063 C11.12,51.9063 10,53.0263 10,54.4063 C10,54.5663 10.033,54.7033 10.063,54.8443 L7,57.9073 L7,59.9073 L10,59.9073 L10,57.9073 L12,57.9073 L12,56.9073 L12.063,56.8443 C12.203,56.8743 12.34,56.9073 12.501,56.9073 C13.881,56.9073 15.001,55.7873 15.001,54.4073 C15.001,53.0273 13.881,51.9073 12.501,51.9073 M13.001,52.9073 C13.551,52.9073 14.001,53.3573 14.001,53.9073 C14.001,54.4573 13.551,54.9073 13.001,54.9073 C12.451,54.9073 12.001,54.4573 12.001,53.9073 C12.001,53.3573 12.451,52.9073 13.001,52.9073 " fill="#000000" style="stroke: ; stroke-width: 0.0; stroke-dasharray: ;"/><text fill="#000000" font-family="Default" font-size="12" lengthAdjust="spacingAndGlyphs" textLength="60" x="20" y="60.0762">Password</text><text fill="#000000" font-family="Default" font-size="12" lengthAdjust="spacingAndGlyphs" textLength="24" x="180" y="60.0762">****</text><line style="stroke: #000000; stroke-width: 1.0;" x1="178" x2="253" y1="62.9063" y2="62.9063"/><line style="stroke: #000000; stroke-width: 1.0;" x1="178" x2="178" y1="59.9063" y2="61.9063"/><line style="stroke: #000000; stroke-width: 1.0;" x1="253" x2="253" y1="59.9063" y2="61.9063"/><rect fill="#EEEEEE" height="17.9688" rx="5" ry="5" style="stroke: #000000; stroke-width: 2.5;" width="76" x="8.5" y="69.4063"/><text fill="#000000" font-family="Default" font-size="12" lengthAdjust="spacingAndGlyphs" textLength="42" x="18.5" y="82.5449">Cancel</text><path d="M69.5,74.375 C67.29,74.375 65.5,76.165 65.5,78.375 C65.5,80.585 67.29,82.375 69.5,82.375 C71.71,82.375 73.5,80.585 73.5,78.375 C73.5,76.165 71.71,74.375 69.5,74.375 M68,76.156 L69.5,77.656 L71,76.156 L71.719,76.875 L70.219,78.375 L71.719,79.875 L71,80.594 L69.5,79.094 L68,80.594 L67.281,79.875 L68.781,78.375 L67.281,76.875 L68,76.156 " fill="#000000" style="stroke: ; stroke-width: 0.0; stroke-dasharray: ;"/><rect fill="#EEEEEE" height="17.9688" rx="5" ry="5" style="stroke: #000000; stroke-width: 2.5;" width="44" x="179.5" y="69.4063"/><text fill="#000000" font-family="Default" font-size="12" lengthAdjust="spacingAndGlyphs" textLength="16" x="186.5" y="82.5449">OK</text><path d="M210.5,74.375 L210.5,75.375 L214.5,75.375 L214.5,80.375 L210.5,80.375 L210.5,81.375 L215.5,81.375 L215.5,74.375 L210.5,74.375 M211.5,76.375 L211.5,77.375 L207.5,77.375 L207.5,78.375 L211.5,78.375 L211.5,79.375 L213.5,77.875 L211.5,76.375 " fill="#000000" style="stroke: ; stroke-width: 0.0; stroke-dasharray: ;"/><line style="stroke: #000000; stroke-width: 1.0;" x1="5" x2="176" y1="5" y2="5"/><line style="stroke: #000000; stroke-width: 1.0;" x1="176" x2="256" y1="29.9688" y2="29.9688"/><line style="stroke: #000000; stroke-width: 1.0;" x1="176" x2="256" y1="5" y2="5"/><line style="stroke: #000000; stroke-width: 1.0;" x1="5" x2="176" y1="90.875" y2="90.875"/><line style="stroke: #000000; stroke-width: 1.0;" x1="176" x2="256" y1="90.875" y2="90.875"/><line style="stroke: #000000; stroke-width: 1.0;" x1="5" x2="176" y1="65.9063" y2="65.9063"/><line style="stroke: #000000; stroke-width: 1.0;" x1="5" x2="176" y1="47.9375" y2="47.9375"/><line style="stroke: #000000; stroke-width: 1.0;" x1="176" x2="256" y1="65.9063" y2="65.9063"/><line style="stroke: #000000; stroke-width: 1.0;" x1="5" x2="176" y1="29.9688" y2="29.9688"/><line style="stroke: #000000; stroke-width: 1.0;" x1="176" x2="256" y1="47.9375" y2="47.9375"/><line style="stroke: #000000; stroke-width: 1.0;" x1="5" x2="5" y1="5" y2="29.9688"/><line style="stroke: #000000; stroke-width: 1.0;" x1="256" x2="256" y1="47.9375" y2="65.9063"/><line style="stroke: #000000; stroke-width: 1.0;" x1="176" x2="176" y1="29.9688" y2="47.9375"/><line style="stroke: #000000; stroke-width: 1.0;" x1="256" x2="256" y1="29.9688" y2="47.9375"/><line style="stroke: #000000; stroke-width: 1.0;" x1="176" x2="176" y1="5" y2="29.9688"/><line style="stroke: #000000; stroke-width: 1.0;" x1="256" x2="256" y1="5" y2="29.9688"/><line style="stroke: #000000; stroke-width: 1.0;" x1="5" x2="5" y1="65.9063" y2="90.875"/><line style="stroke: #000000; stroke-width: 1.0;" x1="5" x2="5" y1="47.9375" y2="65.9063"/><line style="stroke: #000000; stroke-width: 1.0;" x1="176" x2="176" y1="65.9063" y2="90.875"/><line style="stroke: #000000; stroke-width: 1.0;" x1="5" x2="5" y1="29.9688" y2="47.9375"/><line style="stroke: #000000; stroke-width: 1.0;" x1="256" x2="256" y1="65.9063" y2="90.875"/><line style="stroke: #000000; stroke-width: 1.0;" x1="176" x2="176" y1="47.9375" y2="65.9063"/></g></svg>