<?xml version="1.0" encoding="UTF-8" standalone="yes"?><svg xmlns="http://www.w3.org/2000/svg" xmlns:xlink="http://www.w3.org/1999/xlink" height="175px" style="width:144px;height:175px;" version="1.1" viewBox="0 0 144 175" width="144px"><defs/><g><text fill="#000000" font-family="Default" font-size="12" font-weight="bold" lengthAdjust="spacingAndGlyphs" textLength="42" x="16" y="17.1387">World</text><text fill="#0000FF" font-family="Default" font-size="12" lengthAdjust="spacingAndGlyphs" textLength="50" x="26" y="31.1074">America</text><text fill="#000000" font-family="Default" font-size="12" lengthAdjust="spacingAndGlyphs" textLength="8" x="114" y="31.1074">a</text><text fill="#000000" font-family="Default" font-size="12" lengthAdjust="spacingAndGlyphs" textLength="8" x="132" y="31.1074">b</text><text fill="#000000" font-family="Default" font-size="12" lengthAdjust="spacingAndGlyphs" textLength="48" x="36" y="45.0762">Canada</text><text fill="#FF0000" font-family="Default" font-size="12" lengthAdjust="spacingAndGlyphs" textLength="25" x="36" y="59.0449">USA</text><text fill="#000000" font-family="Default" font-size="12" font-style="italic" lengthAdjust="spacingAndGlyphs" textLength="58" x="46" y="73.0137">New York</text><text fill="#000000" font-family="Default" font-size="12" lengthAdjust="spacingAndGlyphs" text-decoration="underline" textLength="44" x="46" y="86.9824">Boston</text><line style="stroke: #000000; stroke-width: 1.0;" x1="46" x2="90" y1="88.9824" y2="88.9824"/><text fill="#000000" font-family="Default" font-size="12" lengthAdjust="spacingAndGlyphs" textLength="42" x="36" y="100.9512">Mexico</text><text fill="#008000" font-family="Default" font-size="12" lengthAdjust="spacingAndGlyphs" textLength="45" x="26" y="114.9199">Europe</text><text fill="#000000" font-family="Default" font-size="12" lengthAdjust="spacingAndGlyphs" textLength="6" x="114" y="114.9199">x</text><text fill="#000000" font-family="Default" font-size="12" lengthAdjust="spacingAndGlyphs" textLength="6" x="132" y="114.9199">y</text><text fill="#000000" font-family="Default" font-size="12" lengthAdjust="spacingAndGlyphs" textLength="25" x="36" y="128.8887">Italy</text><text fill="#000000" font-family="Default" font-size="12" lengthAdjust="spacingAndGlyphs" textLength="55" x="36" y="142.8574">Germany</text><text fill="#000000" font-family="Default" font-size="12" lengthAdjust="spacingAndGlyphs" textLength="35" x="46" y="156.8262">Berlin</text><text fill="#000000" font-family="Default" font-size="12" lengthAdjust="spacingAndGlyphs" textLength="35" x="26" y="170.7949">Africa</text><rect fill="none" height="2" style="stroke: #888888; stroke-width: 1.0;" width="2" x="9" y="11.9844"/><rect fill="none" height="2" style="stroke: #888888; stroke-width: 1.0;" width="2" x="19" y="25.9531"/><line style="stroke: #888888; stroke-width: 1.0;" x1="10" x2="10" y1="14.9844" y2="26.9531"/><line style="stroke: #888888; stroke-width: 1.0;" x1="10" x2="18" y1="26.9531" y2="26.9531"/><line style="stroke: #888888; stroke-width: 1.0;" x1="20" x2="20" y1="28.9531" y2="40.9219"/><line style="stroke: #888888; stroke-width: 1.0;" x1="20" x2="28" y1="40.9219" y2="40.9219"/><rect fill="none" height="2" style="stroke: #888888; stroke-width: 1.0;" width="2" x="29" y="53.8906"/><line style="stroke: #888888; stroke-width: 1.0;" x1="20" x2="20" y1="28.9531" y2="54.8906"/><line style="stroke: #888888; stroke-width: 1.0;" x1="20" x2="28" y1="54.8906" y2="54.8906"/><line style="stroke: #888888; stroke-width: 1.0;" x1="30" x2="30" y1="56.8906" y2="68.8594"/><line style="stroke: #888888; stroke-width: 1.0;" x1="30" x2="38" y1="68.8594" y2="68.8594"/><line style="stroke: #888888; stroke-width: 1.0;" x1="30" x2="30" y1="56.8906" y2="82.8281"/><line style="stroke: #888888; stroke-width: 1.0;" x1="30" x2="38" y1="82.8281" y2="82.8281"/><line style="stroke: #888888; stroke-width: 1.0;" x1="20" x2="20" y1="28.9531" y2="96.7969"/><line style="stroke: #888888; stroke-width: 1.0;" x1="20" x2="28" y1="96.7969" y2="96.7969"/><rect fill="none" height="2" style="stroke: #888888; stroke-width: 1.0;" width="2" x="19" y="109.7656"/><line style="stroke: #888888; stroke-width: 1.0;" x1="10" x2="10" y1="14.9844" y2="110.7656"/><line style="stroke: #888888; stroke-width: 1.0;" x1="10" x2="18" y1="110.7656" y2="110.7656"/><line style="stroke: #888888; stroke-width: 1.0;" x1="20" x2="20" y1="112.7656" y2="124.7344"/><line style="stroke: #888888; stroke-width: 1.0;" x1="20" x2="28" y1="124.7344" y2="124.7344"/><rect fill="none" height="2" style="stroke: #888888; stroke-width: 1.0;" width="2" x="29" y="137.7031"/><line style="stroke: #888888; stroke-width: 1.0;" x1="20" x2="20" y1="112.7656" y2="138.7031"/><line style="stroke: #888888; stroke-width: 1.0;" x1="20" x2="28" y1="138.7031" y2="138.7031"/><line style="stroke: #888888; stroke-width: 1.0;" x1="30" x2="30" y1="140.7031" y2="152.6719"/><line style="stroke: #888888; stroke-width: 1.0;" x1="30" x2="38" y1="152.6719" y2="152.6719"/><line style="stroke: #888888; stroke-width: 1.0;" x1="10" x2="10" y1="14.9844" y2="166.6406"/><line style="stroke: #888888; stroke-width: 1.0;" x1="10" x2="18" y1="166.6406" y2="166.6406"/><line style="stroke: #000000; stroke-width: 1.0;" x1="5" x2="143" y1="5" y2="5"/><line style="stroke: #000000; stroke-width: 1.0;" x1="5" x2="143" y1="174.625" y2="174.625"/><line style="stroke: #000000; stroke-width: 1.0;" x1="5" x2="5" y1="5" y2="174.625"/><line style="stroke: #000000; stroke-width: 1.0;" x1="143" x2="143" y1="5" y2="174.625"/></g></svg>