<?xml version="1.0" encoding="UTF-8" standalone="yes"?><svg xmlns="http://www.w3.org/2000/svg" xmlns:xlink="http://www.w3.org/1999/xlink" height="123px" style="width:282px;height:123px;" version="1.1" viewBox="0 0 282 123" width="282px"><defs/><g><text fill="#000000" font-family="Default" font-size="12" font-weight="bold" lengthAdjust="spacingAndGlyphs" textLength="56" x="6" y="19.1387">General</text><line style="stroke: #000000; stroke-width: 1.0;" x1="6" x2="70" y1="6" y2="6"/><line style="stroke: #000000; stroke-width: 1.0;" x1="6" x2="6" y1="6" y2="24.9688"/><line style="stroke: #000000; stroke-width: 1.0;" x1="6" x2="70" y1="24.9688" y2="24.9688"/><line style="stroke: #000000; stroke-width: 1.0;" x1="70" x2="70" y1="24.9688" y2="34.9688"/><text fill="#000000" font-family="Default" font-size="12" lengthAdjust="spacingAndGlyphs" textLength="64" x="6" y="48.1074">Fullscreen</text><line style="stroke: #000000; stroke-width: 1.0;" x1="6" x2="70" y1="34.9688" y2="34.9688"/><line style="stroke: #000000; stroke-width: 1.0;" x1="6" x2="6" y1="34.9688" y2="53.9375"/><line style="stroke: #000000; stroke-width: 1.0;" x1="6" x2="70" y1="53.9375" y2="53.9375"/><line style="stroke: #000000; stroke-width: 1.0;" x1="70" x2="70" y1="53.9375" y2="63.9375"/><text fill="#000000" font-family="Default" font-size="12" lengthAdjust="spacingAndGlyphs" textLength="54" x="6" y="77.0762">Behavior</text><line style="stroke: #000000; stroke-width: 1.0;" x1="6" x2="70" y1="63.9375" y2="63.9375"/><line style="stroke: #000000; stroke-width: 1.0;" x1="6" x2="6" y1="63.9375" y2="82.9063"/><line style="stroke: #000000; stroke-width: 1.0;" x1="6" x2="70" y1="82.9063" y2="82.9063"/><line style="stroke: #000000; stroke-width: 1.0;" x1="70" x2="70" y1="82.9063" y2="92.9063"/><text fill="#000000" font-family="Default" font-size="12" lengthAdjust="spacingAndGlyphs" textLength="41" x="6" y="106.0449">Saving</text><line style="stroke: #000000; stroke-width: 1.0;" x1="6" x2="70" y1="92.9063" y2="92.9063"/><line style="stroke: #000000; stroke-width: 1.0;" x1="6" x2="6" y1="92.9063" y2="111.875"/><line style="stroke: #000000; stroke-width: 1.0;" x1="6" x2="70" y1="111.875" y2="111.875"/><line style="stroke: #000000; stroke-width: 1.0;" x1="70" x2="70" y1="111.875" y2="121.875"/><text fill="#000000" font-family="Default" font-size="12" lengthAdjust="spacingAndGlyphs" textLength="94" x="74" y="19.1387">Open image in:</text><rect fill="#EEEEEE" height="16.9688" style="stroke: #000000; stroke-width: 1.0;" width="95" x="170" y="8"/><text fill="#000000" font-family="Default" font-size="12" lengthAdjust="spacingAndGlyphs" textLength="75" x="172" y="21.1387">Smart Mode</text><line style="stroke: #000000; stroke-width: 1.0;" x1="254" x2="254" y1="8" y2="24.9688"/><polygon fill="#000000" points="257,14,263,14,260,19.9688" style="stroke: #000000; stroke-width: 1.0;"/><text fill="#000000" font-family="Default" font-size="12" lengthAdjust="spacingAndGlyphs" textLength="186" x="93" y="40.1074">Smooth images when zoomed</text><rect fill="none" height="10" style="stroke: #000000; stroke-width: 1.5;" width="10" x="75" y="30.9531"/><polygon fill="#000000" points="76,34.9688,79,37.9688,86,28.9688,79,35.9688" style="stroke: #000000; stroke-width: 1.5;"/><text fill="#000000" font-family="Default" font-size="12" lengthAdjust="spacingAndGlyphs" textLength="144" x="93" y="56.0762">Confirm image deletion</text><rect fill="none" height="10" style="stroke: #000000; stroke-width: 1.5;" width="10" x="75" y="46.9219"/><polygon fill="#000000" points="76,50.9375,79,53.9375,86,44.9375,79,51.9375" style="stroke: #000000; stroke-width: 1.5;"/><text fill="#000000" font-family="Default" font-size="12" lengthAdjust="spacingAndGlyphs" textLength="129" x="93" y="72.0449">Show hidden images</text><rect fill="none" height="10" style="stroke: #000000; stroke-width: 1.5;" width="10" x="75" y="62.8906"/><rect fill="#EEEEEE" height="17.9688" rx="5" ry="5" style="stroke: #000000; stroke-width: 2.5;" width="44" x="75.5" y="79.375"/><text fill="#000000" font-family="Default" font-size="12" lengthAdjust="spacingAndGlyphs" textLength="34" x="80.5" y="92.5137">Close</text><line style="stroke: #000000; stroke-width: 1.0;" x1="5" x2="71" y1="5" y2="5"/><line style="stroke: #000000; stroke-width: 1.0;" x1="71" x2="281" y1="122.875" y2="122.875"/><line style="stroke: #000000; stroke-width: 1.0;" x1="71" x2="281" y1="5" y2="5"/><line style="stroke: #000000; stroke-width: 1.0;" x1="5" x2="71" y1="122.875" y2="122.875"/><line style="stroke: #000000; stroke-width: 1.0;" x1="5" x2="5" y1="5" y2="122.875"/><line style="stroke: #000000; stroke-width: 1.0;" x1="281" x2="281" y1="5" y2="122.875"/></g></svg>