<?xml version="1.0" encoding="UTF-8" standalone="yes"?><svg xmlns="http://www.w3.org/2000/svg" xmlns:xlink="http://www.w3.org/1999/xlink" height="161px" style="width:435px;height:161px;" version="1.1" viewBox="0 0 435 161" width="435px"><defs><filter height="300%" id="f1" width="300%" x="-1" y="-1"><feGaussianBlur result="blurOut" stdDeviation="2.0"/><feColorMatrix in="blurOut" result="blurOut2" type="matrix" values="0 0 0 0 0 0 0 0 0 0 0 0 0 0 0 0 0 0 .4 0"/><feOffset dx="4.0" dy="4.0" in="blurOut2" result="blurOut3"/><feBlend in="SourceGraphic" in2="blurOut3" mode="normal"/></filter></defs><g><rect fill="#FEFECE" filter="url(#f1)" height="33.9688" style="stroke: #A80036; stroke-width: 1.5;" width="70" x="6" y="8"/><text fill="#000000" font-family="sans-serif" font-size="12" lengthAdjust="spacingAndGlyphs" textLength="56" x="13" y="21.1387">Object01</text><line style="stroke: #A80036; stroke-width: 1.5;" x1="7" x2="75" y1="25.9688" y2="25.9688"/><rect fill="#FEFECE" filter="url(#f1)" height="33.9688" style="stroke: #A80036; stroke-width: 1.5;" width="70" x="6" y="119"/><text fill="#000000" font-family="sans-serif" font-size="12" lengthAdjust="spacingAndGlyphs" textLength="56" x="13" y="132.1387">Object02</text><line style="stroke: #A80036; stroke-width: 1.5;" x1="7" x2="75" y1="136.9688" y2="136.9688"/><rect fill="#FEFECE" filter="url(#f1)" height="33.9688" style="stroke: #A80036; stroke-width: 1.5;" width="70" x="111" y="8"/><text fill="#000000" font-family="sans-serif" font-size="12" lengthAdjust="spacingAndGlyphs" textLength="56" x="118" y="21.1387">Object03</text><line style="stroke: #A80036; stroke-width: 1.5;" x1="112" x2="180" y1="25.9688" y2="25.9688"/><rect fill="#FEFECE" filter="url(#f1)" height="33.9688" style="stroke: #A80036; stroke-width: 1.5;" width="70" x="111" y="119"/><text fill="#000000" font-family="sans-serif" font-size="12" lengthAdjust="spacingAndGlyphs" textLength="56" x="118" y="132.1387">Object04</text><line style="stroke: #A80036; stroke-width: 1.5;" x1="112" x2="180" y1="136.9688" y2="136.9688"/><rect fill="#FEFECE" filter="url(#f1)" height="33.9688" style="stroke: #A80036; stroke-width: 1.5;" width="70" x="216" y="8"/><text fill="#000000" font-family="sans-serif" font-size="12" lengthAdjust="spacingAndGlyphs" textLength="56" x="223" y="21.1387">Object05</text><line style="stroke: #A80036; stroke-width: 1.5;" x1="217" x2="285" y1="25.9688" y2="25.9688"/><rect fill="#FEFECE" filter="url(#f1)" height="33.9688" style="stroke: #A80036; stroke-width: 1.5;" width="70" x="216" y="119"/><text fill="#000000" font-family="sans-serif" font-size="12" lengthAdjust="spacingAndGlyphs" textLength="56" x="223" y="132.1387">Object06</text><line style="stroke: #A80036; stroke-width: 1.5;" x1="217" x2="285" y1="136.9688" y2="136.9688"/><rect fill="#FEFECE" filter="url(#f1)" height="33.9688" style="stroke: #A80036; stroke-width: 1.5;" width="70" x="321" y="8"/><text fill="#000000" font-family="sans-serif" font-size="12" lengthAdjust="spacingAndGlyphs" textLength="56" x="328" y="21.1387">Object07</text><line style="stroke: #A80036; stroke-width: 1.5;" x1="322" x2="390" y1="25.9688" y2="25.9688"/><rect fill="#FEFECE" filter="url(#f1)" height="33.9688" style="stroke: #A80036; stroke-width: 1.5;" width="70" x="321" y="119"/><text fill="#000000" font-family="sans-serif" font-size="12" lengthAdjust="spacingAndGlyphs" textLength="56" x="328" y="132.1387">Object08</text><line style="stroke: #A80036; stroke-width: 1.5;" x1="322" x2="390" y1="136.9688" y2="136.9688"/><path d="M41,62.3472 C41,81.4941 41,104.0157 41,118.8507 " fill="none" style="stroke: #A80036; stroke-width: 1.0;"/><polygon fill="none" points="34.0001,62.0834,41,42.083,48.0001,62.0833,34.0001,62.0834" style="stroke: #A80036; stroke-width: 1.0;"/><path d="M146,55.3469 C146,75.7436 146,102.1613 146,118.8507 " fill="none" style="stroke: #A80036; stroke-width: 1.0;"/><polygon fill="#A80036" points="146,42.083,142,48.083,146,54.083,150,48.083,146,42.083" style="stroke: #A80036; stroke-width: 1.0;"/><path d="M251,55.3469 C251,75.7436 251,102.1613 251,118.8507 " fill="none" style="stroke: #A80036; stroke-width: 1.0;"/><polygon fill="none" points="251,42.083,247,48.083,251,54.083,255,48.083,251,42.083" style="stroke: #A80036; stroke-width: 1.0;"/><text fill="#000000" font-family="sans-serif" font-size="13" lengthAdjust="spacingAndGlyphs" textLength="8" x="241.725" y="108.0868">4</text><path d="M356,42.083 C356,62.6916 356,98.2107 356,118.8507 " fill="none" style="stroke: #A80036; stroke-width: 1.0; stroke-dasharray: 7.0,7.0;"/><text fill="#000000" font-family="sans-serif" font-size="13" lengthAdjust="spacingAndGlyphs" textLength="77" x="357" y="85.0669">some labels</text></g></svg>