<?xml version="1.0" encoding="UTF-8" standalone="yes"?><svg xmlns="http://www.w3.org/2000/svg" xmlns:xlink="http://www.w3.org/1999/xlink" height="176px" style="width:192px;height:176px;" version="1.1" viewBox="0 0 192 176" width="192px"><defs><filter height="300%" id="f1" width="300%" x="-1" y="-1"><feGaussianBlur result="blurOut" stdDeviation="2.0"/><feColorMatrix in="blurOut" result="blurOut2" type="matrix" values="0 0 0 0 0 0 0 0 0 0 0 0 0 0 0 0 0 0 .4 0"/><feOffset dx="4.0" dy="4.0" in="blurOut2" result="blurOut3"/><feBlend in="SourceGraphic" in2="blurOut3" mode="normal"/></filter></defs><g><polygon fill="#ADD8E6" points="4,4,4,4.5292,14,3.6588,24,3.5201,34,4.1081,44,3.2709,54,3.2962,64,4.6232,74,3.5995,84,3.7254,94,3.3916,104,4.0899,114,4.072,124,4,124.4992,4,124.6827,14.0584,124.3714,24.1167,124.1698,34.1751,123.5205,44.2335,123.5053,54.2918,124.2802,64.3502,123.5925,74.4085,124.4528,84.4669,124.1985,94.5253,124.3092,104.5836,123.7794,114.642,123.3578,124.7004,123.8857,134.7587,123.5726,144.8171,123.6161,154.8755,123.8933,164.9338,124,174.9922,124,175.5534,114,174.7755,104,175.1667,94,174.8248,84,175.088,74,174.4616,64,175.0262,54,174.876,44,174.7819,34,174.856,24,175.3433,14,174.6838,4,174.9922,3.4444,174.9922,3.5975,164.9338,3.5341,154.8755,4.0078,144.8171,4.0944,134.7587,3.4642,124.7004,4.1547,114.642,3.3228,104.5836,4.0376,94.5253,4.1244,84.4669,4.0768,74.4085,4.2619,64.3502,4.1325,54.2918,4.1631,44.2335,3.7117,34.1751,3.7624,24.1167,4.4812,14.0584,4,4" style="stroke: #A80036; stroke-width: 1.0;"/><text fill="#000000" font-family="sans-serif" font-size="13" font-weight="bold" lengthAdjust="spacingAndGlyphs" textLength="114" x="7" y="16.0669">Internal Service</text><path d="M34,58.4297 L33.2281,58.4297 L33.7538,68.2129 L33.9527,77.9961 L34.1397,87.7793 L33.2958,97.5625 L33.1019,107.3457 L33.1593,117.1289 L34.6979,126.9121 L34,136.6953 " fill="none" style="stroke: #A80036; stroke-width: 1.0; stroke-dasharray: 5.0,5.0;"/><path d="M92,58.4297 L91.3699,58.4297 L91.8789,68.2129 L92.1862,77.9961 L91.0643,87.7793 L91.89,97.5625 L91.4707,107.3457 L92.5896,117.1289 L92.739,126.9121 L92,136.6953 " fill="none" style="stroke: #A80036; stroke-width: 1.0; stroke-dasharray: 5.0,5.0;"/><path d="M158,58.4297 L158.1341,58.4297 L157.0687,68.2129 L158.6218,77.9961 L157.737,87.7793 L157.2462,97.5625 L157.5717,107.3457 L158.2368,117.1289 L158.6708,126.9121 L158,136.6953 " fill="none" style="stroke: #A80036; stroke-width: 1.0; stroke-dasharray: 5.0,5.0;"/><polygon fill="#FEFECE" filter="url(#f1)" points="11,23.1328,11,23.1846,19.4,23.3526,27.8,22.9679,36.2,23.0515,44.6,23.1948,53,23.1328,53.0254,23.1328,52.9999,29.1922,52.7668,35.2516,52.8421,41.3109,52.7658,47.3703,53,53.4297,53,53.6096,44.6,53.2943,36.2,53.6147,27.8,53.3664,19.4,53.2317,11,53.4297,11.0643,53.4297,11.2026,47.3703,11.0115,41.3109,10.8326,35.2516,10.8038,29.1922,11,23.1328" style="stroke: #A80036; stroke-width: 1.5;"/><text fill="#000000" font-family="sans-serif" font-size="14" lengthAdjust="spacingAndGlyphs" textLength="28" x="18" y="43.1279">Bob</text><polygon fill="#FEFECE" filter="url(#f1)" points="11,135.6953,11,135.9223,19.4,135.5325,27.8,135.7314,36.2,135.6394,44.6,135.7142,53,135.6953,53.0172,135.6953,53.0122,141.7547,52.8873,147.8141,53.1761,153.8734,52.8154,159.9328,53,165.9922,53,165.7812,44.6,166.0497,36.2,166.0792,27.8,165.977,19.4,165.9951,11,165.9922,11.1823,165.9922,11.2045,159.9328,11.1492,153.8734,11.1829,147.8141,10.7829,141.7547,11,135.6953" style="stroke: #A80036; stroke-width: 1.5;"/><text fill="#000000" font-family="sans-serif" font-size="14" lengthAdjust="spacingAndGlyphs" textLength="28" x="18" y="155.6904">Bob</text><polygon fill="#FEFECE" filter="url(#f1)" points="67,23.1328,67,22.6405,76.2,22.9883,85.4,22.778,94.6,22.7103,103.8,23.261,113,23.1328,113.1297,23.1328,112.8495,29.1922,112.9402,35.2516,113.1351,41.3109,112.9766,47.3703,113,53.4297,113,53.8461,103.8,53.3397,94.6,53.7616,85.4,52.8935,76.2,53.2929,67,53.4297,66.9022,53.4297,67.2484,47.3703,67.1707,41.3109,67.221,35.2516,66.894,29.1922,67,23.1328" style="stroke: #A80036; stroke-width: 1.5;"/><text fill="#000000" font-family="sans-serif" font-size="14" lengthAdjust="spacingAndGlyphs" textLength="32" x="74" y="43.1279">Alice</text><polygon fill="#FEFECE" filter="url(#f1)" points="67,135.6953,67,135.4028,76.2,135.8444,85.4,136.4029,94.6,136.0329,103.8,135.3006,113,135.6953,112.8112,135.6953,112.9021,141.7547,112.902,147.8141,112.9991,153.8734,112.7907,159.9328,113,165.9922,113,165.6952,103.8,165.7001,94.6,166.1226,85.4,166.4157,76.2,165.2691,67,165.9922,67.1656,165.9922,66.9552,159.9328,67.0023,153.8734,67.096,147.8141,66.8688,141.7547,67,135.6953" style="stroke: #A80036; stroke-width: 1.5;"/><text fill="#000000" font-family="sans-serif" font-size="14" lengthAdjust="spacingAndGlyphs" textLength="32" x="74" y="155.6904">Alice</text><polygon fill="#FEFECE" filter="url(#f1)" points="130,23.1328,130,23.6762,140.6,22.6499,151.2,22.8588,161.8,22.8694,172.4,23.6875,183,23.1328,182.8213,23.1328,183.0417,29.1922,182.9491,35.2516,183.1902,41.3109,183.0161,47.3703,183,53.4297,183,53.5341,172.4,52.837,161.8,52.9613,151.2,53.1883,140.6,52.8374,130,53.4297,130.2138,53.4297,130.1962,47.3703,129.9735,41.3109,130.1083,35.2516,129.9806,29.1922,130,23.1328" style="stroke: #A80036; stroke-width: 1.5;"/><text fill="#000000" font-family="sans-serif" font-size="14" lengthAdjust="spacingAndGlyphs" textLength="39" x="137" y="43.1279">Other</text><polygon fill="#FEFECE" filter="url(#f1)" points="130,135.6953,130,135.9368,140.6,136.2598,151.2,135.7816,161.8,134.9687,172.4,136.1162,183,135.6953,182.8258,135.6953,183.0814,141.7547,183.1248,147.8141,182.9046,153.8734,182.7971,159.9328,183,165.9922,183,165.6633,172.4,165.8676,161.8,165.8378,151.2,165.9186,140.6,166.6203,130,165.9922,130.1973,165.9922,129.7965,159.9328,130.0477,153.8734,129.7943,147.8141,130.2382,141.7547,130,135.6953" style="stroke: #A80036; stroke-width: 1.5;"/><text fill="#000000" font-family="sans-serif" font-size="14" lengthAdjust="spacingAndGlyphs" textLength="39" x="137" y="155.6904">Other</text><polygon fill="#A80036" points="80,85.4297,79.937,85.2723,81.9231,86.0374,84.0108,87.0566,85.9899,87.8043,88.0204,88.6806,90,89.4297,89.9309,89.2569,87.9445,90.0908,85.9423,90.8854,84.0535,91.9633,82.0879,92.8493,80,93.4297,79.9284,93.358,80.6535,92.4832,81.4271,91.6568,82.5722,91.2019,83.1506,90.1802,84,89.4297,84.027,89.4567,83.296,88.7257,82.4144,87.8441,81.5141,86.9438,80.7128,86.1425,80,85.4297" style="stroke: #A80036; stroke-width: 1.0;"/><path d="M34,89.4297 L34,89.7117 L44.4,88.4754 L54.8,89.5577 L65.2,89.2267 L75.6,90.4068 L86,89.4297 " fill="none" style="stroke: #A80036; stroke-width: 1.0;"/><text fill="#000000" font-family="sans-serif" font-size="13" lengthAdjust="spacingAndGlyphs" textLength="30" x="41" y="84.4966">hello</text><polygon fill="#A80036" points="146.5,114.5625,146.4293,114.3857,148.5394,115.461,150.4575,116.0563,152.5258,117.0271,154.4249,117.5748,156.5,118.5625,156.5182,118.6081,154.5909,119.5898,152.5089,120.1849,150.427,120.78,148.5725,121.9436,146.5,122.5625,146.3723,122.4348,147.3012,121.7637,148.1243,120.9868,148.8305,120.093,149.7832,119.4457,150.5,118.5625,150.591,118.6535,149.6559,117.7184,148.9452,117.0077,148.2388,116.3013,147.2518,115.3143,146.5,114.5625" style="stroke: #A80036; stroke-width: 1.0;"/><path d="M92,118.5625 L92,117.9161 L102.0833,118.082 L112.1667,118.5135 L122.25,119.2098 L132.3333,117.8125 L142.4167,118.4459 L152.5,118.5625 " fill="none" style="stroke: #A80036; stroke-width: 1.0;"/><text fill="#000000" font-family="sans-serif" font-size="13" lengthAdjust="spacingAndGlyphs" textLength="30" x="99" y="113.6294">hello</text></g></svg>