<?xml version="1.0" encoding="UTF-8" standalone="yes"?><svg xmlns="http://www.w3.org/2000/svg" xmlns:xlink="http://www.w3.org/1999/xlink" height="184px" style="width:359px;height:184px;" version="1.1" viewBox="0 0 359 184" width="359px"><defs><filter height="300%" id="f1" width="300%" x="-1" y="-1"><feGaussianBlur result="blurOut" stdDeviation="2.0"/><feColorMatrix in="blurOut" result="blurOut2" type="matrix" values="0 0 0 0 0 0 0 0 0 0 0 0 0 0 0 0 0 0 .4 0"/><feOffset dx="4.0" dy="4.0" in="blurOut2" result="blurOut3"/><feBlend in="SourceGraphic" in2="blurOut3" mode="normal"/></filter></defs><g><rect fill="#FEFECE" filter="url(#f1)" height="53.9375" style="stroke: #A80036; stroke-width: 1.5;" width="140" x="6" y="8"/><ellipse cx="21" cy="26.9688" fill="#FFAAAA" rx="11" ry="11" style="stroke: #A80036; stroke-width: 1.0;"/><path d="M21.8438,33.7188 L19.3906,33.7188 L19.3906,23.4688 L16.25,23.4688 L16.25,21.3281 L24.9844,21.3281 L24.9844,23.4688 L21.8438,23.4688 L21.8438,33.7188 Z "/><text fill="#000000" font-family="sans-serif" font-size="12" font-style="italic" lengthAdjust="spacingAndGlyphs" textLength="112" x="33" y="24.1387">«Database Table»</text><text fill="#000000" font-family="sans-serif" font-size="12" lengthAdjust="spacingAndGlyphs" textLength="33" x="72.5" y="38.1074">USER</text><line style="stroke: #A80036; stroke-width: 1.5;" x1="7" x2="145" y1="45.9375" y2="45.9375"/><line style="stroke: #A80036; stroke-width: 1.5;" x1="7" x2="145" y1="53.9375" y2="53.9375"/><rect fill="#FEFECE" filter="url(#f1)" height="53.9375" style="stroke: #A80036; stroke-width: 1.5;" width="140" x="6" y="122"/><ellipse cx="21" cy="140.9688" fill="#FFAAAA" rx="11" ry="11" style="stroke: #A80036; stroke-width: 1.0;"/><path d="M21.8438,147.7188 L19.3906,147.7188 L19.3906,137.4688 L16.25,137.4688 L16.25,135.3281 L24.9844,135.3281 L24.9844,137.4688 L21.8438,137.4688 L21.8438,147.7188 Z "/><text fill="#000000" font-family="sans-serif" font-size="12" font-style="italic" lengthAdjust="spacingAndGlyphs" textLength="112" x="33" y="138.1387">«Database Table»</text><text fill="#000000" font-family="sans-serif" font-size="12" lengthAdjust="spacingAndGlyphs" textLength="58" x="60" y="152.1074">ACCOUNT</text><line style="stroke: #A80036; stroke-width: 1.5;" x1="7" x2="145" y1="159.9375" y2="159.9375"/><line style="stroke: #A80036; stroke-width: 1.5;" x1="7" x2="145" y1="167.9375" y2="167.9375"/><rect fill="#FEFECE" filter="url(#f1)" height="53.9375" style="stroke: #A80036; stroke-width: 1.5;" width="169" x="181.5" y="8"/><ellipse cx="196.5" cy="26.9688" fill="#AAAAAA" rx="11" ry="11" style="stroke: #A80036; stroke-width: 1.0;"/><path d="M195.9844,27.5313 Q194.125,26.8281 193.4766,26.0547 Q192.8281,25.2813 192.8281,23.9688 Q192.8281,22.2813 193.9063,21.3125 Q194.9844,20.3438 196.8594,20.3438 Q197.7188,20.3438 198.5703,20.5391 Q199.4219,20.7344 200.2656,21.125 L200.2656,23.5156 Q199.4844,22.9531 198.6641,22.6641 Q197.8438,22.375 197.0469,22.375 Q196.1719,22.375 195.6953,22.7344 Q195.2188,23.0938 195.2188,23.75 Q195.2188,24.2656 195.5625,24.6016 Q195.9063,24.9375 197,25.3438 L198.0625,25.75 Q199.5469,26.2969 200.2578,27.2031 Q200.9688,28.1094 200.9688,29.4844 Q200.9688,31.3594 199.8594,32.2813 Q198.75,33.2031 196.5,33.2031 Q195.5781,33.2031 194.6563,32.9844 Q193.7344,32.7656 192.875,32.3438 L192.875,29.8125 Q193.8438,30.5 194.7656,30.8438 Q195.6875,31.1875 196.5781,31.1875 Q197.4844,31.1875 197.9844,30.7734 Q198.4844,30.3594 198.4844,29.625 Q198.4844,29.0625 198.1484,28.6484 Q197.8125,28.2344 197.1875,27.9844 L195.9844,27.5313 Z "/><text fill="#000000" font-family="sans-serif" font-size="12" font-style="italic" lengthAdjust="spacingAndGlyphs" textLength="141" x="208.5" y="24.1387">«Database Sequence»</text><text fill="#000000" font-family="sans-serif" font-size="12" lengthAdjust="spacingAndGlyphs" textLength="21" x="268.5" y="38.1074">UID</text><line style="stroke: #A80036; stroke-width: 1.5;" x1="182.5" x2="349.5" y1="45.9375" y2="45.9375"/><line style="stroke: #A80036; stroke-width: 1.5;" x1="182.5" x2="349.5" y1="53.9375" y2="53.9375"/><path d="M76,62.259 C76,80.2334 76,103.9664 76,121.9055 " fill="none" style="stroke: #A80036; stroke-width: 1.0;"/><text fill="#000000" font-family="sans-serif" font-size="13" lengthAdjust="spacingAndGlyphs" textLength="8" x="67.125" y="81.9508">1</text><text fill="#000000" font-family="sans-serif" font-size="13" lengthAdjust="spacingAndGlyphs" textLength="7" x="68.1906" y="110.995">*</text><path d="M146.137,35 C156.105,35 166.072,35 176.04,35 " fill="none" style="stroke: #A80036; stroke-width: 1.0;"/><polygon fill="#A80036" points="181.253,35,172.253,31,176.253,35,172.253,39,181.253,35" style="stroke: #A80036; stroke-width: 1.0;"/></g></svg>