<?xml version="1.0" encoding="UTF-8" standalone="yes"?><svg xmlns="http://www.w3.org/2000/svg" xmlns:xlink="http://www.w3.org/1999/xlink" height="287px" style="width:490px;height:287px;" version="1.1" viewBox="0 0 490 287" width="490px"><defs><filter height="300%" id="f1" width="300%" x="-1" y="-1"><feGaussianBlur result="blurOut" stdDeviation="2.0"/><feColorMatrix in="blurOut" result="blurOut2" type="matrix" values="0 0 0 0 0 0 0 0 0 0 0 0 0 0 0 0 0 0 .4 0"/><feOffset dx="4.0" dy="4.0" in="blurOut2" result="blurOut3"/><feBlend in="SourceGraphic" in2="blurOut3" mode="normal"/></filter></defs><g><rect fill="#FEFECE" filter="url(#f1)" height="50" rx="12.5" ry="12.5" style="stroke: #A80036; stroke-width: 1.5;" width="50" x="91" y="118"/><line style="stroke: #A80036; stroke-width: 1.5;" x1="91" x2="141" y1="144.2969" y2="144.2969"/><text fill="#000000" font-family="sans-serif" font-size="14" lengthAdjust="spacingAndGlyphs" textLength="18" x="107" y="135.9951">S1</text><rect fill="#FEFECE" filter="url(#f1)" height="50" rx="12.5" ry="12.5" style="stroke: #A80036; stroke-width: 1.5;" width="50" x="91" y="228"/><line style="stroke: #A80036; stroke-width: 1.5;" x1="91" x2="141" y1="254.2969" y2="254.2969"/><text fill="#000000" font-family="sans-serif" font-size="14" lengthAdjust="spacingAndGlyphs" textLength="18" x="107" y="245.9951">S2</text><rect fill="#FEFECE" filter="url(#f1)" height="50" rx="12.5" ry="12.5" style="stroke: #A80036; stroke-width: 1.5;" width="50" x="6" y="118"/><line style="stroke: #A80036; stroke-width: 1.5;" x1="6" x2="56" y1="144.2969" y2="144.2969"/><text fill="#000000" font-family="sans-serif" font-size="14" lengthAdjust="spacingAndGlyphs" textLength="18" x="22" y="135.9951">S3</text><rect fill="#FEFECE" filter="url(#f1)" height="50" rx="12.5" ry="12.5" style="stroke: #A80036; stroke-width: 1.5;" width="50" x="91" y="8"/><line style="stroke: #A80036; stroke-width: 1.5;" x1="91" x2="141" y1="34.2969" y2="34.2969"/><text fill="#000000" font-family="sans-serif" font-size="14" lengthAdjust="spacingAndGlyphs" textLength="18" x="107" y="25.9951">S4</text><rect fill="#FEFECE" filter="url(#f1)" height="50" rx="12.5" ry="12.5" style="stroke: #A80036; stroke-width: 1.5;" width="50" x="176" y="118"/><line style="stroke: #A80036; stroke-width: 1.5;" x1="176" x2="226" y1="144.2969" y2="144.2969"/><text fill="#000000" font-family="sans-serif" font-size="14" lengthAdjust="spacingAndGlyphs" textLength="18" x="192" y="135.9951">S5</text><rect fill="#FEFECE" filter="url(#f1)" height="50" rx="12.5" ry="12.5" style="stroke: #A80036; stroke-width: 1.5;" width="50" x="261" y="8"/><line style="stroke: #A80036; stroke-width: 1.5;" x1="261" x2="311" y1="34.2969" y2="34.2969"/><text fill="#000000" font-family="sans-serif" font-size="14" lengthAdjust="spacingAndGlyphs" textLength="18" x="277" y="25.9951">X1</text><rect fill="#FEFECE" filter="url(#f1)" height="50" rx="12.5" ry="12.5" style="stroke: #A80036; stroke-width: 1.5;" width="50" x="261" y="118"/><line style="stroke: #A80036; stroke-width: 1.5;" x1="261" x2="311" y1="144.2969" y2="144.2969"/><text fill="#000000" font-family="sans-serif" font-size="14" lengthAdjust="spacingAndGlyphs" textLength="18" x="277" y="135.9951">X2</text><rect fill="#FEFECE" filter="url(#f1)" height="50" rx="12.5" ry="12.5" style="stroke: #A80036; stroke-width: 1.5;" width="50" x="346" y="8"/><line style="stroke: #A80036; stroke-width: 1.5;" x1="346" x2="396" y1="34.2969" y2="34.2969"/><text fill="#000000" font-family="sans-serif" font-size="14" lengthAdjust="spacingAndGlyphs" textLength="19" x="361.5" y="25.9951">Z1</text><rect fill="#FEFECE" filter="url(#f1)" height="50" rx="12.5" ry="12.5" style="stroke: #A80036; stroke-width: 1.5;" width="50" x="346" y="118"/><line style="stroke: #A80036; stroke-width: 1.5;" x1="346" x2="396" y1="144.2969" y2="144.2969"/><text fill="#000000" font-family="sans-serif" font-size="14" lengthAdjust="spacingAndGlyphs" textLength="19" x="361.5" y="135.9951">Z2</text><rect fill="#FEFECE" filter="url(#f1)" height="50" rx="12.5" ry="12.5" style="stroke: #A80036; stroke-width: 1.5;" width="50" x="431" y="8"/><line style="stroke: #A80036; stroke-width: 1.5;" x1="431" x2="481" y1="34.2969" y2="34.2969"/><text fill="#000000" font-family="sans-serif" font-size="14" lengthAdjust="spacingAndGlyphs" textLength="18" x="447" y="25.9951">Y1</text><rect fill="#FEFECE" filter="url(#f1)" height="50" rx="12.5" ry="12.5" style="stroke: #A80036; stroke-width: 1.5;" width="50" x="431" y="118"/><line style="stroke: #A80036; stroke-width: 1.5;" x1="431" x2="481" y1="144.2969" y2="144.2969"/><text fill="#000000" font-family="sans-serif" font-size="14" lengthAdjust="spacingAndGlyphs" textLength="18" x="447" y="135.9951">Y2</text><path d="M116,168.237 C116,184.3565 116,205.6212 116,222.6911 " fill="none" style="stroke: #DD00AA; stroke-width: 1.0;"/><polygon fill="#DD00AA" points="116,227.8436,120,218.8436,116,222.8436,112,218.8436,116,227.8436" style="stroke: #DD00AA; stroke-width: 1.0;"/><path d="M61.3632,143 C71.1709,143 80.9786,143 90.7864,143 " fill="none" style="stroke: #FFFF00; stroke-width: 1.0;"/><polygon fill="#FFFF00" points="56.2344,143,65.2344,147,61.2344,143,65.2344,139,56.2344,143" style="stroke: #FFFF00; stroke-width: 1.0;"/><path d="M116,63.395 C116,80.479 116,101.742 116,117.844 " fill="none" style="stroke: #FF0000; stroke-width: 1.0; stroke-dasharray: 7.0,7.0;"/><polygon fill="#FF0000" points="116,58.237,112,67.237,116,63.237,120,67.237,116,58.237" style="stroke: #FF0000; stroke-width: 1.0;"/><path d="M141.234,143 C151.042,143 160.85,143 170.658,143 " fill="none" style="stroke: #0000FF; stroke-width: 1.0; stroke-dasharray: 1.0,3.0;"/><polygon fill="#0000FF" points="175.786,143,166.786,139,170.786,143,166.786,147,175.786,143" style="stroke: #0000FF; stroke-width: 1.0;"/><path d="M286,58.237 C286,74.357 286,95.621 286,112.691 " fill="none" style="stroke: #A80036; stroke-width: 1.0; stroke-dasharray: 7.0,7.0;"/><polygon fill="#A80036" points="286,117.844,290,108.844,286,112.844,282,108.844,286,117.844" style="stroke: #A80036; stroke-width: 1.0;"/><path d="M371,58.237 C371,74.357 371,95.621 371,112.691 " fill="none" style="stroke: #A80036; stroke-width: 1.0; stroke-dasharray: 1.0,3.0;"/><polygon fill="#A80036" points="371,117.844,375,108.844,371,112.844,367,108.844,371,117.844" style="stroke: #A80036; stroke-width: 1.0;"/><path d="M456,58.237 C456,74.357 456,95.621 456,112.691 " fill="none" style="stroke: #0000FF; stroke-width: 2.0;"/><polygon fill="#0000FF" points="456,117.844,460,108.844,456,112.844,452,108.844,456,117.844" style="stroke: #0000FF; stroke-width: 1.0;"/></g></svg>