<?xml version="1.0" encoding="UTF-8" standalone="yes"?><svg xmlns="http://www.w3.org/2000/svg" xmlns:xlink="http://www.w3.org/1999/xlink" height="281px" style="width:123px;height:281px;" version="1.1" viewBox="0 0 123 281" width="123px"><defs><filter height="300%" id="f1" width="300%" x="-1" y="-1"><feGaussianBlur result="blurOut" stdDeviation="2.0"/><feColorMatrix in="blurOut" result="blurOut2" type="matrix" values="0 0 0 0 0 0 0 0 0 0 0 0 0 0 0 0 0 0 .4 0"/><feOffset dx="4.0" dy="4.0" in="blurOut2" result="blurOut3"/><feBlend in="SourceGraphic" in2="blurOut3" mode="normal"/></filter></defs><g><a target="_top" xlink:href="http://www.yahoo.com" xlink:title="This is Dog"><rect fill="#FEFECE" filter="url(#f1)" height="48" style="stroke: #A80036; stroke-width: 1.5;" width="57" x="19" y="8"/><ellipse cx="34" cy="24" fill="#ADD1B2" rx="11" ry="11" style="stroke: #A80036; stroke-width: 1.0;"/><path d="M36.9688,29.6406 Q36.3906,29.9375 35.75,30.0859 Q35.1094,30.2344 34.4063,30.2344 Q31.9063,30.2344 30.5859,28.5859 Q29.2656,26.9375 29.2656,23.8125 Q29.2656,20.6875 30.5859,19.0313 Q31.9063,17.375 34.4063,17.375 Q35.1094,17.375 35.7578,17.5313 Q36.4063,17.6875 36.9688,17.9844 L36.9688,20.7031 Q36.3438,20.125 35.75,19.8516 Q35.1563,19.5781 34.5313,19.5781 Q33.1875,19.5781 32.5,20.6484 Q31.8125,21.7188 31.8125,23.8125 Q31.8125,25.9063 32.5,26.9766 Q33.1875,28.0469 34.5313,28.0469 Q35.1563,28.0469 35.75,27.7734 Q36.3438,27.5 36.9688,26.9219 L36.9688,29.6406 Z "/><text fill="#000000" font-family="sans-serif" font-size="12" lengthAdjust="spacingAndGlyphs" textLength="25" x="48" y="28.1543">Dog</text><line style="stroke: #A80036; stroke-width: 1.5;" x1="20" x2="75" y1="40" y2="40"/><line style="stroke: #A80036; stroke-width: 1.5;" x1="20" x2="75" y1="48" y2="48"/></a><a target="_top" xlink:href="http://www.google.com/search" xlink:title="http://www.google.com/search"><rect fill="#FEFECE" filter="url(#f1)" height="48" style="stroke: #A80036; stroke-width: 1.5;" width="83" x="6" y="224"/><ellipse cx="21" cy="240" fill="#ADD1B2" rx="11" ry="11" style="stroke: #A80036; stroke-width: 1.0;"/><path d="M23.9688,245.6406 Q23.3906,245.9375 22.75,246.0859 Q22.1094,246.2344 21.4063,246.2344 Q18.9063,246.2344 17.5859,244.5859 Q16.2656,242.9375 16.2656,239.8125 Q16.2656,236.6875 17.5859,235.0313 Q18.9063,233.375 21.4063,233.375 Q22.1094,233.375 22.7578,233.5313 Q23.4063,233.6875 23.9688,233.9844 L23.9688,236.7031 Q23.3438,236.125 22.75,235.8516 Q22.1563,235.5781 21.5313,235.5781 Q20.1875,235.5781 19.5,236.6484 Q18.8125,237.7188 18.8125,239.8125 Q18.8125,241.9063 19.5,242.9766 Q20.1875,244.0469 21.5313,244.0469 Q22.1563,244.0469 22.75,243.7734 Q23.3438,243.5 23.9688,242.9219 L23.9688,245.6406 Z "/><text fill="#000000" font-family="sans-serif" font-size="12" lengthAdjust="spacingAndGlyphs" textLength="51" x="35" y="244.1543">Mammal</text><line style="stroke: #A80036; stroke-width: 1.5;" x1="7" x2="88" y1="256" y2="256"/><line style="stroke: #A80036; stroke-width: 1.5;" x1="7" x2="88" y1="264" y2="264"/></a><rect fill="#FEFECE" filter="url(#f1)" height="48" style="stroke: #A80036; stroke-width: 1.5;" width="53" x="61" y="116"/><ellipse cx="76" cy="132" fill="#ADD1B2" rx="11" ry="11" style="stroke: #A80036; stroke-width: 1.0;"/><path d="M78.9688,137.6406 Q78.3906,137.9375 77.75,138.0859 Q77.1094,138.2344 76.4063,138.2344 Q73.9063,138.2344 72.5859,136.5859 Q71.2656,134.9375 71.2656,131.8125 Q71.2656,128.6875 72.5859,127.0313 Q73.9063,125.375 76.4063,125.375 Q77.1094,125.375 77.7578,125.5313 Q78.4063,125.6875 78.9688,125.9844 L78.9688,128.7031 Q78.3438,128.125 77.75,127.8516 Q77.1563,127.5781 76.5313,127.5781 Q75.1875,127.5781 74.5,128.6484 Q73.8125,129.7188 73.8125,131.8125 Q73.8125,133.9063 74.5,134.9766 Q75.1875,136.0469 76.5313,136.0469 Q77.1563,136.0469 77.75,135.7734 Q78.3438,135.5 78.9688,134.9219 L78.9688,137.6406 Z "/><text fill="#000000" font-family="sans-serif" font-size="12" lengthAdjust="spacingAndGlyphs" textLength="21" x="90" y="136.1543">Cat</text><line style="stroke: #A80036; stroke-width: 1.5;" x1="62" x2="113" y1="148" y2="148"/><line style="stroke: #A80036; stroke-width: 1.5;" x1="62" x2="113" y1="156" y2="156"/><path d="M46.0799,56.244 C45.137,72.879 43.9863,95.809 43.5,116 C42.9864,137.327 42.9864,142.673 43.5,164 C43.8077,176.7772 44.3815,190.6512 45.0003,203.3327 " fill="none" style="stroke: #A80036; stroke-width: 1.0;"/><polygon fill="none" points="52.0143,203.4143,46.0799,223.7559,38.0339,204.1534,52.0143,203.4143" style="stroke: #A80036; stroke-width: 1.0;"/><path d="M60.8591,68.402 C66.7335,83.969 73.4701,101.821 78.6994,115.678 " fill="none" style="stroke: #A80036; stroke-width: 1.0;"/><polygon fill="none" points="56.1794,56,54.5555,63.0259,60.4163,67.2271,62.0402,60.2013,56.1794,56" style="stroke: #A80036; stroke-width: 1.0;"/><path d="M78.8206,164 C74.3436,175.8644 68.7382,190.7187 63.5116,204.5692 " fill="none" style="stroke: #A80036; stroke-width: 1.0;"/><polygon fill="none" points="69.911,207.4378,56.3006,223.6784,56.8126,202.495,69.911,207.4378" style="stroke: #A80036; stroke-width: 1.0;"/></g></svg>