<?xml version="1.0" encoding="UTF-8" standalone="yes"?><svg xmlns="http://www.w3.org/2000/svg" xmlns:xlink="http://www.w3.org/1999/xlink" height="371px" style="width:364px;height:371px;" version="1.1" viewBox="0 0 364 371" width="364px"><defs><filter height="300%" id="f1" width="300%" x="-1" y="-1"><feGaussianBlur result="blurOut" stdDeviation="2.0"/><feColorMatrix in="blurOut" result="blurOut2" type="matrix" values="0 0 0 0 0 0 0 0 0 0 0 0 0 0 0 0 0 0 .4 0"/><feOffset dx="4.0" dy="4.0" in="blurOut2" result="blurOut3"/><feBlend in="SourceGraphic" in2="blurOut3" mode="normal"/></filter></defs><g><rect fill="#FFFFFF" filter="url(#f1)" height="246.0938" style="stroke: #A80036; stroke-width: 1.0;" width="10" x="107.5" y="69.2969"/><rect fill="#FFFFFF" filter="url(#f1)" height="143.6953" style="stroke: #A80036; stroke-width: 1.0;" width="10" x="112.5" y="106.4297"/><rect fill="#005500" filter="url(#f1)" height="74.4297" style="stroke: #A80036; stroke-width: 1.0;" width="10" x="117.5" y="140.5625"/><rect fill="#FEFECE" filter="url(#f1)" height="30.2969" style="stroke: #A80036; stroke-width: 1.5;" width="59" x="296.5" y="148.6953"/><text fill="#000000" font-family="sans-serif" font-size="14" lengthAdjust="spacingAndGlyphs" textLength="45" x="303.5" y="168.6904">geoge</text><line style="stroke: #A80036; stroke-width: 1.0; stroke-dasharray: 5.0,5.0;" x1="32" x2="32" y1="38.2969" y2="333.5234"/><line style="stroke: #A80036; stroke-width: 1.0; stroke-dasharray: 5.0,5.0;" x1="112" x2="112" y1="38.2969" y2="333.5234"/><line style="stroke: #A80036; stroke-width: 1.0; stroke-dasharray: 5.0,5.0;" x1="268.5" x2="268.5" y1="38.2969" y2="333.5234"/><line style="stroke: #A80036; stroke-width: 1.0; stroke-dasharray: 5.0,5.0;" x1="327.5" x2="327.5" y1="181.3438" y2="333.5234"/><rect fill="#FEFECE" filter="url(#f1)" height="30.2969" style="stroke: #A80036; stroke-width: 1.5;" width="45" x="8" y="3"/><text fill="#000000" font-family="sans-serif" font-size="14" lengthAdjust="spacingAndGlyphs" textLength="31" x="15" y="22.9951">alice</text><rect fill="#FEFECE" filter="url(#f1)" height="30.2969" style="stroke: #A80036; stroke-width: 1.5;" width="45" x="8" y="332.5234"/><text fill="#000000" font-family="sans-serif" font-size="14" lengthAdjust="spacingAndGlyphs" textLength="31" x="15" y="352.5186">alice</text><rect fill="#FEFECE" filter="url(#f1)" height="30.2969" style="stroke: #A80036; stroke-width: 1.5;" width="41" x="90" y="3"/><text fill="#000000" font-family="sans-serif" font-size="14" lengthAdjust="spacingAndGlyphs" textLength="27" x="97" y="22.9951">bob</text><rect fill="#FEFECE" filter="url(#f1)" height="30.2969" style="stroke: #A80036; stroke-width: 1.5;" width="41" x="90" y="332.5234"/><text fill="#000000" font-family="sans-serif" font-size="14" lengthAdjust="spacingAndGlyphs" textLength="27" x="97" y="352.5186">bob</text><rect fill="#FEFECE" filter="url(#f1)" height="30.2969" style="stroke: #A80036; stroke-width: 1.5;" width="32" x="250.5" y="3"/><text fill="#000000" font-family="sans-serif" font-size="14" lengthAdjust="spacingAndGlyphs" textLength="18" x="257.5" y="22.9951">bill</text><rect fill="#FEFECE" filter="url(#f1)" height="30.2969" style="stroke: #A80036; stroke-width: 1.5;" width="32" x="250.5" y="332.5234"/><text fill="#000000" font-family="sans-serif" font-size="14" lengthAdjust="spacingAndGlyphs" textLength="18" x="257.5" y="352.5186">bill</text><rect fill="#FEFECE" filter="url(#f1)" height="30.2969" style="stroke: #A80036; stroke-width: 1.5;" width="59" x="296.5" y="332.5234"/><text fill="#000000" font-family="sans-serif" font-size="14" lengthAdjust="spacingAndGlyphs" textLength="45" x="303.5" y="352.5186">geoge</text><rect fill="#FFFFFF" filter="url(#f1)" height="246.0938" style="stroke: #A80036; stroke-width: 1.0;" width="10" x="107.5" y="69.2969"/><rect fill="#FFFFFF" filter="url(#f1)" height="143.6953" style="stroke: #A80036; stroke-width: 1.0;" width="10" x="112.5" y="106.4297"/><rect fill="#005500" filter="url(#f1)" height="74.4297" style="stroke: #A80036; stroke-width: 1.0;" width="10" x="117.5" y="140.5625"/><polygon fill="#A80036" points="95.5,65.2969,105.5,69.2969,95.5,73.2969,99.5,69.2969" style="stroke: #A80036; stroke-width: 1.0;"/><line style="stroke: #A80036; stroke-width: 1.0;" x1="32.5" x2="101.5" y1="69.2969" y2="69.2969"/><text fill="#000000" font-family="sans-serif" font-size="13" lengthAdjust="spacingAndGlyphs" textLength="30" x="39.5" y="64.3638">hello</text><line style="stroke: #A80036; stroke-width: 1.0;" x1="117.5" x2="164.5" y1="93.5625" y2="93.5625"/><line style="stroke: #A80036; stroke-width: 1.0;" x1="164.5" x2="164.5" y1="93.5625" y2="106.5625"/><line style="stroke: #A80036; stroke-width: 1.0;" x1="123.5" x2="164.5" y1="106.5625" y2="106.5625"/><polygon fill="#A80036" points="133.5,102.5625,123.5,106.5625,133.5,110.5625,129.5,106.5625" style="stroke: #A80036; stroke-width: 1.0;"/><text fill="#000000" font-family="sans-serif" font-size="13" lengthAdjust="spacingAndGlyphs" textLength="47" x="129.5" y="88.4966">self call</text><polygon fill="#A80036" points="138.5,136.5625,128.5,140.5625,138.5,144.5625,134.5,140.5625" style="stroke: #A80036; stroke-width: 1.0;"/><line style="stroke: #A80036; stroke-width: 1.0;" x1="132.5" x2="267.5" y1="140.5625" y2="140.5625"/><text fill="#000000" font-family="sans-serif" font-size="13" lengthAdjust="spacingAndGlyphs" textLength="122" x="144.5" y="135.6294">hello from thread 2</text><polygon fill="#A80036" points="284.5,165.6953,294.5,169.6953,284.5,173.6953,288.5,169.6953" style="stroke: #A80036; stroke-width: 1.0;"/><line style="stroke: #A80036; stroke-width: 1.0;" x1="127.5" x2="290.5" y1="169.6953" y2="169.6953"/><text fill="#000000" font-family="sans-serif" font-size="13" lengthAdjust="spacingAndGlyphs" textLength="41" x="134.5" y="164.7622">create</text><rect fill="#FEFECE" filter="url(#f1)" height="30.2969" style="stroke: #A80036; stroke-width: 1.5;" width="59" x="296.5" y="148.6953"/><text fill="#000000" font-family="sans-serif" font-size="14" lengthAdjust="spacingAndGlyphs" textLength="45" x="303.5" y="168.6904">geoge</text><polygon fill="#A80036" points="256.5,210.9922,266.5,214.9922,256.5,218.9922,260.5,214.9922" style="stroke: #A80036; stroke-width: 1.0;"/><line style="stroke: #A80036; stroke-width: 1.0; stroke-dasharray: 2.0,2.0;" x1="122.5" x2="262.5" y1="214.9922" y2="214.9922"/><text fill="#000000" font-family="sans-serif" font-size="13" lengthAdjust="spacingAndGlyphs" textLength="105" x="129.5" y="210.0591">done in thread 2</text><line style="stroke: #A80036; stroke-width: 1.0; stroke-dasharray: 2.0,2.0;" x1="122.5" x2="164.5" y1="249.2578" y2="249.2578"/><line style="stroke: #A80036; stroke-width: 1.0; stroke-dasharray: 2.0,2.0;" x1="164.5" x2="164.5" y1="249.2578" y2="262.2578"/><line style="stroke: #A80036; stroke-width: 1.0; stroke-dasharray: 2.0,2.0;" x1="117.5" x2="164.5" y1="262.2578" y2="262.2578"/><polygon fill="#A80036" points="127.5,258.2578,117.5,262.2578,127.5,266.2578,123.5,262.2578" style="stroke: #A80036; stroke-width: 1.0;"/><text fill="#000000" font-family="sans-serif" font-size="13" lengthAdjust="spacingAndGlyphs" textLength="12" x="129.5" y="244.1919">rc</text><polygon fill="#A80036" points="316,282.2578,326,286.2578,316,290.2578,320,286.2578" style="stroke: #A80036; stroke-width: 1.0;"/><line style="stroke: #A80036; stroke-width: 1.0;" x1="117.5" x2="322" y1="286.2578" y2="286.2578"/><text fill="#000000" font-family="sans-serif" font-size="13" lengthAdjust="spacingAndGlyphs" textLength="40" x="124.5" y="281.3247">delete</text><line style="stroke: #A80036; stroke-width: 2.0;" x1="319" x2="337" y1="277.2578" y2="295.2578"/><line style="stroke: #A80036; stroke-width: 2.0;" x1="319" x2="337" y1="295.2578" y2="277.2578"/><polygon fill="#A80036" points="43.5,311.3906,33.5,315.3906,43.5,319.3906,39.5,315.3906" style="stroke: #A80036; stroke-width: 1.0;"/><line style="stroke: #A80036; stroke-width: 1.0; stroke-dasharray: 2.0,2.0;" x1="37.5" x2="111.5" y1="315.3906" y2="315.3906"/><text fill="#000000" font-family="sans-serif" font-size="13" lengthAdjust="spacingAndGlyphs" textLength="51" x="49.5" y="310.4575">success</text></g></svg>