<?xml version="1.0" encoding="UTF-8" standalone="yes"?><svg xmlns="http://www.w3.org/2000/svg" xmlns:xlink="http://www.w3.org/1999/xlink" height="224px" style="width:223px;height:224px;" version="1.1" viewBox="0 0 223 224" width="223px"><defs><filter height="300%" id="f1" width="300%" x="-1" y="-1"><feGaussianBlur result="blurOut" stdDeviation="2.0"/><feColorMatrix in="blurOut" result="blurOut2" type="matrix" values="0 0 0 0 0 0 0 0 0 0 0 0 0 0 0 0 0 0 .4 0"/><feOffset dx="4.0" dy="4.0" in="blurOut2" result="blurOut3"/><feBlend in="SourceGraphic" in2="blurOut3" mode="normal"/></filter></defs><g><a target="_top" xlink:href="http://www.yahoo.com" xlink:title="http://www.yahoo.com"><rect fill="#FEFECE" filter="url(#f1)" height="48" style="stroke: #A80036; stroke-width: 1.5;" width="72" x="15.5" y="21"/><ellipse cx="30.5" cy="37" fill="#ADD1B2" rx="11" ry="11" style="stroke: #A80036; stroke-width: 1.0;"/><path d="M33.4688,42.6406 Q32.8906,42.9375 32.25,43.0859 Q31.6094,43.2344 30.9063,43.2344 Q28.4063,43.2344 27.0859,41.5859 Q25.7656,39.9375 25.7656,36.8125 Q25.7656,33.6875 27.0859,32.0313 Q28.4063,30.375 30.9063,30.375 Q31.6094,30.375 32.2578,30.5313 Q32.9063,30.6875 33.4688,30.9844 L33.4688,33.7031 Q32.8438,33.125 32.25,32.8516 Q31.6563,32.5781 31.0313,32.5781 Q29.6875,32.5781 29,33.6484 Q28.3125,34.7188 28.3125,36.8125 Q28.3125,38.9063 29,39.9766 Q29.6875,41.0469 31.0313,41.0469 Q31.6563,41.0469 32.25,40.7734 Q32.8438,40.5 33.4688,39.9219 L33.4688,42.6406 Z "/><text fill="#000000" font-family="sans-serif" font-size="12" lengthAdjust="spacingAndGlyphs" textLength="40" x="44.5" y="41.1543">Object</text><line style="stroke: #A80036; stroke-width: 1.5;" x1="16.5" x2="86.5" y1="53" y2="53"/><line style="stroke: #A80036; stroke-width: 1.5;" x1="16.5" x2="86.5" y1="61" y2="61"/></a><a target="_top" xlink:href="http://www.google.com" xlink:title="http://www.google.com"><rect fill="#FEFECE" filter="url(#f1)" height="73.6094" style="stroke: #A80036; stroke-width: 1.5;" width="91" x="6" y="142"/><ellipse cx="37.2" cy="158" fill="#ADD1B2" rx="11" ry="11" style="stroke: #A80036; stroke-width: 1.0;"/><path d="M40.1688,163.6406 Q39.5906,163.9375 38.95,164.0859 Q38.3094,164.2344 37.6063,164.2344 Q35.1063,164.2344 33.7859,162.5859 Q32.4656,160.9375 32.4656,157.8125 Q32.4656,154.6875 33.7859,153.0313 Q35.1063,151.375 37.6063,151.375 Q38.3094,151.375 38.9578,151.5313 Q39.6063,151.6875 40.1688,151.9844 L40.1688,154.7031 Q39.5438,154.125 38.95,153.8516 Q38.3563,153.5781 37.7313,153.5781 Q36.3875,153.5781 35.7,154.6484 Q35.0125,155.7188 35.0125,157.8125 Q35.0125,159.9063 35.7,160.9766 Q36.3875,162.0469 37.7313,162.0469 Q38.3563,162.0469 38.95,161.7734 Q39.5438,161.5 40.1688,160.9219 L40.1688,163.6406 Z "/><text fill="#000000" font-family="sans-serif" font-size="12" lengthAdjust="spacingAndGlyphs" textLength="23" x="54.8" y="162.1543">Foo</text><line style="stroke: #A80036; stroke-width: 1.5;" x1="7" x2="96" y1="174" y2="174"/><line style="stroke: #A80036; stroke-width: 1.5;" x1="7" x2="96" y1="182" y2="182"/><ellipse cx="17" cy="193.9023" fill="#84BE84" rx="3" ry="3" style="stroke: #038048; stroke-width: 1.0;"/></a><a target="_top" xlink:href="http://www.yahoo.com/A1" xlink:title="Some explainations about this method"><text fill="#000000" font-family="sans-serif" font-size="11" lengthAdjust="spacingAndGlyphs" textLength="65" x="26" y="196.2104">methods1()</text></a><ellipse cx="17" cy="206.707" fill="#84BE84" rx="3" ry="3" style="stroke: #038048; stroke-width: 1.0;"/><a target="_top" xlink:href="http://www.yahoo.com/A2" xlink:title="http://www.yahoo.com/A2"><text fill="#000000" font-family="sans-serif" font-size="11" lengthAdjust="spacingAndGlyphs" textLength="65" x="26" y="209.0151">methods2()</text></a><rect fill="#FEFECE" filter="url(#f1)" height="73.6094" style="stroke: #A80036; stroke-width: 1.5;" width="91" x="123" y="8"/><ellipse cx="150.6" cy="24" fill="#ADD1B2" rx="11" ry="11" style="stroke: #A80036; stroke-width: 1.0;"/><path d="M153.5688,29.6406 Q152.9906,29.9375 152.35,30.0859 Q151.7094,30.2344 151.0063,30.2344 Q148.5063,30.2344 147.1859,28.5859 Q145.8656,26.9375 145.8656,23.8125 Q145.8656,20.6875 147.1859,19.0313 Q148.5063,17.375 151.0063,17.375 Q151.7094,17.375 152.3578,17.5313 Q153.0063,17.6875 153.5688,17.9844 L153.5688,20.7031 Q152.9438,20.125 152.35,19.8516 Q151.7563,19.5781 151.1313,19.5781 Q149.7875,19.5781 149.1,20.6484 Q148.4125,21.7188 148.4125,23.8125 Q148.4125,25.9063 149.1,26.9766 Q149.7875,28.0469 151.1313,28.0469 Q151.7563,28.0469 152.35,27.7734 Q152.9438,27.5 153.5688,26.9219 L153.5688,29.6406 Z "/><text fill="#000000" font-family="sans-serif" font-size="12" lengthAdjust="spacingAndGlyphs" textLength="31" x="167.4" y="28.1543">Foo2</text><line style="stroke: #A80036; stroke-width: 1.5;" x1="124" x2="213" y1="40" y2="40"/><line style="stroke: #A80036; stroke-width: 1.5;" x1="124" x2="213" y1="48" y2="48"/><ellipse cx="134" cy="59.9023" fill="#84BE84" rx="3" ry="3" style="stroke: #038048; stroke-width: 1.0;"/><a target="_top" xlink:href="http://www.yahoo.com/B1" xlink:title="http://www.yahoo.com/B1"><text fill="#000000" font-family="sans-serif" font-size="11" lengthAdjust="spacingAndGlyphs" textLength="65" x="143" y="62.2104">methods1()</text></a><ellipse cx="134" cy="72.707" fill="#84BE84" rx="3" ry="3" style="stroke: #038048; stroke-width: 1.0;"/><a target="_top" xlink:href="http://www.yahoo.com/B2" xlink:title="http://www.yahoo.com/B2"><text fill="#000000" font-family="sans-serif" font-size="11" lengthAdjust="spacingAndGlyphs" textLength="65" x="143" y="75.0151">methods2()</text></a><path d="M51.5,89.478 C51.5,106.408 51.5,125.5855 51.5,141.751 " fill="none" style="stroke: #A80036; stroke-width: 1.0;"/><polygon fill="none" points="44.5001,89.295,51.5,69.295,58.5001,89.295,44.5001,89.295" style="stroke: #A80036; stroke-width: 1.0;"/></g></svg>