<?xml version="1.0" encoding="UTF-8" standalone="yes"?><svg xmlns="http://www.w3.org/2000/svg" xmlns:xlink="http://www.w3.org/1999/xlink" height="158px" style="width:256px;height:158px;" version="1.1" viewBox="0 0 256 158" width="256px"><defs><filter height="300%" id="f1" width="300%" x="-1" y="-1"><feGaussianBlur result="blurOut" stdDeviation="2.0"/><feColorMatrix in="blurOut" result="blurOut2" type="matrix" values="0 0 0 0 0 0 0 0 0 0 0 0 0 0 0 0 0 0 .4 0"/><feOffset dx="4.0" dy="4.0" in="blurOut2" result="blurOut3"/><feBlend in="SourceGraphic" in2="blurOut3" mode="normal"/></filter></defs><g><line style="stroke: #A80036; stroke-width: 1.0; stroke-dasharray: 5.0,5.0;" x1="63" x2="63" y1="54.5938" y2="103.7266"/><line style="stroke: #A80036; stroke-width: 1.0; stroke-dasharray: 5.0,5.0;" x1="189" x2="189" y1="54.5938" y2="103.7266"/><rect fill="#FEFECE" filter="url(#f1)" height="46.5938" style="stroke: #A80036; stroke-width: 1.5;" width="106" x="8" y="3"/><text fill="#000000" font-family="sans-serif" font-size="14" font-style="italic" lengthAdjust="spacingAndGlyphs" textLength="92" x="15" y="24">«Generated»</text><text fill="#000000" font-family="sans-serif" font-size="14" lengthAdjust="spacingAndGlyphs" textLength="87" x="17.5" y="40.2969">Famous Bob</text><rect fill="#FEFECE" filter="url(#f1)" height="46.5938" style="stroke: #A80036; stroke-width: 1.5;" width="106" x="8" y="102.7266"/><text fill="#000000" font-family="sans-serif" font-size="14" font-style="italic" lengthAdjust="spacingAndGlyphs" textLength="92" x="15" y="123.7266">«Generated»</text><text fill="#000000" font-family="sans-serif" font-size="14" lengthAdjust="spacingAndGlyphs" textLength="87" x="17.5" y="140.0234">Famous Bob</text><rect fill="#FEFECE" filter="url(#f1)" height="46.5938" style="stroke: #A80036; stroke-width: 1.5;" width="119" x="128" y="3"/><ellipse cx="146" cy="21" fill="#ADD1B2" rx="11" ry="11" style="stroke: #A80036; stroke-width: 1.0;"/><path d="M148.9688,26.6406 Q148.3906,26.9375 147.75,27.0859 Q147.1094,27.2344 146.4063,27.2344 Q143.9063,27.2344 142.5859,25.5859 Q141.2656,23.9375 141.2656,20.8125 Q141.2656,17.6875 142.5859,16.0313 Q143.9063,14.375 146.4063,14.375 Q147.1094,14.375 147.7578,14.5313 Q148.4063,14.6875 148.9688,14.9844 L148.9688,17.7031 Q148.3438,17.125 147.75,16.8516 Q147.1563,16.5781 146.5313,16.5781 Q145.1875,16.5781 144.5,17.6484 Q143.8125,18.7188 143.8125,20.8125 Q143.8125,22.9063 144.5,23.9766 Q145.1875,25.0469 146.5313,25.0469 Q147.1563,25.0469 147.75,24.7734 Q148.3438,24.5 148.9688,23.9219 L148.9688,26.6406 Z "/><text fill="#000000" font-family="sans-serif" font-size="14" font-style="italic" lengthAdjust="spacingAndGlyphs" textLength="77" x="163" y="24">«Testable»</text><text fill="#000000" font-family="sans-serif" font-size="14" lengthAdjust="spacingAndGlyphs" textLength="32" x="185.5" y="40.2969">Alice</text><rect fill="#FEFECE" filter="url(#f1)" height="46.5938" style="stroke: #A80036; stroke-width: 1.5;" width="119" x="128" y="102.7266"/><ellipse cx="146" cy="120.7266" fill="#ADD1B2" rx="11" ry="11" style="stroke: #A80036; stroke-width: 1.0;"/><path d="M148.9688,126.3672 Q148.3906,126.6641 147.75,126.8125 Q147.1094,126.9609 146.4063,126.9609 Q143.9063,126.9609 142.5859,125.3125 Q141.2656,123.6641 141.2656,120.5391 Q141.2656,117.4141 142.5859,115.7578 Q143.9063,114.1016 146.4063,114.1016 Q147.1094,114.1016 147.7578,114.2578 Q148.4063,114.4141 148.9688,114.7109 L148.9688,117.4297 Q148.3438,116.8516 147.75,116.5781 Q147.1563,116.3047 146.5313,116.3047 Q145.1875,116.3047 144.5,117.375 Q143.8125,118.4453 143.8125,120.5391 Q143.8125,122.6328 144.5,123.7031 Q145.1875,124.7734 146.5313,124.7734 Q147.1563,124.7734 147.75,124.5 Q148.3438,124.2266 148.9688,123.6484 L148.9688,126.3672 Z "/><text fill="#000000" font-family="sans-serif" font-size="14" font-style="italic" lengthAdjust="spacingAndGlyphs" textLength="77" x="163" y="123.7266">«Testable»</text><text fill="#000000" font-family="sans-serif" font-size="14" lengthAdjust="spacingAndGlyphs" textLength="32" x="185.5" y="140.0234">Alice</text><polygon fill="#A80036" points="177.5,81.5938,187.5,85.5938,177.5,89.5938,181.5,85.5938" style="stroke: #A80036; stroke-width: 1.0;"/><line style="stroke: #A80036; stroke-width: 1.0;" x1="63" x2="183.5" y1="85.5938" y2="85.5938"/><text fill="#000000" font-family="sans-serif" font-size="13" lengthAdjust="spacingAndGlyphs" textLength="90" x="70" y="80.6606">First message</text></g></svg>