<?xml version="1.0" encoding="UTF-8" standalone="yes"?><svg xmlns="http://www.w3.org/2000/svg" xmlns:xlink="http://www.w3.org/1999/xlink" height="423px" style="width:354px;height:423px;" version="1.1" viewBox="0 0 354 423" width="354px"><defs><filter height="300%" id="f1" width="300%" x="-1" y="-1"><feGaussianBlur result="blurOut" stdDeviation="2.0"/><feColorMatrix in="blurOut" result="blurOut2" type="matrix" values="0 0 0 0 0 0 0 0 0 0 0 0 0 0 0 0 0 0 .4 0"/><feOffset dx="4.0" dy="4.0" in="blurOut2" result="blurOut3"/><feBlend in="SourceGraphic" in2="blurOut3" mode="normal"/></filter></defs><g><rect fill="#FFFFFF" filter="url(#f1)" height="283.8047" style="stroke: #000000; stroke-width: 2.0;" width="332" x="13" y="84.4297"/><rect fill="#FFFFFF" height="193.6016" style="stroke: none; stroke-width: 1.0;" width="332" x="13" y="130.6953"/><rect fill="#FFFFFF" filter="url(#f1)" height="135.6641" style="stroke: #000000; stroke-width: 2.0;" width="312" x="23" y="181.6328"/><rect fill="#FFFFFF" filter="url(#f1)" height="46.2656" style="stroke: #000000; stroke-width: 2.0;" width="249" x="33" y="234.8984"/><rect fill="#FFFFFF" height="43.9375" style="stroke: none; stroke-width: 1.0;" width="332" x="13" y="324.2969"/><line style="stroke: #A80036; stroke-width: 1.0; stroke-dasharray: 5.0,5.0;" x1="68" x2="68" y1="38.2969" y2="385.2344"/><line style="stroke: #A80036; stroke-width: 1.0; stroke-dasharray: 5.0,5.0;" x1="249" x2="249" y1="38.2969" y2="385.2344"/><line style="stroke: #A80036; stroke-width: 1.0; stroke-dasharray: 5.0,5.0;" x1="303" x2="303" y1="38.2969" y2="385.2344"/><rect fill="#FEFECE" filter="url(#f1)" height="30.2969" style="stroke: #A80036; stroke-width: 1.5;" width="46" x="43" y="3"/><text fill="#000000" font-family="sans-serif" font-size="14" lengthAdjust="spacingAndGlyphs" textLength="32" x="50" y="22.9951">Alice</text><rect fill="#FEFECE" filter="url(#f1)" height="30.2969" style="stroke: #A80036; stroke-width: 1.5;" width="46" x="43" y="384.2344"/><text fill="#000000" font-family="sans-serif" font-size="14" lengthAdjust="spacingAndGlyphs" textLength="32" x="50" y="404.2295">Alice</text><rect fill="#FEFECE" filter="url(#f1)" height="30.2969" style="stroke: #A80036; stroke-width: 1.5;" width="42" x="226" y="3"/><text fill="#000000" font-family="sans-serif" font-size="14" lengthAdjust="spacingAndGlyphs" textLength="28" x="233" y="22.9951">Bob</text><rect fill="#FEFECE" filter="url(#f1)" height="30.2969" style="stroke: #A80036; stroke-width: 1.5;" width="42" x="226" y="384.2344"/><text fill="#000000" font-family="sans-serif" font-size="14" lengthAdjust="spacingAndGlyphs" textLength="28" x="233" y="404.2295">Bob</text><rect fill="#FEFECE" filter="url(#f1)" height="30.2969" style="stroke: #A80036; stroke-width: 1.5;" width="39" x="282" y="3"/><text fill="#000000" font-family="sans-serif" font-size="14" lengthAdjust="spacingAndGlyphs" textLength="25" x="289" y="22.9951">Log</text><rect fill="#FEFECE" filter="url(#f1)" height="30.2969" style="stroke: #A80036; stroke-width: 1.5;" width="39" x="282" y="384.2344"/><text fill="#000000" font-family="sans-serif" font-size="14" lengthAdjust="spacingAndGlyphs" textLength="25" x="289" y="404.2295">Log</text><polygon fill="#A80036" points="237,65.2969,247,69.2969,237,73.2969,241,69.2969" style="stroke: #A80036; stroke-width: 1.0;"/><line style="stroke: #A80036; stroke-width: 1.0;" x1="68" x2="243" y1="69.2969" y2="69.2969"/><text fill="#000000" font-family="sans-serif" font-size="13" lengthAdjust="spacingAndGlyphs" textLength="149" x="75" y="64.3638">Authentication Request</text><rect fill="none" height="283.8047" style="stroke: #000000; stroke-width: 2.0;" width="332" x="13" y="84.4297"/><polygon fill="#EEEEEE" points="13,84.4297,77,84.4297,77,91.4297,67,101.4297,13,101.4297,13,84.4297" style="stroke: #000000; stroke-width: 2.0;"/><text fill="#000000" font-family="sans-serif" font-size="13" font-weight="bold" lengthAdjust="spacingAndGlyphs" textLength="19" x="28" y="97.4966">alt</text><text fill="#000000" font-family="sans-serif" font-size="11" font-weight="bold" lengthAdjust="spacingAndGlyphs" textLength="112" x="92" y="96.6401">[successful case]</text><polygon fill="#A80036" points="79,118.5625,69,122.5625,79,126.5625,75,122.5625" style="stroke: #A80036; stroke-width: 1.0;"/><line style="stroke: #A80036; stroke-width: 1.0;" x1="73" x2="248" y1="122.5625" y2="122.5625"/><text fill="#000000" font-family="sans-serif" font-size="13" lengthAdjust="spacingAndGlyphs" textLength="157" x="85" y="117.6294">Authentication Accepted</text><line style="stroke: #000000; stroke-width: 1.0; stroke-dasharray: 2.0,2.0;" x1="13" x2="345" y1="131.6953" y2="131.6953"/><text fill="#000000" font-family="sans-serif" font-size="11" font-weight="bold" lengthAdjust="spacingAndGlyphs" textLength="138" x="18" y="141.9058">[some kind of failure]</text><polygon fill="#A80036" points="79,162.5,69,166.5,79,170.5,75,166.5" style="stroke: #A80036; stroke-width: 1.0;"/><line style="stroke: #A80036; stroke-width: 1.0;" x1="73" x2="248" y1="166.5" y2="166.5"/><text fill="#000000" font-family="sans-serif" font-size="13" lengthAdjust="spacingAndGlyphs" textLength="139" x="85" y="161.5669">Authentication Failure</text><rect fill="none" height="135.6641" style="stroke: #000000; stroke-width: 2.0;" width="312" x="23" y="181.6328"/><polygon fill="#EEEEEE" points="23,181.6328,165,181.6328,165,188.6328,155,198.6328,23,198.6328,23,181.6328" style="stroke: #000000; stroke-width: 2.0;"/><text fill="#000000" font-family="sans-serif" font-size="13" font-weight="bold" lengthAdjust="spacingAndGlyphs" textLength="97" x="38" y="194.6997">My own label</text><polygon fill="#A80036" points="291.5,215.7656,301.5,219.7656,291.5,223.7656,295.5,219.7656" style="stroke: #A80036; stroke-width: 1.0;"/><line style="stroke: #A80036; stroke-width: 1.0;" x1="68" x2="297.5" y1="219.7656" y2="219.7656"/><text fill="#000000" font-family="sans-serif" font-size="13" lengthAdjust="spacingAndGlyphs" textLength="101" x="75" y="214.8325">Log attack start</text><rect fill="none" height="46.2656" style="stroke: #000000; stroke-width: 2.0;" width="249" x="33" y="234.8984"/><polygon fill="#EEEEEE" points="33,234.8984,110,234.8984,110,241.8984,100,251.8984,33,251.8984,33,234.8984" style="stroke: #000000; stroke-width: 2.0;"/><text fill="#000000" font-family="sans-serif" font-size="13" font-weight="bold" lengthAdjust="spacingAndGlyphs" textLength="32" x="48" y="247.9653">loop</text><text fill="#000000" font-family="sans-serif" font-size="11" font-weight="bold" lengthAdjust="spacingAndGlyphs" textLength="81" x="125" y="247.1089">[1000 times]</text><polygon fill="#A80036" points="237,269.0313,247,273.0313,237,277.0313,241,273.0313" style="stroke: #A80036; stroke-width: 1.0;"/><line style="stroke: #A80036; stroke-width: 1.0;" x1="68" x2="243" y1="273.0313" y2="273.0313"/><text fill="#000000" font-family="sans-serif" font-size="13" lengthAdjust="spacingAndGlyphs" textLength="74" x="75" y="268.0981">DNS Attack</text><polygon fill="#A80036" points="291.5,305.1641,301.5,309.1641,291.5,313.1641,295.5,309.1641" style="stroke: #A80036; stroke-width: 1.0;"/><line style="stroke: #A80036; stroke-width: 1.0;" x1="68" x2="297.5" y1="309.1641" y2="309.1641"/><text fill="#000000" font-family="sans-serif" font-size="13" lengthAdjust="spacingAndGlyphs" textLength="95" x="75" y="304.231">Log attack end</text><line style="stroke: #000000; stroke-width: 1.0; stroke-dasharray: 2.0,2.0;" x1="13" x2="345" y1="325.2969" y2="325.2969"/><text fill="#000000" font-family="sans-serif" font-size="11" font-weight="bold" lengthAdjust="spacingAndGlyphs" textLength="155" x="18" y="335.5073">[Another type of failure]</text><polygon fill="#A80036" points="79,356.1016,69,360.1016,79,364.1016,75,360.1016" style="stroke: #A80036; stroke-width: 1.0;"/><line style="stroke: #A80036; stroke-width: 1.0;" x1="73" x2="248" y1="360.1016" y2="360.1016"/><text fill="#000000" font-family="sans-serif" font-size="13" lengthAdjust="spacingAndGlyphs" textLength="88" x="85" y="355.1685">Please repeat</text></g></svg>