<?xml version="1.0" encoding="UTF-8" standalone="yes"?><svg xmlns="http://www.w3.org/2000/svg" xmlns:xlink="http://www.w3.org/1999/xlink" height="299px" style="width:302px;height:299px;" version="1.1" viewBox="0 0 302 299" width="302px"><defs><filter height="300%" id="f1" width="300%" x="-1" y="-1"><feGaussianBlur result="blurOut" stdDeviation="2.0"/><feColorMatrix in="blurOut" result="blurOut2" type="matrix" values="0 0 0 0 0 0 0 0 0 0 0 0 0 0 0 0 0 0 .4 0"/><feOffset dx="4.0" dy="4.0" in="blurOut2" result="blurOut3"/><feBlend in="SourceGraphic" in2="blurOut3" mode="normal"/></filter></defs><g><line style="stroke: #A80036; stroke-width: 1.0; stroke-dasharray: 5.0,5.0;" x1="33" x2="33" y1="38.2969" y2="261.0938"/><line style="stroke: #A80036; stroke-width: 1.0; stroke-dasharray: 5.0,5.0;" x1="269" x2="269" y1="38.2969" y2="261.0938"/><rect fill="#FEFECE" filter="url(#f1)" height="30.2969" style="stroke: #A80036; stroke-width: 1.5;" width="46" x="8" y="3"/><text fill="#000000" font-family="sans-serif" font-size="14" lengthAdjust="spacingAndGlyphs" textLength="32" x="15" y="22.9951">Alice</text><rect fill="#FEFECE" filter="url(#f1)" height="30.2969" style="stroke: #A80036; stroke-width: 1.5;" width="46" x="8" y="260.0938"/><text fill="#000000" font-family="sans-serif" font-size="14" lengthAdjust="spacingAndGlyphs" textLength="32" x="15" y="280.0889">Alice</text><rect fill="#FEFECE" filter="url(#f1)" height="30.2969" style="stroke: #A80036; stroke-width: 1.5;" width="42" x="246" y="3"/><text fill="#000000" font-family="sans-serif" font-size="14" lengthAdjust="spacingAndGlyphs" textLength="28" x="253" y="22.9951">Bob</text><rect fill="#FEFECE" filter="url(#f1)" height="30.2969" style="stroke: #A80036; stroke-width: 1.5;" width="42" x="246" y="260.0938"/><text fill="#000000" font-family="sans-serif" font-size="14" lengthAdjust="spacingAndGlyphs" textLength="28" x="253" y="280.0889">Bob</text><rect fill="#EEEEEE" filter="url(#f1)" height="3" style="stroke: #EEEEEE; stroke-width: 1.0;" width="294" x="3" y="68.8633"/><line style="stroke: #000000; stroke-width: 1.0;" x1="3" x2="297" y1="68.8633" y2="68.8633"/><line style="stroke: #000000; stroke-width: 1.0;" x1="3" x2="297" y1="71.8633" y2="71.8633"/><rect fill="#EEEEEE" filter="url(#f1)" height="23.1328" style="stroke: #000000; stroke-width: 2.0;" width="108" x="96" y="58.2969"/><text fill="#000000" font-family="sans-serif" font-size="13" font-weight="bold" lengthAdjust="spacingAndGlyphs" textLength="89" x="102" y="74.3638">Initialisation</text><polygon fill="#A80036" points="257,108.4297,267,112.4297,257,116.4297,261,112.4297" style="stroke: #A80036; stroke-width: 1.0;"/><line style="stroke: #A80036; stroke-width: 1.0;" x1="33" x2="263" y1="112.4297" y2="112.4297"/><text fill="#000000" font-family="sans-serif" font-size="13" lengthAdjust="spacingAndGlyphs" textLength="149" x="40" y="107.4966">Authentication Request</text><polygon fill="#A80036" points="44,137.5625,34,141.5625,44,145.5625,40,141.5625" style="stroke: #A80036; stroke-width: 1.0;"/><line style="stroke: #A80036; stroke-width: 1.0; stroke-dasharray: 2.0,2.0;" x1="38" x2="268" y1="141.5625" y2="141.5625"/><text fill="#000000" font-family="sans-serif" font-size="13" lengthAdjust="spacingAndGlyphs" textLength="159" x="50" y="136.6294">Authentication Response</text><rect fill="#EEEEEE" filter="url(#f1)" height="3" style="stroke: #EEEEEE; stroke-width: 1.0;" width="294" x="3" y="170.2617"/><line style="stroke: #000000; stroke-width: 1.0;" x1="3" x2="297" y1="170.2617" y2="170.2617"/><line style="stroke: #000000; stroke-width: 1.0;" x1="3" x2="297" y1="173.2617" y2="173.2617"/><rect fill="#EEEEEE" filter="url(#f1)" height="23.1328" style="stroke: #000000; stroke-width: 2.0;" width="95" x="102.5" y="159.6953"/><text fill="#000000" font-family="sans-serif" font-size="13" font-weight="bold" lengthAdjust="spacingAndGlyphs" textLength="76" x="108.5" y="175.7622">Repetition</text><polygon fill="#A80036" points="257,209.8281,267,213.8281,257,217.8281,261,213.8281" style="stroke: #A80036; stroke-width: 1.0;"/><line style="stroke: #A80036; stroke-width: 1.0;" x1="33" x2="263" y1="213.8281" y2="213.8281"/><text fill="#000000" font-family="sans-serif" font-size="13" lengthAdjust="spacingAndGlyphs" textLength="203" x="40" y="208.895">Another authentication Request</text><polygon fill="#A80036" points="44,238.9609,34,242.9609,44,246.9609,40,242.9609" style="stroke: #A80036; stroke-width: 1.0;"/><line style="stroke: #A80036; stroke-width: 1.0; stroke-dasharray: 2.0,2.0;" x1="38" x2="268" y1="242.9609" y2="242.9609"/><text fill="#000000" font-family="sans-serif" font-size="13" lengthAdjust="spacingAndGlyphs" textLength="212" x="50" y="238.0278">another authentication Response</text></g></svg>