<?xml version="1.0" encoding="UTF-8" standalone="yes"?><svg xmlns="http://www.w3.org/2000/svg" xmlns:xlink="http://www.w3.org/1999/xlink" height="255px" style="width:254px;height:255px;" version="1.1" viewBox="0 0 254 255" width="254px"><defs><filter height="300%" id="f1" width="300%" x="-1" y="-1"><feGaussianBlur result="blurOut" stdDeviation="2.0"/><feColorMatrix in="blurOut" result="blurOut2" type="matrix" values="0 0 0 0 0 0 0 0 0 0 0 0 0 0 0 0 0 0 .4 0"/><feOffset dx="4.0" dy="4.0" in="blurOut2" result="blurOut3"/><feBlend in="SourceGraphic" in2="blurOut3" mode="normal"/></filter></defs><g><rect fill="#FFFFFF" filter="url(#f1)" height="129.5313" style="stroke: #A80036; stroke-width: 1.0;" width="10" x="71" y="69.2969"/><rect fill="#FFFFFF" filter="url(#f1)" height="63.2656" style="stroke: #A80036; stroke-width: 1.0;" width="10" x="76" y="106.4297"/><line style="stroke: #A80036; stroke-width: 1.0; stroke-dasharray: 5.0,5.0;" x1="75.5" x2="75.5" y1="38.2969" y2="216.9609"/><rect fill="#FEFECE" filter="url(#f1)" height="30.2969" style="stroke: #A80036; stroke-width: 1.5;" width="23" x="62.5" y="3"/><text fill="#000000" font-family="sans-serif" font-size="14" lengthAdjust="spacingAndGlyphs" textLength="9" x="69.5" y="22.9951">A</text><rect fill="#FEFECE" filter="url(#f1)" height="30.2969" style="stroke: #A80036; stroke-width: 1.5;" width="23" x="62.5" y="215.9609"/><text fill="#000000" font-family="sans-serif" font-size="14" lengthAdjust="spacingAndGlyphs" textLength="9" x="69.5" y="235.9561">A</text><rect fill="#FFFFFF" filter="url(#f1)" height="129.5313" style="stroke: #A80036; stroke-width: 1.0;" width="10" x="71" y="69.2969"/><rect fill="#FFFFFF" filter="url(#f1)" height="63.2656" style="stroke: #A80036; stroke-width: 1.0;" width="10" x="76" y="106.4297"/><polygon fill="#A80036" points="59,65.2969,69,69.2969,59,73.2969,63,69.2969" style="stroke: #A80036; stroke-width: 1.0;"/><line style="stroke: #A80036; stroke-width: 1.0;" x1="3" x2="65" y1="69.2969" y2="69.2969"/><text fill="#000000" font-family="sans-serif" font-size="13" lengthAdjust="spacingAndGlyphs" textLength="49" x="10" y="64.3638">DoWork</text><line style="stroke: #A80036; stroke-width: 1.0;" x1="81" x2="128" y1="93.5625" y2="93.5625"/><line style="stroke: #A80036; stroke-width: 1.0;" x1="128" x2="128" y1="93.5625" y2="106.5625"/><line style="stroke: #A80036; stroke-width: 1.0;" x1="87" x2="128" y1="106.5625" y2="106.5625"/><polygon fill="#A80036" points="97,102.5625,87,106.5625,97,110.5625,93,106.5625" style="stroke: #A80036; stroke-width: 1.0;"/><text fill="#000000" font-family="sans-serif" font-size="13" lengthAdjust="spacingAndGlyphs" textLength="73" x="93" y="88.4966">Internal call</text><polygon fill="#A80036" points="243,136.5625,253,140.5625,243,144.5625,247,140.5625" style="stroke: #A80036; stroke-width: 1.0;"/><line style="stroke: #A80036; stroke-width: 1.0;" x1="86" x2="249" y1="140.5625" y2="140.5625"/><text fill="#000000" font-family="sans-serif" font-size="13" lengthAdjust="spacingAndGlyphs" textLength="145" x="93" y="135.6294">&lt;&lt; createRequest &gt;&gt;</text><polygon fill="#A80036" points="92,165.6953,82,169.6953,92,173.6953,88,169.6953" style="stroke: #A80036; stroke-width: 1.0;"/><line style="stroke: #A80036; stroke-width: 1.0; stroke-dasharray: 2.0,2.0;" x1="86" x2="254" y1="169.6953" y2="169.6953"/><text fill="#000000" font-family="sans-serif" font-size="13" lengthAdjust="spacingAndGlyphs" textLength="103" x="98" y="164.7622">RequestCreated</text><polygon fill="#A80036" points="14,194.8281,4,198.8281,14,202.8281,10,198.8281" style="stroke: #A80036; stroke-width: 1.0;"/><line style="stroke: #A80036; stroke-width: 1.0;" x1="8" x2="75" y1="198.8281" y2="198.8281"/><text fill="#000000" font-family="sans-serif" font-size="13" lengthAdjust="spacingAndGlyphs" textLength="34" x="20" y="193.895">Done</text></g></svg>