<?xml version="1.0" encoding="UTF-8" standalone="yes"?><svg xmlns="http://www.w3.org/2000/svg" xmlns:xlink="http://www.w3.org/1999/xlink" height="244px" style="width:365px;height:244px;" version="1.1" viewBox="0 0 365 244" width="365px"><defs><filter height="300%" id="f1" width="300%" x="-1" y="-1"><feGaussianBlur result="blurOut" stdDeviation="2.0"/><feColorMatrix in="blurOut" result="blurOut2" type="matrix" values="0 0 0 0 0 0 0 0 0 0 0 0 0 0 0 0 0 0 .4 0"/><feOffset dx="4.0" dy="4.0" in="blurOut2" result="blurOut3"/><feBlend in="SourceGraphic" in2="blurOut3" mode="normal"/></filter></defs><g><line style="stroke: #A80036; stroke-width: 1.0; stroke-dasharray: 5.0,5.0;" x1="148" x2="148" y1="38.2969" y2="205.9609"/><line style="stroke: #A80036; stroke-width: 1.0; stroke-dasharray: 5.0,5.0;" x1="206" x2="206" y1="38.2969" y2="205.9609"/><rect fill="#FEFECE" filter="url(#f1)" height="30.2969" style="stroke: #A80036; stroke-width: 1.5;" width="46" x="123" y="3"/><text fill="#000000" font-family="sans-serif" font-size="14" lengthAdjust="spacingAndGlyphs" textLength="32" x="130" y="22.9951">Alice</text><rect fill="#FEFECE" filter="url(#f1)" height="30.2969" style="stroke: #A80036; stroke-width: 1.5;" width="46" x="123" y="204.9609"/><text fill="#000000" font-family="sans-serif" font-size="14" lengthAdjust="spacingAndGlyphs" textLength="32" x="130" y="224.9561">Alice</text><rect fill="#FEFECE" filter="url(#f1)" height="30.2969" style="stroke: #A80036; stroke-width: 1.5;" width="42" x="183" y="3"/><text fill="#000000" font-family="sans-serif" font-size="14" lengthAdjust="spacingAndGlyphs" textLength="28" x="190" y="22.9951">Bob</text><rect fill="#FEFECE" filter="url(#f1)" height="30.2969" style="stroke: #A80036; stroke-width: 1.5;" width="42" x="183" y="204.9609"/><text fill="#000000" font-family="sans-serif" font-size="14" lengthAdjust="spacingAndGlyphs" textLength="28" x="190" y="224.9561">Bob</text><polygon fill="#A80036" points="194,70.2969,204,74.2969,194,78.2969,198,74.2969" style="stroke: #A80036; stroke-width: 1.0;"/><line style="stroke: #A80036; stroke-width: 1.0;" x1="148" x2="200" y1="74.2969" y2="74.2969"/><text fill="#000000" font-family="sans-serif" font-size="13" lengthAdjust="spacingAndGlyphs" textLength="30" x="155" y="69.3638">hello</text><polygon fill="#FBFB77" filter="url(#f1)" points="8,53.2969,8,78.2969,139,78.2969,139,63.2969,129,53.2969,8,53.2969" style="stroke: #A80036; stroke-width: 1.0;"/><line style="stroke: #A80036; stroke-width: 1.0;" x1="129" x2="129" y1="53.2969" y2="63.2969"/><line style="stroke: #A80036; stroke-width: 1.0;" x1="139" x2="129" y1="63.2969" y2="63.2969"/><text fill="#000000" font-family="sans-serif" font-size="13" lengthAdjust="spacingAndGlyphs" textLength="110" x="14" y="70.3638">this is a first note</text><polygon fill="#A80036" points="159,109.4297,149,113.4297,159,117.4297,155,113.4297" style="stroke: #A80036; stroke-width: 1.0;"/><line style="stroke: #A80036; stroke-width: 1.0;" x1="153" x2="205" y1="113.4297" y2="113.4297"/><text fill="#000000" font-family="sans-serif" font-size="13" lengthAdjust="spacingAndGlyphs" textLength="15" x="165" y="108.4966">ok</text><polygon fill="#FBFB77" filter="url(#f1)" points="211,92.4297,211,117.4297,356,117.4297,356,102.4297,346,92.4297,211,92.4297" style="stroke: #A80036; stroke-width: 1.0;"/><line style="stroke: #A80036; stroke-width: 1.0;" x1="346" x2="346" y1="92.4297" y2="102.4297"/><line style="stroke: #A80036; stroke-width: 1.0;" x1="356" x2="346" y1="102.4297" y2="102.4297"/><text fill="#000000" font-family="sans-serif" font-size="13" lengthAdjust="spacingAndGlyphs" textLength="124" x="217" y="109.4966">this is another note</text><line style="stroke: #A80036; stroke-width: 1.0;" x1="206" x2="248" y1="161.3281" y2="161.3281"/><line style="stroke: #A80036; stroke-width: 1.0;" x1="248" x2="248" y1="161.3281" y2="174.3281"/><line style="stroke: #A80036; stroke-width: 1.0;" x1="207" x2="248" y1="174.3281" y2="174.3281"/><polygon fill="#A80036" points="217,170.3281,207,174.3281,217,178.3281,213,174.3281" style="stroke: #A80036; stroke-width: 1.0;"/><text fill="#000000" font-family="sans-serif" font-size="13" lengthAdjust="spacingAndGlyphs" textLength="82" x="213" y="156.2622">I am thinking</text><polygon fill="#FBFB77" filter="url(#f1)" points="52,131.5625,52,186.5625,197,186.5625,197,141.5625,187,131.5625,52,131.5625" style="stroke: #A80036; stroke-width: 1.0;"/><line style="stroke: #A80036; stroke-width: 1.0;" x1="187" x2="187" y1="131.5625" y2="141.5625"/><line style="stroke: #A80036; stroke-width: 1.0;" x1="197" x2="187" y1="141.5625" y2="141.5625"/><text fill="#000000" font-family="sans-serif" font-size="13" lengthAdjust="spacingAndGlyphs" textLength="41" x="58" y="148.6294">a note</text><text fill="#000000" font-family="sans-serif" font-size="13" lengthAdjust="spacingAndGlyphs" textLength="124" x="58" y="163.7622">can also be defined</text><text fill="#000000" font-family="sans-serif" font-size="13" lengthAdjust="spacingAndGlyphs" textLength="99" x="58" y="178.895">on several lines</text></g></svg>