<?xml version="1.0" encoding="UTF-8" standalone="yes"?><svg xmlns="http://www.w3.org/2000/svg" xmlns:xlink="http://www.w3.org/1999/xlink" height="271px" style="width:398px;height:271px;" version="1.1" viewBox="0 0 398 271" width="398px"><defs><filter height="300%" id="f1" width="300%" x="-1" y="-1"><feGaussianBlur result="blurOut" stdDeviation="2.0"/><feColorMatrix in="blurOut" result="blurOut2" type="matrix" values="0 0 0 0 0 0 0 0 0 0 0 0 0 0 0 0 0 0 .4 0"/><feOffset dx="4.0" dy="4.0" in="blurOut2" result="blurOut3"/><feBlend in="SourceGraphic" in2="blurOut3" mode="normal"/></filter></defs><g><rect fill="#FFFFFF" filter="url(#f1)" height="145.6641" style="stroke: #A80036; stroke-width: 1.0;" width="10" x="101" y="69.2969"/><rect fill="#FFFFFF" filter="url(#f1)" height="87.3984" style="stroke: #A80036; stroke-width: 1.0;" width="10" x="275" y="98.4297"/><rect fill="#FFFFFF" filter="url(#f1)" height="29.1328" style="stroke: #A80036; stroke-width: 1.0;" width="10" x="374" y="127.5625"/><line style="stroke: #A80036; stroke-width: 1.0; stroke-dasharray: 5.0,5.0;" x1="33" x2="33" y1="38.2969" y2="233.0938"/><line style="stroke: #A80036; stroke-width: 1.0; stroke-dasharray: 5.0,5.0;" x1="105.5" x2="105.5" y1="38.2969" y2="233.0938"/><line style="stroke: #A80036; stroke-width: 1.0; stroke-dasharray: 5.0,5.0;" x1="280" x2="280" y1="38.2969" y2="233.0938"/><line style="stroke: #A80036; stroke-width: 1.0; stroke-dasharray: 5.0,5.0;" x1="379" x2="379" y1="38.2969" y2="233.0938"/><rect fill="#FEFECE" filter="url(#f1)" height="30.2969" style="stroke: #A80036; stroke-width: 1.5;" width="46" x="8" y="3"/><text fill="#000000" font-family="sans-serif" font-size="14" lengthAdjust="spacingAndGlyphs" textLength="32" x="15" y="22.9951">User</text><rect fill="#FEFECE" filter="url(#f1)" height="30.2969" style="stroke: #A80036; stroke-width: 1.5;" width="46" x="8" y="232.0938"/><text fill="#000000" font-family="sans-serif" font-size="14" lengthAdjust="spacingAndGlyphs" textLength="32" x="15" y="252.0889">User</text><rect fill="#FEFECE" filter="url(#f1)" height="30.2969" style="stroke: #A80036; stroke-width: 1.5;" width="23" x="92.5" y="3"/><text fill="#000000" font-family="sans-serif" font-size="14" lengthAdjust="spacingAndGlyphs" textLength="9" x="99.5" y="22.9951">A</text><rect fill="#FEFECE" filter="url(#f1)" height="30.2969" style="stroke: #A80036; stroke-width: 1.5;" width="23" x="92.5" y="232.0938"/><text fill="#000000" font-family="sans-serif" font-size="14" lengthAdjust="spacingAndGlyphs" textLength="9" x="99.5" y="252.0889">A</text><rect fill="#FEFECE" filter="url(#f1)" height="30.2969" style="stroke: #A80036; stroke-width: 1.5;" width="24" x="266" y="3"/><text fill="#000000" font-family="sans-serif" font-size="14" lengthAdjust="spacingAndGlyphs" textLength="10" x="273" y="22.9951">B</text><rect fill="#FEFECE" filter="url(#f1)" height="30.2969" style="stroke: #A80036; stroke-width: 1.5;" width="24" x="266" y="232.0938"/><text fill="#000000" font-family="sans-serif" font-size="14" lengthAdjust="spacingAndGlyphs" textLength="10" x="273" y="252.0889">B</text><rect fill="#FEFECE" filter="url(#f1)" height="30.2969" style="stroke: #A80036; stroke-width: 1.5;" width="24" x="365" y="3"/><text fill="#000000" font-family="sans-serif" font-size="14" lengthAdjust="spacingAndGlyphs" textLength="10" x="372" y="22.9951">C</text><rect fill="#FEFECE" filter="url(#f1)" height="30.2969" style="stroke: #A80036; stroke-width: 1.5;" width="24" x="365" y="232.0938"/><text fill="#000000" font-family="sans-serif" font-size="14" lengthAdjust="spacingAndGlyphs" textLength="10" x="372" y="252.0889">C</text><rect fill="#FFFFFF" filter="url(#f1)" height="145.6641" style="stroke: #A80036; stroke-width: 1.0;" width="10" x="101" y="69.2969"/><rect fill="#FFFFFF" filter="url(#f1)" height="87.3984" style="stroke: #A80036; stroke-width: 1.0;" width="10" x="275" y="98.4297"/><rect fill="#FFFFFF" filter="url(#f1)" height="29.1328" style="stroke: #A80036; stroke-width: 1.0;" width="10" x="374" y="127.5625"/><polygon fill="#A80036" points="89,65.2969,99,69.2969,89,73.2969,93,69.2969" style="stroke: #A80036; stroke-width: 1.0;"/><line style="stroke: #A80036; stroke-width: 1.0;" x1="33" x2="95" y1="69.2969" y2="69.2969"/><text fill="#000000" font-family="sans-serif" font-size="13" lengthAdjust="spacingAndGlyphs" textLength="49" x="40" y="64.3638">DoWork</text><polygon fill="#A80036" points="263,94.4297,273,98.4297,263,102.4297,267,98.4297" style="stroke: #A80036; stroke-width: 1.0;"/><line style="stroke: #A80036; stroke-width: 1.0;" x1="111" x2="269" y1="98.4297" y2="98.4297"/><text fill="#000000" font-family="sans-serif" font-size="13" lengthAdjust="spacingAndGlyphs" textLength="145" x="118" y="93.4966">&lt;&lt; createRequest &gt;&gt;</text><polygon fill="#A80036" points="362,123.5625,372,127.5625,362,131.5625,366,127.5625" style="stroke: #A80036; stroke-width: 1.0;"/><line style="stroke: #A80036; stroke-width: 1.0;" x1="285" x2="368" y1="127.5625" y2="127.5625"/><text fill="#000000" font-family="sans-serif" font-size="13" lengthAdjust="spacingAndGlyphs" textLength="49" x="292" y="122.6294">DoWork</text><polygon fill="#A80036" points="296,152.6953,286,156.6953,296,160.6953,292,156.6953" style="stroke: #A80036; stroke-width: 1.0;"/><line style="stroke: #A80036; stroke-width: 1.0; stroke-dasharray: 2.0,2.0;" x1="290" x2="378" y1="156.6953" y2="156.6953"/><text fill="#000000" font-family="sans-serif" font-size="13" lengthAdjust="spacingAndGlyphs" textLength="65" x="302" y="151.7622">WorkDone</text><line style="stroke: #A80036; stroke-width: 2.0;" x1="370" x2="388" y1="147.6953" y2="165.6953"/><line style="stroke: #A80036; stroke-width: 2.0;" x1="370" x2="388" y1="165.6953" y2="147.6953"/><polygon fill="#A80036" points="122,181.8281,112,185.8281,122,189.8281,118,185.8281" style="stroke: #A80036; stroke-width: 1.0;"/><line style="stroke: #A80036; stroke-width: 1.0; stroke-dasharray: 2.0,2.0;" x1="116" x2="279" y1="185.8281" y2="185.8281"/><text fill="#000000" font-family="sans-serif" font-size="13" lengthAdjust="spacingAndGlyphs" textLength="103" x="128" y="180.895">RequestCreated</text><polygon fill="#A80036" points="44,210.9609,34,214.9609,44,218.9609,40,214.9609" style="stroke: #A80036; stroke-width: 1.0;"/><line style="stroke: #A80036; stroke-width: 1.0;" x1="38" x2="105" y1="214.9609" y2="214.9609"/><text fill="#000000" font-family="sans-serif" font-size="13" lengthAdjust="spacingAndGlyphs" textLength="34" x="50" y="210.0278">Done</text></g></svg>