<?xml version="1.0" encoding="UTF-8" standalone="yes"?><svg xmlns="http://www.w3.org/2000/svg" xmlns:xlink="http://www.w3.org/1999/xlink" height="352px" style="width:366px;height:352px;" version="1.1" viewBox="0 0 366 352" width="366px"><defs><filter height="300%" id="f1" width="300%" x="-1" y="-1"><feGaussianBlur result="blurOut" stdDeviation="2.0"/><feColorMatrix in="blurOut" result="blurOut2" type="matrix" values="0 0 0 0 0 0 0 0 0 0 0 0 0 0 0 0 0 0 .4 0"/><feOffset dx="4.0" dy="4.0" in="blurOut2" result="blurOut3"/><feBlend in="SourceGraphic" in2="blurOut3" mode="normal"/></filter></defs><g><line style="stroke: #A80036; stroke-width: 1.0; stroke-dasharray: 5.0,5.0;" x1="141" x2="141" y1="38.2969" y2="314.4922"/><line style="stroke: #A80036; stroke-width: 1.0; stroke-dasharray: 5.0,5.0;" x1="199" x2="199" y1="38.2969" y2="314.4922"/><rect fill="#FEFECE" filter="url(#f1)" height="30.2969" style="stroke: #A80036; stroke-width: 1.5;" width="46" x="116" y="3"/><text fill="#000000" font-family="sans-serif" font-size="14" lengthAdjust="spacingAndGlyphs" textLength="32" x="123" y="22.9951">Alice</text><rect fill="#FEFECE" filter="url(#f1)" height="30.2969" style="stroke: #A80036; stroke-width: 1.5;" width="46" x="116" y="313.4922"/><text fill="#000000" font-family="sans-serif" font-size="14" lengthAdjust="spacingAndGlyphs" textLength="32" x="123" y="333.4873">Alice</text><rect fill="#FEFECE" filter="url(#f1)" height="30.2969" style="stroke: #A80036; stroke-width: 1.5;" width="42" x="176" y="3"/><text fill="#000000" font-family="sans-serif" font-size="14" lengthAdjust="spacingAndGlyphs" textLength="28" x="183" y="22.9951">Bob</text><rect fill="#FEFECE" filter="url(#f1)" height="30.2969" style="stroke: #A80036; stroke-width: 1.5;" width="42" x="176" y="313.4922"/><text fill="#000000" font-family="sans-serif" font-size="14" lengthAdjust="spacingAndGlyphs" textLength="28" x="183" y="333.4873">Bob</text><polygon fill="#00FFFF" filter="url(#f1)" points="8,53.2969,8,93.2969,132,93.2969,132,63.2969,122,53.2969,8,53.2969" style="stroke: #A80036; stroke-width: 1.0;"/><line style="stroke: #A80036; stroke-width: 1.0;" x1="122" x2="122" y1="53.2969" y2="63.2969"/><line style="stroke: #A80036; stroke-width: 1.0;" x1="132" x2="122" y1="63.2969" y2="63.2969"/><text fill="#000000" font-family="sans-serif" font-size="13" lengthAdjust="spacingAndGlyphs" textLength="103" x="14" y="70.3638">This is displayed</text><text fill="#000000" font-family="sans-serif" font-size="13" lengthAdjust="spacingAndGlyphs" textLength="74" x="14" y="85.4966">left of Alice.</text><polygon fill="#FBFB77" filter="url(#f1)" points="146,107.5625,146,132.5625,357,132.5625,357,117.5625,347,107.5625,146,107.5625" style="stroke: #A80036; stroke-width: 1.0;"/><line style="stroke: #A80036; stroke-width: 1.0;" x1="347" x2="347" y1="107.5625" y2="117.5625"/><line style="stroke: #A80036; stroke-width: 1.0;" x1="357" x2="347" y1="117.5625" y2="117.5625"/><text fill="#000000" font-family="sans-serif" font-size="13" lengthAdjust="spacingAndGlyphs" textLength="190" x="152" y="124.6294">This is displayed right of Alice.</text><polygon fill="#FBFB77" filter="url(#f1)" points="42,146.6953,42,171.6953,236,171.6953,236,156.6953,226,146.6953,42,146.6953" style="stroke: #A80036; stroke-width: 1.0;"/><line style="stroke: #A80036; stroke-width: 1.0;" x1="226" x2="226" y1="146.6953" y2="156.6953"/><line style="stroke: #A80036; stroke-width: 1.0;" x1="236" x2="226" y1="156.6953" y2="156.6953"/><text fill="#000000" font-family="sans-serif" font-size="13" lengthAdjust="spacingAndGlyphs" textLength="173" x="48" y="163.7622">This is displayed over Alice.</text><polygon fill="#FFAAAA" filter="url(#f1)" points="94,185.8281,94,225.8281,242,225.8281,242,195.8281,232,185.8281,94,185.8281" style="stroke: #A80036; stroke-width: 1.0;"/><line style="stroke: #A80036; stroke-width: 1.0;" x1="232" x2="232" y1="185.8281" y2="195.8281"/><line style="stroke: #A80036; stroke-width: 1.0;" x1="242" x2="232" y1="195.8281" y2="195.8281"/><text fill="#000000" font-family="sans-serif" font-size="13" lengthAdjust="spacingAndGlyphs" textLength="103" x="100" y="202.895">This is displayed</text><text fill="#000000" font-family="sans-serif" font-size="13" lengthAdjust="spacingAndGlyphs" textLength="123" x="104" y="218.0278">over Bob and Alice.</text><polygon fill="#FBFB77" filter="url(#f1)" points="99,240.0938,99,295.0938,237,295.0938,237,250.0938,227,240.0938,99,240.0938" style="stroke: #A80036; stroke-width: 1.0;"/><line style="stroke: #A80036; stroke-width: 1.0;" x1="227" x2="227" y1="240.0938" y2="250.0938"/><line style="stroke: #A80036; stroke-width: 1.0;" x1="237" x2="227" y1="250.0938" y2="250.0938"/><text fill="#000000" font-family="sans-serif" font-size="13" lengthAdjust="spacingAndGlyphs" textLength="117" x="105" y="257.1606">This is yet another</text><text fill="#000000" font-family="sans-serif" font-size="13" lengthAdjust="spacingAndGlyphs" textLength="71" x="105" y="272.2935">example of</text><text fill="#000000" font-family="sans-serif" font-size="13" lengthAdjust="spacingAndGlyphs" textLength="76" x="105" y="287.4263">a long note.</text></g></svg>