<?xml version="1.0" encoding="UTF-8" standalone="yes"?><svg xmlns="http://www.w3.org/2000/svg" xmlns:xlink="http://www.w3.org/1999/xlink" height="418px" style="width:125px;height:418px;" version="1.1" viewBox="0 0 125 418" width="125px"><defs><filter height="300%" id="f1" width="300%" x="-1" y="-1"><feGaussianBlur result="blurOut" stdDeviation="2.0"/><feColorMatrix in="blurOut" result="blurOut2" type="matrix" values="0 0 0 0 0 0 0 0 0 0 0 0 0 0 0 0 0 0 .4 0"/><feOffset dx="4.0" dy="4.0" in="blurOut2" result="blurOut3"/><feBlend in="SourceGraphic" in2="blurOut3" mode="normal"/></filter></defs><g><line style="stroke: #A80036; stroke-width: 1.0;" x1="35" x2="35" y1="38.2969" y2="146.2969"/><line style="stroke: #A80036; stroke-width: 1.0; stroke-dasharray: 1.0,4.0;" x1="35" x2="35" y1="146.2969" y2="174.2969"/><line style="stroke: #A80036; stroke-width: 1.0;" x1="35" x2="35" y1="174.2969" y2="258.2969"/><line style="stroke: #A80036; stroke-width: 1.0; stroke-dasharray: 1.0,4.0;" x1="35" x2="35" y1="258.2969" y2="286.2969"/><line style="stroke: #A80036; stroke-width: 1.0;" x1="35" x2="35" y1="286.2969" y2="380.2969"/><line style="stroke: #A80036; stroke-width: 1.0;" x1="93" x2="93" y1="38.2969" y2="146.2969"/><line style="stroke: #A80036; stroke-width: 1.0; stroke-dasharray: 1.0,4.0;" x1="93" x2="93" y1="146.2969" y2="174.2969"/><line style="stroke: #A80036; stroke-width: 1.0;" x1="93" x2="93" y1="174.2969" y2="258.2969"/><line style="stroke: #A80036; stroke-width: 1.0; stroke-dasharray: 1.0,4.0;" x1="93" x2="93" y1="258.2969" y2="286.2969"/><line style="stroke: #A80036; stroke-width: 1.0;" x1="93" x2="93" y1="286.2969" y2="380.2969"/><rect fill="#FEFECE" filter="url(#f1)" height="30.2969" style="stroke: #A80036; stroke-width: 1.5;" width="42" x="12" y="3"/><text fill="#000000" font-family="sans-serif" font-size="14" lengthAdjust="spacingAndGlyphs" textLength="28" x="19" y="22.9951">Bob</text><rect fill="#FEFECE" filter="url(#f1)" height="30.2969" style="stroke: #A80036; stroke-width: 1.5;" width="42" x="12" y="379.2969"/><text fill="#000000" font-family="sans-serif" font-size="14" lengthAdjust="spacingAndGlyphs" textLength="28" x="19" y="399.292">Bob</text><rect fill="#FEFECE" filter="url(#f1)" height="30.2969" style="stroke: #A80036; stroke-width: 1.5;" width="46" x="68" y="3"/><text fill="#000000" font-family="sans-serif" font-size="14" lengthAdjust="spacingAndGlyphs" textLength="32" x="75" y="22.9951">Alice</text><rect fill="#FEFECE" filter="url(#f1)" height="30.2969" style="stroke: #A80036; stroke-width: 1.5;" width="46" x="68" y="379.2969"/><text fill="#000000" font-family="sans-serif" font-size="14" lengthAdjust="spacingAndGlyphs" textLength="32" x="75" y="399.292">Alice</text><polygon fill="#A80036" points="81,50.2969,91,54.2969,81,58.2969,85,54.2969" style="stroke: #A80036; stroke-width: 1.0;"/><line style="stroke: #A80036; stroke-width: 1.0;" x1="35" x2="87" y1="54.2969" y2="54.2969"/><line style="stroke: #A80036; stroke-width: 1.0;" x1="91" x2="81" y1="68.2969" y2="64.2969"/><line style="stroke: #A80036; stroke-width: 1.0;" x1="91" x2="81" y1="68.2969" y2="72.2969"/><line style="stroke: #A80036; stroke-width: 1.0;" x1="35" x2="92" y1="68.2969" y2="68.2969"/><polygon fill="#A80036" points="81,78.2969,91,82.2969,81,82.2969" style="stroke: #A80036; stroke-width: 1.0;"/><line style="stroke: #A80036; stroke-width: 1.0;" x1="35" x2="92" y1="82.2969" y2="82.2969"/><line style="stroke: #A80036; stroke-width: 1.0;" x1="35" x2="45" y1="96.2969" y2="100.2969"/><line style="stroke: #A80036; stroke-width: 1.0;" x1="35" x2="92" y1="96.2969" y2="96.2969"/><line style="stroke: #A80036; stroke-width: 1.0;" x1="35" x2="45" y1="110.2969" y2="106.2969"/><line style="stroke: #A80036; stroke-width: 1.0; stroke-dasharray: 2.0,2.0;" x1="35" x2="92" y1="110.2969" y2="110.2969"/><ellipse cx="92.5" cy="123.5469" fill="none" rx="4" ry="4" style="stroke: #A80036; stroke-width: 1.5;"/><polygon fill="#A80036" points="75.5,120.2969,85.5,124.2969,75.5,128.2969,79.5,124.2969" style="stroke: #A80036; stroke-width: 1.0;"/><line style="stroke: #A80036; stroke-width: 1.0;" x1="35" x2="81.5" y1="124.2969" y2="124.2969"/><ellipse cx="34.5" cy="137.5469" fill="none" rx="4" ry="4" style="stroke: #A80036; stroke-width: 1.5;"/><line style="stroke: #A80036; stroke-width: 1.0;" x1="40.5" x2="50.5" y1="138.2969" y2="142.2969"/><line style="stroke: #A80036; stroke-width: 1.0; stroke-dasharray: 2.0,2.0;" x1="35" x2="92" y1="138.2969" y2="138.2969"/><polygon fill="#A80036" points="23,176.2969,33,180.2969,23,184.2969,27,180.2969" style="stroke: #A80036; stroke-width: 1.0;"/><line style="stroke: #A80036; stroke-width: 1.0;" x1="3" x2="29" y1="180.2969" y2="180.2969"/><ellipse cx="10.5" cy="193.5469" fill="none" rx="4" ry="4" style="stroke: #A80036; stroke-width: 1.5;"/><polygon fill="#A80036" points="23,190.2969,33,194.2969,23,198.2969,27,194.2969" style="stroke: #A80036; stroke-width: 1.0;"/><line style="stroke: #A80036; stroke-width: 1.0;" x1="15" x2="29" y1="194.2969" y2="194.2969"/><ellipse cx="10.5" cy="207.5469" fill="none" rx="4" ry="4" style="stroke: #A80036; stroke-width: 1.5;"/><ellipse cx="34.5" cy="207.5469" fill="none" rx="4" ry="4" style="stroke: #A80036; stroke-width: 1.5;"/><polygon fill="#A80036" points="17.5,204.2969,27.5,208.2969,17.5,212.2969,21.5,208.2969" style="stroke: #A80036; stroke-width: 1.0;"/><line style="stroke: #A80036; stroke-width: 1.0;" x1="15" x2="23.5" y1="208.2969" y2="208.2969"/><line style="stroke: #A80036; stroke-width: 2.0;" x1="17" x2="27" y1="217.2969" y2="227.2969"/><line style="stroke: #A80036; stroke-width: 2.0;" x1="17" x2="27" y1="227.2969" y2="217.2969"/><line style="stroke: #A80036; stroke-width: 1.0;" x1="3" x2="22" y1="222.2969" y2="222.2969"/><polygon fill="#A80036" points="14,232.2969,4,236.2969,14,240.2969,10,236.2969" style="stroke: #A80036; stroke-width: 1.0;"/><line style="stroke: #A80036; stroke-width: 1.0;" x1="8" x2="34" y1="236.2969" y2="236.2969"/><line style="stroke: #A80036; stroke-width: 2.0;" x1="9" x2="19" y1="245.2969" y2="255.2969"/><line style="stroke: #A80036; stroke-width: 2.0;" x1="9" x2="19" y1="255.2969" y2="245.2969"/><line style="stroke: #A80036; stroke-width: 1.0;" x1="15" x2="34" y1="250.2969" y2="250.2969"/><polygon fill="#A80036" points="113,288.2969,123,292.2969,113,296.2969,117,292.2969" style="stroke: #A80036; stroke-width: 1.0;"/><line style="stroke: #A80036; stroke-width: 1.0;" x1="93" x2="119" y1="292.2969" y2="292.2969"/><ellipse cx="116.5" cy="305.5469" fill="none" rx="4" ry="4" style="stroke: #A80036; stroke-width: 1.5;"/><polygon fill="#A80036" points="99.5,302.2969,109.5,306.2969,99.5,310.2969,103.5,306.2969" style="stroke: #A80036; stroke-width: 1.0;"/><line style="stroke: #A80036; stroke-width: 1.0;" x1="93" x2="105.5" y1="306.2969" y2="306.2969"/><ellipse cx="92.5" cy="319.5469" fill="none" rx="4" ry="4" style="stroke: #A80036; stroke-width: 1.5;"/><ellipse cx="116.5" cy="319.5469" fill="none" rx="4" ry="4" style="stroke: #A80036; stroke-width: 1.5;"/><polygon fill="#A80036" points="99.5,316.2969,109.5,320.2969,99.5,324.2969,103.5,320.2969" style="stroke: #A80036; stroke-width: 1.0;"/><line style="stroke: #A80036; stroke-width: 1.0;" x1="97" x2="105.5" y1="320.2969" y2="320.2969"/><line style="stroke: #A80036; stroke-width: 2.0;" x1="107" x2="117" y1="329.2969" y2="339.2969"/><line style="stroke: #A80036; stroke-width: 2.0;" x1="107" x2="117" y1="339.2969" y2="329.2969"/><line style="stroke: #A80036; stroke-width: 1.0;" x1="93" x2="112" y1="334.2969" y2="334.2969"/><polygon fill="#A80036" points="104,344.2969,94,348.2969,104,352.2969,100,348.2969" style="stroke: #A80036; stroke-width: 1.0;"/><line style="stroke: #A80036; stroke-width: 1.0;" x1="98" x2="124" y1="348.2969" y2="348.2969"/><line style="stroke: #A80036; stroke-width: 2.0;" x1="99" x2="109" y1="357.2969" y2="367.2969"/><line style="stroke: #A80036; stroke-width: 2.0;" x1="99" x2="109" y1="367.2969" y2="357.2969"/><line style="stroke: #A80036; stroke-width: 1.0;" x1="105" x2="124" y1="362.2969" y2="362.2969"/></g></svg>