<?xml version="1.0" encoding="UTF-8" standalone="yes"?><svg xmlns="http://www.w3.org/2000/svg" xmlns:xlink="http://www.w3.org/1999/xlink" height="610.3774px" style="width:616px;height:610px;" version="1.1" viewBox="0 0 616 610" width="616.0377px"><defs><filter height="300%" id="f1" width="300%" x="-1" y="-1"><feGaussianBlur result="blurOut" stdDeviation="1.8867924528301887"/><feColorMatrix in="blurOut" result="blurOut2" type="matrix" values="0 0 0 0 0 0 0 0 0 0 0 0 0 0 0 0 0 0 .4 0"/><feOffset dx="3.7735849056603774" dy="3.7735849056603774" in="blurOut2" result="blurOut3"/><feBlend in="SourceGraphic" in2="blurOut3" mode="normal"/></filter></defs><g><ellipse cx="352.1104" cy="31.1321" fill="#000000" filter="url(#f1)" rx="9.434" ry="9.434" style="stroke: none; stroke-width: 0.9433962264150944;"/><rect fill="#FEFECE" filter="url(#f1)" height="47.1698" rx="11.7925" ry="11.7925" style="stroke: #A80036; stroke-width: 1.4150943396226414;" width="61.3208" x="427.1104" y="7.5472"/><line style="stroke: #A80036; stroke-width: 1.4150943396226414;" x1="427.1104" x2="488.4311" y1="32.3555" y2="32.3555"/><text fill="#000000" font-family="sans-serif" font-size="13.2075" lengthAdjust="spacingAndGlyphs" textLength="42.4528" x="436.5443" y="24.5237">State1</text><rect fill="#FEFECE" filter="url(#f1)" height="47.1698" rx="11.7925" ry="11.7925" style="stroke: #A80036; stroke-width: 1.4150943396226414;" width="61.3208" x="246.9217" y="127.3585"/><line style="stroke: #A80036; stroke-width: 1.4150943396226414;" x1="246.9217" x2="308.2425" y1="152.1669" y2="152.1669"/><text fill="#000000" font-family="sans-serif" font-size="13.2075" lengthAdjust="spacingAndGlyphs" textLength="42.4528" x="256.3557" y="144.335">State2</text><ellipse cx="279.4689" cy="594.3396" fill="none" filter="url(#f1)" rx="9.434" ry="9.434" style="stroke: #000000; stroke-width: 0.9433962264150944;"/><ellipse cx="279.9406" cy="594.8113" fill="#000000" rx="5.6604" ry="5.6604" style="stroke: none; stroke-width: 0.9433962264150944;"/><rect fill="#FEFECE" filter="url(#f1)" height="265.3744" rx="11.7925" ry="11.7925" style="stroke: #A80036; stroke-width: 1.4150943396226414;" width="312.2642" x="121.45" y="247.1698"/><rect fill="#FFFFFF" height="234.9057" rx="11.7925" ry="11.7925" style="stroke: #FFFFFF; stroke-width: 0.9433962264150944;" width="306.6038" x="124.2802" y="274.8084"/><line style="stroke: #A80036; stroke-width: 1.4150943396226414;" x1="121.45" x2="433.7142" y1="271.9782" y2="271.9782"/><text fill="#000000" font-family="sans-serif" font-size="13.2075" lengthAdjust="spacingAndGlyphs" textLength="42.4528" x="256.3557" y="264.1463">State3</text><rect fill="#FEFECE" filter="url(#f1)" height="62.7948" rx="11.7925" ry="11.7925" style="stroke: #A80036; stroke-width: 1.4150943396226414;" width="183.9623" x="131.8274" y="338.0159"/><line style="stroke: #A80036; stroke-width: 1.4150943396226414;" x1="131.8274" x2="315.7896" y1="378.1987" y2="378.1987"/><text fill="#000000" font-family="sans-serif" font-size="13.2075" lengthAdjust="spacingAndGlyphs" textLength="165.0943" x="141.2613" y="354.9924">Accumulate Enough Data</text><text fill="#000000" font-family="sans-serif" font-size="13.2075" lengthAdjust="spacingAndGlyphs" textLength="111.3208" x="168.1481" y="370.3669">Long State Name</text><text fill="#000000" font-family="sans-serif" font-size="11.3208" lengthAdjust="spacingAndGlyphs" textLength="60.3774" x="136.5443" y="393.4239">Just a test</text><ellipse cx="223.8085" cy="293.6763" fill="#000000" filter="url(#f1)" rx="9.434" ry="9.434" style="stroke: none; stroke-width: 0.9433962264150944;"/><rect fill="#FEFECE" filter="url(#f1)" height="47.1698" rx="11.7925" ry="11.7925" style="stroke: #A80036; stroke-width: 1.4150943396226414;" width="101.8868" x="172.8651" y="451.2235"/><line style="stroke: #A80036; stroke-width: 1.4150943396226414;" x1="172.8651" x2="274.7519" y1="476.0318" y2="476.0318"/><text fill="#000000" font-family="sans-serif" font-size="13.2075" lengthAdjust="spacingAndGlyphs" textLength="83.0189" x="182.2991" y="468.2">ProcessData</text><path d="M223.8085,303.115 C223.8085,310.5612 223.8085,321.915 223.8085,333.0914 " fill="none" style="stroke: #A80036; stroke-width: 0.9433962264150944;"/><polygon fill="#A80036" points="223.8085,337.8593,227.5821,329.3688,223.8085,333.1423,220.0349,329.3688,223.8085,337.8593" style="stroke: #A80036; stroke-width: 0.9433962264150944;"/><path d="M316.0208,361.882 C326.1991,363.3518 332.7708,365.931 332.7708,369.6197 C332.7708,372.6744 328.2642,374.9687 320.934,376.5018 " fill="none" style="stroke: #A80036; stroke-width: 0.9433962264150944;"/><polygon fill="#A80036" points="316.0208,377.3574,325.0332,379.617,320.6677,376.5475,323.7372,372.1819,316.0208,377.3574" style="stroke: #A80036; stroke-width: 0.9433962264150944;"/><text fill="#000000" font-family="sans-serif" font-size="12.2642" lengthAdjust="spacingAndGlyphs" textLength="58.4906" x="338.4311" y="373.9281">New Data</text><path d="M223.8085,401.2772 C223.8085,415.473 223.8085,432.2085 223.8085,446.0305 " fill="none" style="stroke: #A80036; stroke-width: 0.9433962264150944;"/><polygon fill="#A80036" points="223.8085,450.981,227.5821,442.4904,223.8085,446.264,220.0349,442.4904,223.8085,450.981" style="stroke: #A80036; stroke-width: 0.9433962264150944;"/><text fill="#000000" font-family="sans-serif" font-size="12.2642" lengthAdjust="spacingAndGlyphs" textLength="78.3019" x="224.7519" y="430.5319">Enough Data</text><path d="M361.6038,31.1321 C381.7745,31.1321 401.9453,31.1321 422.116,31.1321 " fill="none" style="stroke: #A80036; stroke-width: 0.9433962264150944;"/><polygon fill="#A80036" points="426.967,31.1321,418.4764,27.3585,422.25,31.1321,418.4764,34.9057,426.967,31.1321" style="stroke: #A80036; stroke-width: 0.9433962264150944;"/><path d="M426.7953,52.3472 C394.984,73.167 345.566,105.5075 312.4151,127.2038 " fill="none" style="stroke: #A80036; stroke-width: 0.9433962264150944;"/><polygon fill="#A80036" points="308.4547,129.7953,317.6255,128.3031,312.4015,127.2121,313.4925,121.9882,308.4547,129.7953" style="stroke: #A80036; stroke-width: 0.9433962264150944;"/><text fill="#000000" font-family="sans-serif" font-size="12.2642" lengthAdjust="spacingAndGlyphs" textLength="66.9811" x="378.5255" y="95.3461">Succeeded</text><path d="M470.1632,54.9443 C508.333,128.8132 615.5453,364.7755 513.4311,512.2642 C461.8132,586.8189 336.4274,593.5953 293.8736,593.6702 " fill="none" style="stroke: #A80036; stroke-width: 0.9433962264150944;"/><polygon fill="#A80036" points="289.1057,593.6503,297.58,597.4602,293.8226,593.6705,297.6123,589.9131,289.1057,593.6503" style="stroke: #A80036; stroke-width: 0.9433962264150944;"/><text fill="#000000" font-family="sans-serif" font-size="12.2642" lengthAdjust="spacingAndGlyphs" textLength="48.1132" x="534.1858" y="215.1574">Aborted</text><path d="M277.5821,174.8906 C277.5821,191.7009 277.5821,216.0292 277.5821,242.066 " fill="none" style="stroke: #A80036; stroke-width: 0.9433962264150944;"/><polygon fill="#A80036" points="277.5821,246.9462,281.3557,238.4557,277.5821,242.2292,273.8085,238.4557,277.5821,246.9462" style="stroke: #A80036; stroke-width: 0.9433962264150944;"/><text fill="#000000" font-family="sans-serif" font-size="12.2642" lengthAdjust="spacingAndGlyphs" textLength="66.9811" x="278.5255" y="215.1574">Succeeded</text><path d="M246.8113,154.6698 C196.5509,161.0623 98.1228,181.7189 54.9408,247.1698 C-9.9429,345.5142 -11.4633,414.9396 54.9408,512.2642 C104.0009,584.1685 223.6783,592.6989 265.0877,593.4434 " fill="none" style="stroke: #A80036; stroke-width: 0.9433962264150944;"/><polygon fill="#A80036" points="269.9604,593.5006,261.5146,589.6278,265.2437,593.4453,261.4262,597.1744,269.9604,593.5006" style="stroke: #A80036; stroke-width: 0.9433962264150944;"/><text fill="#000000" font-family="sans-serif" font-size="12.2642" lengthAdjust="spacingAndGlyphs" textLength="48.1132" x="55.8842" y="384.0254">Aborted</text><path d="M433.7755,352.2094 C453.6368,357.0189 466.733,366.1877 466.733,379.717 C466.733,392.083 455.7915,400.8066 438.7425,405.8877 " fill="none" style="stroke: #A80036; stroke-width: 0.9433962264150944;"/><polygon fill="#A80036" points="433.7755,407.2245,442.9552,408.6604,438.3302,405.9979,440.9926,401.3728,433.7755,407.2245" style="stroke: #A80036; stroke-width: 0.9433962264150944;"/><text fill="#000000" font-family="sans-serif" font-size="12.2642" lengthAdjust="spacingAndGlyphs" textLength="34.9057" x="472.3934" y="384.0254">Failed</text><path d="M172.3934,512.7285 C170.1981,527.8158 172.7255,542.741 182.2991,556.6038 C201.0896,583.8111 242.7906,590.9194 264.9585,592.7625 " fill="none" style="stroke: #A80036; stroke-width: 0.9433962264150944;"/><polygon fill="#A80036" points="269.8915,593.1119,261.6884,588.7485,265.1863,592.779,261.1558,596.2769,269.8915,593.1119" style="stroke: #A80036; stroke-width: 0.9433962264150944;"/><text fill="#000000" font-family="sans-serif" font-size="12.2642" lengthAdjust="spacingAndGlyphs" textLength="149.0566" x="183.2425" y="552.8933">Succeeded / Save Result</text><path d="M330.6094,512.2703 C333.1519,521.7439 335.3387,531.2382 337.016,540.566 C338.2783,547.5814 340.4396,550.3518 337.016,556.6038 C327.7849,573.4632 307.1717,583.7232 293.2915,588.9819 " fill="none" style="stroke: #A80036; stroke-width: 0.9433962264150944;"/><polygon fill="#A80036" points="288.516,590.6959,297.7824,591.3778,292.9554,589.1017,295.2315,584.2748,288.516,590.6959" style="stroke: #A80036; stroke-width: 0.9433962264150944;"/><text fill="#000000" font-family="sans-serif" font-size="12.2642" lengthAdjust="spacingAndGlyphs" textLength="48.1132" x="338.9028" y="552.8933">Aborted</text></g></svg>