<?xml version="1.0" encoding="UTF-8" standalone="yes"?><svg xmlns="http://www.w3.org/2000/svg" xmlns:xlink="http://www.w3.org/1999/xlink" height="262px" style="width:378px;height:262px;" version="1.1" viewBox="0 0 378 262" width="378px"><defs><filter height="300%" id="f1" width="300%" x="-1" y="-1"><feGaussianBlur result="blurOut" stdDeviation="2.0"/><feColorMatrix in="blurOut" result="blurOut2" type="matrix" values="0 0 0 0 0 0 0 0 0 0 0 0 0 0 0 0 0 0 .4 0"/><feOffset dx="4.0" dy="4.0" in="blurOut2" result="blurOut3"/><feBlend in="SourceGraphic" in2="blurOut3" mode="normal"/></filter></defs><g><ellipse cx="178.5" cy="18" fill="#000000" filter="url(#f1)" rx="10" ry="10" style="stroke: none; stroke-width: 1.0;"/><rect fill="#FEFECE" filter="url(#f1)" height="50" rx="12.5" ry="12.5" style="stroke: #A80036; stroke-width: 1.5;" width="61" x="148" y="88"/><line style="stroke: #A80036; stroke-width: 1.5;" x1="148" x2="209" y1="114.2969" y2="114.2969"/><text fill="#000000" font-family="sans-serif" font-size="14" lengthAdjust="spacingAndGlyphs" textLength="41" x="158" y="105.9951">Active</text><rect fill="#FEFECE" filter="url(#f1)" height="50" rx="12.5" ry="12.5" style="stroke: #A80036; stroke-width: 1.5;" width="72" x="142.5" y="200.5"/><line style="stroke: #A80036; stroke-width: 1.5;" x1="142.5" x2="214.5" y1="226.7969" y2="226.7969"/><text fill="#000000" font-family="sans-serif" font-size="14" lengthAdjust="spacingAndGlyphs" textLength="52" x="152.5" y="218.4951">Inactive</text><polygon fill="#FBFB77" filter="url(#f1)" points="6,93,6,133.2656,113,133.2656,113,103,103,93,6,93" style="stroke: #A80036; stroke-width: 1.0;"/><polygon fill="#FBFB77" points="6,93,6,133.2656,113,133.2656,113,117,147.995,113,113,109,113,103,103,93,6,93" style="stroke: #A80036; stroke-width: 1.0;"/><line style="stroke: #A80036; stroke-width: 1.0;" x1="103" x2="103" y1="93" y2="103"/><line style="stroke: #A80036; stroke-width: 1.0;" x1="113" x2="103" y1="103" y2="103"/><text fill="#000000" font-family="sans-serif" font-size="13" lengthAdjust="spacingAndGlyphs" textLength="86" x="12" y="110.0669">this is a short</text><text fill="#000000" font-family="sans-serif" font-size="13" lengthAdjust="spacingAndGlyphs" textLength="29" x="12" y="125.1997">note</text><polygon fill="#FBFB77" filter="url(#f1)" points="249.5,198,249.5,253.3984,369.5,253.3984,369.5,208,359.5,198,249.5,198" style="stroke: #A80036; stroke-width: 1.0;"/><polygon fill="#FBFB77" points="249.5,198,249.5,221.5,214.576,225.5,249.5,229.5,249.5,253.3984,369.5,253.3984,369.5,208,359.5,198,249.5,198" style="stroke: #A80036; stroke-width: 1.0;"/><line style="stroke: #A80036; stroke-width: 1.0;" x1="359.5" x2="359.5" y1="198" y2="208"/><line style="stroke: #A80036; stroke-width: 1.0;" x1="369.5" x2="359.5" y1="208" y2="208"/><text fill="#000000" font-family="sans-serif" font-size="13" lengthAdjust="spacingAndGlyphs" textLength="99" x="255.5" y="215.0669">A note can also</text><text fill="#000000" font-family="sans-serif" font-size="13" lengthAdjust="spacingAndGlyphs" textLength="87" x="255.5" y="230.1997">be defined on</text><text fill="#000000" font-family="sans-serif" font-size="13" lengthAdjust="spacingAndGlyphs" textLength="79" x="255.5" y="245.3325">several lines</text><path d="M178.5,28.257 C178.5,40.856 178.5,63.981 178.5,82.743 " fill="none" style="stroke: #A80036; stroke-width: 1.0;"/><polygon fill="#A80036" points="178.5,87.907,182.5,78.907,178.5,82.907,174.5,78.907,178.5,87.907" style="stroke: #A80036; stroke-width: 1.0;"/><path d="M178.5,138.25 C178.5,154.9462 178.5,177.2274 178.5,194.9607 " fill="none" style="stroke: #A80036; stroke-width: 1.0;"/><polygon fill="#A80036" points="178.5,200.3069,182.5,191.3069,178.5,195.3069,174.5,191.3069,178.5,200.3069" style="stroke: #A80036; stroke-width: 1.0;"/></g></svg>