<?xml version="1.0" encoding="UTF-8" standalone="yes"?><svg xmlns="http://www.w3.org/2000/svg" xmlns:xlink="http://www.w3.org/1999/xlink" height="359px" style="width:486px;height:359px;" version="1.1" viewBox="0 0 486 359" width="486px"><defs><filter height="300%" id="f1" width="300%" x="-1" y="-1"><feGaussianBlur result="blurOut" stdDeviation="2.0"/><feColorMatrix in="blurOut" result="blurOut2" type="matrix" values="0 0 0 0 0 0 0 0 0 0 0 0 0 0 0 0 0 0 .4 0"/><feOffset dx="4.0" dy="4.0" in="blurOut2" result="blurOut3"/><feBlend in="SourceGraphic" in2="blurOut3" mode="normal"/></filter></defs><g><ellipse cx="101.5" cy="18" fill="#000000" filter="url(#f1)" rx="10" ry="10" style="stroke: none; stroke-width: 1.0;"/><polygon fill="#FBFB77" filter="url(#f1)" points="232,207.5,232,232.6328,477,232.6328,477,217.5,467,207.5,232,207.5" style="stroke: #A80036; stroke-width: 1.0;"/><polygon fill="#FBFB77" points="232,207.5,232,216,197.363,220,232,224,232,232.6328,477,232.6328,477,217.5,467,207.5,232,207.5" style="stroke: #A80036; stroke-width: 1.0;"/><line style="stroke: #A80036; stroke-width: 1.0;" x1="467" x2="467" y1="207.5" y2="217.5"/><line style="stroke: #A80036; stroke-width: 1.0;" x1="477" x2="467" y1="217.5" y2="217.5"/><text fill="#000000" font-family="sans-serif" font-size="13" lengthAdjust="spacingAndGlyphs" textLength="224" x="238" y="224.5669">This is a note on a composite state</text><rect fill="#FEFECE" filter="url(#f1)" height="264.2969" rx="12.5" ry="12.5" style="stroke: #A80036; stroke-width: 1.5;" width="191" x="6" y="88"/><rect fill="#FFFFFF" height="232" rx="12.5" ry="12.5" style="stroke: #FFFFFF; stroke-width: 1.0;" width="185" x="9" y="117.2969"/><line style="stroke: #A80036; stroke-width: 1.5;" x1="6" x2="197" y1="114.2969" y2="114.2969"/><text fill="#000000" font-family="sans-serif" font-size="14" lengthAdjust="spacingAndGlyphs" textLength="130" x="36.5" y="105.9951">Not Shooting State</text><rect fill="#FEFECE" filter="url(#f1)" height="50" rx="12.5" ry="12.5" style="stroke: #A80036; stroke-width: 1.5;" width="88" x="44.5" y="184.2969"/><line style="stroke: #A80036; stroke-width: 1.5;" x1="44.5" x2="132.5" y1="210.5938" y2="210.5938"/><text fill="#000000" font-family="sans-serif" font-size="14" lengthAdjust="spacingAndGlyphs" textLength="68" x="54.5" y="202.292">Idle mode</text><rect fill="#FEFECE" filter="url(#f1)" height="50" rx="12.5" ry="12.5" style="stroke: #A80036; stroke-width: 1.5;" width="143" x="17" y="287.2969"/><line style="stroke: #A80036; stroke-width: 1.5;" x1="17" x2="160" y1="313.5938" y2="313.5938"/><text fill="#000000" font-family="sans-serif" font-size="14" lengthAdjust="spacingAndGlyphs" textLength="123" x="27" y="305.292">Configuring mode</text><ellipse cx="88.5" cy="137.2969" fill="#000000" filter="url(#f1)" rx="10" ry="10" style="stroke: none; stroke-width: 1.0;"/><path d="M88.5,147.4479 C88.5,155.4829 88.5,167.6229 88.5,178.9509 " fill="none" style="stroke: #A80036; stroke-width: 1.0;"/><polygon fill="#A80036" points="88.5,184.0809,92.5,175.0809,88.5,179.0809,84.5,175.0809,88.5,184.0809" style="stroke: #A80036; stroke-width: 1.0;"/><path d="M60.6852,234.3259 C56.1156,239.7355 52.046,245.8135 49.5,252.2969 C45.3356,262.9018 49.3136,273.5701 56.0787,282.8628 " fill="none" style="stroke: #A80036; stroke-width: 1.0;"/><polygon fill="#A80036" points="59.3638,287.0304,56.9337,277.486,56.2685,283.1037,50.6509,282.4385,59.3638,287.0304" style="stroke: #A80036; stroke-width: 1.0;"/><text fill="#000000" font-family="sans-serif" font-size="13" lengthAdjust="spacingAndGlyphs" textLength="55" x="50.5" y="265.3638">EvConfig</text><path d="M100.8847,286.9636 C103.2088,281.3039 105.2877,275.2029 106.5,269.2969 C108.5353,259.381 106.6136,248.744 103.3796,239.2703 " fill="none" style="stroke: #A80036; stroke-width: 1.0;"/><polygon fill="#A80036" points="101.5828,234.4319,100.9666,244.2614,103.3237,239.119,108.4661,241.4761,101.5828,234.4319" style="stroke: #A80036; stroke-width: 1.0;"/><text fill="#000000" font-family="sans-serif" font-size="13" lengthAdjust="spacingAndGlyphs" textLength="55" x="107.5" y="265.3638">EvConfig</text><path d="M101.5,28.113 C101.5,39.243 101.5,59.486 101.5,82.758 " fill="none" style="stroke: #A80036; stroke-width: 1.0;"/><polygon fill="#A80036" points="101.5,87.767,105.5,78.767,101.5,82.767,97.5,78.767,101.5,87.767" style="stroke: #A80036; stroke-width: 1.0;"/></g></svg>