<?xml version="1.0" encoding="UTF-8" standalone="yes"?><svg xmlns="http://www.w3.org/2000/svg" xmlns:xlink="http://www.w3.org/1999/xlink" height="177px" style="width:210px;height:177px;" version="1.1" viewBox="0 0 210 177" width="210px"><defs><filter height="300%" id="f1" width="300%" x="-1" y="-1"><feGaussianBlur result="blurOut" stdDeviation="2.0"/><feColorMatrix in="blurOut" result="blurOut2" type="matrix" values="0 0 0 0 0 0 0 0 0 0 0 0 0 0 0 0 0 0 .4 0"/><feOffset dx="4.0" dy="4.0" in="blurOut2" result="blurOut3"/><feBlend in="SourceGraphic" in2="blurOut3" mode="normal"/></filter></defs><g><ellipse cx="16" cy="143" fill="#000000" filter="url(#f1)" rx="10" ry="10" style="stroke: none; stroke-width: 1.0;"/><rect fill="#FEFECE" filter="url(#f1)" height="50" rx="12.5" ry="12.5" style="stroke: #A80036; stroke-width: 1.5;" width="50" x="21" y="8"/><line style="stroke: #A80036; stroke-width: 1.5;" x1="21" x2="71" y1="34.2969" y2="34.2969"/><text fill="#000000" font-family="sans-serif" font-size="14" lengthAdjust="spacingAndGlyphs" textLength="29" x="31.5" y="25.9951">First</text><rect fill="#FEFECE" filter="url(#f1)" height="50" rx="12.5" ry="12.5" style="stroke: #A80036; stroke-width: 1.5;" width="73" x="121.5" y="8"/><line style="stroke: #A80036; stroke-width: 1.5;" x1="121.5" x2="194.5" y1="34.2969" y2="34.2969"/><text fill="#000000" font-family="sans-serif" font-size="14" lengthAdjust="spacingAndGlyphs" textLength="53" x="131.5" y="25.9951">Second</text><rect fill="#FEFECE" filter="url(#f1)" height="50" rx="12.5" ry="12.5" style="stroke: #A80036; stroke-width: 1.5;" width="55" x="146.5" y="118"/><line style="stroke: #A80036; stroke-width: 1.5;" x1="146.5" x2="201.5" y1="144.2969" y2="144.2969"/><text fill="#000000" font-family="sans-serif" font-size="14" lengthAdjust="spacingAndGlyphs" textLength="35" x="156.5" y="135.9951">Third</text><rect fill="#FEFECE" filter="url(#f1)" height="50" rx="12.5" ry="12.5" style="stroke: #A80036; stroke-width: 1.5;" width="50" x="61" y="118"/><line style="stroke: #A80036; stroke-width: 1.5;" x1="61" x2="111" y1="144.2969" y2="144.2969"/><text fill="#000000" font-family="sans-serif" font-size="14" lengthAdjust="spacingAndGlyphs" textLength="28" x="72" y="135.9951">Last</text><path d="M37.9141,63.109 C31.4024,86.5515 22.6653,118.0048 18.462,133.1368 " fill="none" style="stroke: #A80036; stroke-width: 1.0;"/><polygon fill="#A80036" points="39.2674,58.237,33.004,65.8377,37.9288,63.0545,40.712,67.9793,39.2674,58.237" style="stroke: #A80036; stroke-width: 1.0;"/><path d="M71.375,33 C86.3729,33 101.3709,33 116.369,33 " fill="none" style="stroke: #A80036; stroke-width: 1.0;"/><polygon fill="#A80036" points="121.455,33,112.455,29,116.455,33,112.455,37,121.455,33" style="stroke: #A80036; stroke-width: 1.0;"/><path d="M161.591,58.237 C163.979,74.3565 167.129,95.6212 169.658,112.6911 " fill="none" style="stroke: #A80036; stroke-width: 1.0;"/><polygon fill="#A80036" points="170.421,117.8436,173.059,108.3546,169.6883,112.8976,165.1453,109.5269,170.421,117.8436" style="stroke: #A80036; stroke-width: 1.0;"/><path d="M116.346,143 C126.39,143 136.434,143 146.479,143 " fill="none" style="stroke: #A80036; stroke-width: 1.0;"/><polygon fill="#A80036" points="111.094,143,120.094,147,116.094,143,120.094,139,111.094,143" style="stroke: #A80036; stroke-width: 1.0;"/></g></svg>