<?xml version="1.0" encoding="UTF-8" standalone="yes"?><svg xmlns="http://www.w3.org/2000/svg" xmlns:xlink="http://www.w3.org/1999/xlink" height="440px" style="width:192px;height:440px;background:#FFFFE0;" version="1.1" viewBox="0 0 192 440" width="192px"><defs><filter height="300%" id="f1" width="300%" x="-1" y="-1"><feGaussianBlur result="blurOut" stdDeviation="2.0"/><feColorMatrix in="blurOut" result="blurOut2" type="matrix" values="0 0 0 0 0 0 0 0 0 0 0 0 0 0 0 0 0 0 .4 0"/><feOffset dx="4.0" dy="4.0" in="blurOut2" result="blurOut3"/><feBlend in="SourceGraphic" in2="blurOut3" mode="normal"/></filter></defs><g><ellipse cx="95.5" cy="18" fill="#0000CD" filter="url(#f1)" rx="10" ry="10" style="stroke: none; stroke-width: 1.0;"/><ellipse cx="95.5" cy="423" fill="none" filter="url(#f1)" rx="10" ry="10" style="stroke: #FF0000; stroke-width: 1.0;"/><ellipse cx="96" cy="423.5" fill="#FF0000" rx="6" ry="6" style="stroke: none; stroke-width: 1.0;"/><rect fill="#CD853F" filter="url(#f1)" height="265.0762" rx="12.5" ry="12.5" style="stroke: #808080; stroke-width: 1.5;" width="179" x="6" y="88"/><rect fill="#FFFFE0" height="232" rx="12.5" ry="12.5" style="stroke: #FFFFE0; stroke-width: 1.0;" width="173" x="9" y="118.0762"/><line style="stroke: #808080; stroke-width: 1.5;" x1="6" x2="185" y1="115.0762" y2="115.0762"/><text fill="#000000" font-family="Impact" font-size="14" lengthAdjust="spacingAndGlyphs" textLength="102" x="44.5" y="107.123">Not Shooting State</text><rect fill="#808000" filter="url(#f1)" height="50" rx="12.5" ry="12.5" style="stroke: #808080; stroke-width: 1.5;" width="75" x="39.5" y="185.0762"/><line style="stroke: #808080; stroke-width: 1.5;" x1="39.5" x2="114.5" y1="212.1523" y2="212.1523"/><text fill="#000000" font-family="Impact" font-size="14" lengthAdjust="spacingAndGlyphs" textLength="55" x="49.5" y="204.1992">Idle mode</text><rect fill="#CD853F" filter="url(#f1)" height="50" rx="12.5" ry="12.5" style="stroke: #808080; stroke-width: 1.5;" width="120" x="17" y="288.0762"/><line style="stroke: #808080; stroke-width: 1.5;" x1="17" x2="137" y1="315.1523" y2="315.1523"/><text fill="#000000" font-family="Impact" font-size="14" lengthAdjust="spacingAndGlyphs" textLength="100" x="27" y="307.1992">Configuring mode</text><ellipse cx="77" cy="138.0762" fill="#0000CD" filter="url(#f1)" rx="10" ry="10" style="stroke: none; stroke-width: 1.0;"/><path d="M77,148.2272 C77,156.2622 77,168.4022 77,179.7302 " fill="none" style="stroke: #A80036; stroke-width: 1.0;"/><polygon fill="#A80036" points="77,184.8602,81,175.8602,77,179.8602,73,175.8602,77,184.8602" style="stroke: #A80036; stroke-width: 1.0;"/><path d="M49.1852,235.1052 C44.6156,240.5148 40.546,246.5928 38,253.0762 C33.8356,263.6811 37.8136,274.3494 44.5787,283.6421 " fill="none" style="stroke: #A80036; stroke-width: 1.0;"/><polygon fill="#A80036" points="47.8638,287.8097,45.4337,278.2653,44.7685,283.8829,39.1509,283.2178,47.8638,287.8097" style="stroke: #A80036; stroke-width: 1.0;"/><text fill="#000000" font-family="sans-serif" font-size="13" lengthAdjust="spacingAndGlyphs" textLength="55" x="39" y="266.1431">EvConfig</text><path d="M89.3847,287.7429 C91.7088,282.0832 93.7877,275.9822 95,270.0762 C97.0353,260.1603 95.1136,249.5233 91.8796,240.0496 " fill="none" style="stroke: #A80036; stroke-width: 1.0;"/><polygon fill="#A80036" points="90.0828,235.2112,89.4666,245.0407,91.8237,239.8983,96.9661,242.2554,90.0828,235.2112" style="stroke: #A80036; stroke-width: 1.0;"/><text fill="#000000" font-family="sans-serif" font-size="13" lengthAdjust="spacingAndGlyphs" textLength="55" x="96" y="266.1431">EvConfig</text><path d="M95.5,28.136 C95.5,39.293 95.5,59.587 95.5,82.917 " fill="none" style="stroke: #A80036; stroke-width: 1.0;"/><polygon fill="#A80036" points="95.5,87.939,99.5,78.939,95.5,82.939,91.5,78.939,95.5,87.939" style="stroke: #A80036; stroke-width: 1.0;"/><path d="M95.5,353.2798 C95.5,375.2254 95.5,394.9267 95.5,407.549 " fill="none" style="stroke: #A80036; stroke-width: 1.0;"/><polygon fill="#A80036" points="95.5,412.833,99.5,403.833,95.5,407.833,91.5,403.833,95.5,412.833" style="stroke: #A80036; stroke-width: 1.0;"/></g></svg>