<?xml version="1.0" encoding="UTF-8" standalone="yes"?><svg xmlns="http://www.w3.org/2000/svg" xmlns:xlink="http://www.w3.org/1999/xlink" height="1419.2837px" style="width:775px;height:1419px;" version="1.1" viewBox="0 0 775 1419" width="775.7576px"><defs><filter height="300%" id="f1" width="300%" x="-1" y="-1"><feGaussianBlur result="blurOut" stdDeviation="4.40771349862259"/><feColorMatrix in="blurOut" result="blurOut2" type="matrix" values="0 0 0 0 0 0 0 0 0 0 0 0 0 0 0 0 0 0 .4 0"/><feOffset dx="8.81542699724518" dy="8.81542699724518" in="blurOut2" result="blurOut3"/><feBlend in="SourceGraphic" in2="blurOut3" mode="normal"/></filter></defs><g><ellipse cx="386.7769" cy="39.6694" fill="#000000" filter="url(#f1)" rx="22.0386" ry="22.0386" style="stroke: none; stroke-width: 2.203856749311295;"/><rect fill="#FEFECE" filter="url(#f1)" height="1210.5716" rx="27.5482" ry="27.5482" style="stroke: #A80036; stroke-width: 3.3057851239669422;" width="747.1074" x="13.2231" y="193.9394"/><rect fill="#FFFFFF" height="1139.3939" rx="27.5482" ry="27.5482" style="stroke: #FFFFFF; stroke-width: 2.203856749311295;" width="733.8843" x="19.8347" y="258.5055"/><line style="stroke: #A80036; stroke-width: 3.3057851239669422;" x1="13.2231" x2="760.3306" y1="251.8939" y2="251.8939"/><text fill="#000000" font-family="sans-serif" font-size="30.854" lengthAdjust="spacingAndGlyphs" textLength="90.3581" x="341.5978" y="233.5981">Active</text><ellipse cx="59.5041" cy="335.6405" fill="#000000" filter="url(#f1)" rx="22.0386" ry="22.0386" style="stroke: none; stroke-width: 2.203856749311295;"/><rect fill="#FEFECE" filter="url(#f1)" height="110.1928" rx="27.5482" ry="27.5482" style="stroke: #A80036; stroke-width: 3.3057851239669422;" width="226.9972" x="159.7796" y="280.5441"/><line style="stroke: #A80036; stroke-width: 3.3057851239669422;" x1="159.7796" x2="386.7769" y1="338.4986" y2="338.4986"/><text fill="#000000" font-family="sans-serif" font-size="30.854" lengthAdjust="spacingAndGlyphs" textLength="182.9201" x="181.8182" y="320.2027">NumLockOff</text><rect fill="#FEFECE" filter="url(#f1)" height="110.1928" rx="27.5482" ry="27.5482" style="stroke: #A80036; stroke-width: 3.3057851239669422;" width="229.2011" x="158.6777" y="507.5413"/><line style="stroke: #A80036; stroke-width: 3.3057851239669422;" x1="158.6777" x2="387.8788" y1="565.4959" y2="565.4959"/><text fill="#000000" font-family="sans-serif" font-size="30.854" lengthAdjust="spacingAndGlyphs" textLength="185.124" x="180.7163" y="547.2">NumLockOn</text><path d="M82.0507,335.6405 C104.1023,335.6405 126.1538,335.6405 148.2054,335.6405 " fill="none" style="stroke: #A80036; stroke-width: 2.203856749311295;"/><polygon fill="#A80036" points="159.7369,335.6405,139.9021,326.8251,148.7176,335.6405,139.9021,344.4559,159.7369,335.6405" style="stroke: #A80036; stroke-width: 2.203856749311295;"/><path d="M159.0902,381.7011 C139.5478,394.4152 121.8239,410.431 110.1928,430.4063 C91.3726,462.7283 114.288,490.1355 148.3244,511.3322 " fill="none" style="stroke: #A80036; stroke-width: 2.203856749311295;"/><polygon fill="#A80036" points="158.1939,517.1448,145.5771,499.483,148.6991,511.5526,136.6295,514.6747,158.1939,517.1448" style="stroke: #A80036; stroke-width: 2.203856749311295;"/><text fill="#000000" font-family="sans-serif" font-size="28.6501" lengthAdjust="spacingAndGlyphs" textLength="277.686" x="112.3967" y="459.2039">EvNumLockPressed</text><path d="M364.8331,506.9569 C389.5736,485.3004 406.1355,458.7213 392.2865,430.4063 C386.7394,419.0648 379.059,408.7111 370.2435,399.3758 " fill="none" style="stroke: #A80036; stroke-width: 2.203856749311295;"/><polygon fill="#A80036" points="361.8579,391.0895,369.7695,411.3018,369.6957,398.8351,382.1623,398.7613,361.8579,391.0895" style="stroke: #A80036; stroke-width: 2.203856749311295;"/><text fill="#000000" font-family="sans-serif" font-size="28.6501" lengthAdjust="spacingAndGlyphs" textLength="277.686" x="398.8981" y="459.2039">EvNumLockPressed</text><line style="stroke: #A80036; stroke-width: 3.3057851239669422; stroke-dasharray: 8.0,10.0;" x1="24.2424" x2="744.9036" y1="639.7727" y2="639.7727"/><ellipse cx="59.5041" cy="712.5" fill="#000000" filter="url(#f1)" rx="22.0386" ry="22.0386" style="stroke: none; stroke-width: 2.203856749311295;"/><rect fill="#FEFECE" filter="url(#f1)" height="110.1928" rx="27.5482" ry="27.5482" style="stroke: #A80036; stroke-width: 3.3057851239669422;" width="233.6088" x="160.8815" y="657.4036"/><line style="stroke: #A80036; stroke-width: 3.3057851239669422;" x1="160.8815" x2="394.4904" y1="715.3581" y2="715.3581"/><text fill="#000000" font-family="sans-serif" font-size="30.854" lengthAdjust="spacingAndGlyphs" textLength="189.5317" x="182.9201" y="697.0622">CapsLockOff</text><rect fill="#FEFECE" filter="url(#f1)" height="110.1928" rx="27.5482" ry="27.5482" style="stroke: #A80036; stroke-width: 3.3057851239669422;" width="235.8127" x="159.7796" y="884.4008"/><line style="stroke: #A80036; stroke-width: 3.3057851239669422;" x1="159.7796" x2="395.5923" y1="942.3554" y2="942.3554"/><text fill="#000000" font-family="sans-serif" font-size="30.854" lengthAdjust="spacingAndGlyphs" textLength="191.7355" x="181.8182" y="924.0595">CapsLockOn</text><path d="M81.6633,712.5 C104.2559,712.5 126.8483,712.5 149.4409,712.5 " fill="none" style="stroke: #A80036; stroke-width: 2.203856749311295;"/><polygon fill="#A80036" points="160.5318,712.5,140.6971,703.6846,149.5125,712.5,140.6971,721.3154,160.5318,712.5" style="stroke: #A80036; stroke-width: 2.203856749311295;"/><path d="M160.3163,759.3782 C141.1694,771.938 123.872,787.6874 112.3967,807.2658 C93.6646,839.2253 115.7441,866.2761 149.228,887.2892 " fill="none" style="stroke: #A80036; stroke-width: 2.203856749311295;"/><polygon fill="#A80036" points="158.9501,893.0549,146.3869,875.3548,149.4723,887.4339,137.3932,890.5193,158.9501,893.0549" style="stroke: #A80036; stroke-width: 2.203856749311295;"/><text fill="#000000" font-family="sans-serif" font-size="28.6501" lengthAdjust="spacingAndGlyphs" textLength="279.8898" x="114.6006" y="836.0634">EvCapsLockPressed</text><path d="M369.2408,883.8164 C393.9813,862.1599 410.5433,835.5808 396.6942,807.2658 C391.1471,795.9244 383.4667,785.5706 374.6512,776.2353 " fill="none" style="stroke: #A80036; stroke-width: 2.203856749311295;"/><polygon fill="#A80036" points="366.2656,767.949,374.1772,788.1613,374.1034,775.6946,386.57,775.6208,366.2656,767.949" style="stroke: #A80036; stroke-width: 2.203856749311295;"/><text fill="#000000" font-family="sans-serif" font-size="28.6501" lengthAdjust="spacingAndGlyphs" textLength="279.8898" x="403.3058" y="836.0634">EvCapsLockPressed</text><line style="stroke: #A80036; stroke-width: 3.3057851239669422; stroke-dasharray: 8.0,10.0;" x1="24.2424" x2="744.9036" y1="1016.6322" y2="1016.6322"/><ellipse cx="59.5041" cy="1089.3595" fill="#000000" filter="url(#f1)" rx="22.0386" ry="22.0386" style="stroke: none; stroke-width: 2.203856749311295;"/><rect fill="#FEFECE" filter="url(#f1)" height="110.1928" rx="27.5482" ry="27.5482" style="stroke: #A80036; stroke-width: 3.3057851239669422;" width="238.0165" x="160.8815" y="1034.2631"/><line style="stroke: #A80036; stroke-width: 3.3057851239669422;" x1="160.8815" x2="398.8981" y1="1092.2176" y2="1092.2176"/><text fill="#000000" font-family="sans-serif" font-size="30.854" lengthAdjust="spacingAndGlyphs" textLength="193.9394" x="182.9201" y="1073.9217">ScrollLockOff</text><rect fill="#FEFECE" filter="url(#f1)" height="110.1928" rx="27.5482" ry="27.5482" style="stroke: #A80036; stroke-width: 3.3057851239669422;" width="240.2204" x="159.7796" y="1261.2603"/><line style="stroke: #A80036; stroke-width: 3.3057851239669422;" x1="159.7796" x2="400" y1="1319.2149" y2="1319.2149"/><text fill="#000000" font-family="sans-serif" font-size="30.854" lengthAdjust="spacingAndGlyphs" textLength="196.1433" x="181.8182" y="1300.919">ScrollLockOn</text><path d="M81.8869,1089.3595 C104.4862,1089.3595 127.0854,1089.3595 149.6846,1089.3595 " fill="none" style="stroke: #A80036; stroke-width: 2.203856749311295;"/><polygon fill="#A80036" points="160.7788,1089.3595,140.9441,1080.5441,149.7596,1089.3595,140.9441,1098.1749,160.7788,1089.3595" style="stroke: #A80036; stroke-width: 2.203856749311295;"/><path d="M160.8599,1137.3375 C142.3753,1149.7143 125.7433,1165.1144 114.6006,1184.1253 C96.2058,1215.5089 117.1656,1242.1593 149.6331,1263.0069 " fill="none" style="stroke: #A80036; stroke-width: 2.203856749311295;"/><polygon fill="#A80036" points="159.0726,1268.7323,146.6856,1250.9084,149.651,1263.0175,137.542,1265.9829,159.0726,1268.7323" style="stroke: #A80036; stroke-width: 2.203856749311295;"/><text fill="#000000" font-family="sans-serif" font-size="28.6501" lengthAdjust="spacingAndGlyphs" textLength="279.8898" x="116.8044" y="1212.9229">EvCapsLockPressed</text><path d="M371.4446,1260.6759 C396.1851,1239.0194 412.7471,1212.4403 398.8981,1184.1253 C393.351,1172.7839 385.6705,1162.4301 376.8551,1153.0948 " fill="none" style="stroke: #A80036; stroke-width: 2.203856749311295;"/><polygon fill="#A80036" points="368.4694,1144.8085,376.381,1165.0208,376.3072,1152.5541,388.7739,1152.4803,368.4694,1144.8085" style="stroke: #A80036; stroke-width: 2.203856749311295;"/><text fill="#000000" font-family="sans-serif" font-size="28.6501" lengthAdjust="spacingAndGlyphs" textLength="279.8898" x="405.5096" y="1212.9229">EvCapsLockPressed</text><path d="M386.7769,62.0628 C386.7769,85.7014 386.7769,128.5201 386.7769,182.0474 " fill="none" style="stroke: #A80036; stroke-width: 2.203856749311295;"/><polygon fill="#A80036" points="386.7769,193.6287,395.5923,173.7939,386.7769,182.6094,377.9614,173.7939,386.7769,193.6287" style="stroke: #A80036; stroke-width: 2.203856749311295;"/></g></svg>