<?xml version="1.0" encoding="UTF-8" standalone="yes"?><svg xmlns="http://www.w3.org/2000/svg" xmlns:xlink="http://www.w3.org/1999/xlink" height="187px" style="width:266px;height:187px;" version="1.1" viewBox="0 0 266 187" width="266px"><defs><filter height="300%" id="f1" width="300%" x="-1" y="-1"><feGaussianBlur result="blurOut" stdDeviation="2.0"/><feColorMatrix in="blurOut" result="blurOut2" type="matrix" values="0 0 0 0 0 0 0 0 0 0 0 0 0 0 0 0 0 0 .4 0"/><feOffset dx="4.0" dy="4.0" in="blurOut2" result="blurOut3"/><feBlend in="SourceGraphic" in2="blurOut3" mode="normal"/></filter></defs><g><ellipse cx="60.5" cy="18" fill="#FEFECE" filter="url(#f1)" rx="8" ry="8" style="stroke: #A80036; stroke-width: 2.0;"/><path d="M60.5,26 L60.5,53 M47.5,34 L73.5,34 M60.5,53 L47.5,68 M60.5,53 L73.5,68 " fill="#FEFECE" filter="url(#f1)" style="stroke: #A80036; stroke-width: 2.0;"/><text fill="#000000" font-family="sans-serif" font-size="14" lengthAdjust="spacingAndGlyphs" textLength="40" x="40.5" y="87.9951">user1</text><ellipse cx="60.6188" cy="165.5236" fill="#FEFECE" filter="url(#f1)" rx="54.6188" ry="14.5236" style="stroke: #A80036; stroke-width: 1.5;"/><text fill="#000000" font-family="sans-serif" font-size="14" lengthAdjust="spacingAndGlyphs" textLength="73" x="24.1188" y="170.1721">Usecase 1</text><ellipse cx="204.5" cy="18" fill="#FEFECE" filter="url(#f1)" rx="8" ry="8" style="stroke: #A80036; stroke-width: 2.0;"/><path d="M204.5,26 L204.5,53 M191.5,34 L217.5,34 M204.5,53 L191.5,68 M204.5,53 L217.5,68 " fill="#FEFECE" filter="url(#f1)" style="stroke: #A80036; stroke-width: 2.0;"/><text fill="#000000" font-family="sans-serif" font-size="14" lengthAdjust="spacingAndGlyphs" textLength="40" x="184.5" y="87.9951">user2</text><ellipse cx="204.6188" cy="165.5236" fill="#FEFECE" filter="url(#f1)" rx="54.6188" ry="14.5236" style="stroke: #A80036; stroke-width: 1.5;"/><text fill="#000000" font-family="sans-serif" font-size="14" lengthAdjust="spacingAndGlyphs" textLength="73" x="168.1188" y="170.1721">Usecase 2</text><path d="M60.5,91.0131 C60.5,109.7085 60.5,130.9929 60.5,145.8259 " fill="none" style="stroke: #A80036; stroke-width: 1.0;"/><polygon fill="#A80036" points="60.5,150.9821,64.5,141.9821,60.5,145.9821,56.5,141.9821,60.5,150.9821" style="stroke: #A80036; stroke-width: 1.0;"/><path d="M204.5,91.0131 C204.5,109.7085 204.5,130.9929 204.5,145.8259 " fill="none" style="stroke: #A80036; stroke-width: 1.0;"/><polygon fill="#A80036" points="204.5,150.9821,208.5,141.9821,204.5,145.9821,200.5,141.9821,204.5,150.9821" style="stroke: #A80036; stroke-width: 1.0;"/></g></svg>