<?xml version="1.0" encoding="UTF-8" standalone="yes"?><svg xmlns="http://www.w3.org/2000/svg" xmlns:xlink="http://www.w3.org/1999/xlink" height="177px" style="width:235px;height:177px;" version="1.1" viewBox="0 0 235 177" width="235px"><defs><filter height="300%" id="f1" width="300%" x="-1" y="-1"><feGaussianBlur result="blurOut" stdDeviation="2.0"/><feColorMatrix in="blurOut" result="blurOut2" type="matrix" values="0 0 0 0 0 0 0 0 0 0 0 0 0 0 0 0 0 0 .4 0"/><feOffset dx="4.0" dy="4.0" in="blurOut2" result="blurOut3"/><feBlend in="SourceGraphic" in2="blurOut3" mode="normal"/></filter></defs><g><ellipse cx="171.4472" cy="22.5236" fill="#FEFECE" filter="url(#f1)" rx="57.4472" ry="14.5236" style="stroke: #A80036; stroke-width: 1.5;"/><text fill="#000000" font-family="sans-serif" font-size="14" lengthAdjust="spacingAndGlyphs" textLength="77" x="132.9472" y="27.1721">Use case 1</text><ellipse cx="171.5" cy="107" fill="#FEFECE" filter="url(#f1)" rx="8" ry="8" style="stroke: #A80036; stroke-width: 2.0;"/><path d="M171.5,115 L171.5,142 M158.5,123 L184.5,123 M171.5,142 L158.5,157 M171.5,142 L184.5,157 " fill="#FEFECE" filter="url(#f1)" style="stroke: #A80036; stroke-width: 2.0;"/><text fill="#000000" font-family="sans-serif" font-size="14" lengthAdjust="spacingAndGlyphs" textLength="31" x="156" y="176.9951">user</text><ellipse cx="63.4472" cy="138.5236" fill="#FEFECE" filter="url(#f1)" rx="57.4472" ry="14.5236" style="stroke: #A80036; stroke-width: 1.5;"/><text fill="#000000" font-family="sans-serif" font-size="14" lengthAdjust="spacingAndGlyphs" textLength="77" x="24.9472" y="143.1721">Use case 2</text><path d="M171.5,42.167 C171.5,56.959 171.5,78.168 171.5,96.8274 " fill="none" style="stroke: #A80036; stroke-width: 1.0; stroke-dasharray: 7.0,7.0;"/><polygon fill="#A80036" points="171.5,37.025,167.5,46.025,171.5,42.025,175.5,46.025,171.5,37.025" style="stroke: #A80036; stroke-width: 1.0;"/><path d="M126.42,138.5 C136.217,138.5 146.014,138.5 155.812,138.5 " fill="none" style="stroke: #A80036; stroke-width: 1.0;"/><polygon fill="#A80036" points="121.297,138.5,130.297,142.5,126.297,138.5,130.297,134.5,121.297,138.5" style="stroke: #A80036; stroke-width: 1.0;"/></g></svg>