<?xml version="1.0" encoding="UTF-8" standalone="yes"?><svg xmlns="http://www.w3.org/2000/svg" xmlns:xlink="http://www.w3.org/1999/xlink" height="222px" style="width:359px;height:222px;" version="1.1" viewBox="0 0 359 222" width="359px"><defs><filter height="300%" id="f1" width="300%" x="-1" y="-1"><feGaussianBlur result="blurOut" stdDeviation="2.0"/><feColorMatrix in="blurOut" result="blurOut2" type="matrix" values="0 0 0 0 0 0 0 0 0 0 0 0 0 0 0 0 0 0 .4 0"/><feOffset dx="4.0" dy="4.0" in="blurOut2" result="blurOut3"/><feBlend in="SourceGraphic" in2="blurOut3" mode="normal"/></filter></defs><g><ellipse cx="40" cy="34.2969" fill="#FEFECE" filter="url(#f1)" rx="8" ry="8" style="stroke: #A80036; stroke-width: 2.0;"/><path d="M40,42.2969 L40,69.2969 M27,50.2969 L53,50.2969 M40,69.2969 L27,84.2969 M40,69.2969 L53,84.2969 " fill="#FEFECE" filter="url(#f1)" style="stroke: #A80036; stroke-width: 2.0;"/><text fill="#000000" font-family="sans-serif" font-size="14" lengthAdjust="spacingAndGlyphs" textLength="32" x="24" y="104.292">User</text><text fill="#000000" font-family="sans-serif" font-size="14" font-style="italic" lengthAdjust="spacingAndGlyphs" textLength="68" x="6" y="20.9951">«Human»</text><ellipse cx="307" cy="34.2969" fill="#FEFECE" filter="url(#f1)" rx="8" ry="8" style="stroke: #A80036; stroke-width: 2.0;"/><path d="M307,42.2969 L307,69.2969 M294,50.2969 L320,50.2969 M307,69.2969 L294,84.2969 M307,69.2969 L320,84.2969 " fill="#FEFECE" filter="url(#f1)" style="stroke: #A80036; stroke-width: 2.0;"/><text fill="#000000" font-family="sans-serif" font-size="14" lengthAdjust="spacingAndGlyphs" textLength="102" x="256" y="104.292">Main Database</text><text fill="#000000" font-family="sans-serif" font-size="14" font-style="italic" lengthAdjust="spacingAndGlyphs" textLength="94" x="260" y="20.9951">«Application»</text><ellipse cx="164.8147" cy="58.2401" fill="#FEFECE" filter="url(#f1)" rx="55.8147" ry="23.7401" style="stroke: #A80036; stroke-width: 1.5;"/><text fill="#000000" font-family="sans-serif" font-size="14" font-style="italic" lengthAdjust="spacingAndGlyphs" textLength="83" x="123.3147" y="58.2087">«One Shot»</text><text fill="#000000" font-family="sans-serif" font-size="14" lengthAdjust="spacingAndGlyphs" textLength="32" x="148.8147" y="74.5056">Start</text><ellipse cx="172.9418" cy="191.7271" fill="#FEFECE" filter="url(#f1)" rx="86.9418" ry="23.7271" style="stroke: #A80036; stroke-width: 1.5;"/><text fill="#000000" font-family="sans-serif" font-size="14" font-style="italic" lengthAdjust="spacingAndGlyphs" textLength="50" x="147.9418" y="184.7375">«Main»</text><text fill="#000000" font-family="sans-serif" font-size="14" lengthAdjust="spacingAndGlyphs" textLength="132" x="106.9418" y="201.0343">Use the application</text><path d="M74.1797,58 C84.0485,58 93.9173,58 103.7861,58 " fill="none" style="stroke: #A80036; stroke-width: 1.0;"/><polygon fill="#A80036" points="108.947,58,99.947,54,103.947,58,99.947,62,108.947,58" style="stroke: #A80036; stroke-width: 1.0;"/><path d="M74.2508,92.865 C97.0023,115.3594 126.399,144.4244 147.184,164.9748 " fill="none" style="stroke: #A80036; stroke-width: 1.0;"/><polygon fill="#A80036" points="150.961,168.7094,147.3737,159.5371,147.4056,165.1938,141.7488,165.2257,150.961,168.7094" style="stroke: #A80036; stroke-width: 1.0;"/><path d="M256.722,108.34 C237.114,127.582 215.465,148.8274 199.094,164.8928 " fill="none" style="stroke: #A80036; stroke-width: 1.0;"/><polygon fill="#A80036" points="195.473,168.4459,204.6979,164.9961,199.0413,164.9434,199.094,159.2868,195.473,168.4459" style="stroke: #A80036; stroke-width: 1.0;"/></g></svg>