<?xml version="1.0" encoding="UTF-8" standalone="yes"?><svg xmlns="http://www.w3.org/2000/svg" xmlns:xlink="http://www.w3.org/1999/xlink" height="206px" style="width:222px;height:206px;" version="1.1" viewBox="0 0 222 206" width="222px"><defs><filter height="300%" id="f1" width="300%" x="-1" y="-1"><feGaussianBlur result="blurOut" stdDeviation="2.0"/><feColorMatrix in="blurOut" result="blurOut2" type="matrix" values="0 0 0 0 0 0 0 0 0 0 0 0 0 0 0 0 0 0 .4 0"/><feOffset dx="4.0" dy="4.0" in="blurOut2" result="blurOut3"/><feBlend in="SourceGraphic" in2="blurOut3" mode="normal"/></filter></defs><g><ellipse cx="26" cy="136" fill="#FEFECE" filter="url(#f1)" rx="8" ry="8" style="stroke: #A80036; stroke-width: 2.0;"/><path d="M26,144 L26,171 M13,152 L39,152 M26,171 L13,186 M26,171 L39,186 " fill="#FEFECE" filter="url(#f1)" style="stroke: #A80036; stroke-width: 2.0;"/><text fill="#000000" font-family="sans-serif" font-size="14" lengthAdjust="spacingAndGlyphs" textLength="40" x="6" y="205.9951">user1</text><ellipse cx="160.6188" cy="167.5236" fill="#FEFECE" filter="url(#f1)" rx="54.6188" ry="14.5236" style="stroke: #A80036; stroke-width: 1.5;"/><text fill="#000000" font-family="sans-serif" font-size="14" lengthAdjust="spacingAndGlyphs" textLength="73" x="124.1188" y="172.1721">Usecase 1</text><ellipse cx="26" cy="18" fill="#FEFECE" filter="url(#f1)" rx="8" ry="8" style="stroke: #A80036; stroke-width: 2.0;"/><path d="M26,26 L26,53 M13,34 L39,34 M26,53 L13,68 M26,53 L39,68 " fill="#FEFECE" filter="url(#f1)" style="stroke: #A80036; stroke-width: 2.0;"/><text fill="#000000" font-family="sans-serif" font-size="14" lengthAdjust="spacingAndGlyphs" textLength="40" x="6" y="87.9951">user2</text><ellipse cx="160.6188" cy="49.5236" fill="#FEFECE" filter="url(#f1)" rx="54.6188" ry="14.5236" style="stroke: #A80036; stroke-width: 1.5;"/><text fill="#000000" font-family="sans-serif" font-size="14" lengthAdjust="spacingAndGlyphs" textLength="73" x="124.1188" y="54.1721">Usecase 2</text><path d="M46.2666,167.5 C60.5688,167.5 80.8899,167.5 100.3784,167.5 " fill="none" style="stroke: #A80036; stroke-width: 1.0;"/><polygon fill="#A80036" points="105.8474,167.5,96.8474,163.5,100.8474,167.5,96.8474,171.5,105.8474,167.5" style="stroke: #A80036; stroke-width: 1.0;"/><path d="M46.2666,49.5 C60.5688,49.5 80.8899,49.5 100.3784,49.5 " fill="none" style="stroke: #A80036; stroke-width: 1.0;"/><polygon fill="#A80036" points="105.8474,49.5,96.8474,45.5,100.8474,49.5,96.8474,53.5,105.8474,49.5" style="stroke: #A80036; stroke-width: 1.0;"/></g></svg>