<?xml version="1.0" encoding="UTF-8" standalone="yes"?><svg xmlns="http://www.w3.org/2000/svg" xmlns:xlink="http://www.w3.org/1999/xlink" height="356px" style="width:304px;height:356px;" version="1.1" viewBox="0 0 304 356" width="304px"><defs><filter height="300%" id="f1" width="300%" x="-1" y="-1"><feGaussianBlur result="blurOut" stdDeviation="2.0"/><feColorMatrix in="blurOut" result="blurOut2" type="matrix" values="0 0 0 0 0 0 0 0 0 0 0 0 0 0 0 0 0 0 .4 0"/><feOffset dx="4.0" dy="4.0" in="blurOut2" result="blurOut3"/><feBlend in="SourceGraphic" in2="blurOut3" mode="normal"/></filter></defs><g><ellipse cx="22" cy="162" fill="#FEFECE" filter="url(#f1)" rx="8" ry="8" style="stroke: #A80036; stroke-width: 2.0;"/><path d="M22,170 L22,197 M9,178 L35,178 M22,197 L9,212 M22,197 L35,212 " fill="#FEFECE" filter="url(#f1)" style="stroke: #A80036; stroke-width: 2.0;"/><text fill="#000000" font-family="sans-serif" font-size="14" lengthAdjust="spacingAndGlyphs" textLength="32" x="6" y="231.9951">User</text><ellipse cx="133.1274" cy="193.5236" fill="#FEFECE" filter="url(#f1)" rx="25.6274" ry="14.5236" style="stroke: #A80036; stroke-width: 1.5;"/><text fill="#000000" font-family="sans-serif" font-size="14" lengthAdjust="spacingAndGlyphs" textLength="32" x="117.1274" y="198.1721">Start</text><ellipse cx="151.0624" cy="330.5125" fill="#FEFECE" filter="url(#f1)" rx="80.5624" ry="18.5125" style="stroke: #A80036; stroke-width: 1.5;"/><text fill="#000000" font-family="sans-serif" font-size="14" lengthAdjust="spacingAndGlyphs" textLength="132" x="85.0624" y="335.1609">Use the application</text><ellipse cx="229" cy="18" fill="#FEFECE" filter="url(#f1)" rx="8" ry="8" style="stroke: #A80036; stroke-width: 2.0;"/><path d="M229,26 L229,53 M216,34 L242,34 M229,53 L216,68 M229,53 L242,68 " fill="#FEFECE" filter="url(#f1)" style="stroke: #A80036; stroke-width: 2.0;"/><text fill="#000000" font-family="sans-serif" font-size="14" lengthAdjust="spacingAndGlyphs" textLength="79" x="189.5" y="87.9951">Main Admin</text><path d="M38.043,193.5 C59.448,193.5 80.853,193.5 102.2581,193.5 " fill="none" style="stroke: #A80036; stroke-width: 1.0;"/><polygon fill="#A80036" points="107.406,193.5,98.406,189.5,102.406,193.5,98.406,197.5,107.406,193.5" style="stroke: #A80036; stroke-width: 1.0;"/><path d="M38.0771,211.325 C61.5094,235.847 105.0352,281.3973 130.664,308.2183 " fill="none" style="stroke: #A80036; stroke-width: 1.0;"/><polygon fill="#A80036" points="134.311,312.0348,130.986,302.7642,130.857,308.4196,125.2016,308.2905,134.311,312.0348" style="stroke: #A80036; stroke-width: 1.0;"/><text fill="#000000" font-family="sans-serif" font-size="13" lengthAdjust="spacingAndGlyphs" textLength="81" x="107" y="278.0669">A small label</text><path d="M230.83,91.18 C231.358,139.214 227.032,220.358 197,282 C192.161,291.933 184.458,301.1114 176.729,308.6985 " fill="none" style="stroke: #A80036; stroke-width: 1.0;"/><polygon fill="#A80036" points="172.945,312.2915,182.2258,308.995,176.5708,308.8487,176.7172,303.1937,172.945,312.2915" style="stroke: #A80036; stroke-width: 1.0;"/><text fill="#000000" font-family="sans-serif" font-size="13" lengthAdjust="spacingAndGlyphs" textLength="39" x="246.5" y="183.0669">This is</text><text fill="#000000" font-family="sans-serif" font-size="13" lengthAdjust="spacingAndGlyphs" textLength="74" x="229" y="198.1997">yet another</text><text fill="#000000" font-family="sans-serif" font-size="13" lengthAdjust="spacingAndGlyphs" textLength="30" x="251" y="213.3325">label</text></g></svg>