<?xml version="1.0" encoding="UTF-8" standalone="yes"?><svg xmlns="http://www.w3.org/2000/svg" xmlns:xlink="http://www.w3.org/1999/xlink" height="300px" style="width:504px;height:300px;" version="1.1" viewBox="0 0 504 300" width="504px"><defs><filter height="300%" id="f1" width="300%" x="-1" y="-1"><feGaussianBlur result="blurOut" stdDeviation="2.0"/><feColorMatrix in="blurOut" result="blurOut2" type="matrix" values="0 0 0 0 0 0 0 0 0 0 0 0 0 0 0 0 0 0 .4 0"/><feOffset dx="4.0" dy="4.0" in="blurOut2" result="blurOut3"/><feBlend in="SourceGraphic" in2="blurOut3" mode="normal"/></filter></defs><g><ellipse cx="278" cy="18" fill="#FEFECE" filter="url(#f1)" rx="8" ry="8" style="stroke: #A80036; stroke-width: 2.0;"/><path d="M278,26 L278,53 M265,34 L291,34 M278,53 L265,68 M278,53 L291,68 " fill="#FEFECE" filter="url(#f1)" style="stroke: #A80036; stroke-width: 2.0;"/><text fill="#000000" font-family="sans-serif" font-size="14" lengthAdjust="spacingAndGlyphs" textLength="79" x="238.5" y="87.9951">Main Admin</text><ellipse cx="143.0624" cy="271.0125" fill="#FEFECE" filter="url(#f1)" rx="80.5624" ry="18.5125" style="stroke: #A80036; stroke-width: 1.5;"/><text fill="#000000" font-family="sans-serif" font-size="14" lengthAdjust="spacingAndGlyphs" textLength="132" x="77.0624" y="275.6609">Use the application</text><ellipse cx="22" cy="18" fill="#FEFECE" filter="url(#f1)" rx="8" ry="8" style="stroke: #A80036; stroke-width: 2.0;"/><path d="M22,26 L22,53 M9,34 L35,34 M22,53 L9,68 M22,53 L35,68 " fill="#FEFECE" filter="url(#f1)" style="stroke: #A80036; stroke-width: 2.0;"/><text fill="#000000" font-family="sans-serif" font-size="14" lengthAdjust="spacingAndGlyphs" textLength="32" x="6" y="87.9951">User</text><ellipse cx="128.1274" cy="49.5236" fill="#FEFECE" filter="url(#f1)" rx="25.6274" ry="14.5236" style="stroke: #A80036; stroke-width: 1.5;"/><text fill="#000000" font-family="sans-serif" font-size="14" lengthAdjust="spacingAndGlyphs" textLength="32" x="112.1274" y="54.1721">Start</text><polygon fill="#FBFB77" filter="url(#f1)" points="352.5,37,352.5,62.1328,495.5,62.1328,495.5,47,485.5,37,352.5,37" style="stroke: #A80036; stroke-width: 1.0;"/><polygon fill="#FBFB77" points="352.5,37,352.5,45.5,317.637,49.5,352.5,53.5,352.5,62.1328,495.5,62.1328,495.5,47,485.5,37,352.5,37" style="stroke: #A80036; stroke-width: 1.0;"/><line style="stroke: #A80036; stroke-width: 1.0;" x1="485.5" x2="485.5" y1="37" y2="47"/><line style="stroke: #A80036; stroke-width: 1.0;" x1="495.5" x2="485.5" y1="47" y2="47"/><text fill="#000000" font-family="sans-serif" font-size="13" lengthAdjust="spacingAndGlyphs" textLength="122" x="358.5" y="54.0669">This is an example.</text><polygon fill="#FBFB77" filter="url(#f1)" points="259,251,259,291.2656,399,291.2656,399,261,389,251,259,251" style="stroke: #A80036; stroke-width: 1.0;"/><polygon fill="#FBFB77" points="259,251,259,267,223.648,271,259,275,259,291.2656,399,291.2656,399,261,389,251,259,251" style="stroke: #A80036; stroke-width: 1.0;"/><line style="stroke: #A80036; stroke-width: 1.0;" x1="389" x2="389" y1="251" y2="261"/><line style="stroke: #A80036; stroke-width: 1.0;" x1="399" x2="389" y1="261" y2="261"/><text fill="#000000" font-family="sans-serif" font-size="13" lengthAdjust="spacingAndGlyphs" textLength="99" x="265" y="268.0669">A note can also</text><text fill="#000000" font-family="sans-serif" font-size="13" lengthAdjust="spacingAndGlyphs" textLength="119" x="265" y="283.1997">be on several lines</text><polygon fill="#FBFB77" filter="url(#f1)" points="61,151,61,191.2656,225,191.2656,225,161,215,151,61,151" style="stroke: #A80036; stroke-width: 1.0;"/><line style="stroke: #A80036; stroke-width: 1.0;" x1="215" x2="215" y1="151" y2="161"/><line style="stroke: #A80036; stroke-width: 1.0;" x1="225" x2="215" y1="161" y2="161"/><text fill="#000000" font-family="sans-serif" font-size="13" lengthAdjust="spacingAndGlyphs" textLength="143" x="67" y="168.0669">This note is connected</text><text fill="#000000" font-family="sans-serif" font-size="13" lengthAdjust="spacingAndGlyphs" textLength="117" x="67" y="183.1997">to several objects.</text><path d="M38.1484,49.5 C57.8857,49.5 77.623,49.5 97.3603,49.5 " fill="none" style="stroke: #A80036; stroke-width: 1.0;"/><polygon fill="#A80036" points="102.3783,49.5,93.3783,45.5,97.3783,49.5,93.3783,53.5,102.3783,49.5" style="stroke: #A80036; stroke-width: 1.0;"/><path d="M20.3365,91.245 C20.8978,120.785 25.4382,160.7 43,191 C57.9777,216.8421 84.9678,237.398 107.136,251.0567 " fill="none" style="stroke: #A80036; stroke-width: 1.0;"/><polygon fill="#A80036" points="111.5,253.6959,105.8682,245.6161,107.2214,251.1087,101.7288,252.4619,111.5,253.6959" style="stroke: #A80036; stroke-width: 1.0;"/><path d="M274.916,91.116 C271.07,120.779 262.426,160.903 243,191 C226.577,216.444 199.129,237.2636 177.14,251.1301 " fill="none" style="stroke: #A80036; stroke-width: 1.0;"/><polygon fill="#A80036" points="172.82,253.81,182.5766,252.4648,177.0689,251.1743,178.3594,245.6666,172.82,253.81" style="stroke: #A80036; stroke-width: 1.0;"/><path d="M129.721,64.208 C132.399,85.543 137.571,126.749 140.61,150.958 " fill="none" style="stroke: #A80036; stroke-width: 1.0; stroke-dasharray: 7.0,7.0;"/><path d="M143,191.3616 C143,209.1002 143,235.1395 143,252.3256 " fill="none" style="stroke: #A80036; stroke-width: 1.0; stroke-dasharray: 7.0,7.0;"/></g></svg>