<?xml version="1.0" encoding="UTF-8" standalone="yes"?><svg xmlns="http://www.w3.org/2000/svg" xmlns:xlink="http://www.w3.org/1999/xlink" height="310px" style="width:334px;height:310px;" version="1.1" viewBox="0 0 334 310" width="334px"><defs><filter height="300%" id="f1" width="300%" x="-1" y="-1"><feGaussianBlur result="blurOut" stdDeviation="2.0"/><feColorMatrix in="blurOut" result="blurOut2" type="matrix" values="0 0 0 0 0 0 0 0 0 0 0 0 0 0 0 0 0 0 .4 0"/><feOffset dx="4.0" dy="4.0" in="blurOut2" result="blurOut3"/><feBlend in="SourceGraphic" in2="blurOut3" mode="normal"/></filter></defs><g><polygon fill="#FFFFFF" filter="url(#f1)" points="119,24,198,24,205,46.2969,249,46.2969,249,303,119,303,119,24" style="stroke: #000000; stroke-width: 2.0;"/><line style="stroke: #000000; stroke-width: 2.0;" x1="119" x2="205" y1="46.2969" y2="46.2969"/><text fill="#000000" font-family="sans-serif" font-size="14" font-weight="bold" lengthAdjust="spacingAndGlyphs" textLength="73" x="123" y="38.9951">checkout</text><ellipse cx="183.9619" cy="173.0236" fill="#FEFECE" filter="url(#f1)" rx="48.9619" ry="14.5236" style="stroke: #A80036; stroke-width: 1.5;"/><text fill="#000000" font-family="sans-serif" font-size="14" lengthAdjust="spacingAndGlyphs" textLength="65" x="151.4619" y="177.6721">checkout</text><ellipse cx="183.9264" cy="74.0236" fill="#FEFECE" filter="url(#f1)" rx="45.4264" ry="14.5236" style="stroke: #A80036; stroke-width: 1.5;"/><text fill="#000000" font-family="sans-serif" font-size="14" lengthAdjust="spacingAndGlyphs" textLength="60" x="153.9264" y="78.6721">payment</text><ellipse cx="184.2132" cy="272.0236" fill="#FEFECE" filter="url(#f1)" rx="24.2132" ry="14.5236" style="stroke: #A80036; stroke-width: 1.5;"/><text fill="#000000" font-family="sans-serif" font-size="14" lengthAdjust="spacingAndGlyphs" textLength="30" x="169.2132" y="276.6721">help</text><ellipse cx="39" cy="141.5" fill="#FEFECE" filter="url(#f1)" rx="8" ry="8" style="stroke: #A80036; stroke-width: 2.0;"/><path d="M39,149.5 L39,176.5 M26,157.5 L52,157.5 M39,176.5 L26,191.5 M39,176.5 L52,191.5 " fill="#FEFECE" filter="url(#f1)" style="stroke: #A80036; stroke-width: 2.0;"/><text fill="#000000" font-family="sans-serif" font-size="14" lengthAdjust="spacingAndGlyphs" textLength="66" x="6" y="211.4951">customer</text><ellipse cx="312.5" cy="141.5" fill="#FEFECE" filter="url(#f1)" rx="8" ry="8" style="stroke: #A80036; stroke-width: 2.0;"/><path d="M312.5,149.5 L312.5,176.5 M299.5,157.5 L325.5,157.5 M312.5,176.5 L299.5,191.5 M312.5,176.5 L325.5,191.5 " fill="#FEFECE" filter="url(#f1)" style="stroke: #A80036; stroke-width: 2.0;"/><text fill="#000000" font-family="sans-serif" font-size="14" lengthAdjust="spacingAndGlyphs" textLength="33" x="296" y="211.4951">clerk</text><path d="M72.092,173 C90.6198,173 114.282,173 134.988,173 " fill="none" style="stroke: #A80036; stroke-width: 1.0;"/><path d="M184,158.392 C184,141.283 184,112.859 184,93.783 " fill="none" style="stroke: #A80036; stroke-width: 1.0; stroke-dasharray: 7.0,7.0;"/><polygon fill="#A80036" points="184,88.668,180,97.668,184,93.668,188,97.668,184,88.668" style="stroke: #A80036; stroke-width: 1.0;"/><text fill="#000000" font-family="sans-serif" font-size="13" lengthAdjust="spacingAndGlyphs" textLength="22" x="161.5" y="128.0669">&lt;&gt;</text><path d="M184,257.3922 C184,240.2832 184,211.859 184,192.783 " fill="none" style="stroke: #A80036; stroke-width: 1.0; stroke-dasharray: 7.0,7.0;"/><polygon fill="#A80036" points="184,187.668,180,196.668,184,192.668,188,196.668,184,187.668" style="stroke: #A80036; stroke-width: 1.0;"/><text fill="#000000" font-family="sans-serif" font-size="13" lengthAdjust="spacingAndGlyphs" textLength="22" x="161.5" y="227.0669">&lt;&gt;</text><path d="M233.185,173 C255.388,173 280.222,173 295.853,173 " fill="none" style="stroke: #A80036; stroke-width: 1.0;"/></g></svg>