<?xml version="1.0" encoding="UTF-8" standalone="yes"?><svg xmlns="http://www.w3.org/2000/svg" xmlns:xlink="http://www.w3.org/1999/xlink" height="231px" style="width:288px;height:231px;" version="1.1" viewBox="0 0 288 231" width="288px"><defs><filter height="300%" id="f1" width="300%" x="-1" y="-1"><feGaussianBlur result="blurOut" stdDeviation="2.0"/><feColorMatrix in="blurOut" result="blurOut2" type="matrix" values="0 0 0 0 0 0 0 0 0 0 0 0 0 0 0 0 0 0 .4 0"/><feOffset dx="4.0" dy="4.0" in="blurOut2" result="blurOut3"/><feBlend in="SourceGraphic" in2="blurOut3" mode="normal"/></filter></defs><g><ellipse cx="45.5" cy="161" fill="#FEFECE" filter="url(#f1)" rx="8" ry="8" style="stroke: #A80036; stroke-width: 2.0;"/><path d="M45.5,169 L45.5,196 M32.5,177 L58.5,177 M45.5,196 L32.5,211 M45.5,196 L58.5,211 " fill="#FEFECE" filter="url(#f1)" style="stroke: #A80036; stroke-width: 2.0;"/><text fill="#000000" font-family="sans-serif" font-size="14" lengthAdjust="spacingAndGlyphs" textLength="79" x="6" y="230.9951">Main Admin</text><ellipse cx="200.5624" cy="192.5125" fill="#FEFECE" filter="url(#f1)" rx="80.5624" ry="18.5125" style="stroke: #A80036; stroke-width: 1.5;"/><text fill="#000000" font-family="sans-serif" font-size="14" lengthAdjust="spacingAndGlyphs" textLength="132" x="134.5624" y="197.1609">Use the application</text><ellipse cx="45.5" cy="18" fill="#FEFECE" filter="url(#f1)" rx="8" ry="8" style="stroke: #A80036; stroke-width: 2.0;"/><path d="M45.5,26 L45.5,53 M32.5,34 L58.5,34 M45.5,53 L32.5,68 M45.5,53 L58.5,68 " fill="#FEFECE" filter="url(#f1)" style="stroke: #A80036; stroke-width: 2.0;"/><text fill="#000000" font-family="sans-serif" font-size="14" lengthAdjust="spacingAndGlyphs" textLength="32" x="29.5" y="87.9951">User</text><ellipse cx="200.6274" cy="49.5236" fill="#FEFECE" filter="url(#f1)" rx="25.6274" ry="14.5236" style="stroke: #A80036; stroke-width: 1.5;"/><text fill="#000000" font-family="sans-serif" font-size="14" lengthAdjust="spacingAndGlyphs" textLength="32" x="184.6274" y="54.1721">Start</text><path d="M45.5,111.507 C45.5,124.795 45.5,138.5397 45.5,150.8086 " fill="none" style="stroke: #A80036; stroke-width: 1.0;"/><polygon fill="none" points="38.5001,111.283,45.5,91.283,52.5001,111.283,38.5001,111.283" style="stroke: #A80036; stroke-width: 1.0;"/><path d="M200.5,84.138 C200.5,112.332 200.5,151.468 200.5,173.8696 " fill="none" style="stroke: #A80036; stroke-width: 1.0;"/><polygon fill="none" points="193.5,84.02,200.5,64.02,207.5,84.02,193.5,84.02" style="stroke: #A80036; stroke-width: 1.0;"/></g></svg>