<?xml version="1.0" encoding="UTF-8" standalone="yes"?><svg xmlns="http://www.w3.org/2000/svg" xmlns:xlink="http://www.w3.org/1999/xlink" height="277px" style="width:352px;height:277px;" version="1.1" viewBox="0 0 352 277" width="352px"><defs><filter height="300%" id="f1" width="300%" x="-1" y="-1"><feGaussianBlur result="blurOut" stdDeviation="2.0"/><feColorMatrix in="blurOut" result="blurOut2" type="matrix" values="0 0 0 0 0 0 0 0 0 0 0 0 0 0 0 0 0 0 .4 0"/><feOffset dx="4.0" dy="4.0" in="blurOut2" result="blurOut3"/><feBlend in="SourceGraphic" in2="blurOut3" mode="normal"/></filter></defs><g><ellipse cx="169.5" cy="107" fill="#FEFECE" filter="url(#f1)" rx="8" ry="8" style="stroke: #A80036; stroke-width: 2.0;"/><path d="M169.5,115 L169.5,142 M156.5,123 L182.5,123 M169.5,142 L156.5,157 M169.5,142 L182.5,157 " fill="#FEFECE" filter="url(#f1)" style="stroke: #A80036; stroke-width: 2.0;"/><text fill="#000000" font-family="sans-serif" font-size="14" lengthAdjust="spacingAndGlyphs" textLength="31" x="154" y="176.9951">user</text><ellipse cx="62.7401" cy="138.5236" fill="#FEFECE" filter="url(#f1)" rx="56.7401" ry="14.5236" style="stroke: #A80036; stroke-width: 1.5;"/><text fill="#000000" font-family="sans-serif" font-size="14" lengthAdjust="spacingAndGlyphs" textLength="76" x="24.7401" y="143.1721">dummyLeft</text><ellipse cx="282.6001" cy="138.42" fill="#FEFECE" filter="url(#f1)" rx="62.6001" ry="14.92" style="stroke: #A80036; stroke-width: 1.5;"/><text fill="#000000" font-family="sans-serif" font-size="14" lengthAdjust="spacingAndGlyphs" textLength="87" x="239.1001" y="143.0685">dummyRight</text><ellipse cx="169.4975" cy="22.5236" fill="#FEFECE" filter="url(#f1)" rx="52.4975" ry="14.5236" style="stroke: #A80036; stroke-width: 1.5;"/><text fill="#000000" font-family="sans-serif" font-size="14" lengthAdjust="spacingAndGlyphs" textLength="70" x="134.4975" y="27.1721">dummyUp</text><ellipse cx="169.5752" cy="255.215" fill="#FEFECE" filter="url(#f1)" rx="64.0752" ry="15.215" style="stroke: #A80036; stroke-width: 1.5;"/><text fill="#000000" font-family="sans-serif" font-size="14" lengthAdjust="spacingAndGlyphs" textLength="91" x="124.0752" y="259.8635">dummyDown</text><path d="M124.462,138.5 C134.25,138.5 144.038,138.5 153.826,138.5 " fill="none" style="stroke: #A80036; stroke-width: 1.0;"/><polygon fill="#A80036" points="119.344,138.5,128.344,142.5,124.344,138.5,128.344,134.5,119.344,138.5" style="stroke: #A80036; stroke-width: 1.0;"/><path d="M185.391,138.5 C195.189,138.5 204.988,138.5 214.786,138.5 " fill="none" style="stroke: #A80036; stroke-width: 1.0;"/><polygon fill="#A80036" points="219.91,138.5,210.91,134.5,214.91,138.5,210.91,142.5,219.91,138.5" style="stroke: #A80036; stroke-width: 1.0;"/><path d="M169.5,42.167 C169.5,56.959 169.5,78.168 169.5,96.827 " fill="none" style="stroke: #A80036; stroke-width: 1.0;"/><polygon fill="#A80036" points="169.5,37.025,165.5,46.025,169.5,42.025,173.5,46.025,169.5,37.025" style="stroke: #A80036; stroke-width: 1.0;"/><path d="M169.5,180.1908 C169.5,198.7392 169.5,219.8249 169.5,234.6961 " fill="none" style="stroke: #A80036; stroke-width: 1.0;"/><polygon fill="#A80036" points="169.5,239.8775,173.5,230.8775,169.5,234.8775,165.5,230.8775,169.5,239.8775" style="stroke: #A80036; stroke-width: 1.0;"/></g></svg>