<?xml version="1.0" encoding="UTF-8" standalone="yes"?><svg xmlns="http://www.w3.org/2000/svg" xmlns:xlink="http://www.w3.org/1999/xlink" height="187px" style="width:235px;height:187px;" version="1.1" viewBox="0 0 235 187" width="235px"><defs><filter height="300%" id="f1" width="300%" x="-1" y="-1"><feGaussianBlur result="blurOut" stdDeviation="2.0"/><feColorMatrix in="blurOut" result="blurOut2" type="matrix" values="0 0 0 0 0 0 0 0 0 0 0 0 0 0 0 0 0 0 .4 0"/><feOffset dx="4.0" dy="4.0" in="blurOut2" result="blurOut3"/><feBlend in="SourceGraphic" in2="blurOut3" mode="normal"/></filter></defs><g><ellipse cx="63.5" cy="18" fill="#FEFECE" filter="url(#f1)" rx="8" ry="8" style="stroke: #A80036; stroke-width: 2.0;"/><path d="M63.5,26 L63.5,53 M50.5,34 L76.5,34 M63.5,53 L50.5,68 M63.5,53 L76.5,68 " fill="#FEFECE" filter="url(#f1)" style="stroke: #A80036; stroke-width: 2.0;"/><text fill="#000000" font-family="sans-serif" font-size="14" lengthAdjust="spacingAndGlyphs" textLength="31" x="48" y="87.9951">user</text><ellipse cx="63.4472" cy="165.5236" fill="#FEFECE" filter="url(#f1)" rx="57.4472" ry="14.5236" style="stroke: #A80036; stroke-width: 1.5;"/><text fill="#000000" font-family="sans-serif" font-size="14" lengthAdjust="spacingAndGlyphs" textLength="77" x="24.9472" y="170.1721">Use case 1</text><ellipse cx="171.4472" cy="49.5236" fill="#FEFECE" filter="url(#f1)" rx="57.4472" ry="14.5236" style="stroke: #A80036; stroke-width: 1.5;"/><text fill="#000000" font-family="sans-serif" font-size="14" lengthAdjust="spacingAndGlyphs" textLength="77" x="132.9472" y="54.1721">Use case 2</text><path d="M63.5,91.0131 C63.5,109.7085 63.5,130.9929 63.5,145.8259 " fill="none" style="stroke: #A80036; stroke-width: 1.0;"/><polygon fill="#A80036" points="63.5,150.9821,67.5,141.9821,63.5,145.9821,59.5,141.9821,63.5,150.9821" style="stroke: #A80036; stroke-width: 1.0;"/><path d="M79.1094,49.5 C88.9439,49.5 98.7785,49.5 108.613,49.5 " fill="none" style="stroke: #A80036; stroke-width: 1.0;"/><polygon fill="#A80036" points="113.756,49.5,104.756,45.5,108.756,49.5,104.756,53.5,113.756,49.5" style="stroke: #A80036; stroke-width: 1.0;"/></g></svg>